<svg width="563" height="385" viewBox="0 0 563 385" fill="none" xmlns="http://www.w3.org/2000/svg">
<path d="M307.622 330.766C423.685 330.766 517.772 327.437 517.772 323.33C517.772 319.224 423.685 315.895 307.622 315.895C191.559 315.895 97.4717 319.224 97.4717 323.33C97.4717 327.437 191.559 330.766 307.622 330.766Z" fill="url(#paint0_linear_1122_37)" fill-opacity="0.4"/>
<path d="M119.441 272.158C119.441 272.158 131.059 250.102 161.481 228.585C182.958 213.393 193.385 174.185 193.385 174.185C193.385 174.185 150.556 179.255 133.733 207.478C116.91 235.7 119.441 272.158 119.441 272.158Z" fill="#8FF3C9" fill-opacity="0.8"/>
<path d="M119.241 273.031C119.536 273.01 119.786 272.792 119.831 272.504C124.344 248.581 136.597 230.584 146.095 219.688C156.389 207.9 165.705 201.696 165.8 201.639C166.1 201.434 166.187 201.027 165.984 200.724C165.936 200.651 165.875 200.589 165.804 200.54C165.733 200.492 165.653 200.458 165.569 200.441C165.484 200.423 165.398 200.423 165.313 200.44C165.229 200.457 165.149 200.49 165.077 200.538C164.982 200.595 155.508 206.894 145.108 218.824C135.502 229.827 123.098 248.035 118.54 272.246C118.523 272.331 118.523 272.418 118.54 272.503C118.557 272.588 118.59 272.668 118.638 272.739C118.687 272.811 118.749 272.871 118.821 272.918C118.892 272.965 118.973 272.996 119.057 273.011C119.141 273.022 119.191 273.035 119.241 273.031Z" fill="white"/>
<path d="M124.765 271.283C124.765 271.283 127.989 263.439 145.076 264.122C162.163 264.789 172.248 273.587 201.183 254.398C201.183 254.398 177.236 237.09 153.029 242.638C128.804 248.171 127.586 257.762 124.765 271.283Z" fill="#8FF3C9" fill-opacity="0.8"/>
<path d="M125.449 272.155C125.66 272.14 125.863 272.008 125.978 271.797C126.051 271.674 132.752 258.888 144.753 255.723C165.725 250.186 180.656 256.111 180.808 256.184C180.968 256.246 181.146 256.241 181.302 256.17C181.459 256.099 181.582 255.967 181.646 255.803C181.706 255.64 181.702 255.459 181.637 255.299C181.571 255.138 181.448 255.009 181.293 254.939C181.142 254.883 165.824 248.785 144.436 254.437C131.874 257.744 125.131 270.633 124.843 271.175C124.67 271.507 124.795 271.901 125.117 272.079C125.203 272.14 125.335 272.164 125.449 272.155Z" fill="white"/>
<path d="M117.772 269.533C117.772 269.533 118.653 260.994 103.477 253.299C88.3006 245.603 75.4002 248.53 59.2637 217.413C59.2637 217.413 88.222 213.642 106.679 230.338C125.133 247 121.668 256.128 117.772 269.533Z" fill="#8FF3C9" fill-opacity="0.8"/>
<path d="M117.934 270.388C118.259 270.364 118.534 270.08 118.527 269.75C118.533 269.138 118.564 254.739 109.052 245.804C92.8319 230.576 76.5049 228.447 76.3561 228.424C76.188 228.405 76.0191 228.453 75.8858 228.559C75.7526 228.664 75.6656 228.818 75.6437 228.988C75.6248 229.158 75.6726 229.329 75.777 229.463C75.8813 229.598 76.0339 229.686 76.2017 229.708C76.3669 229.729 92.2815 231.822 108.187 246.759C117.295 255.31 117.256 269.594 117.25 269.743C117.248 269.829 117.263 269.915 117.294 269.995C117.325 270.075 117.372 270.148 117.431 270.21C117.49 270.272 117.561 270.321 117.639 270.355C117.717 270.389 117.801 270.407 117.887 270.408C117.885 270.392 117.902 270.39 117.934 270.388Z" fill="white"/>
<path d="M124.761 329.016C146.97 329.016 161.104 325.406 158.838 309.418C157.399 299.267 149.655 289.336 144.189 283.422C143.486 282.663 142.77 281.917 142.041 281.183C140.011 279.142 138.648 277.957 138.648 277.957L138.583 277.584L138.196 275.346L137.745 272.767L136.725 266.863L136.37 264.801L124.761 264.284L112.646 264.801L112.368 266.863L111.938 270.111L111.229 275.357L110.929 277.595L110.885 277.968C110.885 277.968 109.522 279.142 107.492 281.194C106.766 281.93 106.049 282.677 105.343 283.433C99.8773 289.336 92.134 299.278 90.6949 309.429C88.4177 325.406 102.552 329.016 124.761 329.016Z" fill="#94939F"/>
<path d="M108.511 268.658H141.796C143.579 268.658 145.038 267.008 145.038 264.993V262.701C145.038 260.685 143.579 259.036 141.796 259.036H108.511C106.729 259.036 105.27 260.685 105.27 262.701V264.993C105.27 267.008 106.729 268.658 108.511 268.658Z" fill="#94939F"/>
<path d="M102.932 186.432C102.932 189.815 100.137 192.555 96.6862 192.555C93.235 192.555 90.4551 189.802 90.4551 186.432C90.4551 183.047 93.2492 180.308 96.7004 180.308C100.152 180.308 102.932 183.047 102.932 186.432Z" stroke="#5385F7" stroke-width="5.225" stroke-miterlimit="10"/>
<path d="M143.499 147.243C134.041 155.846 117.772 152.583 117.772 152.583C117.772 152.583 116.847 135.373 126.313 126.775C135.771 118.172 152.033 121.429 152.033 121.429C152.033 121.429 152.957 138.639 143.499 147.243Z" fill="url(#paint1_linear_1122_37)"/>
<path d="M179.645 96.1134C179.158 97.9779 180.238 99.8943 182.057 100.394C183.877 100.893 185.748 99.787 186.235 97.9226C186.723 96.0581 185.643 94.1417 183.823 93.6421C182.004 93.1426 180.133 94.249 179.645 96.1134Z" fill="#F1A045"/>
<path d="M192.036 140.35C191.548 142.214 192.628 144.131 194.448 144.63C196.268 145.13 198.138 144.023 198.626 142.159C199.114 140.294 198.034 138.378 196.214 137.878C194.394 137.379 192.524 138.485 192.036 140.35Z" fill="#F1A045"/>
<path d="M259.846 107.615C259.358 109.48 260.438 111.396 262.258 111.896C264.077 112.395 265.948 111.289 266.435 109.425C266.923 107.56 265.843 105.644 264.023 105.144C262.204 104.645 260.333 105.751 259.846 107.615Z" fill="#F1A045"/>
<path d="M382.777 184.619C382.457 185.845 383.167 187.104 384.362 187.432C385.558 187.76 386.787 187.033 387.107 185.808C387.428 184.583 386.718 183.324 385.522 182.996C384.327 182.667 383.098 183.394 382.777 184.619Z" fill="#F1A045"/>
<path d="M383.723 240.322C383.235 242.186 384.315 244.102 386.135 244.602C387.954 245.102 389.825 243.995 390.312 242.131C390.8 240.266 389.72 238.35 387.9 237.85C386.081 237.351 384.21 238.457 383.723 240.322Z" fill="#F1A045"/>
<path d="M410.623 219.812C410.135 221.676 411.215 223.593 413.035 224.092C414.855 224.592 416.725 223.485 417.213 221.621C417.7 219.757 416.621 217.84 414.801 217.341C412.981 216.841 411.111 217.947 410.623 219.812Z" fill="#F1A045"/>
<path d="M362.716 145.755V158.186L351.68 171.56H398.04C412.052 171.56 423.419 160.003 423.419 145.755C423.419 131.507 412.052 119.95 398.04 119.95H388.096C374.074 119.95 362.716 131.507 362.716 145.755Z" fill="#024DFA"/>
<path d="M382.38 145.318C382.379 146.477 381.912 147.589 381.081 148.409C380.25 149.23 379.123 149.69 377.947 149.691C376.772 149.69 375.645 149.229 374.814 148.409C373.982 147.589 373.515 146.477 373.515 145.318C373.515 144.158 373.982 143.046 374.814 142.226C375.645 141.406 376.772 140.945 377.947 140.944C379.123 140.945 380.25 141.406 381.081 142.226C381.912 143.046 382.379 144.158 382.38 145.318ZM397.441 145.317C397.441 146.477 396.974 147.589 396.143 148.409C395.312 149.229 394.185 149.69 393.009 149.69C391.834 149.69 390.707 149.229 389.876 148.409C389.044 147.589 388.577 146.477 388.577 145.317C388.577 144.157 389.044 143.045 389.876 142.225C390.707 141.405 391.834 140.944 393.009 140.943C394.185 140.944 395.312 141.405 396.143 142.225C396.974 143.045 397.441 144.157 397.441 145.317ZM412.504 145.317C412.503 146.477 412.036 147.589 411.205 148.409C410.374 149.229 409.246 149.69 408.071 149.69C406.896 149.69 405.768 149.229 404.937 148.409C404.106 147.589 403.639 146.477 403.639 145.317C403.639 144.157 404.106 143.045 404.937 142.225C405.769 141.405 406.896 140.944 408.071 140.943C409.246 140.944 410.374 141.405 411.205 142.225C412.036 143.045 412.503 144.157 412.504 145.317Z" fill="white"/>
<path d="M401.03 283.286L392.229 287.028L392.787 276.77L401.586 273.032L401.03 283.286V283.286Z" stroke="#5385F7" stroke-width="4.267" stroke-linecap="round" stroke-linejoin="round"/>
<path fill-rule="evenodd" clip-rule="evenodd" d="M207.422 107.51V82.6271C207.422 80.0496 209.385 77.962 211.808 77.962H238.125C240.549 77.962 242.512 80.0496 242.512 82.6271V107.51C242.512 108.342 242.303 109.158 241.906 109.875C241.51 110.592 240.939 111.183 240.255 111.588L227.097 119.362C226.445 119.748 225.712 119.95 224.966 119.95C224.22 119.95 223.487 119.748 222.835 119.362L209.676 111.588C208.993 111.182 208.424 110.591 208.027 109.874C207.631 109.157 207.422 108.341 207.422 107.51Z" fill="#024DFA"/>
<path d="M217.558 105.08H232.373M217.558 98.1847H232.373H217.558ZM217.558 91.084H232.373H217.558Z" stroke="white" stroke-width="3.682" stroke-linecap="round" stroke-linejoin="round"/>
<path d="M421.782 179.831L410.392 191.501C409.977 191.926 409.977 192.615 410.392 193.04C410.807 193.465 411.479 193.465 411.894 193.04L423.284 181.37C423.699 180.945 423.699 180.256 423.284 179.831C422.869 179.406 422.197 179.406 421.782 179.831Z" fill="#F1A045"/>
<path d="M420.665 188.187L417.381 191.551C416.966 191.976 416.966 192.665 417.381 193.09C417.795 193.515 418.468 193.515 418.883 193.09L422.167 189.725C422.581 189.301 422.581 188.612 422.167 188.187C421.752 187.762 421.079 187.762 420.665 188.187Z" fill="#F1A045"/>
<path d="M450.712 321.094C452.889 304.48 456.089 281.554 459.714 256.243C463.333 230.944 466.584 208.034 468.859 191.431C469.987 183.147 470.896 176.436 471.529 171.775C471.843 169.469 472.089 167.673 472.26 166.428C472.344 165.835 472.414 165.374 472.46 165.038C472.513 164.729 472.546 164.563 472.546 164.563C472.546 164.563 472.539 164.721 472.509 165.043C472.472 165.378 472.422 165.844 472.358 166.44C472.207 167.689 471.99 169.487 471.716 171.801C471.156 176.453 470.298 183.179 469.204 191.483C467.027 208.097 463.825 231.014 460.209 256.322C456.592 281.631 453.333 304.543 451.066 321.143" fill="white"/>
<path d="M449.723 206.551C449.756 206.533 449.986 206.833 450.401 207.407C450.814 207.971 451.382 208.808 452.07 209.848C453.448 211.936 455.28 214.863 457.244 218.146C459.155 221.376 460.892 224.3 462.228 226.558C462.828 227.553 463.332 228.397 463.751 229.098C464.116 229.695 464.299 230.039 464.266 230.057C464.233 230.077 463.994 229.778 463.582 229.214C463.178 228.646 462.61 227.81 461.928 226.759C460.566 224.657 458.772 221.699 456.82 218.422L451.781 210.055C451.181 209.061 450.668 208.219 450.249 207.518C449.883 206.911 449.699 206.568 449.723 206.551ZM465.624 229.868C465.547 229.751 471.218 225.571 478.297 220.547C485.374 215.514 491.182 211.532 491.259 211.649C491.337 211.765 485.663 215.936 478.587 220.969C471.501 226.004 465.702 229.984 465.624 229.868ZM458.356 268.574C458.346 268.537 458.71 268.397 459.361 268.158C460.121 267.898 461.057 267.579 462.156 267.196C464.514 266.385 467.776 265.244 471.326 263.856C474.878 262.477 478.055 261.115 480.354 260.113C481.423 259.65 482.328 259.251 483.071 258.927C483.713 258.65 484.079 258.52 484.095 258.545C484.113 258.579 483.773 258.772 483.157 259.11C482.279 259.575 481.393 260.021 480.497 260.447C477.549 261.86 474.55 263.158 471.507 264.337C468.465 265.52 465.381 266.588 462.264 267.54C461.064 267.902 460.088 268.172 459.42 268.348C458.743 268.526 458.365 268.611 458.356 268.574ZM439.492 250.754C439.514 250.728 439.798 250.944 440.306 251.364C440.806 251.787 441.518 252.406 442.393 253.177C444.668 255.198 446.925 257.239 449.163 259.302C451.406 261.361 453.632 263.441 455.84 265.541C456.51 266.178 457.173 266.824 457.826 267.481C458.288 267.943 458.531 268.22 458.508 268.246C458.487 268.271 458.203 268.055 457.694 267.635C457.194 267.213 456.483 266.593 455.608 265.822C453.333 263.802 451.076 261.76 448.838 259.697C446.216 257.285 443.855 255.075 442.17 253.456C441.499 252.819 440.837 252.173 440.184 251.517C439.713 251.056 439.462 250.782 439.492 250.754ZM428.879 284.078C428.901 284.052 429.269 284.334 429.913 284.874C430.623 285.484 431.527 286.258 432.596 287.192C434.848 289.165 437.937 291.911 441.328 294.976C444.718 298.042 447.772 300.837 449.965 302.877C450.997 303.85 451.866 304.672 452.548 305.32C453.145 305.902 453.472 306.244 453.45 306.271C453.429 306.296 453.06 306.014 452.417 305.474C451.707 304.864 450.803 304.091 449.734 303.158C446.805 300.585 443.894 297.989 441.002 295.372C438.106 292.758 435.226 290.125 432.364 287.472C431.332 286.499 430.463 285.677 429.782 285.029C429.175 284.449 428.857 284.104 428.879 284.078ZM453.002 305.567C452.993 305.531 453.447 305.336 454.266 305.011C455.183 304.658 456.359 304.204 457.77 303.665C460.727 302.521 464.815 300.934 469.273 299.049C473.083 297.441 476.868 295.769 480.625 294.032C481.765 293.513 482.905 292.991 484.042 292.464C484.852 292.102 485.306 291.907 485.324 291.942C485.342 291.976 484.912 292.223 484.128 292.647C483.343 293.071 482.194 293.666 480.768 294.366C477.049 296.201 473.279 297.922 469.463 299.528C465.647 301.137 461.787 302.63 457.886 304.007C456.705 304.424 455.518 304.822 454.324 305.201C453.489 305.463 453.019 305.592 453.002 305.567Z" fill="white"/>
<path d="M446.772 164.563H446.852C447.321 171.362 452.271 171.467 452.271 171.467C452.271 171.467 446.813 171.576 446.813 179.433C446.813 171.576 441.354 171.467 441.354 171.467C441.354 171.467 446.302 171.362 446.772 164.563Z" fill="#F1A045"/>
<path d="M287.384 163.991L277.887 199.691L281.275 195.681C280.022 196.367 278.569 196.894 276.96 197.267C275.351 197.64 273.602 197.854 271.771 197.953C269.939 198.052 268.034 198.037 266.077 197.953C264.127 197.869 262.132 197.717 260.108 197.541H260.101C258.667 197.416 257.243 197.881 256.142 198.835C255.041 199.788 254.353 201.151 254.229 202.626C253.985 205.554 256.008 208.146 258.782 208.61C260.872 208.953 262.993 209.274 265.172 209.533C267.352 209.792 269.583 209.982 271.896 210.036C274.21 210.09 276.605 209.998 279.081 209.632C281.55 209.266 284.114 208.603 286.621 207.49C287.383 207.152 288.067 206.653 288.629 206.025C289.191 205.398 289.618 204.655 289.883 203.846L290.001 203.472L301.396 168.359C302.679 164.41 300.603 160.149 296.763 158.83C292.923 157.511 288.778 159.646 287.495 163.594C287.458 163.724 287.414 163.869 287.384 163.991Z" fill="#F8AE9D"/>
<path d="M336.074 207.314C336.074 207.314 336.439 212.461 332.766 213.821L294.545 215.298C294.545 215.298 291.976 212.797 292.482 206.802C292.482 206.788 308.725 190.161 336.074 207.314Z" fill="#024EFB"/>
<path d="M308.049 212.768C308.177 213.735 308.613 214.476 309.026 214.417C309.432 214.366 309.665 213.537 309.537 212.577C309.409 211.609 308.973 210.868 308.56 210.927C308.146 210.978 307.921 211.807 308.049 212.768Z" fill="#B55E63"/>
<path d="M291.469 200.411V200.464C291.484 200.61 291.491 200.763 291.499 200.924C291.537 201.537 291.567 202.273 291.59 203.109C291.613 203.784 291.62 204.52 291.628 205.309C291.628 205.9 291.635 206.513 291.635 207.149C302.597 202.358 325.012 205.762 334.036 207.425C333.945 206.965 333.862 206.513 333.779 206.068C333.718 205.739 333.665 205.417 333.604 205.095C333.007 201.591 332.688 198.441 332.583 195.627L332.56 194.876C332.469 190.698 332.916 184.757 333.824 178.639C333.885 178.218 333.953 177.796 334.013 177.382L334.15 176.554C334.479 174.522 334.866 172.5 335.308 170.491C335.459 169.816 335.588 169.134 335.694 168.459C335.815 167.708 335.906 166.956 335.974 166.213C336.141 164.327 336.126 162.487 335.883 160.777C335.452 157.734 334.278 155.112 332.106 153.426C330.879 152.475 329.328 151.816 327.405 151.555C326.776 151.471 326.156 151.387 325.557 151.318C323.672 151.088 321.939 150.927 320.531 150.812C320.069 150.773 319.638 150.743 319.252 150.712C318.267 150.643 317.54 150.597 317.185 150.582C317.099 150.578 317.013 150.573 316.928 150.566L300.099 155.281L298.494 155.726C297.812 155.94 297.169 156.147 296.571 156.347C295.087 156.845 293.823 157.32 292.733 157.787C291.385 158.37 290.311 158.937 289.463 159.535C285.753 162.134 286.283 165.132 286.298 171.035V171.441C286.298 171.886 286.29 172.33 286.276 172.775C286.261 173.334 286.23 173.886 286.185 174.438C286.109 175.55 286.762 176.635 286.625 177.723C288.39 185.384 288.831 187.94 289.463 192.731C290.01 196.884 289.902 199.246 291.052 200.104C291.31 200.304 291.469 200.411 291.469 200.411Z" fill="#024DFA"/>
<path d="M316.591 150.966C316.591 150.966 315.158 156.859 309.747 158.494C302.866 160.568 301.83 158.056 301.83 158.056C302.001 156.99 302.063 155.906 302.017 154.824C302 154.393 301.968 153.962 301.923 153.533C301.801 152.328 301.57 151.014 301.247 149.51C301.175 149.159 301.088 148.791 301.002 148.415L300.995 148.368C305.702 146.443 309.394 143.555 311.654 139.283L312.323 138.711L312.777 138.32L312.906 138.617L312.928 139.611C313.021 144.283 313.748 147.046 316.591 150.966Z" fill="#F8AE9D"/>
<path d="M283.523 292.276C283.662 292.276 283.801 292.254 283.939 292.203L332.961 274.547C333.261 274.429 333.504 274.199 333.636 273.905C333.769 273.612 333.783 273.278 333.673 272.975C333.564 272.672 333.341 272.423 333.051 272.282C332.761 272.141 332.428 272.118 332.121 272.218L283.099 289.875C282.825 289.974 282.594 290.166 282.448 290.418C282.302 290.671 282.249 290.966 282.3 291.253C282.351 291.54 282.501 291.8 282.725 291.987C282.949 292.175 283.231 292.277 283.523 292.276Z" fill="#666AF6"/>
<path d="M334.826 292.277C335.122 292.276 335.409 292.169 335.636 291.976C335.862 291.783 336.014 291.516 336.065 291.221C336.116 290.927 336.062 290.623 335.913 290.365C335.764 290.106 335.529 289.908 335.25 289.807L284.72 271.347C284.408 271.243 284.068 271.265 283.772 271.41C283.476 271.554 283.247 271.81 283.135 272.121C283.022 272.433 283.035 272.777 283.17 273.08C283.305 273.382 283.551 273.62 283.857 273.742L334.387 292.201C334.543 292.254 334.684 292.277 334.826 292.277Z" fill="#666AF6"/>
<path d="M278.948 325.512C279.461 325.511 279.956 325.319 280.342 324.972C280.728 324.625 280.979 324.146 281.048 323.623L289.918 255.528H327.032L335.763 323.623C335.799 323.907 335.889 324.181 336.028 324.429C336.168 324.677 336.353 324.895 336.574 325.069C336.795 325.243 337.047 325.37 337.317 325.444C337.586 325.518 337.866 325.536 338.142 325.498C338.418 325.461 338.685 325.368 338.926 325.225C339.167 325.082 339.378 324.891 339.547 324.664C339.717 324.437 339.841 324.177 339.912 323.9C339.984 323.624 340.002 323.335 339.964 323.052L330.992 253.06C330.924 252.536 330.674 252.054 330.288 251.705C329.902 251.357 329.405 251.164 328.891 251.163H288.059C287.546 251.162 287.05 251.354 286.663 251.701C286.277 252.049 286.027 252.529 285.959 253.052L276.84 323.044C276.766 323.618 276.916 324.198 277.258 324.658C277.599 325.118 278.104 325.42 278.662 325.498C278.757 325.512 278.852 325.512 278.948 325.512Z" fill="#666AF6"/>
<path d="M300.215 252.912H327.019C335.512 252.912 344.605 248.181 345.907 239.63C347.55 228.831 348.115 217.891 347.593 206.976C347.046 195.487 341.66 184.804 332.79 177.684C332.79 177.684 327.433 201.446 334.165 234.25C331.606 246.72 300.215 252.912 300.215 252.912Z" fill="#666AF6"/>
<path d="M238.236 295.775H250.143C250.143 295.775 252.903 282.245 253.823 274.65C254.75 267.064 255.229 249.073 255.229 249.073C255.229 249.073 264.723 252.23 284.593 251.039C328.617 248.41 311.926 215.298 311.926 215.298C310.439 217.4 301.329 215.946 295.102 216.948C275.99 218.824 259.409 226.509 249.466 230.901C247.067 231.956 244.94 233.078 243.078 234.253C240.679 235.768 239.178 240.356 238.273 246.398C235.55 264.547 238.236 295.775 238.236 295.775Z" fill="#2F2E41"/>
<path d="M238.612 312.396H247.025L248.645 301.653L249.529 295.776H239.076L238.914 301.653L238.612 312.396Z" fill="#F8AE9D"/>
<path d="M238.612 312.396H246.458L247.585 304.578L247.97 301.899H238.894L238.818 304.68L238.612 312.396Z" fill="url(#paint2_linear_1122_37)"/>
<path d="M217.1 325.517H249.845C250.088 325.063 250.225 324.413 250.277 323.637C250.482 320.77 249.603 316.204 249.163 313.321C249.111 312.984 249.065 312.671 249.027 312.389C248.966 311.903 248.928 311.504 248.928 311.214C248.928 308.864 246.913 309.263 246.913 309.263C243.601 312.624 239.85 307.587 237.66 309.24C237.66 309.24 237.569 309.31 237.372 309.467C237.19 309.616 236.909 309.851 236.523 310.188C235.962 310.674 235.181 311.371 234.121 312.358C231.521 314.778 227.103 316.368 223.337 317.998C222.859 318.201 222.412 318.412 221.996 318.616C221.685 318.773 221.389 318.93 221.109 319.086C218.032 320.801 217.054 322.447 216.834 323.637C216.615 324.788 217.1 325.517 217.1 325.517Z" fill="#31446C"/>
<path d="M217.1 325.515H249.876C250.118 324.882 250.255 323.975 250.308 322.893H216.834C216.615 324.499 217.1 325.515 217.1 325.515Z" fill="#31446C"/>
<path d="M318.478 160.271L307.893 200.206L311.667 195.721C310.27 196.49 308.652 197.073 306.861 197.494C305.071 197.908 303.116 198.152 301.082 198.255C299.041 198.366 296.914 198.344 294.737 198.255C292.559 198.159 290.339 197.997 288.083 197.797H288.069C284.739 197.502 281.81 200.051 281.523 203.486C281.251 206.759 283.507 209.663 286.601 210.18C288.929 210.565 291.299 210.927 293.726 211.215C296.155 211.503 298.647 211.725 301.225 211.784C303.803 211.843 306.474 211.739 309.232 211.326C311.989 210.912 314.847 210.173 317.64 208.932C319.43 208.134 320.698 206.619 321.278 204.86L321.414 204.447L334.104 165.162C335.53 160.743 333.224 155.978 328.941 154.5C324.665 153.03 320.039 155.409 318.607 159.827C318.564 159.968 318.513 160.137 318.478 160.271Z" fill="#F8AE9D"/>
<path d="M259.292 295.775H271.2C271.2 295.775 273.959 282.244 274.879 274.65C275.807 267.063 276.285 249.072 276.285 249.072C276.285 249.072 285.778 252.229 305.648 251.039C349.671 248.409 332.98 215.298 332.98 215.298C331.494 217.4 320.337 220.301 314.111 221.303C295 223.178 280.465 226.501 270.523 230.901C268.124 231.956 265.997 233.078 264.135 234.253C261.736 235.768 260.235 240.356 259.329 246.398C256.6 264.547 259.292 295.775 259.292 295.775Z" fill="#2F2E41"/>
<path d="M258.888 312.396H267.903L269.638 301.658L270.584 295.776H259.393L259.211 301.658L258.888 312.396Z" fill="#F8AE9D"/>
<path d="M258.888 312.396H268.042L269.347 304.578L269.805 301.899H259.216L259.128 304.68L258.888 312.396Z" fill="url(#paint3_linear_1122_37)"/>
<path d="M238.917 325.517H270.142C270.374 325.063 270.503 324.413 270.554 323.637C270.749 320.771 269.911 316.204 269.492 313.321C269.442 312.984 269.398 312.671 269.362 312.389C269.304 311.904 269.268 311.504 269.268 311.214C269.268 308.864 267.346 309.263 267.346 309.263C264.188 312.624 260.611 307.587 258.522 309.24C258.522 309.24 258.436 309.31 258.248 309.467C258.074 309.616 257.807 309.851 257.438 310.188C256.903 310.674 256.159 311.371 255.148 312.357C252.669 314.778 248.456 316.368 244.865 317.997C244.409 318.201 243.983 318.413 243.585 318.616C243.289 318.773 243.007 318.93 242.74 319.086C239.806 320.802 238.874 322.446 238.664 323.637C238.462 324.781 238.917 325.517 238.917 325.517Z" fill="#31446C"/>
<path d="M238.917 325.516H270.171C270.403 325.093 270.532 324.489 270.583 323.767H238.664C238.462 324.831 238.917 325.516 238.917 325.516Z" fill="#31446C"/>
<path d="M193.385 214.471V217.875C193.385 219.837 194.557 221.421 196.013 221.421H378.682C380.132 221.421 381.311 219.837 381.311 217.875V214.471C381.311 212.517 380.139 210.924 378.682 210.924H196.013C194.564 210.934 193.385 212.517 193.385 214.471Z" fill="#A5B6A9"/>
<path d="M202.513 226.687H367.325C368.064 226.687 368.664 226.188 368.664 225.568V219.672H201.182V225.568C201.182 226.188 201.781 226.687 202.513 226.687ZM376.233 326.392L352.883 227.386H361.088L384.43 326.392H376.233ZM216.296 326.392L239.645 227.386H231.448L208.099 326.392H216.296Z" fill="#FFB8B8"/>
<path d="M216.062 158.829L224.532 196.744L224.759 197.741L225.328 200.291C225.447 200.828 225.734 201.306 226.143 201.648C226.551 201.99 227.056 202.177 227.577 202.177H284.64C286.129 202.177 287.239 200.701 286.896 199.163L277.63 157.701C277.511 157.164 277.224 156.686 276.816 156.344C276.407 156.001 275.902 155.815 275.381 155.815H218.318C216.821 155.822 215.719 157.299 216.062 158.829Z" fill="#6D6E7E"/>
<path d="M244.096 180.745C244.354 183.407 246.473 185.556 248.83 185.556C251.186 185.556 252.88 183.399 252.622 180.745C252.364 178.083 250.245 175.934 247.889 175.934C245.532 175.934 243.838 178.083 244.096 180.745Z" fill="#F2F2F2"/>
<path d="M272.974 155.815L282.942 201.321H284.624C286.129 201.321 287.243 199.873 286.896 198.363L277.533 157.666C277.413 157.139 277.123 156.67 276.71 156.334C276.298 155.998 275.787 155.815 275.261 155.815H272.974ZM256.314 200.952L257.896 210.05H252.671L251.09 200.952H256.314Z" fill="#31446C"/>
<path d="M265.707 209.728L264.534 207.703C264.326 207.346 264.052 207.056 263.734 206.855C263.417 206.655 263.065 206.551 262.708 206.551H246.966C246.557 206.549 246.156 206.686 245.807 206.947C245.458 207.207 245.174 207.581 244.986 208.027L244.194 209.891C243.82 210.764 244.341 211.799 245.14 211.799H264.835C265.7 211.799 266.206 210.593 265.707 209.728Z" fill="#31446C"/>
<path d="M298.148 149.691C298.148 149.691 313.73 148.122 312.635 138.111C311.541 128.099 312.813 121.154 302.819 121.733C292.825 122.312 291.309 126.356 290.89 129.789C290.47 133.223 294.069 149.84 298.148 149.691Z" fill="#F8AE9D"/>
<path d="M284.62 120.824C284.62 120.824 286.273 130.93 289.421 131.299C292.57 131.667 291.441 127.418 291.441 127.418L290.592 122.624L284.62 120.824Z" fill="#002C54"/>
<path d="M311.742 117.939C311.314 114.44 307.578 113.456 307.578 113.456C303.829 112.139 296.431 113.551 288.891 115.953C287.115 116.516 284.75 115.641 283.574 116.619C282.152 117.801 284.121 122.415 284.121 122.415C287.942 130.994 298.596 127.098 301.782 125.698C302.784 127.904 302.987 131.08 305.086 132.542C306.288 133.371 308.214 133.22 310.152 132.713C310.432 133.14 311.382 133.459 311.624 134.061C312.442 136.076 312.662 139.323 312.883 141.819L313.77 141.284C313.823 140.591 321.269 117.353 311.742 117.939Z" fill="#002C54"/>
<path d="M166.056 119.95H146.638C139.726 119.95 134.123 125.638 134.123 132.654V141.361C134.123 148.377 139.726 154.065 146.638 154.065H166.056C172.967 154.065 178.57 148.377 178.57 141.361V132.654C178.57 125.638 172.967 119.95 166.056 119.95Z" fill="#024EFB"/>
<path d="M160.077 149.198L159.628 148.738C157.918 146.986 155.145 146.986 153.435 148.738L152.986 149.198C151.276 150.95 151.276 153.791 152.986 155.543L153.435 156.003C155.145 157.755 157.918 157.755 159.628 156.003L160.077 155.543C161.787 153.791 161.787 150.95 160.077 149.198Z" fill="#024EFB"/>
<path fill-rule="evenodd" clip-rule="evenodd" d="M161.22 126.948C165.071 126.948 167.653 130.695 167.653 134.185C167.653 141.268 156.932 147.067 156.736 147.067C156.541 147.067 145.819 141.268 145.819 134.185C145.819 130.695 148.401 126.948 152.253 126.948C154.454 126.948 155.9 128.086 156.736 129.1C157.572 128.086 159.018 126.948 161.22 126.948Z" fill="white"/>
<defs>
<linearGradient id="paint0_linear_1122_37" x1="316.583" y1="339.103" x2="316.567" y2="299.712" gradientUnits="userSpaceOnUse">
<stop stop-color="#D3CFCF"/>
<stop offset="1" stop-color="#EEEEEE"/>
</linearGradient>
<linearGradient id="paint1_linear_1122_37" x1="106.154" y1="176.229" x2="180.878" y2="80.6004" gradientUnits="userSpaceOnUse">
<stop stop-color="#8FF3C9"/>
<stop offset="1" stop-color="#EEEEEE"/>
</linearGradient>
<linearGradient id="paint2_linear_1122_37" x1="243.092" y1="318.282" x2="243.455" y2="290.481" gradientUnits="userSpaceOnUse">
<stop stop-color="white"/>
<stop offset="1" stop-color="#EEEEEE"/>
</linearGradient>
<linearGradient id="paint3_linear_1122_37" x1="264.113" y1="318.281" x2="264.425" y2="290.48" gradientUnits="userSpaceOnUse">
<stop stop-color="white"/>
<stop offset="1" stop-color="#EEEEEE"/>
</linearGradient>
</defs>
</svg>
