<svg width="42" height="37" viewBox="0 0 42 37" fill="none" xmlns="http://www.w3.org/2000/svg">
<path d="M36.3985 9.36621C34.1976 7.16405 31.4089 5.64363 28.3661 4.98799C25.3236 4.33204 22.1566 4.56841 19.2445 5.669C16.333 6.76928 13.8002 8.68685 11.9508 11.1914C11.8278 11.1321 11.6929 11.1009 11.5565 11.1001H3.05211C2.54232 11.1011 2.12946 11.5148 2.12946 12.0252C2.12946 12.5353 2.54229 12.9492 3.05211 12.95H10.8231C9.64135 15.0819 8.95647 17.4537 8.81975 19.8876H0.925983C0.680496 19.887 0.445069 19.9843 0.271272 20.158C0.0974741 20.3314 0 20.567 0 20.8127C0 21.0583 0.0974741 21.2937 0.271272 21.4673C0.445069 21.6407 0.680496 21.738 0.925983 21.7375H8.81975C8.95642 24.1716 9.64128 26.5433 10.8231 28.675H3.05211C2.54232 28.6761 2.12946 29.09 2.12946 29.6001C2.12946 30.1103 2.54229 30.5242 3.05211 30.5252H11.5565C11.6929 30.5245 11.8278 30.4932 11.9508 30.4336C13.7194 32.8286 16.1139 34.6888 18.8709 35.8095C21.6277 36.9304 24.6402 37.2685 27.5766 36.7867C30.5131 36.3049 33.2601 35.0219 35.5146 33.0786C37.7696 31.1355 39.4452 28.6074 40.3569 25.7731C41.269 22.9385 41.3816 19.9069 40.6831 17.0123C39.9846 14.1178 38.5016 11.4718 36.3975 9.36591L36.3985 9.36621ZM35.0914 30.9511C32.405 33.6368 28.7627 35.1451 24.9651 35.1438C21.1678 35.1425 17.5261 33.6322 14.8414 30.9447C12.1565 28.2574 10.6485 24.6128 10.6485 20.8125C10.6485 17.0123 12.1565 13.3676 14.8414 10.6803C17.526 7.99277 21.1675 6.48245 24.9651 6.4812C28.7626 6.48017 32.4047 7.98814 35.0914 10.6739C37.7745 13.365 39.2811 17.011 39.2811 20.8127C39.2811 24.614 37.7745 28.2603 35.0914 30.9508V30.9511Z" fill="white"/>
<path d="M20.3385 1.84861H29.5822C30.0928 1.84861 30.5067 1.43501 30.5067 0.924439C30.5067 0.413872 30.0928 0 29.5822 0H20.3385C19.8279 0 19.4141 0.413865 19.4141 0.924439C19.4141 1.43501 19.8279 1.84861 20.3385 1.84861Z" fill="white"/>
<path d="M30.5464 13.9143L24.3077 20.1575L24.3069 20.158V20.1582C24.0712 20.4023 23.9866 20.7554 24.0856 21.08C24.1849 21.4046 24.4521 21.6497 24.7839 21.7204C24.9598 21.7545 25.1421 21.7369 25.3081 21.6696C25.4226 21.6231 25.5268 21.554 25.614 21.4665L31.8535 15.2226V15.2223C32.0273 15.0489 32.125 14.8136 32.1253 14.5679C32.1255 14.3225 32.028 14.087 31.8545 13.9133C31.681 13.7396 31.4455 13.6421 31.2003 13.6423C30.9548 13.6426 30.7196 13.7404 30.5464 13.9143L30.5464 13.9143Z" fill="white"/>
</svg>
