<svg width="42" height="38" viewBox="0 0 42 38" fill="none" xmlns="http://www.w3.org/2000/svg">
<path d="M36.3985 9.41152C34.1976 7.20935 31.4089 5.68892 28.3661 5.03328C25.3236 4.37733 22.1566 4.6137 19.2445 5.71429C16.333 6.81458 13.8002 8.73216 11.9508 11.2367C11.8278 11.1774 11.6929 11.1462 11.5565 11.1454H3.05211C2.54232 11.1464 2.12946 11.5601 2.12946 12.0705C2.12946 12.5807 2.54229 12.9945 3.05211 12.9953H10.8231C9.64135 15.1273 8.95647 17.499 8.81976 19.9329H0.925984C0.680496 19.9324 0.44507 20.0297 0.271272 20.2033C0.0974741 20.3768 0 20.6123 0 20.858C0 21.1037 0.0974741 21.339 0.271272 21.5127C0.44507 21.6861 0.680496 21.7834 0.925984 21.7828H8.81976C8.95642 24.217 9.64128 26.5887 10.8231 28.7204H3.05211C2.54232 28.7215 2.12946 29.1354 2.12946 29.6455C2.12946 30.1557 2.54229 30.5696 3.05211 30.5706H11.5565C11.6929 30.5699 11.8278 30.5386 11.9508 30.479C13.7194 32.8739 16.1139 34.7342 18.8709 35.8549C21.6277 36.9759 24.6402 37.3139 27.5766 36.8321C30.5131 36.3503 33.2601 35.0673 35.5146 33.124C37.7696 31.1809 39.4452 28.6528 40.3569 25.8184C41.269 22.9838 41.3816 19.9523 40.6831 17.0576C39.9846 14.1632 38.5016 11.5171 36.3975 9.41122L36.3985 9.41152ZM35.0914 30.9965C32.405 33.6822 28.7627 35.1905 24.9651 35.1892C21.1678 35.1879 17.5261 33.6776 14.8414 30.9901C12.1565 28.3028 10.6485 24.6581 10.6485 20.8579C10.6485 17.0577 12.1565 13.4129 14.8414 10.7256C17.526 8.03807 21.1675 6.52775 24.9651 6.52649C28.7626 6.52546 32.4047 8.03345 35.0914 10.7192C37.7745 13.4104 39.2811 17.0563 39.2811 20.8581C39.2811 24.6593 37.7745 28.3056 35.0914 30.9962V30.9965Z" fill="white"/>
<path d="M20.3385 1.89402H29.5822C30.0928 1.89402 30.5067 1.48042 30.5067 0.969849C30.5067 0.459282 30.0928 0.0454102 29.5822 0.0454102H20.3385C19.8279 0.0454102 19.4141 0.459275 19.4141 0.969849C19.4141 1.48042 19.8279 1.89402 20.3385 1.89402V1.89402Z" fill="white"/>
<path d="M30.5463 13.9597L24.3077 20.2028L24.3069 20.2034V20.2036C24.0712 20.4477 23.9866 20.8007 24.0856 21.1253C24.1849 21.45 24.4521 21.6951 24.7839 21.7658C24.9598 21.7999 25.1421 21.7823 25.3081 21.715C25.4226 21.6685 25.5268 21.5994 25.614 21.5119L31.8534 15.268V15.2677C32.0272 15.0943 32.125 14.859 32.1252 14.6133C32.1255 14.3679 32.028 14.1323 31.8545 13.9587C31.6809 13.785 31.4455 13.6875 31.2003 13.6877C30.9548 13.688 30.7196 13.7858 30.5464 13.9597L30.5463 13.9597Z" fill="white"/>
</svg>
