<svg width="47" height="49" viewBox="0 0 47 49" fill="none" xmlns="http://www.w3.org/2000/svg">
<path d="M40.9987 47.9994H29.9993C29.447 47.9994 28.9992 47.5516 28.9992 46.9992V29.4997C28.9992 26.4669 26.5321 23.9998 23.4993 23.9998C20.4664 23.9998 17.9994 26.4672 17.9994 29.4997V46.9992C17.9994 47.5515 17.5519 47.9994 16.9996 47.9994H5.99921C5.4469 47.9994 4.99902 47.5516 4.99902 46.9992V13.9991C4.99902 13.4468 5.44688 12.9993 5.99921 12.9993H40.9993C41.5516 12.9993 41.9995 13.4468 41.9995 13.9991V46.9992C41.9991 47.5512 41.5513 47.999 40.9989 47.999L40.9987 47.9994ZM30.9988 45.9994H39.9987L39.9991 14.9993H6.99899V45.9994H15.9989V29.4994C15.9989 25.3639 19.3636 21.9995 23.4988 21.9995C27.6343 21.9995 30.9986 25.3642 30.9986 29.4994L30.9988 45.9994Z" fill="#024EFB" stroke="#F8F8F8" stroke-width="0.5"/>
<path d="M44.9998 14.9983H1.99979C1.44748 14.9983 1 14.5504 1 13.9981V9.99825C1 9.44594 1.44747 8.99807 1.99979 8.99807H44.9998C45.5521 8.99807 46 9.44554 46 9.99825V13.9981C45.9996 14.5508 45.5521 14.9983 44.9998 14.9983ZM2.99929 12.9983H43.9993V10.9983H2.99929V12.9983Z" fill="#024EFB" stroke="#F8F8F8" stroke-width="0.5"/>
<path d="M40.9993 10.9993H5.99921C5.4469 10.9993 4.99902 10.5518 4.99902 9.99953V5.99928C4.99902 5.44697 5.44688 4.99949 5.99921 4.99949H40.9993C41.5516 4.99949 41.9995 5.44696 41.9995 5.99928V9.99914C41.9991 10.5514 41.5513 10.9993 40.9989 10.9993H40.9993ZM6.99969 8.99935H39.9998L40.0002 6.99937H7.00008L6.99969 8.99935Z" fill="#024EFB" stroke="#F8F8F8" stroke-width="0.5"/>
<path d="M36.0012 6.99937H35.9992H10.999C10.6244 6.99937 10.2814 6.79009 10.1099 6.45709C9.93836 6.12409 9.96765 5.72325 10.1854 5.41842L13.0425 1.41856C13.2302 1.15571 13.5332 1 13.8561 1H33.1416C33.4645 1 33.7675 1.15609 33.9552 1.41856L36.7795 5.37254C36.9179 5.54405 37.0004 5.7622 37.0004 5.99962C37.0004 6.55154 36.5529 6.99941 36.0006 6.99941L36.0012 6.99937ZM12.9417 4.9991H34.0555L32.6268 2.99912H14.3704L12.9417 4.9991Z" fill="#024EFB" stroke="#F8F8F8" stroke-width="0.5"/>
<path d="M40.9989 18.9992H10.9992C10.4469 18.9992 9.99902 18.5518 9.99902 17.9994C9.99902 17.4471 10.4469 16.9993 10.9992 16.9993H40.9989C41.5512 16.9993 41.9991 17.4467 41.9991 17.9994C41.9987 18.5514 41.5508 18.9992 40.9985 18.9992H40.9989Z" fill="#024EFB" stroke="#F8F8F8" stroke-width="0.5"/>
<path d="M42.9995 33.9996H27.9992C27.4469 33.9996 26.999 33.5517 26.999 32.9994C26.999 32.4471 27.4465 31.9992 27.9992 31.9992H42.9995C43.5518 31.9992 43.9993 32.4471 43.9993 32.9994C43.9993 33.5517 43.5519 33.9996 42.9995 33.9996Z" fill="#024EFB" stroke="#F8F8F8" stroke-width="0.5"/>
<path d="M42.9995 36.999H27.9992C27.4469 36.999 26.999 36.5512 26.999 35.9989C26.999 35.4466 27.4465 34.9987 27.9992 34.9987H42.9995C43.5518 34.9987 43.9993 35.4465 43.9993 35.9989C43.9993 36.5516 43.5519 36.999 42.9995 36.999Z" fill="#024EFB" stroke="#F8F8F8" stroke-width="0.5"/>
<path d="M18.9995 33.9996H3.99921C3.4469 33.9996 2.99902 33.5517 2.99902 32.9994C2.99902 32.4471 3.4465 31.9992 3.99921 31.9992H18.9995C19.5518 31.9992 19.9993 32.4471 19.9993 32.9994C19.9997 33.5517 19.5519 33.9996 18.9995 33.9996Z" fill="#024EFB" stroke="#F8F8F8" stroke-width="0.5"/>
<path d="M18.9995 36.999H3.99921C3.4469 36.999 2.99902 36.5512 2.99902 35.9989C2.99902 35.4466 3.4465 34.9987 3.99921 34.9987H18.9995C19.5518 34.9987 19.9993 35.4465 19.9993 35.9989C19.9997 36.5516 19.5519 36.999 18.9995 36.999Z" fill="#024EFB" stroke="#F8F8F8" stroke-width="0.5"/>
<path d="M34.9991 29.9986C33.3448 29.9986 31.999 28.6527 31.999 26.9986C31.999 25.3443 33.3449 23.9985 34.9991 23.9985C36.6533 23.9985 37.9992 25.3444 37.9992 26.9986C37.9992 28.6528 36.6532 29.9986 34.9991 29.9986ZM34.9991 25.9988C34.4476 25.9988 33.9989 26.4474 33.9989 26.999C33.9989 27.5505 34.4475 27.9991 34.9991 27.9991C35.5506 27.9991 35.9993 27.5505 35.9993 26.999C35.9989 26.4474 35.5503 25.9988 34.9991 25.9988Z" fill="#024EFB" stroke="#F8F8F8" stroke-width="0.5"/>
<path d="M12.0001 29.9986C10.3458 29.9986 9 28.6527 9 26.9986C9 25.3443 10.3459 23.9985 12.0001 23.9985C13.6543 23.9985 15.0001 25.3444 15.0001 26.9986C15.0001 28.6528 13.6542 29.9986 12.0001 29.9986ZM12.0001 25.9988C11.4485 25.9988 10.9999 26.4474 10.9999 26.999C10.9999 27.5505 11.4485 27.9991 12.0001 27.9991C12.5516 27.9991 12.9999 27.5505 12.9999 26.999C13.0002 26.4474 12.5516 25.9988 12.0001 25.9988Z" fill="#024EFB" stroke="#F8F8F8" stroke-width="0.5"/>
</svg>
