<svg width="13" height="9" viewBox="0 0 13 9" fill="none" xmlns="http://www.w3.org/2000/svg">
<path d="M0.951256 0C0.826627 0 0.708411 0.0286129 0.599477 0.0756967L6.11848 5.20311C6.36 5.42779 6.62939 5.42791 6.87158 5.20311L12.3954 0.0704426C12.2881 0.0249264 12.171 0.000179679 12.0486 0.000179679L0.951256 0ZM0.00995268 0.88699C0.0035388 0.936005 0 0.987317 0 1.03838V7.96147C0 8.53674 0.424195 9 0.951268 9H12.0487C12.5757 9 13 8.53689 13 7.96147V1.03838C13 0.987317 12.9966 0.936005 12.99 0.88699L7.49086 5.99277C6.92078 6.52205 6.06928 6.52288 5.4992 5.99277L0.00995268 0.88699Z" fill="#0275FB"/>
</svg>
