<svg width="635" height="378" viewBox="0 0 635 378" fill="none" xmlns="http://www.w3.org/2000/svg">
<g clip-path="url(#clip0_587_186)">
<path d="M194.017 82.2938C203.218 78.3998 214.752 78.828 222.279 85.394C211.577 87.2738 201.886 92.8757 194.92 101.209C192.245 104.432 189.605 108.296 185.492 109.095C182.932 109.592 180.258 108.736 178.073 107.315C175.888 105.893 174.11 103.941 172.357 102.012L171.747 101.786C177.63 93.7149 184.817 86.1877 194.017 82.2938Z" fill="#F0F0F0"/>
<path d="M222.164 85.5689C214.066 83.8921 205.645 84.8078 198.097 88.1861C196.459 88.8845 194.941 89.8365 193.6 91.0072C192.331 92.1897 191.401 93.6904 190.908 95.3533C190.418 96.8945 190.094 98.5279 189.237 99.9232C188.788 100.631 188.194 101.236 187.494 101.698C186.794 102.16 186.005 102.469 185.177 102.605C183.124 102.997 181.052 102.629 179.039 102.198C176.803 101.72 174.488 101.188 172.216 101.749C171.94 101.817 171.851 101.386 172.126 101.318C176.08 100.342 179.904 102.515 183.86 102.319C185.706 102.227 187.536 101.579 188.641 100.026C189.608 98.6677 189.943 96.9837 190.426 95.4188C190.883 93.7895 191.733 92.2969 192.9 91.0712C194.177 89.8361 195.656 88.8272 197.271 88.0878C200.883 86.365 204.743 85.2203 208.71 84.6957C213.234 84.0719 217.832 84.2261 222.304 85.1516C222.581 85.209 222.439 85.6259 222.164 85.5689L222.164 85.5689Z" fill="white"/>
<path d="M200.463 86.9553C200.067 85.6129 200.163 84.1738 200.731 82.8949C201.3 81.6161 202.305 80.5809 203.566 79.9741C203.822 79.8522 204.024 80.2436 203.768 80.3657C202.592 80.9285 201.656 81.893 201.129 83.0849C200.602 84.2768 200.518 85.6177 200.894 86.8656C200.975 87.1368 200.544 87.2251 200.463 86.9553V86.9553Z" fill="white"/>
<path d="M191.054 94.539C193.555 95.931 196.489 96.3298 199.271 95.6561C199.546 95.5891 199.636 96.02 199.36 96.0869C196.464 96.7826 193.412 96.3613 190.813 94.9071C190.565 94.7684 190.808 94.401 191.054 94.539Z" fill="white"/>
<path d="M213.077 84.6341C213.122 85.1853 213.303 85.7169 213.604 86.181C213.905 86.6451 214.316 87.0272 214.802 87.2931C215.051 87.4287 214.808 87.7959 214.56 87.6612C214.026 87.365 213.571 86.9424 213.238 86.4304C212.904 85.9183 212.701 85.3324 212.646 84.7238C212.636 84.6669 212.648 84.6083 212.68 84.5599C212.711 84.5116 212.76 84.4771 212.817 84.4635C212.874 84.4519 212.933 84.4633 212.982 84.4953C213.031 84.5272 213.065 84.5771 213.077 84.6341V84.6341Z" fill="white"/>
<path d="M221.379 119.189C221.221 119.109 221.063 119.028 220.901 118.95C218.771 117.882 216.557 116.989 214.281 116.28C214.106 116.222 213.928 116.167 213.752 116.114C208.252 114.464 202.493 113.848 196.768 114.298C194.49 114.48 192.229 114.834 190.005 115.358C186.933 116.082 183.66 117.111 180.618 116.788C180.301 116.758 179.985 116.708 179.673 116.639L171.518 102.547C171.515 102.506 171.51 102.466 171.507 102.425L171.156 101.877C171.269 101.842 171.386 101.808 171.499 101.773C171.565 101.752 171.632 101.735 171.697 101.714C171.741 101.702 171.785 101.689 171.825 101.675C171.839 101.671 171.854 101.667 171.866 101.664C171.905 101.65 171.942 101.641 171.978 101.629C172.636 101.438 173.296 101.251 173.959 101.068C173.962 101.066 173.962 101.066 173.967 101.067C179.004 99.6259 184.194 98.7868 189.428 98.5675C189.585 98.563 189.744 98.5566 189.904 98.5586C192.246 98.5044 194.588 98.6415 196.908 98.9687C198.178 99.1519 199.437 99.3993 200.681 99.7097C203.896 100.518 206.962 101.827 209.769 103.588C215.365 107.099 219.775 112.359 221.269 118.703C221.307 118.865 221.344 119.025 221.379 119.189Z" fill="#F0F0F0"/>
<path d="M221.181 119.261C215.725 113.049 208.45 108.714 200.388 106.87C198.66 106.442 196.874 106.289 195.098 106.417C193.372 106.598 191.726 107.237 190.33 108.268C189.01 109.203 187.768 110.313 186.243 110.911C185.458 111.206 184.619 111.331 183.782 111.279C182.945 111.227 182.128 110.999 181.386 110.61C179.51 109.687 178.077 108.147 176.729 106.591C175.232 104.864 173.705 103.047 171.552 102.127C171.292 102.016 171.48 101.618 171.74 101.729C175.485 103.329 177.229 107.365 180.506 109.589C182.035 110.626 183.886 111.21 185.705 110.635C187.295 110.132 188.577 108.989 189.906 108.03C191.253 107.004 192.83 106.323 194.501 106.047C196.265 105.829 198.053 105.913 199.788 106.295C203.71 107.092 207.481 108.501 210.965 110.468C214.953 112.692 218.531 115.582 221.545 119.012C221.731 119.224 221.367 119.472 221.181 119.261H221.181Z" fill="white"/>
<path d="M203.019 107.311C203.512 106.001 204.455 104.909 205.679 104.23C206.904 103.551 208.33 103.329 209.703 103.604C209.981 103.661 209.906 104.095 209.628 104.038C208.35 103.78 207.021 103.987 205.882 104.621C204.743 105.256 203.869 106.276 203.417 107.499C203.319 107.764 202.921 107.575 203.019 107.311V107.311Z" fill="white"/>
<path d="M190.938 107.705C192.096 110.321 194.198 112.405 196.825 113.541C197.085 113.653 196.897 114.051 196.637 113.939C193.906 112.752 191.722 110.579 190.523 107.854C190.409 107.594 190.824 107.447 190.938 107.705V107.705Z" fill="white"/>
<path d="M214.49 113.047C214.193 113.514 214.017 114.047 213.978 114.599C213.939 115.151 214.037 115.704 214.265 116.208C214.382 116.466 213.967 116.613 213.85 116.356C213.602 115.798 213.494 115.188 213.536 114.578C213.578 113.968 213.769 113.378 214.091 112.859C214.118 112.808 214.163 112.768 214.217 112.749C214.272 112.729 214.331 112.731 214.385 112.754C214.437 112.779 214.478 112.824 214.497 112.879C214.517 112.934 214.514 112.994 214.49 113.047V113.047Z" fill="white"/>
<path d="M541.796 339.606H534.576L531.142 311.776L541.797 311.776L541.796 339.606Z" fill="#A0616A"/>
<path d="M543.638 346.6L520.357 346.599V346.305C520.357 343.904 521.312 341.6 523.011 339.902C524.711 338.204 527.015 337.25 529.419 337.25H529.419L543.638 337.251L543.638 346.6Z" fill="#2F2E41"/>
<path d="M598.016 336.483L590.877 337.561L583.317 310.557L592.676 308.965L598.016 336.483Z" fill="#A0616A"/>
<path d="M600.883 343.123L577.863 346.6L577.819 346.309C577.46 343.935 578.059 341.515 579.486 339.582C580.912 337.649 583.048 336.361 585.424 336.002L585.425 336.002L599.484 333.879L600.883 343.123Z" fill="#2F2E41"/>
<path d="M392.068 346.6H176.325V131.006H392.068V346.6Z" fill="white"/>
<path d="M392.068 346.6H176.325V131.006H392.068V346.6ZM179.513 343.415H388.881V134.191H179.513V343.415Z" fill="#F0F0F0"/>
<path d="M359.171 223.687H220.809V228.568H359.171V223.687Z" fill="#024EFB"/>
<path d="M359.171 236.377H220.809V241.258H359.171V236.377Z" fill="#024EFB"/>
<path d="M359.171 249.068H220.809V253.949H359.171V249.068Z" fill="#024EFB"/>
<path d="M212.41 230.028C214.17 230.028 215.597 228.602 215.597 226.843C215.597 225.083 214.17 223.657 212.41 223.657C210.649 223.657 209.222 225.083 209.222 226.843C209.222 228.602 210.649 230.028 212.41 230.028Z" fill="#024EFB"/>
<path d="M359.171 169.005H220.809V173.885H359.171V169.005Z" fill="#F0F0F0"/>
<path d="M359.171 181.695H220.809V186.576H359.171V181.695Z" fill="#F0F0F0"/>
<path d="M359.171 194.385H220.809V199.266H359.171V194.385Z" fill="#F0F0F0"/>
<path d="M212.41 174.815C214.17 174.815 215.597 173.388 215.597 171.629C215.597 169.87 214.17 168.444 212.41 168.444C210.649 168.444 209.222 169.87 209.222 171.629C209.222 173.388 210.649 174.815 212.41 174.815Z" fill="#F0F0F0"/>
<path d="M359.171 278.901H220.809V283.781H359.171V278.901Z" fill="#F0F0F0"/>
<path d="M359.171 291.591H220.809V296.472H359.171V291.591Z" fill="#F0F0F0"/>
<path d="M359.171 304.281H220.809V309.162H359.171V304.281Z" fill="#F0F0F0"/>
<path d="M212.41 284.711C214.17 284.711 215.597 283.284 215.597 281.525C215.597 279.766 214.17 278.34 212.41 278.34C210.649 278.34 209.222 279.766 209.222 281.525C209.222 283.284 210.649 284.711 212.41 284.711Z" fill="#E5E5E5"/>
<path d="M507.879 261.434H382.348C380.468 261.429 378.943 258.314 378.941 254.467V161.143C378.941 157.298 380.468 154.183 382.348 154.177H507.879C509.759 154.182 511.283 157.297 511.286 161.143V254.466C511.283 258.312 509.757 261.429 507.879 261.434Z" fill="white"/>
<path d="M507.879 261.434H382.348C380.468 261.429 378.943 258.314 378.941 254.467V161.143C378.941 157.298 380.468 154.183 382.348 154.177H507.879C509.759 154.182 511.283 157.297 511.286 161.143V254.466C511.283 258.312 509.757 261.429 507.879 261.434ZM382.348 156.963C381.219 156.963 380.305 158.836 380.303 161.143V254.466C380.303 256.774 381.219 258.644 382.348 258.646H507.879C509.007 258.646 509.922 256.774 509.923 254.466V161.143C509.923 158.836 509.007 156.966 507.879 156.963L382.348 156.963Z" fill="#E6E6E6"/>
<path d="M462.11 230.27H428.32V232.808H462.11V230.27Z" fill="#024EFB"/>
<path d="M466.323 236.865H423.799V239.403H466.323V236.865Z" fill="#024EFB"/>
<path d="M467.176 198.255C467.175 202.07 466.183 205.818 464.299 209.136C462.414 212.453 459.701 215.225 456.424 217.181C453.147 219.138 449.419 220.211 445.603 220.297C441.787 220.383 438.013 219.479 434.652 217.672L434.647 217.668C431.213 215.819 428.331 213.094 426.295 209.769C424.258 206.445 423.139 202.641 423.053 198.744C422.967 194.847 423.916 190.997 425.804 187.586C427.692 184.175 430.45 181.325 433.799 179.326C437.148 177.328 440.967 176.252 444.867 176.209C448.768 176.166 452.61 177.156 456.002 179.08C459.394 181.004 462.216 183.792 464.179 187.161C466.142 190.529 467.176 194.357 467.176 198.255V198.255Z" fill="#0512B8"/>
<path d="M451.683 194.328L443.823 202.714L439.105 197.684" stroke="white" stroke-width="3.568" stroke-linecap="round" stroke-linejoin="round"/>
<path d="M356.674 294.804H450.864V253.533H449.415V293.355H356.674V294.804Z" fill="#3F3D56"/>
<path d="M450.139 268.185C454.541 268.185 458.109 264.619 458.109 260.22C458.109 255.822 454.541 252.256 450.139 252.256C445.738 252.256 442.169 255.822 442.169 260.22C442.169 264.619 445.738 268.185 450.139 268.185Z" fill="#3F3D56"/>
<path d="M182.508 204.279H56.9776C55.097 204.274 53.5727 201.159 53.5703 197.312V103.989C53.5703 100.143 55.097 97.0284 56.9776 97.022H182.508C184.389 97.0268 185.913 100.142 185.915 103.989V197.312C185.913 201.157 184.386 204.274 182.508 204.279Z" fill="white"/>
<path d="M182.508 204.279H56.9776C55.097 204.274 53.5727 201.159 53.5703 197.312V103.989C53.5703 100.143 55.097 97.0284 56.9776 97.022H182.508C184.389 97.0268 185.913 100.142 185.915 103.989V197.312C185.913 201.157 184.386 204.274 182.508 204.279ZM56.9776 99.8085C55.8488 99.8085 54.9345 101.681 54.9329 103.989V197.312C54.9329 199.619 55.8488 201.489 56.9776 201.492H182.508C183.637 201.492 184.551 199.62 184.553 197.312V103.989C184.553 101.681 183.637 99.811 182.508 99.8086L56.9776 99.8085Z" fill="#E6E6E6"/>
<path d="M147.611 126.177C142.025 120.25 134.335 116.75 126.194 116.429V147.579L147.611 126.177Z" fill="#419AF7"/>
<path d="M147.611 130.055L126.194 151.457H156.124C156.135 143.497 153.088 135.836 147.611 130.055V130.055Z" fill="#E4E4E4"/>
<path d="M156.156 153.696C156.157 155.637 155.978 157.574 155.619 159.483C155.591 159.634 155.562 159.783 155.531 159.933C154.855 163.261 153.635 166.456 151.92 169.388C151.829 169.546 151.735 169.703 151.641 169.857V169.859C149.951 172.638 147.837 175.137 145.376 177.265C145.255 177.371 145.133 177.476 145.009 177.579C139.721 182.025 133.1 184.582 126.193 184.845V153.696H156.156Z" fill="#F0F0F0"/>
<path d="M123.166 184.872C123.581 184.872 123.992 184.862 124.403 184.846V153.695L101.733 176.349C107.519 181.832 115.192 184.883 123.166 184.872V184.872Z" fill="#72D8D9"/>
<path d="M123.209 120.28C119.112 120.28 115.055 121.086 111.269 122.653C107.484 124.22 104.045 126.516 101.148 129.411C98.2506 132.306 95.9525 135.743 94.3846 139.526C92.8167 143.309 92.0098 147.363 92.0098 151.457H124.478V120.308C124.056 120.291 123.634 120.28 123.209 120.28Z" fill="#F9D251"/>
<path d="M115.765 153.696L109.206 160.251L108.991 160.465L108.987 160.469L103.267 166.184L103.049 166.401L96.8693 172.577L96.6517 172.794V172.796L93.095 176.349C90.0067 173.438 87.5471 169.927 85.8676 166.031C84.1881 162.136 83.3242 157.938 83.3291 153.696H115.765Z" fill="#0512B8"/>
<path d="M221.168 238.919H126.979V197.648H128.428V237.471H221.168V238.919Z" fill="#3F3D56"/>
<path d="M127.703 212.3C132.105 212.3 135.673 208.734 135.673 204.336C135.673 199.937 132.105 196.371 127.703 196.371C123.302 196.371 119.733 199.937 119.733 204.336C119.733 208.734 123.302 212.3 127.703 212.3Z" fill="#3F3D56"/>
<path d="M575.754 201.686L567.737 203.785L568.27 216.773L568.336 240.421C567.546 240.967 566.941 241.74 566.6 242.637C566.259 243.534 566.199 244.514 566.427 245.446C566.656 246.378 567.162 247.219 567.879 247.858C568.596 248.496 569.49 248.902 570.443 249.022C571.396 249.141 572.362 248.969 573.215 248.528C574.068 248.086 574.766 247.397 575.218 246.55C575.67 245.703 575.854 244.739 575.746 243.786C575.638 242.832 575.243 241.934 574.613 241.21L577.076 217.475L575.754 201.686Z" fill="#A0616A"/>
<path d="M577.997 209.496L566.279 205.553L566.252 205.376C566.234 205.265 564.515 194.175 564.536 186.566C564.513 185.718 564.675 184.876 565.011 184.097C565.346 183.319 565.848 182.622 566.481 182.058C567.361 181.255 568.457 180.727 569.633 180.538C570.81 180.348 572.016 180.507 573.104 180.993C574.266 181.472 575.265 182.275 575.983 183.306C576.7 184.338 577.105 185.554 577.149 186.809L577.997 209.496Z" fill="#E4E4E4"/>
<path d="M556.197 208.408L538.275 203.772L529.99 231.655L529.695 335.53L543.401 335.444L549.13 251.37L585.644 329.056L600.367 327.29L568.27 244.014C568.27 244.014 570.037 229.301 564.442 221.944L565.62 214.293L556.197 208.408Z" fill="#2F2E41"/>
<path d="M566.151 216.353L564.794 216.332L537.251 205.33L550.428 176.003L556.684 177.139L555.545 172.587L569.368 169.21L571.773 178.824L575.322 182.047C576.216 182.86 576.855 183.914 577.16 185.083C577.466 186.251 577.425 187.483 577.043 188.628L568.868 213.137C568.935 213.533 568.915 213.937 568.81 214.324C568.704 214.711 568.515 215.07 568.257 215.376C567.998 215.682 567.675 215.928 567.312 216.097C566.948 216.266 566.552 216.353 566.151 216.353L566.151 216.353Z" fill="#E4E4E4"/>
<path d="M545.437 194.393L538.191 190.374L529.595 200.13L513.289 217.268C512.341 217.118 511.369 217.258 510.502 217.671C509.635 218.084 508.915 218.751 508.435 219.582C507.955 220.413 507.74 221.371 507.816 222.327C507.893 223.284 508.259 224.195 508.865 224.939C509.471 225.684 510.289 226.227 511.21 226.497C512.132 226.767 513.114 226.751 514.026 226.451C514.938 226.151 515.738 225.581 516.319 224.817C516.9 224.053 517.236 223.131 517.281 222.172L535.475 206.718L545.437 194.393Z" fill="#A0616A"/>
<path d="M541.658 201.587L535.915 190.645L536.017 190.498C536.081 190.406 542.508 181.202 547.785 175.717C548.354 175.088 549.054 174.591 549.835 174.26C550.616 173.93 551.46 173.773 552.308 173.802C553.5 173.83 554.657 174.205 555.638 174.88C556.619 175.556 557.381 176.503 557.831 177.606C558.34 178.754 558.507 180.025 558.313 181.265C558.118 182.506 557.57 183.665 556.734 184.602L541.658 201.587Z" fill="#E4E4E4"/>
<path d="M559.141 167.421C565.207 167.421 570.124 162.507 570.124 156.446C570.124 150.384 565.207 145.47 559.141 145.47C553.075 145.47 548.158 150.384 548.158 156.446C548.158 162.507 553.075 167.421 559.141 167.421Z" fill="#A0616A"/>
<path d="M545.924 150.01C547.771 146.706 548.478 145.326 550.859 143.317C552.965 141.54 555.555 141.018 557.645 142.701C560.116 141.634 562.866 141.392 565.486 142.012C568.106 142.631 570.457 144.078 572.188 146.138C573.92 148.198 574.94 150.762 575.097 153.448C575.255 156.134 574.541 158.799 573.062 161.047C571.583 163.295 569.418 165.007 566.888 165.928C564.359 166.848 561.599 166.929 559.02 166.157C556.44 165.386 554.179 163.804 552.571 161.646C550.963 159.488 550.095 156.869 550.095 154.178C550.097 153.706 550.126 153.234 550.18 152.765C548.364 152.51 547.74 150.265 545.924 150.01Z" fill="#2F2E41"/>
<path d="M60.1853 245.959C60.7023 245.648 61.1448 245.228 61.4818 244.728C61.8188 244.228 62.042 243.66 62.1357 243.065C62.2293 242.47 62.1912 241.861 62.024 241.282C61.8568 240.703 61.5645 240.167 61.1678 239.713L66.5296 185.946L57.5766 186.539L55.0963 239.484C54.3772 240.2 53.946 241.156 53.8846 242.169C53.8231 243.182 54.1356 244.182 54.7629 244.98C55.3902 245.778 56.2886 246.319 57.288 246.499C58.2874 246.679 59.3183 246.487 60.1853 245.959V245.959Z" fill="#FFB8B8"/>
<path d="M53.9492 183.954L56.2965 201.782L55.9706 212.708L65.8175 213.609L67.791 204.521L68.8782 180.463C68.9602 178.649 68.3509 176.871 67.1731 175.487C65.9952 174.104 64.3364 173.218 62.5309 173.008V173.008C60.6577 172.79 58.774 173.317 57.2863 174.475C55.7985 175.634 54.8261 177.33 54.5788 179.198L53.9492 183.954Z" fill="#2F2E41"/>
<path d="M91.659 340.814H97.632L100.473 317.791H91.6577L91.659 340.814Z" fill="#FFB7B7"/>
<path d="M90.1353 338.865L101.898 338.865H101.899C103.887 338.865 105.794 339.654 107.2 341.059C108.605 342.464 109.395 344.369 109.395 346.356V346.6L90.1356 346.6L90.1353 338.865Z" fill="#2F2E41"/>
<path d="M42.3382 340.814H48.3112L51.1524 317.791H42.3369L42.3382 340.814Z" fill="#FFB7B7"/>
<path d="M40.814 338.865L52.5772 338.865H52.5777C54.5658 338.865 56.4725 339.654 57.8783 341.059C59.2841 342.464 60.074 344.369 60.0741 346.356V346.6L40.8143 346.6L40.814 338.865Z" fill="#2F2E41"/>
<path d="M65.565 164.534C72.7173 164.534 78.5153 158.74 78.5153 151.592C78.5153 144.445 72.7173 138.651 65.565 138.651C58.4128 138.651 52.6147 144.445 52.6147 151.592C52.6147 158.74 58.4128 164.534 65.565 164.534Z" fill="#FFB8B8"/>
<path d="M67.2384 169.788L58.2512 170.814C56.0658 173.911 54.6488 177.483 54.1171 181.236C53.5853 184.988 53.9542 188.813 55.1932 192.395L61.9745 211.998C61.9745 211.998 52.5609 230.857 52.5609 248.367C52.5609 265.876 34.6333 328.375 34.6333 328.375L59.8682 331.006L70.879 264.426L86.0525 330.738L103.374 327.92L93.8339 240.978L87.5295 212.362L87.261 198.407C87.261 198.407 89.9416 187.935 83.2326 181.231L75.0416 169.825L67.2384 169.788Z" fill="#2F2E41"/>
<path d="M130.595 215.888C130.569 215.228 130.398 214.582 130.095 213.995C129.792 213.408 129.364 212.895 128.84 212.492C128.317 212.088 127.712 211.804 127.067 211.66C126.422 211.515 125.753 211.514 125.108 211.655L76.2372 178.19L72.0928 187.099L121.69 217.364C122 218.432 122.691 219.349 123.633 219.941C124.575 220.534 125.701 220.761 126.799 220.579C127.896 220.397 128.889 219.819 129.589 218.954C130.289 218.09 130.647 216.999 130.595 215.888H130.595Z" fill="#FFB8B8"/>
<path d="M67.6971 189.22L86.0736 196.355L96.4069 202.422L102.459 193.443L94.7615 186.762L72.2034 173.047C70.5019 172.013 68.4714 171.661 66.5209 172.064C64.5704 172.466 62.8451 173.592 61.6925 175.215V175.215C60.4967 176.899 60.0114 178.985 60.3412 181.023C60.6711 183.062 61.7897 184.889 63.4557 186.11L67.6971 189.22Z" fill="#2F2E41"/>
<path d="M80.6614 146.971H61.6313V138.681C65.8082 137.023 69.8955 135.613 72.3662 138.681C74.5662 138.681 76.6761 139.555 78.2317 141.109C79.7874 142.664 80.6613 144.772 80.6614 146.971V146.971Z" fill="#2F2E41"/>
<path d="M65.0261 137.853C53.6497 137.904 50.4653 152.103 50.4653 160.143C50.4653 164.626 52.4943 166.23 55.6827 166.772L56.8087 160.771L59.446 167.031C60.3416 167.035 61.2824 167.018 62.2579 167L63.152 165.16L65.146 166.967C73.1321 166.978 84.7374 166.266 79.5867 160.143C72.6867 151.94 74.9422 137.809 65.0261 137.853Z" fill="#2F2E41"/>
<path d="M586.489 182.479C585.986 180.576 585.911 178.585 586.269 176.65C586.8 172.912 587.993 169.307 589.085 165.693C590.177 162.079 591.178 158.393 591.304 154.62C591.43 150.847 590.612 146.936 588.36 143.905C586.109 140.873 582.271 138.887 578.536 139.457C574.968 140.001 571.853 143.217 571.834 146.786C571.195 147.941 572.021 149.518 573.195 150.203C574.428 150.922 575.913 151.017 577.28 151.425C578.622 151.859 579.86 152.565 580.916 153.499C581.972 154.433 582.824 155.575 583.417 156.853C584.59 159.434 584.901 162.323 584.307 165.094C583.769 167.78 582.53 170.265 581.602 172.842C580.674 175.419 580.053 178.248 580.799 180.884C581.418 182.83 582.721 184.487 584.466 185.55C586.211 186.613 588.282 187.01 590.297 186.667C589.377 186.317 588.553 185.756 587.892 185.028C587.23 184.3 586.749 183.427 586.489 182.479V182.479Z" fill="#2F2E41"/>
<path d="M633.656 346.924H1.34399C1.17544 346.924 1.0138 346.857 0.894626 346.738C0.775449 346.618 0.708496 346.457 0.708496 346.288C0.708496 346.12 0.775449 345.959 0.894626 345.839C1.0138 345.72 1.17544 345.653 1.34399 345.653H633.656C633.825 345.653 633.986 345.72 634.106 345.839C634.225 345.959 634.292 346.12 634.292 346.288C634.292 346.457 634.225 346.618 634.106 346.738C633.986 346.857 633.825 346.924 633.656 346.924Z" fill="#CACACA"/>
<path d="M489.377 316.05C488.144 306.142 481.999 296.379 472.543 293.154C476.272 303.353 476.271 314.541 472.54 324.739C471.087 328.667 469.062 332.884 470.429 336.843C471.279 339.306 473.359 341.191 475.685 342.369C478.011 343.547 480.591 344.109 483.14 344.659L483.642 345.074C487.688 335.944 490.61 325.959 489.377 316.05Z" fill="#F0F0F0"/>
<path d="M472.449 293.342C477.956 299.508 481.379 307.251 482.231 315.472C482.446 317.238 482.381 319.027 482.038 320.774C481.65 322.464 480.815 324.019 479.621 325.278C478.532 326.474 477.279 327.572 476.499 329.012C476.111 329.755 475.885 330.571 475.835 331.408C475.784 332.245 475.912 333.082 476.209 333.866C476.897 335.839 478.253 337.447 479.634 338.973C481.168 340.668 482.788 342.404 483.44 344.65C483.519 344.922 483.937 344.784 483.858 344.512C482.724 340.603 478.927 338.383 477.116 334.863C476.271 333.22 475.916 331.313 476.708 329.579C477.401 328.062 478.692 326.929 479.806 325.728C480.988 324.517 481.856 323.035 482.333 321.411C482.764 319.688 482.898 317.904 482.729 316.136C482.414 312.15 481.473 308.238 479.941 304.543C478.217 300.317 475.781 296.417 472.74 293.012C472.552 292.801 472.262 293.132 472.449 293.342H472.449Z" fill="white"/>
<path d="M482.112 312.808C483.473 312.478 484.672 311.675 485.495 310.543C486.318 309.411 486.712 308.024 486.606 306.629C486.583 306.346 486.143 306.368 486.166 306.65C486.267 307.95 485.9 309.242 485.132 310.295C484.363 311.347 483.243 312.091 481.974 312.39C481.698 312.456 481.838 312.873 482.112 312.808V312.808Z" fill="white"/>
<path d="M480.253 324.744C477.796 323.278 475.981 320.94 475.172 318.196C475.092 317.924 474.674 318.062 474.754 318.334C475.602 321.187 477.495 323.617 480.055 325.137C480.3 325.282 480.496 324.888 480.254 324.744L480.253 324.744Z" fill="white"/>
<path d="M477.808 300.734C477.308 300.971 476.757 301.081 476.204 301.053C475.652 301.025 475.114 300.86 474.641 300.573C474.399 300.426 474.202 300.82 474.443 300.966C474.967 301.281 475.561 301.462 476.171 301.494C476.782 301.527 477.391 301.409 477.946 301.152C478 301.132 478.045 301.092 478.071 301.041C478.097 300.989 478.103 300.929 478.086 300.874C478.068 300.819 478.028 300.773 477.976 300.747C477.924 300.721 477.863 300.716 477.808 300.734V300.734Z" fill="white"/>
<path d="M443.719 310.852C443.867 310.949 444.016 311.045 444.165 311.145C446.156 312.454 448.038 313.922 449.792 315.536C449.929 315.658 450.067 315.784 450.201 315.911C454.384 319.842 457.8 324.516 460.276 329.694C461.26 331.755 462.085 333.888 462.744 336.075C463.655 339.094 464.402 342.441 466.205 344.911C466.39 345.17 466.591 345.418 466.807 345.653H483.097C483.134 345.635 483.171 345.62 483.208 345.601L483.859 345.631C483.833 345.516 483.803 345.397 483.777 345.282C483.762 345.215 483.744 345.148 483.729 345.081C483.718 345.037 483.706 344.992 483.699 344.951C483.695 344.937 483.692 344.922 483.688 344.911C483.68 344.87 483.669 344.833 483.662 344.795C483.498 344.131 483.33 343.466 483.156 342.801C483.156 342.797 483.156 342.797 483.153 342.794C481.88 337.715 480.008 332.805 477.578 328.167C477.503 328.03 477.429 327.889 477.347 327.751C476.222 325.698 474.93 323.741 473.486 321.898C472.691 320.891 471.846 319.926 470.954 319.005C468.645 316.629 465.976 314.631 463.045 313.084C457.203 310.002 450.439 308.82 444.194 310.704C444.035 310.752 443.878 310.8 443.719 310.852Z" fill="#F0F0F0"/>
<path d="M443.755 311.059C451.867 312.669 459.265 316.792 464.898 322.843C466.134 324.124 467.16 325.592 467.939 327.192C468.647 328.776 468.918 330.52 468.723 332.243C468.574 333.854 468.234 335.484 468.48 337.103C468.617 337.929 468.928 338.718 469.393 339.416C469.857 340.114 470.463 340.706 471.172 341.154C472.91 342.315 474.962 342.782 476.984 343.17C479.23 343.6 481.569 344.012 483.443 345.413C483.67 345.583 483.92 345.221 483.694 345.052C480.433 342.613 476.064 343.125 472.497 341.403C470.833 340.6 469.4 339.291 468.988 337.429C468.628 335.802 468.976 334.121 469.141 332.491C469.356 330.813 469.156 329.107 468.559 327.524C467.864 325.889 466.896 324.384 465.697 323.074C463.043 320.081 459.935 317.523 456.486 315.495C452.563 313.158 448.268 311.51 443.789 310.62C443.512 310.565 443.48 311.004 443.755 311.059L443.755 311.059Z" fill="white"/>
<path d="M463.199 320.788C464.087 319.706 464.561 318.343 464.536 316.944C464.511 315.545 463.989 314.2 463.064 313.15C462.876 312.938 462.538 313.22 462.726 313.432C463.59 314.409 464.075 315.661 464.096 316.964C464.116 318.267 463.67 319.534 462.837 320.537C462.657 320.755 463.02 321.005 463.199 320.788Z" fill="white"/>
<path d="M468.906 331.436C466.061 331.744 463.203 330.969 460.904 329.265C460.676 329.096 460.426 329.458 460.653 329.627C463.049 331.395 466.024 332.196 468.985 331.869C469.267 331.838 469.187 331.405 468.906 331.436V331.436Z" fill="white"/>
<path d="M452.488 313.737C452.232 314.227 451.858 314.646 451.399 314.956C450.941 315.267 450.413 315.458 449.862 315.514C449.58 315.542 449.661 315.975 449.941 315.947C450.549 315.882 451.132 315.67 451.639 315.329C452.146 314.987 452.562 314.527 452.85 313.988C452.881 313.939 452.893 313.88 452.883 313.823C452.872 313.767 452.841 313.716 452.794 313.681C452.746 313.648 452.687 313.636 452.629 313.646C452.572 313.657 452.521 313.689 452.488 313.737V313.737Z" fill="white"/>
<path d="M122.782 316.05C124.015 306.142 130.16 296.379 139.617 293.154C135.887 303.353 135.888 314.541 139.619 324.739C141.072 328.667 143.097 332.884 141.731 336.843C140.88 339.306 138.8 341.191 136.474 342.369C134.149 343.547 131.568 344.109 129.019 344.659L128.518 345.074C124.472 335.944 121.549 325.959 122.782 316.05Z" fill="#F0F0F0"/>
<path d="M139.71 293.342C134.204 299.508 130.781 307.251 129.928 315.472C129.714 317.238 129.779 319.027 130.121 320.774C130.51 322.464 131.345 324.019 132.538 325.278C133.628 326.474 134.881 327.572 135.66 329.012C136.048 329.755 136.275 330.571 136.325 331.408C136.375 332.245 136.248 333.082 135.951 333.866C135.263 335.839 133.906 337.447 132.525 338.973C130.992 340.668 129.372 342.404 128.72 344.65C128.641 344.922 128.223 344.784 128.302 344.512C129.436 340.603 133.233 338.383 135.044 334.863C135.889 333.22 136.243 331.313 135.451 329.579C134.759 328.062 133.467 326.929 132.354 325.728C131.171 324.517 130.303 323.035 129.826 321.411C129.396 319.688 129.262 317.904 129.43 316.136C129.746 312.15 130.687 308.238 132.218 304.543C133.943 300.317 136.378 296.417 139.419 293.012C139.607 292.801 139.897 293.132 139.71 293.342H139.71Z" fill="white"/>
<path d="M130.047 312.808C128.686 312.478 127.487 311.675 126.664 310.543C125.841 309.411 125.447 308.024 125.553 306.629C125.576 306.346 126.016 306.368 125.993 306.65C125.892 307.95 126.259 309.242 127.027 310.295C127.796 311.347 128.916 312.091 130.185 312.39C130.461 312.456 130.321 312.873 130.047 312.808V312.808Z" fill="white"/>
<path d="M131.906 324.744C134.364 323.278 136.178 320.94 136.987 318.196C137.067 317.924 137.485 318.062 137.405 318.334C136.558 321.187 134.665 323.617 132.104 325.137C131.86 325.282 131.663 324.888 131.906 324.744L131.906 324.744Z" fill="white"/>
<path d="M134.351 300.734C134.851 300.971 135.402 301.081 135.955 301.053C136.508 301.025 137.045 300.86 137.518 300.573C137.76 300.426 137.957 300.82 137.716 300.966C137.192 301.281 136.598 301.462 135.988 301.494C135.377 301.527 134.768 301.409 134.213 301.152C134.159 301.132 134.114 301.092 134.088 301.041C134.062 300.989 134.057 300.929 134.073 300.874C134.092 300.819 134.131 300.773 134.184 300.747C134.236 300.721 134.296 300.716 134.351 300.734V300.734Z" fill="white"/>
<path d="M168.44 310.852C168.292 310.949 168.143 311.045 167.994 311.145C166.003 312.454 164.121 313.922 162.367 315.536C162.23 315.658 162.092 315.784 161.959 315.911C157.775 319.842 154.359 324.516 151.883 329.694C150.899 331.755 150.074 333.888 149.415 336.075C148.504 339.094 147.757 342.441 145.955 344.911C145.769 345.17 145.568 345.418 145.352 345.653H129.062C129.025 345.635 128.988 345.62 128.951 345.601L128.3 345.631C128.326 345.516 128.356 345.397 128.382 345.282C128.397 345.215 128.416 345.148 128.43 345.081C128.442 345.037 128.453 344.992 128.46 344.951C128.464 344.937 128.468 344.922 128.471 344.911C128.479 344.87 128.49 344.833 128.497 344.795C128.661 344.131 128.829 343.466 129.003 342.801C129.003 342.797 129.003 342.797 129.006 342.794C130.28 337.715 132.151 332.805 134.581 328.167C134.656 328.03 134.73 327.889 134.812 327.751C135.937 325.698 137.229 323.741 138.674 321.898C139.468 320.891 140.313 319.926 141.205 319.005C143.514 316.629 146.183 314.631 149.114 313.084C154.956 310.002 161.721 308.82 167.965 310.704C168.124 310.752 168.281 310.8 168.44 310.852Z" fill="#F0F0F0"/>
<path d="M168.404 311.059C160.292 312.669 152.894 316.792 147.26 322.843C146.025 324.124 144.999 325.592 144.22 327.192C143.512 328.776 143.241 330.52 143.436 332.243C143.585 333.854 143.924 335.484 143.679 337.103C143.542 337.929 143.23 338.718 142.766 339.416C142.302 340.114 141.696 340.706 140.987 341.154C139.249 342.315 137.197 342.782 135.175 343.17C132.929 343.6 130.59 344.012 128.716 345.413C128.489 345.583 128.238 345.221 128.465 345.052C131.726 342.613 136.095 343.125 139.662 341.403C141.326 340.6 142.758 339.291 143.171 337.429C143.531 335.802 143.183 334.121 143.018 332.491C142.803 330.813 143.003 329.107 143.6 327.524C144.295 325.889 145.262 324.384 146.462 323.074C149.116 320.081 152.224 317.523 155.673 315.495C159.596 313.158 163.89 311.51 168.37 310.62C168.647 310.565 168.679 311.004 168.404 311.059H168.404Z" fill="white"/>
<path d="M148.96 320.788C148.072 319.706 147.599 318.343 147.623 316.944C147.648 315.545 148.17 314.2 149.095 313.15C149.283 312.938 149.622 313.22 149.433 313.432C148.57 314.409 148.084 315.661 148.064 316.964C148.043 318.267 148.49 319.534 149.322 320.537C149.503 320.755 149.14 321.005 148.96 320.788V320.788Z" fill="white"/>
<path d="M143.253 331.436C146.099 331.744 148.956 330.969 151.256 329.265C151.483 329.096 151.734 329.458 151.506 329.627C149.11 331.395 146.135 332.196 143.174 331.869C142.892 331.838 142.972 331.405 143.253 331.436Z" fill="white"/>
<path d="M159.671 313.737C159.928 314.227 160.301 314.646 160.76 314.956C161.218 315.267 161.746 315.458 162.297 315.514C162.579 315.542 162.499 315.975 162.218 315.947C161.61 315.882 161.027 315.67 160.52 315.329C160.013 314.987 159.597 314.527 159.309 313.988C159.278 313.939 159.266 313.88 159.277 313.823C159.287 313.767 159.319 313.716 159.365 313.681C159.413 313.648 159.472 313.636 159.53 313.646C159.587 313.657 159.638 313.689 159.671 313.737H159.671Z" fill="white"/>
<path d="M472.759 321.311C482.913 328.305 498.426 323.416 498.426 323.416C498.426 323.416 497.465 307.189 487.304 300.201C477.15 293.208 461.645 298.09 461.645 298.09C461.645 298.09 462.605 314.316 472.759 321.311Z" fill="url(#paint0_linear_587_186)"/>
<path d="M352.43 319.406H352.596C353.576 333.613 363.907 333.832 363.907 333.832C363.907 333.832 352.515 334.059 352.515 350.476C352.515 334.059 341.123 333.832 341.123 333.832C341.123 333.832 351.45 333.613 352.43 319.405V319.406ZM139.572 287.474H139.745C140.77 302.156 151.571 302.381 151.571 302.381C151.571 302.381 139.661 302.617 139.661 319.581C139.661 302.617 127.751 302.381 127.751 302.381C127.751 302.381 138.547 302.156 139.572 287.474V287.474Z" fill="#F1A045"/>
</g>
<path d="M140.494 56.6392C150.648 63.633 166.161 58.7443 166.161 58.7443C166.161 58.7443 165.2 42.5171 155.039 35.5298C144.886 28.5359 129.38 33.4181 129.38 33.4181C129.38 33.4181 130.34 49.6445 140.494 56.6392Z" fill="url(#paint1_linear_587_186)"/>
<path d="M486.204 138.76C475.646 149.506 455.901 147.241 455.901 147.241C455.901 147.241 453.289 127.551 463.857 116.811C474.415 106.065 494.15 108.324 494.15 108.324C494.15 108.324 496.762 128.013 486.204 138.76V138.76Z" fill="url(#paint2_linear_587_186)"/>
<path d="M324.883 13.4632C321.451 13.4632 318.669 10.4494 318.669 6.73162C318.669 3.01385 321.451 0 324.883 0C328.315 0 331.097 3.01385 331.097 6.73162C331.097 10.4494 328.315 13.4632 324.883 13.4632Z" fill="url(#paint3_linear_587_186)"/>
<path d="M427.353 31.9316H427.518C428.499 46.1384 438.83 46.3575 438.83 46.3575C438.83 46.3575 427.437 46.5847 427.437 63.0016C427.437 46.5847 416.045 46.3575 416.045 46.3575C416.045 46.3575 426.372 46.1384 427.353 31.9308V31.9316ZM214.495 0H214.667C215.693 14.6815 226.494 14.9071 226.494 14.9071C226.494 14.9071 214.584 15.1425 214.584 32.1067C214.584 15.1425 202.673 14.9071 202.673 14.9071C202.673 14.9071 213.47 14.6815 214.495 0V0Z" fill="#F1A045"/>
<path d="M298.251 378C293.427 378 289.517 374.872 289.517 371.013C289.517 367.154 293.427 364.025 298.251 364.025C303.074 364.025 306.985 367.154 306.985 371.013C306.985 374.872 303.074 378 298.251 378Z" fill="url(#paint4_linear_587_186)"/>
<path d="M393.26 49.6768H231.991C222.995 49.6768 215.703 56.969 215.703 65.9643V107.727C215.703 116.722 222.995 124.015 231.991 124.015H393.26C402.255 124.015 409.547 116.722 409.547 107.727V65.9643C409.547 56.969 402.255 49.6768 393.26 49.6768Z" fill="white" stroke="#E1E4E5" stroke-width="4"/>
<path d="M385.382 72.8148H285.117C282.683 72.8148 280.71 74.7881 280.71 77.2222C280.71 79.6564 282.683 81.6296 285.117 81.6296H385.382C387.816 81.6296 389.789 79.6564 389.789 77.2222C389.789 74.7881 387.816 72.8148 385.382 72.8148Z" fill="#E1E4E5"/>
<path d="M346.818 91.5454H285.117C282.683 91.5454 280.71 93.5187 280.71 95.9528C280.71 98.3869 282.683 100.36 285.117 100.36H346.818C349.253 100.36 351.226 98.3869 351.226 95.9528C351.226 93.5187 349.253 91.5454 346.818 91.5454Z" fill="#E1E4E5"/>
<path fill-rule="evenodd" clip-rule="evenodd" d="M246.424 105.585C236.149 105.585 227.819 97.1369 227.819 86.7178C227.819 76.2979 236.149 67.8496 246.424 67.8496C256.699 67.8496 265.03 76.2979 265.03 86.7178C265.03 97.1369 256.699 105.585 246.424 105.585Z" fill="#024EFB"/>
<path d="M252.975 83.5735L245.116 91.9591L240.397 86.9287" stroke="white" stroke-width="3.568" stroke-linecap="round" stroke-linejoin="round"/>
<path d="M379.415 134.372H218.146C209.151 134.372 201.859 141.664 201.859 150.659V192.422C201.859 201.417 209.151 208.709 218.146 208.709H379.415C388.411 208.709 395.703 201.417 395.703 192.422V150.659C395.703 141.664 388.411 134.372 379.415 134.372Z" fill="white" stroke="#E1E4E5" stroke-width="4"/>
<path d="M371.537 157.51H271.273C268.839 157.51 266.866 159.483 266.866 161.917C266.866 164.351 268.839 166.325 271.273 166.325H371.537C373.971 166.325 375.945 164.351 375.945 161.917C375.945 159.483 373.971 157.51 371.537 157.51Z" fill="#E1E4E5"/>
<path d="M332.974 176.24H271.273C268.839 176.24 266.866 178.214 266.866 180.648C266.866 183.082 268.839 185.055 271.273 185.055H332.974C335.408 185.055 337.382 183.082 337.382 180.648C337.382 178.214 335.408 176.24 332.974 176.24Z" fill="#E1E4E5"/>
<path fill-rule="evenodd" clip-rule="evenodd" d="M232.68 190.024C222.405 190.024 214.075 181.575 214.075 171.156C214.075 160.736 222.405 152.288 232.68 152.288C242.955 152.288 251.286 160.736 251.286 171.156C251.286 181.575 242.955 190.024 232.68 190.024Z" fill="#EA426A"/>
<path d="M236.66 167.352L228.801 175.738" stroke="white" stroke-width="3.568" stroke-linecap="round" stroke-linejoin="round"/>
<path d="M229.284 166.947L236.177 176.143" stroke="white" stroke-width="3.568" stroke-linecap="round" stroke-linejoin="round"/>
<defs>
<linearGradient id="paint0_linear_587_186" x1="512.313" y1="344.259" x2="432.382" y2="259.975" gradientUnits="userSpaceOnUse">
<stop stop-color="#024EFB"/>
<stop offset="1" stop-color="#EEEEEE"/>
</linearGradient>
<linearGradient id="paint1_linear_587_186" x1="180.049" y1="79.5874" x2="100.118" y2="-4.69715" gradientUnits="userSpaceOnUse">
<stop stop-color="#024EFB"/>
<stop offset="1" stop-color="#EEEEEE"/>
</linearGradient>
<linearGradient id="paint2_linear_587_186" x1="444.077" y1="175.467" x2="520.409" y2="55.8107" gradientUnits="userSpaceOnUse">
<stop stop-color="#024EFB"/>
<stop offset="1" stop-color="#EEEEEE"/>
</linearGradient>
<linearGradient id="paint3_linear_587_186" x1="334.79" y1="23.0612" x2="307.947" y2="-16.2726" gradientUnits="userSpaceOnUse">
<stop stop-color="#024EFB"/>
<stop offset="1" stop-color="#EEEEEE"/>
</linearGradient>
<linearGradient id="paint4_linear_587_186" x1="312.177" y1="387.963" x2="288.127" y2="340.24" gradientUnits="userSpaceOnUse">
<stop stop-color="#024EFB"/>
<stop offset="1" stop-color="#EEEEEE"/>
</linearGradient>
<clipPath id="clip0_587_186">
<rect width="633.583" height="267.115" fill="white" transform="translate(0.708496 79.8087)"/>
</clipPath>
</defs>
</svg>
