<svg width="36" height="44" viewBox="0 0 36 44" fill="none" xmlns="http://www.w3.org/2000/svg">
<path d="M1.08015 25.932C0.872951 26.4081 0.769673 26.9372 0.924394 27.475L0.921767 27.4772L0.956157 27.5754C1.13116 28.0751 1.50385 28.4764 2.09564 28.8138C2.66322 29.1373 3.44067 29.407 4.46065 29.6519C4.46079 30.5637 4.46405 32.1356 4.54067 33.6297C4.58069 34.4101 4.64086 35.1722 4.73158 35.8095C4.82118 36.4387 4.94351 36.971 5.11975 37.2731L5.12104 37.2752C5.37261 37.6903 5.91686 38.0739 6.58879 38.4088C7.26773 38.7472 8.10282 39.0483 8.96747 39.2867C9.8325 39.5252 10.7314 39.7022 11.5394 39.7909C12.2416 39.8679 12.8851 39.8794 13.3801 39.8013L13.0849 42.3722C13.0289 42.615 13.1523 42.7994 13.2373 42.9265L13.245 42.9379C13.3779 43.1371 13.6246 43.187 13.7802 43.187H30.5232C30.7493 43.187 30.9818 43.0756 31.1043 42.8921C31.2118 42.7311 31.2745 42.5517 31.2169 42.3182C30.2851 38.1127 30.1959 35.0521 30.5522 32.4904C30.9087 29.9276 31.7116 27.8562 32.5785 25.6205C33.6779 23.0551 34.4564 20.3527 34.9142 17.6048L34.9145 17.6026C35.6034 13.0553 34.7787 9.26958 32.4659 6.35543C30.4795 3.83812 27.7352 2.44533 25.4616 1.68173C23.2533 0.940027 21.4737 0.786877 21.2336 0.778881C21.2295 0.778162 21.2261 0.777677 21.2242 0.777391L21.2233 0.777255C21.2129 0.775706 21.1999 0.774045 21.185 0.772308C21.1549 0.768812 21.1135 0.764651 21.0617 0.76018C20.958 0.751226 20.8106 0.74086 20.6248 0.732049C20.2532 0.714423 19.727 0.702962 19.0888 0.721615C17.8129 0.75891 16.0863 0.91666 14.2507 1.38774C10.5804 2.3297 6.45438 4.53127 4.65192 9.54583L4.64308 9.57043V9.59657V9.61953C4.56539 9.88237 4.13493 11.5838 3.94234 13.6255C3.84199 14.6894 3.80572 15.8504 3.91896 16.9518C4.02908 18.0229 4.28154 19.0475 4.76221 19.8726C4.04071 21.5665 3.05615 23.1728 1.93833 24.6036C1.64028 24.9708 1.29934 25.4283 1.08015 25.932ZM6.21018 20.0078L6.21382 19.9986L6.21622 19.989C6.26781 19.7822 6.27055 19.561 6.15939 19.3383L6.15439 19.3283L6.14797 19.3191C5.71285 18.699 5.47462 17.8357 5.3703 16.8671C5.26625 15.9012 5.2969 14.8455 5.38763 13.8531C5.55522 12.0198 5.92607 10.4186 6.01797 10.0217C6.02415 9.99508 6.02907 9.97385 6.03258 9.95835C7.653 5.51325 11.359 3.5534 14.7073 2.705C17.8147 1.91763 20.5865 2.09404 21.0581 2.12406C21.0953 2.12643 21.1182 2.12789 21.1258 2.12789C21.1257 2.12789 21.1258 2.12789 21.1261 2.1279C21.1269 2.12792 21.1289 2.12797 21.1325 2.12813L21.1522 2.12919C21.1689 2.1302 21.1917 2.13182 21.2205 2.13415C21.2779 2.13882 21.3581 2.14632 21.4589 2.15753C21.6604 2.17995 21.9433 2.21715 22.2896 2.27616C22.9823 2.39421 23.9271 2.59929 24.9793 2.94718C27.0858 3.64369 29.6101 4.90841 31.4099 7.18052L31.4107 7.18159C33.4758 9.74038 34.203 13.1607 33.5692 17.328C33.1148 19.9618 32.3427 22.5507 31.2978 25.0498L31.2977 25.0498L31.2959 25.0545L31.2705 25.1215C30.4584 27.2644 29.6554 29.3831 29.269 31.9916C28.8839 34.5908 28.9129 37.67 29.7465 41.7463L14.6314 41.7469L14.8779 39.3633C17.1762 38.6103 19.1108 37.622 20.5626 36.4834C22.0322 35.3308 23.0158 34.0168 23.3691 32.6291C23.4805 32.2351 23.2557 31.8173 22.8349 31.7574C22.6495 31.7309 22.456 31.756 22.2971 31.8427C22.1362 31.9304 22.0142 32.0805 21.9822 32.2874C21.5415 34.0769 19.2399 36.5074 14.0778 38.0972H14.009H13.9861L13.9642 38.104L13.237 38.3313C12.8438 38.4369 12.2498 38.4369 11.5566 38.355C10.8664 38.2733 10.0941 38.1125 9.3556 37.9088C8.61689 37.705 7.91616 37.4594 7.36841 37.2097C7.09438 37.0848 6.86165 36.9602 6.68258 36.841C6.49997 36.7194 6.38719 36.6126 6.33621 36.5276L6.33535 36.5262C6.30276 36.4733 6.26434 36.3701 6.22513 36.2086C6.18689 36.0511 6.15081 35.8509 6.11732 35.6136C6.05039 35.1394 5.99509 34.5265 5.95245 33.8298C5.86719 32.437 5.83302 30.7187 5.85573 29.1251H5.85575V29.1229C5.85575 28.7805 5.62512 28.4872 5.27658 28.4281C4.93411 28.3595 4.22569 28.213 3.57004 27.9888C3.24111 27.8764 2.93166 27.7464 2.69024 27.6003C2.45287 27.4567 2.30488 27.3115 2.24903 27.1731C2.21761 26.7791 2.41735 26.2315 3.03859 25.4772L3.08935 25.4156L3.08849 25.4127C4.35302 23.7766 5.43824 21.9605 6.21018 20.0078Z" fill="#024DFA" stroke="#024EFB" stroke-width="0.3"/>
<path d="M11.3168 17.6261C10.9973 17.6261 10.7236 17.8998 10.7236 18.2193C10.7236 18.5388 10.9973 18.8124 11.3168 18.8124H12.4118V18.9493C12.4118 20.4548 13.5978 21.6408 15.1033 21.6408H15.2857V22.7358C15.2857 23.0553 15.5594 23.329 15.8789 23.329C16.1984 23.329 16.472 23.0553 16.472 22.7358V21.6408H18.9354V22.7358C18.9354 23.0553 19.2091 23.329 19.5286 23.329C19.8481 23.329 20.1218 23.0553 20.1218 22.7358V21.6408H22.631V22.7358C22.631 23.0553 22.9047 23.329 23.2242 23.329C23.5437 23.329 23.8174 23.0553 23.8174 22.7358V21.6408H23.9542C25.4597 21.6408 26.6458 20.409 26.6458 18.9493V18.8124H27.7408C28.0603 18.8124 28.3339 18.5388 28.3339 18.2193C28.3339 17.8998 28.0603 17.6261 27.7408 17.6261H26.6002V15.1168H27.6952C28.0147 15.1168 28.2884 14.8432 28.2884 14.5237C28.2884 14.2042 28.0147 13.9305 27.6952 13.9305H26.6002V11.4212H27.6952C28.0147 11.4212 28.2884 11.1476 28.2884 10.8281C28.2884 10.5086 28.0147 10.2349 27.6952 10.2349H26.6002V10.0981C26.6002 8.59255 25.4142 7.40648 23.9087 7.40648H23.7718L23.7712 6.40347C23.7712 6.08396 23.4975 5.81029 23.178 5.81029C22.8585 5.81029 22.5848 6.08397 22.5848 6.40347V7.49846H20.0756L20.0759 6.40347C20.0759 6.08396 19.8022 5.81029 19.4827 5.81029C19.1632 5.81029 18.8896 6.08397 18.8896 6.40347V7.49846H16.3803L16.3806 6.40347C16.4261 6.08396 16.2438 5.81029 15.9243 5.71928C15.6048 5.62795 15.3311 5.85612 15.2401 6.17562V6.35797V7.45296H15.1033C13.5978 7.45296 12.4117 8.63903 12.4117 10.1445V10.2814H11.2712C10.9516 10.2814 10.678 10.555 10.678 10.8745C10.678 11.194 10.9517 11.4677 11.2712 11.4677H12.3661V13.977H11.2712C10.9516 13.977 10.678 14.2506 10.678 14.5701C10.678 14.8896 10.9517 15.1633 11.2712 15.1633H12.3661V17.6726L11.3166 17.6719L11.3168 17.6261ZM13.5523 10.1897C13.5523 9.32286 14.2365 8.6387 15.1033 8.6387H23.817C24.6839 8.6387 25.368 9.32289 25.368 10.1897V18.9034C25.368 19.7703 24.6838 20.4544 23.817 20.4544H15.1033C14.2365 20.4544 13.5523 19.7702 13.5523 18.9034V10.1897Z" fill="#024DFA"/>
</svg>
