<svg width="504" height="403" viewBox="0 0 504 403" fill="none" xmlns="http://www.w3.org/2000/svg">
<g clip-path="url(#clip0_9725_67)">
<path d="M442.721 391.017L432.244 391.016L427.26 350.456L442.724 350.457L442.721 391.017Z" fill="#FFB6B6"/>
<path d="M443.09 401.987L410.87 401.985V401.576C410.871 394.626 416.485 388.991 423.411 388.991L429.297 384.509L440.278 388.991L443.09 388.991L443.09 401.987Z" fill="#2F2E41"/>
<path d="M396.271 391.017L385.794 391.016L380.81 350.456L396.273 350.457L396.271 391.017Z" fill="#FFB6B6"/>
<path d="M396.64 401.987L364.42 401.985V401.576C364.42 394.626 370.035 388.991 376.961 388.991L382.847 384.509L393.828 388.991L396.64 388.991L396.64 401.987Z" fill="#2F2E41"/>
<path d="M391.279 164.662L451.728 165.94C451.728 165.94 462.595 183.821 454.298 209.046L455.227 216.07L451.41 226.927L449.501 260.134L451.41 265.243L450.137 274.822C450.137 274.822 455.227 338.044 442.501 369.975L427.23 369.336L421.503 286.028L424.685 279.931L424.048 277.377L416.413 239.06L408.777 258.857V269.857L401.778 278.015C401.778 278.015 404.323 353.371 397.324 368.698H380.226L373.78 266.52L380.143 207.13L378.871 203.298L380.78 201.382L379.507 194.996L391.279 164.662Z" fill="#2F2E41"/>
<path d="M417.049 48.1165L435.501 43.6462L440.592 55.7798C440.592 55.7798 466.929 69.8292 468.202 88.9874C468.202 88.9874 471.771 104.314 468.589 111.339C465.408 118.363 452.045 140.715 452.045 140.715C452.045 140.715 464.135 179.67 460.954 181.585C457.772 183.501 382.052 179.67 382.052 175.838C382.052 172.006 394.654 131.774 394.654 131.774L397.323 62.8045L414.503 56.4184L417.049 48.1165Z" fill="#3F3D56"/>
<path d="M466.243 205.319C462.38 203.366 460.827 198.641 462.773 194.764C462.969 194.374 463.2 194.014 463.448 193.672L453.18 123.019L467.395 123.475L474.831 192.316C477.526 194.61 478.42 198.53 476.76 201.837C474.814 205.714 470.105 207.272 466.243 205.319Z" fill="#FFB6B6"/>
<path d="M331.359 171.973C329.804 167.923 331.815 163.374 335.85 161.814C336.256 161.657 336.668 161.545 337.081 161.459L376.747 102.186L386.975 112.105L346.423 168.126C346.885 171.643 344.925 175.15 341.481 176.481C337.446 178.042 332.914 176.023 331.359 171.973Z" fill="#FFB6B6"/>
<path d="M440.339 105.198C436.323 91.3494 442.994 77.2204 457.365 77.2886C461.519 77.3084 464.746 78.5181 465.64 81.8666C468.771 93.5863 470.477 111.277 470.477 111.277L474.191 130.113L471.942 134.024L476.631 146.647L474.356 152.618L473.865 183.114L462.411 182.475L449.791 159.227L444.966 156.348C444.966 156.348 448.84 118.759 441.133 107.936L440.339 105.198Z" fill="#3F3D56"/>
<path d="M389.037 71.1163C395.734 58.3549 412.88 55.3321 423.17 65.4013C426.144 68.3116 427.628 71.4318 425.953 74.4639C420.092 85.0763 406.506 96.5026 406.506 96.5026L389.776 123.496L385.451 124.741L380.086 137.09L368.59 150.655L353.362 158.715L344.454 149.774L346.346 138.281L369.27 107.626C369.27 107.626 385.764 86.7977 387.713 73.6395L389.037 71.1163Z" fill="#3F3D56"/>
<path d="M420.555 44.3841C420.977 44.4349 421.397 44.4731 421.815 44.4922C423.115 44.5638 424.4 44.4894 425.638 44.2787C429.4 43.6735 432.818 41.8852 435.455 39.2626C438.244 36.4953 440.152 32.8017 440.667 28.5968C441.876 18.6715 434.834 9.63021 424.944 8.41744C415.197 7.21505 406.311 14.0575 404.892 23.755C404.87 23.9051 404.847 24.0489 404.831 24.1983C403.623 34.13 410.659 43.1657 420.555 44.3841Z" fill="#FFB6B6"/>
<path d="M400.826 23.0906C403.388 24.362 407.573 20.3648 409.177 22.6646C409.437 22.1676 409.725 21.6869 410.009 21.2324C410.266 20.8257 410.634 19.9574 411.059 19.8087C410.521 21.1129 410.64 22.8792 411.198 24.3925C413.726 25.3401 417.033 23.2425 419.372 20.7613C423.045 16.8709 429.042 26.8471 427.624 32.01C429.428 29.7985 433.344 31.0458 434.671 33.5745C435.997 36.0969 433.756 38.1179 433.277 40.9315L436.895 40.4704C439.177 38.2394 439.018 34.4799 440.897 31.8941C444.037 27.5667 445.253 23.1513 442.893 18.6852C440.799 14.7363 440.604 9.62552 436.763 7.34883C438.441 6.52543 432.474 7.81178 434.068 5.12841C435.669 2.45066 427.135 2.12565 426.578 3.56024C424.14 0.631228 421.68 -1.29993 418.681 1.04705C415.735 3.3561 416.039 5.78317 412.579 5.56567C410.956 5.46471 411.134 8.50277 410.169 9.82731C409.209 11.1448 405.479 11.9905 405.298 11.8495C404.313 11.076 400.961 17.6615 400.961 17.6615C400.961 17.6615 398.243 21.8021 400.826 23.0906Z" fill="#2F2E41"/>
<path d="M175.295 138.475C235.912 138.475 285.052 187.793 285.052 248.63C285.052 309.466 235.912 358.784 175.295 358.784C114.677 358.784 30.7856 298.467 65.5375 248.63C100.289 198.793 114.677 138.475 175.295 138.475Z" fill="#EAF0FF"/>
<path d="M321.938 143.274C320.954 143.274 320.153 144.077 320.153 145.065V202.381C320.153 203.369 320.954 204.172 321.938 204.172C322.922 204.172 323.723 203.369 323.723 202.381V145.065C323.723 144.077 322.922 143.274 321.938 143.274Z" fill="#3F3D56"/>
<path d="M455.583 387.428C457.426 387.544 458.445 385.245 457.05 383.905L456.912 383.352C456.93 383.307 456.948 383.263 456.967 383.219C458.831 378.757 465.149 378.788 466.998 383.256C468.638 387.222 470.727 391.194 471.242 395.387C471.472 397.238 471.368 399.124 470.959 400.94C474.803 392.513 476.826 383.31 476.826 374.055C476.826 371.729 476.7 369.404 476.44 367.085C476.227 365.187 475.933 363.302 475.553 361.433C473.495 351.334 469.04 341.715 462.614 333.68C459.524 331.985 456.948 329.336 455.392 326.161C454.833 325.015 454.395 323.783 454.188 322.528C454.539 322.574 455.513 317.201 455.248 316.871C455.738 316.125 456.615 315.754 457.15 315.026C459.811 311.405 463.478 312.037 465.392 316.958C469.481 319.029 469.52 322.464 467.011 325.767C465.415 327.869 465.196 330.713 463.795 332.963C463.939 333.148 464.089 333.327 464.233 333.512C466.876 336.914 469.161 340.569 471.087 344.41C470.543 340.142 471.347 334.999 472.717 331.685C474.277 327.908 477.201 324.727 479.776 321.462C482.869 317.54 489.211 319.251 489.756 324.223C489.761 324.271 489.766 324.319 489.771 324.367C489.389 324.584 489.014 324.814 488.648 325.057C486.561 326.443 487.282 329.69 489.756 330.074L489.812 330.082C489.673 331.465 489.437 332.836 489.091 334.183C492.394 347.004 485.263 351.674 475.08 351.883C474.855 351.999 474.636 352.115 474.412 352.225C475.443 355.14 476.268 358.13 476.878 361.161C477.426 363.84 477.806 366.547 478.02 369.265C478.285 372.695 478.262 376.143 477.973 379.567L477.991 379.446C478.723 375.674 480.763 372.152 483.725 369.711C488.139 366.072 494.373 364.733 499.134 361.808C501.426 360.4 504.363 362.219 503.963 364.886L503.944 365.014C503.235 365.303 502.543 365.639 501.875 366.014C501.492 366.231 501.117 366.461 500.751 366.704C498.664 368.09 499.385 371.338 501.859 371.721L501.915 371.729C501.955 371.735 501.99 371.741 502.03 371.747C500.814 374.645 499.12 377.334 496.999 379.654C494.933 390.846 486.062 391.908 476.573 388.649H476.567C475.53 393.184 474.014 397.614 472.066 401.837H455.986C455.928 401.658 455.876 401.472 455.824 401.293C457.311 401.386 458.81 401.299 460.274 401.027C459.081 399.558 457.888 398.077 456.695 396.608C456.666 396.579 456.643 396.55 456.62 396.521C456.015 395.769 455.404 395.023 454.799 394.271L454.798 394.27C454.76 391.962 455.036 389.661 455.583 387.428Z" fill="#F2F2F2"/>
<path d="M0 401.885C0 402.476 0.472964 402.95 1.06193 402.95H502.813C503.402 402.95 503.875 402.476 503.875 401.885C503.875 401.294 503.402 400.819 502.813 400.819H1.06193C0.472964 400.819 0 401.294 0 401.885Z" fill="#DADADA"/>
<path d="M127.047 240.763H65.2793V238.972H127.047C132.413 238.972 136.779 234.59 136.779 229.204V187.289H138.563V229.204C138.563 235.577 133.397 240.763 127.047 240.763Z" fill="#6C63FF"/>
<path d="M244.906 331.622H104.42V333.413H244.906V331.622Z" fill="#6C63FF"/>
<path d="M334.039 228.786H259.001C254.952 228.786 251.657 225.48 251.657 221.416V147.025C251.657 142.961 254.952 139.654 259.001 139.654H334.039C338.089 139.654 341.383 142.961 341.383 147.025V221.416C341.383 225.48 338.089 228.786 334.039 228.786Z" fill="#E6E6E6"/>
<path d="M272.976 141.85C262.411 141.85 253.846 150.446 253.846 161.05V219.837C253.846 223.567 256.858 226.59 260.574 226.59H306.458C324.538 226.59 339.195 211.88 339.195 193.734V148.603C339.195 144.874 336.183 141.85 332.467 141.85L272.976 141.85Z" fill="white"/>
<path d="M316.617 163.469H276.265C275.496 163.469 274.869 162.84 274.869 162.067C274.869 161.295 275.496 160.666 276.265 160.666H316.617C317.387 160.666 318.013 161.295 318.013 162.067C318.013 162.84 317.387 163.469 316.617 163.469Z" fill="#E6E6E6"/>
<path d="M316.617 193.348H276.265C275.496 193.348 274.869 192.719 274.869 191.947C274.869 191.174 275.496 190.546 276.265 190.546H316.617C317.387 190.546 318.013 191.174 318.013 191.947C318.013 192.719 317.387 193.348 316.617 193.348Z" fill="#14DE89"/>
<path d="M333.004 178.418H259.88C259.11 178.418 258.483 177.789 258.483 177.017C258.483 176.244 259.11 175.616 259.88 175.616H333.004C333.774 175.616 334.4 176.244 334.4 177.017C334.4 177.789 333.774 178.418 333.004 178.418Z" fill="#14DE89"/>
<path d="M333.75 205.497H307.334C306.564 205.497 305.938 204.868 305.938 204.095C305.938 203.323 306.564 202.694 307.334 202.694H333.75C334.52 202.694 335.146 203.323 335.146 204.095C335.146 204.868 334.52 205.497 333.75 205.497Z" fill="#E6E6E6"/>
<path d="M176.425 377.006H116.839C113.624 377.006 111.008 374.38 111.008 371.153V312.082C111.008 308.855 113.624 306.229 116.839 306.229H176.425C179.64 306.229 182.256 308.855 182.256 312.082V371.153C182.256 374.38 179.64 377.006 176.425 377.006Z" fill="#E6E6E6"/>
<path d="M127.936 307.973C119.546 307.973 112.745 314.798 112.745 323.218V369.9C112.745 372.861 115.137 375.262 118.088 375.262H154.523C168.88 375.262 180.518 363.581 180.518 349.172V313.335C180.518 310.374 178.126 307.973 175.176 307.973L127.936 307.973Z" fill="white"/>
<path d="M162.59 325.139H130.548C129.937 325.139 129.439 324.64 129.439 324.026C129.439 323.413 129.937 322.914 130.548 322.914H162.59C163.202 322.914 163.699 323.413 163.699 324.026C163.699 324.64 163.202 325.139 162.59 325.139Z" fill="#EA426A"/>
<path d="M162.59 348.865H130.548C129.937 348.865 129.439 348.366 129.439 347.753C129.439 347.139 129.937 346.64 130.548 346.64H162.59C163.202 346.64 163.699 347.139 163.699 347.753C163.699 348.366 163.202 348.865 162.59 348.865Z" fill="#E6E6E6"/>
<path d="M175.602 337.01H117.536C116.925 337.01 116.428 336.511 116.428 335.897C116.428 335.284 116.925 334.785 117.536 334.785H175.602C176.213 334.785 176.71 335.284 176.71 335.897C176.71 336.511 176.213 337.01 175.602 337.01Z" fill="#EA426A"/>
<path d="M176.195 358.512H155.219C154.608 358.512 154.11 358.013 154.11 357.4C154.11 356.786 154.608 356.287 155.219 356.287H176.195C176.807 356.287 177.304 356.786 177.304 357.4C177.304 358.013 176.807 358.512 176.195 358.512Z" fill="#E6E6E6"/>
<path d="M134.778 186.838H90.7121C88.334 186.838 86.3994 184.896 86.3994 182.509V138.823C86.3994 136.437 88.334 134.495 90.7121 134.495H134.778C137.156 134.495 139.091 136.437 139.091 138.823V182.509C139.091 184.896 137.156 186.838 134.778 186.838Z" fill="#E6E6E6"/>
<path d="M98.9188 135.785C92.7143 135.785 87.6846 140.833 87.6846 147.06V181.582C87.6846 183.772 89.4536 185.548 91.6358 185.548H118.581C129.199 185.548 137.806 176.909 137.806 166.253V139.75C137.806 137.56 136.037 135.785 133.855 135.785L98.9188 135.785Z" fill="white"/>
<path d="M124.548 148.48H100.851C100.399 148.48 100.031 148.111 100.031 147.657C100.031 147.203 100.399 146.834 100.851 146.834H124.548C125 146.834 125.368 147.203 125.368 147.657C125.368 148.111 125 148.48 124.548 148.48Z" fill="#E6E6E6"/>
<path d="M124.548 166.027H100.851C100.399 166.027 100.031 165.657 100.031 165.204C100.031 164.75 100.399 164.381 100.851 164.381H124.548C125 164.381 125.368 164.75 125.368 165.204C125.368 165.657 125 166.027 124.548 166.027Z" fill="#FF5252"/>
<path d="M134.17 157.259H91.2281C90.7761 157.259 90.4082 156.89 90.4082 156.436C90.4082 155.982 90.7761 155.613 91.2281 155.613H134.17C134.622 155.613 134.99 155.982 134.99 156.436C134.99 156.89 134.622 157.259 134.17 157.259Z" fill="#FF5252"/>
<path d="M134.608 173.161H119.095C118.643 173.161 118.275 172.792 118.275 172.338C118.275 171.884 118.643 171.515 119.095 171.515H134.608C135.06 171.515 135.428 171.884 135.428 172.338C135.428 172.792 135.06 173.161 134.608 173.161Z" fill="#E6E6E6"/>
<path d="M263.377 241.919C268.306 241.919 272.301 237.909 272.301 232.963C272.301 228.017 268.306 224.008 263.377 224.008C258.449 224.008 254.454 228.017 254.454 232.963C254.454 237.909 258.449 241.919 263.377 241.919Z" fill="#14DE89"/>
<path d="M137.558 196.245C142.486 196.245 146.481 192.236 146.481 187.289C146.481 182.343 142.486 178.334 137.558 178.334C132.63 178.334 128.635 182.343 128.635 187.289C128.635 192.236 132.63 196.245 137.558 196.245Z" fill="#EA426A"/>
<path d="M180.39 318.937C185.318 318.937 189.313 314.928 189.313 309.982C189.313 305.036 185.318 301.026 180.39 301.026C175.462 301.026 171.467 305.036 171.467 309.982C171.467 314.928 175.462 318.937 180.39 318.937Z" fill="#EA426A"/>
<path d="M199.665 70.6177C205.808 70.6177 210.787 65.7257 210.787 59.6912C210.787 53.6567 205.808 48.7647 199.665 48.7647C193.523 48.7647 188.544 53.6567 188.544 59.6912C188.544 65.7257 193.523 70.6177 199.665 70.6177Z" fill="#E0E0E0"/>
<path d="M288.821 55.9532H228.959C226.905 55.9532 225.234 54.2762 225.234 52.2152C225.234 50.1541 226.905 48.4772 228.959 48.4772H288.821C290.875 48.4772 292.546 50.1541 292.546 52.2152C292.546 54.2762 290.875 55.9532 288.821 55.9532Z" fill="#E0E0E0"/>
<path d="M335.538 68.6049H228.959C226.905 68.6049 225.234 66.928 225.234 64.8669C225.234 62.8058 226.905 61.1289 228.959 61.1289H335.538C337.592 61.1289 339.262 62.8058 339.262 64.8669C339.262 66.928 337.592 68.6049 335.538 68.6049Z" fill="#E0E0E0"/>
<path d="M38.6908 116.54C42.6659 116.54 45.8884 113.374 45.8884 109.469C45.8884 105.563 42.6659 102.397 38.6908 102.397C34.7156 102.397 31.4932 105.563 31.4932 109.469C31.4932 113.374 34.7156 116.54 38.6908 116.54Z" fill="#EA426A"/>
<path d="M96.3907 107.049H57.6487C56.3197 107.049 55.2383 105.964 55.2383 104.63C55.2383 103.296 56.3197 102.211 57.6487 102.211H96.3907C97.7198 102.211 98.8012 103.296 98.8012 104.63C98.8012 105.964 97.7198 107.049 96.3907 107.049Z" fill="#E0E0E0"/>
<path d="M126.625 115.237H57.6487C56.3197 115.237 55.2383 114.152 55.2383 112.818C55.2383 111.484 56.3197 110.399 57.6487 110.399H126.625C127.954 110.399 129.036 111.484 129.036 112.818C129.036 114.152 127.954 115.237 126.625 115.237Z" fill="#EA426A"/>
<path d="M254.636 368.193C258.611 368.193 261.834 365.027 261.834 361.122C261.834 357.216 258.611 354.05 254.636 354.05C250.661 354.05 247.438 357.216 247.438 361.122C247.438 365.027 250.661 368.193 254.636 368.193Z" fill="#E0E0E0"/>
<path d="M312.336 358.703H273.594C272.265 358.703 271.184 357.617 271.184 356.283C271.184 354.95 272.265 353.864 273.594 353.864H312.336C313.665 353.864 314.746 354.95 314.746 356.283C314.746 357.617 313.665 358.703 312.336 358.703Z" fill="#E0E0E0"/>
<path d="M342.57 366.891H273.594C272.265 366.891 271.184 365.805 271.184 364.471C271.184 363.138 272.265 362.052 273.594 362.052H342.57C343.899 362.052 344.981 363.138 344.981 364.471C344.981 365.805 343.899 366.891 342.57 366.891Z" fill="#E0E0E0"/>
<path d="M168.121 139.681H166.336V224.76H168.121V139.681Z" fill="#DDDDDD"/>
<path d="M167.228 230.133C170.185 230.133 172.582 227.728 172.582 224.76C172.582 221.792 170.185 219.387 167.228 219.387C164.271 219.387 161.874 221.792 161.874 224.76C161.874 227.728 164.271 230.133 167.228 230.133Z" fill="#E6E6E6"/>
<path d="M248.43 291.927C251.387 291.927 253.784 289.521 253.784 286.554C253.784 283.586 251.387 281.18 248.43 281.18C245.473 281.18 243.076 283.586 243.076 286.554C243.076 289.521 245.473 291.927 248.43 291.927Z" fill="#DDDDDD"/>
<path d="M103.873 218.491C106.83 218.491 109.227 216.085 109.227 213.118C109.227 210.15 106.83 207.744 103.873 207.744C100.916 207.744 98.5186 210.15 98.5186 213.118C98.5186 216.085 100.916 218.491 103.873 218.491Z" fill="#DDDDDD"/>
<path d="M101.893 213.126L72.6133 214.015L72.6673 215.807L101.947 214.917L101.893 213.126Z" fill="#DDDDDD"/>
<path d="M291.987 307.125H247.588V286.554H249.373V305.334H291.987V307.125Z" fill="#DDDDDD"/>
<path d="M101.674 277.164C104.631 277.164 107.028 274.758 107.028 271.791C107.028 268.823 104.631 266.417 101.674 266.417C98.7174 266.417 96.3203 268.823 96.3203 271.791C96.3203 274.758 98.7174 277.164 101.674 277.164Z" fill="#DDDDDD"/>
<path d="M144.702 292.361H100.303V271.791H102.087V290.57H144.702V292.361Z" fill="#DDDDDD"/>
<path d="M280.555 251.344H67.3027V253.135H280.555V251.344Z" fill="#E6E6E6"/>
<path d="M319.205 304.72C331.269 313.029 349.701 307.221 349.701 307.221C349.701 307.221 348.559 287.941 336.486 279.639C324.423 271.33 306 277.13 306 277.13C306 277.13 307.141 296.409 319.205 304.72Z" fill="url(#paint0_linear_9725_67)"/>
<path d="M89.9331 346.161H90.0637C90.8383 357.135 99 357.304 99 357.304C99 357.304 90 357.48 90 370.161C90 357.48 81 357.304 81 357.304C81 357.304 89.1585 357.136 89.9331 346.161Z" fill="#F1A045"/>
<path d="M359.063 187.161H358.933C358.158 198.135 350 198.304 350 198.304C350 198.304 359 198.48 359 211.161C359 198.48 368 198.304 368 198.304C368 198.304 359.838 198.135 359.063 187.161Z" fill="#F1A045"/>
<path d="M214.057 121.875C226.121 130.185 244.552 124.377 244.552 124.377C244.552 124.377 243.41 105.097 231.338 96.795C219.274 88.4855 200.852 94.2861 200.852 94.2861C200.852 94.2861 201.992 113.565 214.057 121.875Z" fill="url(#paint1_linear_9725_67)"/>
<path d="M55.3431 179.557C42.7985 192.325 19.3398 189.633 19.3398 189.633C19.3398 189.633 16.2358 166.24 28.792 153.48C41.3366 140.712 64.7838 143.396 64.7838 143.396C64.7838 143.396 67.8877 166.789 55.3431 179.557Z" fill="url(#paint2_linear_9725_67)"/>
<path d="M191.539 281.398H150.009C148.019 281.398 146.407 279.785 146.407 277.796V234.414C146.407 232.424 148.02 230.812 150.009 230.812H191.538C193.528 230.812 195.14 232.425 195.14 234.414V277.796C195.141 279.785 193.528 281.398 191.539 281.398Z" fill="#024EFB"/>
<path d="M157.248 236.623H156.851C156.228 236.623 155.719 236.114 155.719 235.491V226.132C155.719 225.509 156.228 225 156.851 225H157.248C157.87 225 158.38 225.509 158.38 226.132V235.491C158.38 236.113 157.871 236.623 157.248 236.623Z" fill="#024EFB"/>
<path d="M164.11 236.623H163.713C163.09 236.623 162.581 236.114 162.581 235.491V226.132C162.581 225.509 163.09 225 163.713 225H164.11C164.732 225 165.242 225.509 165.242 226.132V235.491C165.242 236.113 164.733 236.623 164.11 236.623Z" fill="#024EFB"/>
<path d="M170.971 236.623H170.574C169.951 236.623 169.442 236.114 169.442 235.491V226.132C169.442 225.509 169.951 225 170.574 225H170.971C171.593 225 172.103 225.509 172.103 226.132V235.491C172.103 236.113 171.594 236.623 170.971 236.623Z" fill="#024EFB"/>
<path d="M177.834 236.623H177.437C176.814 236.623 176.305 236.114 176.305 235.491V226.132C176.305 225.509 176.814 225 177.437 225H177.834C178.456 225 178.966 225.509 178.966 226.132V235.491C178.966 236.113 178.457 236.623 177.834 236.623Z" fill="#024EFB"/>
<path d="M184.696 236.623H184.299C183.676 236.623 183.167 236.114 183.167 235.491V226.132C183.167 225.509 183.676 225 184.299 225H184.696C185.319 225 185.828 225.509 185.828 226.132V235.491C185.828 236.113 185.319 236.623 184.696 236.623Z" fill="#024EFB"/>
<path d="M157.248 287.209H156.851C156.228 287.209 155.719 286.7 155.719 286.077V276.718C155.719 276.095 156.228 275.586 156.851 275.586H157.248C157.87 275.586 158.38 276.095 158.38 276.718V286.077C158.38 286.7 157.871 287.209 157.248 287.209Z" fill="#024EFB"/>
<path d="M164.11 287.209H163.713C163.09 287.209 162.581 286.7 162.581 286.077V276.718C162.581 276.095 163.09 275.586 163.713 275.586H164.11C164.732 275.586 165.242 276.095 165.242 276.718V286.077C165.242 286.7 164.733 287.209 164.11 287.209Z" fill="#024EFB"/>
<path d="M170.971 287.209H170.574C169.951 287.209 169.442 286.7 169.442 286.077V276.718C169.442 276.095 169.951 275.586 170.574 275.586H170.971C171.593 275.586 172.103 276.095 172.103 276.718V286.077C172.103 286.7 171.594 287.209 170.971 287.209Z" fill="#024EFB"/>
<path d="M177.834 287.209H177.437C176.814 287.209 176.305 286.7 176.305 286.077V276.718C176.305 276.095 176.814 275.586 177.437 275.586H177.834C178.456 275.586 178.966 276.095 178.966 276.718V286.077C178.966 286.7 178.457 287.209 177.834 287.209Z" fill="#024EFB"/>
<path d="M184.696 287.209H184.299C183.676 287.209 183.167 286.7 183.167 286.077V276.718C183.167 276.095 183.676 275.586 184.299 275.586H184.696C185.319 275.586 185.828 276.095 185.828 276.718V286.077C185.828 286.7 185.319 287.209 184.696 287.209Z" fill="#024EFB"/>
<path d="M152.623 269.63V270.027C152.623 270.649 152.114 271.159 151.491 271.159H142.132C141.51 271.159 141 270.65 141 270.027V269.63C141 269.007 141.509 268.498 142.132 268.498H151.491C152.113 268.498 152.623 269.007 152.623 269.63Z" fill="#024EFB"/>
<path d="M152.623 262.768V263.165C152.623 263.787 152.114 264.297 151.491 264.297H142.132C141.51 264.297 141 263.788 141 263.165V262.768C141 262.145 141.509 261.636 142.132 261.636H151.491C152.113 261.636 152.623 262.145 152.623 262.768Z" fill="#024EFB"/>
<path d="M152.623 255.906V256.303C152.623 256.925 152.114 257.435 151.491 257.435H142.132C141.51 257.435 141 256.926 141 256.303V255.906C141 255.283 141.509 254.774 142.132 254.774H151.491C152.113 254.774 152.623 255.283 152.623 255.906Z" fill="#024EFB"/>
<path d="M152.623 249.044V249.441C152.623 250.063 152.114 250.573 151.491 250.573H142.132C141.51 250.573 141 250.064 141 249.441V249.044C141 248.421 141.509 247.912 142.132 247.912H151.491C152.113 247.912 152.623 248.421 152.623 249.044Z" fill="#024EFB"/>
<path d="M152.623 242.182V242.579C152.623 243.202 152.114 243.711 151.491 243.711H142.132C141.51 243.711 141 243.202 141 242.579V242.182C141 241.559 141.509 241.05 142.132 241.05H151.491C152.113 241.05 152.623 241.559 152.623 242.182Z" fill="#024EFB"/>
<path d="M200.953 269.63V270.027C200.953 270.649 200.444 271.159 199.821 271.159H190.462C189.84 271.159 189.33 270.65 189.33 270.027V269.63C189.33 269.007 189.839 268.498 190.462 268.498H199.821C200.443 268.498 200.953 269.007 200.953 269.63Z" fill="#024EFB"/>
<path d="M200.953 262.768V263.165C200.953 263.787 200.444 264.297 199.821 264.297H190.462C189.84 264.297 189.33 263.788 189.33 263.165V262.768C189.33 262.145 189.839 261.636 190.462 261.636H199.821C200.443 261.636 200.953 262.145 200.953 262.768Z" fill="#024EFB"/>
<path d="M200.953 255.906V256.303C200.953 256.925 200.444 257.435 199.821 257.435H190.462C189.84 257.435 189.33 256.926 189.33 256.303V255.906C189.33 255.283 189.839 254.774 190.462 254.774H199.821C200.443 254.774 200.953 255.283 200.953 255.906Z" fill="#024EFB"/>
<path d="M200.953 249.044V249.441C200.953 250.063 200.444 250.573 199.821 250.573H190.462C189.84 250.573 189.33 250.064 189.33 249.441V249.044C189.33 248.421 189.839 247.912 190.462 247.912H199.821C200.443 247.912 200.953 248.421 200.953 249.044Z" fill="#024EFB"/>
<path d="M200.953 242.182V242.579C200.953 243.202 200.444 243.711 199.821 243.711H190.462C189.84 243.711 189.33 243.202 189.33 242.579V242.182C189.33 241.559 189.839 241.05 190.462 241.05H199.821C200.443 241.05 200.953 241.559 200.953 242.182Z" fill="#024EFB"/>
<path d="M170.802 262.29H160.689V259.391H170.802V262.29ZM165.274 248.198H166.218L158.97 268.662H155.598L164.06 245.063H167.431L175.893 268.662H172.522L165.274 248.198ZM178.833 268.662V245.063H182.036V268.662H178.833Z" fill="white"/>
</g>
<defs>
<linearGradient id="paint0_linear_9725_67" x1="366.201" y1="331.985" x2="271.233" y2="231.845" gradientUnits="userSpaceOnUse">
<stop stop-color="#024EFB"/>
<stop offset="1" stop-color="#EEEEEE"/>
</linearGradient>
<linearGradient id="paint1_linear_9725_67" x1="261.052" y1="149.141" x2="166.085" y2="49.0007" gradientUnits="userSpaceOnUse">
<stop stop-color="#024EFB"/>
<stop offset="1" stop-color="#EEEEEE"/>
</linearGradient>
<linearGradient id="paint2_linear_9725_67" x1="5.29155" y1="223.17" x2="95.9832" y2="81.004" gradientUnits="userSpaceOnUse">
<stop stop-color="#024EFB"/>
<stop offset="1" stop-color="#EEEEEE"/>
</linearGradient>
<clipPath id="clip0_9725_67">
<rect width="504" height="402.951" fill="white"/>
</clipPath>
</defs>
</svg>
