<svg width="40" height="41" viewBox="0 0 40 41" fill="none" xmlns="http://www.w3.org/2000/svg">
<path fill-rule="evenodd" clip-rule="evenodd" d="M1.99991 39.6867V5.49562C1.99991 3.94906 3.2535 2.69547 4.80007 2.69547H35.1999C36.7465 2.69547 38.0001 3.94906 38.0001 5.49562L37.9927 39.6781C37.9927 40.2306 38.4498 40.6876 39.0022 40.6876C39.5543 40.6876 39.9926 40.2305 39.9926 39.6781L40 5.49562C40 2.84444 37.8511 0.695557 35.1999 0.695557H4.80007C2.14889 0.695557 0 2.84444 0 5.49562V39.6867C0 40.2391 0.447667 40.6868 0.999786 40.6868C1.55225 40.6868 1.99991 40.2391 1.99991 39.6867ZM6.00009 33.6956C6.00009 33.1431 6.44775 32.6955 6.99987 32.6955H21.0006C21.5528 32.6955 22.0004 33.1431 22.0004 33.6956C22.0004 34.2477 21.5528 34.6954 21.0006 34.6954H6.99987C6.44774 34.6954 6.00009 34.2477 6.00009 33.6956ZM17 26.6954C16.4478 26.6954 15.9998 27.143 15.9998 27.6955C15.9998 28.2476 16.4478 28.6953 17 28.6953H33.0005C33.5526 28.6953 34.0003 28.2476 34.0003 27.6955C34.0003 27.143 33.5526 26.6954 33.0005 26.6954H17ZM6.00009 27.6955C6.00009 27.143 6.44775 26.6954 6.99987 26.6954H13C13.5524 26.6954 14.0001 27.143 14.0001 27.6955C14.0001 28.2476 13.5524 28.6953 13 28.6953H6.99987C6.44774 28.6953 6.00009 28.2476 6.00009 27.6955ZM6.99987 38.6954C6.44774 38.6954 6.00009 39.143 6.00009 39.6955C6.00009 40.2476 6.44775 40.6953 6.99987 40.6953H15.0002C15.5523 40.6953 16 40.2476 16 39.6955C16 39.143 15.5523 38.6954 15.0002 38.6954H6.99987ZM18.0006 39.6955C18.0006 39.143 18.4483 38.6954 19.0004 38.6954H27.0007C27.5529 38.6954 28.0005 39.143 28.0005 39.6955C28.0005 40.2476 27.5528 40.6953 27.0007 40.6953H19.0004C18.4483 40.6953 18.0006 40.2476 18.0006 39.6955ZM31.0002 38.6954C30.4481 38.6954 30.0004 39.143 30.0004 39.6955C30.0004 40.2476 30.4481 40.6953 31.0002 40.6953H33.0005C33.5526 40.6953 34.0003 40.2476 34.0003 39.6955C34.0003 39.143 33.5526 38.6954 33.0005 38.6954H31.0002ZM24.0003 33.6954C24.0003 33.143 24.448 32.6953 25.0001 32.6953H33.0005C33.5526 32.6953 34.0003 33.143 34.0003 33.6954C34.0003 34.2476 33.5526 34.6952 33.0005 34.6952H25.0001C24.448 34.6952 24.0003 34.2475 24.0003 33.6954ZM16.7075 19.4024L13.7071 22.4024C13.3167 22.7928 12.6836 22.7928 12.2928 22.4024C11.9024 22.0117 11.9024 21.3785 12.2928 20.9878L15.2928 17.9877C15.327 17.9542 15.3625 17.9234 15.3997 17.8953C14.5207 16.7255 14.0001 15.271 14.0001 13.6949C14.0001 9.82896 17.134 6.69503 21.0003 6.69503C24.8662 6.69503 28.0002 9.82896 28.0002 13.6949C28.0002 17.5611 24.8662 20.6951 21.0003 20.6951C19.4243 20.6951 17.9698 20.1745 16.7999 19.2956C16.7718 19.3327 16.741 19.3682 16.7075 19.4024ZM25.9999 13.6949C25.9999 16.4566 23.7613 18.6952 21 18.6952C18.2383 18.6952 15.9997 16.4566 15.9997 13.6949C15.9997 10.9336 18.2383 8.69496 21 8.69496C23.7613 8.69496 25.9999 10.9336 25.9999 13.6949Z" fill="#024EFB"/>
</svg>
