<svg width="566" height="510" viewBox="0 0 566 510" fill="none" xmlns="http://www.w3.org/2000/svg">
<g clip-path="url(#clip0_906_1225)">
<path d="M351.666 296.362H144.346C137.316 296.354 130.576 293.559 125.604 288.591C120.633 283.622 117.837 276.885 117.829 269.858V26.5039C117.837 19.4771 120.633 12.7403 125.604 7.77159C130.576 2.80286 137.316 0.00793752 144.346 0H337.223L378.183 32.6311V269.858C378.175 276.885 375.379 283.622 370.408 288.591C365.436 293.559 358.696 296.354 351.666 296.362Z" fill="#E6E6E6"/>
<path d="M144.346 7.62988C139.34 7.63552 134.54 9.62584 131 13.1642C127.459 16.7025 125.468 21.4999 125.462 26.5039V269.858C125.468 274.862 127.459 279.66 131 283.198C134.54 286.736 139.34 288.727 144.346 288.732H351.666C356.672 288.727 361.472 286.736 365.012 283.198C368.552 279.66 370.544 274.862 370.549 269.858V36.3068L334.553 7.62988H144.346Z" fill="white"/>
<path d="M311.342 78.3909H216.952C216.372 78.3909 215.798 78.2768 215.262 78.055C214.726 77.8332 214.24 77.5081 213.83 77.0982C213.419 76.6884 213.094 76.2018 212.872 75.6663C212.65 75.1309 212.536 74.5569 212.536 73.9773C212.536 73.3977 212.65 72.8238 212.872 72.2883C213.094 71.7528 213.419 71.2663 213.83 70.8564C214.24 70.4466 214.726 70.1215 215.262 69.8997C215.798 69.6779 216.372 69.5637 216.952 69.5637H311.342C311.922 69.5637 312.496 69.6779 313.032 69.8997C313.567 70.1215 314.054 70.4466 314.464 70.8564C314.874 71.2663 315.2 71.7528 315.421 72.2883C315.643 72.8238 315.758 73.3977 315.758 73.9773C315.758 74.5569 315.643 75.1309 315.421 75.6663C315.2 76.2018 314.874 76.6884 314.464 77.0982C314.054 77.5081 313.567 77.8332 313.032 78.055C312.496 78.2768 311.922 78.3909 311.342 78.3909Z" fill="#CCCCCC"/>
<path d="M329.557 93.2867H216.952C215.781 93.2867 214.658 92.8217 213.83 91.994C213.001 91.1663 212.536 90.0437 212.536 88.8731C212.536 87.7025 213.001 86.5799 213.83 85.7522C214.658 84.9245 215.781 84.4595 216.952 84.4595H329.557C330.728 84.4595 331.852 84.9245 332.68 85.7522C333.508 86.5799 333.973 87.7025 333.973 88.8731C333.973 90.0437 333.508 91.1663 332.68 91.994C331.852 92.8217 330.728 93.2867 329.557 93.2867Z" fill="#CCCCCC"/>
<path d="M311.342 145.147H216.952C215.781 145.147 214.658 144.682 213.83 143.854C213.001 143.026 212.536 141.904 212.536 140.733C212.536 139.563 213.001 138.44 213.83 137.612C214.658 136.785 215.781 136.32 216.952 136.32H311.342C312.513 136.32 313.636 136.785 314.464 137.612C315.292 138.44 315.758 139.563 315.758 140.733C315.758 141.904 315.292 143.026 314.464 143.854C313.636 144.682 312.513 145.147 311.342 145.147Z" fill="#CCCCCC"/>
<path d="M329.557 160.043H216.952C215.781 160.043 214.658 159.578 213.83 158.75C213.001 157.922 212.536 156.8 212.536 155.629C212.536 154.458 213.001 153.336 213.83 152.508C214.658 151.68 215.781 151.215 216.952 151.215H329.557C330.728 151.215 331.852 151.68 332.68 152.508C333.508 153.336 333.973 154.458 333.973 155.629C333.973 156.8 333.508 157.922 332.68 158.75C331.852 159.578 330.728 160.043 329.557 160.043Z" fill="#CCCCCC"/>
<path d="M311.342 211.903H216.952C215.781 211.903 214.658 211.438 213.83 210.61C213.001 209.782 212.536 208.66 212.536 207.489C212.536 206.318 213.001 205.196 213.83 204.368C214.658 203.54 215.781 203.075 216.952 203.075H311.342C312.513 203.075 313.636 203.54 314.464 204.368C315.292 205.196 315.758 206.318 315.758 207.489C315.758 208.66 315.292 209.782 314.464 210.61C313.636 211.438 312.513 211.903 311.342 211.903Z" fill="#CCCCCC"/>
<path d="M329.557 226.799H216.952C215.781 226.799 214.658 226.334 213.83 225.506C213.001 224.678 212.536 223.556 212.536 222.385C212.536 221.214 213.001 220.092 213.83 219.264C214.658 218.436 215.781 217.971 216.952 217.971H329.557C330.728 217.971 331.852 218.436 332.68 219.264C333.508 220.092 333.973 221.214 333.973 222.385C333.973 223.556 333.508 224.678 332.68 225.506C331.852 226.334 330.728 226.799 329.557 226.799Z" fill="#CCCCCC"/>
<path d="M177.646 97.0248C186.266 97.0248 193.254 90.0406 193.254 81.4251C193.254 72.8097 186.266 65.8254 177.646 65.8254C169.026 65.8254 162.038 72.8097 162.038 81.4251C162.038 90.0406 169.026 97.0248 177.646 97.0248Z" fill="#024EFB"/>
<path d="M176.099 87.376C175.748 87.3766 175.406 87.2631 175.125 87.0526L175.108 87.0395L171.44 84.235C171.097 83.972 170.873 83.5837 170.817 83.1556C170.76 82.7274 170.876 82.2944 171.139 81.9517C171.402 81.609 171.79 81.3846 172.219 81.3278C172.647 81.2711 173.08 81.3866 173.423 81.6491L175.799 83.4701L181.414 76.1494C181.544 75.9797 181.706 75.8373 181.891 75.7302C182.077 75.6232 182.281 75.5537 182.493 75.5257C182.705 75.4977 182.921 75.5118 183.128 75.567C183.334 75.6223 183.528 75.7177 183.698 75.8478L183.698 75.8482L183.664 75.8965L183.699 75.8482C184.042 76.1113 184.266 76.4996 184.323 76.9277C184.379 77.3559 184.263 77.7889 184.001 78.1319L177.397 86.7387C177.244 86.9371 177.048 87.0975 176.823 87.2077C176.598 87.3179 176.351 87.3748 176.101 87.3741L176.099 87.376Z" fill="white"/>
<path d="M179.253 163.781C187.873 163.781 194.861 156.796 194.861 148.181C194.861 139.566 187.873 132.581 179.253 132.581C170.633 132.581 163.646 139.566 163.646 148.181C163.646 156.796 170.633 163.781 179.253 163.781Z" fill="#CCCCCC"/>
<path d="M177.646 230.537C186.266 230.537 193.254 223.553 193.254 214.937C193.254 206.322 186.266 199.337 177.646 199.337C169.026 199.337 162.038 206.322 162.038 214.937C162.038 223.553 169.026 230.537 177.646 230.537Z" fill="#CCCCCC"/>
<path d="M377.386 33.6813H345.3C342.958 33.6813 340.712 32.7513 339.056 31.0959C337.399 29.4405 336.469 27.1952 336.469 24.8541V1.16841C336.469 1.06471 336.498 0.963105 336.553 0.875257C336.608 0.787409 336.687 0.716868 336.78 0.671724C336.874 0.62658 336.978 0.60866 337.081 0.62002C337.184 0.631381 337.282 0.671561 337.363 0.735953L377.729 32.6972C377.819 32.7683 377.884 32.8656 377.916 32.9756C377.948 33.0856 377.945 33.2028 377.907 33.311C377.87 33.4192 377.799 33.5129 377.706 33.5793C377.612 33.6457 377.501 33.6813 377.386 33.6813Z" fill="#E6E6E6"/>
<path d="M160.189 341.959L37.5281 367.8C33.9834 368.543 30.2886 367.85 27.2545 365.873C24.2204 363.896 22.0947 360.797 21.3437 357.256L0.295327 257.449C-0.447677 253.906 0.245739 250.214 2.22345 247.181C4.20115 244.149 7.30164 242.024 10.8447 241.273L133.505 215.432C137.05 214.689 140.745 215.382 143.779 217.359C146.813 219.336 148.939 222.435 149.69 225.976L170.738 325.783C171.481 329.326 170.788 333.018 168.81 336.051C166.832 339.084 163.732 341.208 160.189 341.959Z" fill="white"/>
<path d="M160.189 341.959L37.5281 367.8C33.9834 368.543 30.2886 367.85 27.2545 365.873C24.2204 363.896 22.0947 360.797 21.3437 357.256L0.295327 257.449C-0.447677 253.906 0.245739 250.214 2.22345 247.181C4.20115 244.149 7.30164 242.024 10.8447 241.273L133.505 215.432C137.05 214.689 140.745 215.382 143.779 217.359C146.813 219.336 148.939 222.435 149.69 225.976L170.738 325.783C171.481 329.326 170.788 333.018 168.81 336.051C166.832 339.084 163.732 341.208 160.189 341.959ZM11.1762 242.845C8.04995 243.507 5.31424 245.382 3.56921 248.058C1.82417 250.734 1.21232 253.992 1.86789 257.118L22.9163 356.925C23.5789 360.05 25.4546 362.784 28.1317 364.528C30.8089 366.272 34.0689 366.884 37.1966 366.228L159.857 340.387C162.984 339.725 165.719 337.85 167.464 335.174C169.209 332.499 169.821 329.24 169.166 326.114L148.117 226.307C147.455 223.183 145.579 220.448 142.902 218.704C140.225 216.96 136.965 216.348 133.837 217.004L11.1762 242.845Z" fill="#3F3D56"/>
<path d="M125.884 248.341L63.9788 261.383C63.4371 261.509 62.8678 261.424 62.3861 261.146C61.9044 260.868 61.5462 260.418 61.3839 259.887C61.3096 259.609 61.2927 259.32 61.3341 259.036C61.3755 258.752 61.4743 258.479 61.6246 258.235C61.7749 257.99 61.9735 257.779 62.2082 257.613C62.4429 257.448 62.7089 257.332 62.9899 257.273L126.006 243.997C128.466 245.383 127.688 247.961 125.883 248.341L125.884 248.341Z" fill="#CCCCCC"/>
<path d="M128.173 259.194L66.2679 272.236C65.7262 272.361 65.1569 272.277 64.6752 271.999C64.1935 271.721 63.8353 271.271 63.6729 270.739C63.5987 270.462 63.5818 270.173 63.6231 269.889C63.6645 269.605 63.7634 269.332 63.9137 269.088C64.064 268.843 64.2625 268.632 64.4972 268.466C64.732 268.301 64.9979 268.185 65.2789 268.126L128.295 254.85C130.755 256.236 129.977 258.814 128.172 259.194L128.173 259.194Z" fill="#CCCCCC"/>
<path d="M54.1886 281.235L35.2957 285.215C34.6787 285.344 34.0355 285.223 33.5074 284.879C32.9793 284.535 32.6093 283.996 32.4786 283.379L27.7792 261.096C27.6498 260.479 27.7705 259.836 28.1147 259.308C28.459 258.781 28.9987 258.411 29.6154 258.28L48.5083 254.3C49.1253 254.171 49.7683 254.292 50.2964 254.636C50.8245 254.98 51.1945 255.519 51.3254 256.135L56.0248 278.419C56.1542 279.036 56.0335 279.678 55.6893 280.206C55.345 280.734 54.8053 281.104 54.1886 281.235V281.235Z" fill="#CCCCCC"/>
<path d="M132.679 281.454L38.2005 301.358C37.6588 301.484 37.0895 301.399 36.6078 301.121C36.1261 300.843 35.7679 300.393 35.6055 299.862C35.5313 299.584 35.5144 299.295 35.5558 299.011C35.5972 298.727 35.696 298.454 35.8463 298.21C35.9966 297.965 36.1951 297.754 36.4299 297.588C36.6646 297.423 36.9306 297.307 37.2115 297.248L132.802 277.11C135.262 278.496 134.484 281.073 132.679 281.454Z" fill="#CCCCCC"/>
<path d="M134.969 292.31L40.4901 312.214C39.9483 312.34 39.3791 312.255 38.8974 311.977C38.4157 311.7 38.0574 311.249 37.8951 310.718C37.8209 310.44 37.8039 310.151 37.8453 309.867C37.8867 309.583 37.9856 309.31 38.1358 309.066C38.2861 308.821 38.4847 308.61 38.7194 308.445C38.9541 308.279 39.2201 308.163 39.5011 308.104L135.091 287.966C137.552 289.352 136.774 291.929 134.969 292.31Z" fill="#CCCCCC"/>
<path d="M137.256 303.159L42.7776 323.063C42.2359 323.189 41.6666 323.104 41.1849 322.826C40.7032 322.549 40.345 322.098 40.1827 321.567C40.1085 321.29 40.0915 321 40.1329 320.716C40.1743 320.432 40.2732 320.159 40.4234 319.915C40.5737 319.67 40.7723 319.459 41.007 319.294C41.2417 319.128 41.5077 319.012 41.7887 318.953L137.379 298.815C139.839 300.201 139.062 302.779 137.256 303.159Z" fill="#CCCCCC"/>
<path d="M139.546 314.014L45.0672 333.918C44.5255 334.044 43.9562 333.959 43.4745 333.682C42.9928 333.404 42.6346 332.954 42.4722 332.422C42.398 332.145 42.3811 331.855 42.4225 331.571C42.4639 331.287 42.5627 331.015 42.713 330.77C42.8633 330.525 43.0618 330.314 43.2966 330.149C43.5313 329.983 43.7973 329.868 44.0782 329.808L139.668 309.67C142.129 311.056 141.351 313.634 139.546 314.014Z" fill="#CCCCCC"/>
<path d="M141.834 324.864L47.3553 344.768C46.8135 344.894 46.2443 344.809 45.7626 344.531C45.2809 344.254 44.9227 343.803 44.7603 343.272C44.6861 342.995 44.6692 342.705 44.7106 342.421C44.7519 342.137 44.8508 341.864 45.0011 341.62C45.1514 341.375 45.3499 341.164 45.5846 340.999C45.8194 340.833 46.0853 340.718 46.3663 340.658L141.956 320.52C144.417 321.906 143.639 324.484 141.834 324.864Z" fill="#CCCCCC"/>
<path d="M158.511 275.176C158.297 275.565 158.113 275.971 157.962 276.389L119.284 285.982L112.556 279.024L100.723 287.802L111.437 301.275C112.303 302.364 113.498 303.142 114.844 303.494C116.19 303.845 117.614 303.751 118.902 303.225L160.871 286.084C162.251 287.099 163.907 287.67 165.619 287.721C167.331 287.773 169.018 287.302 170.456 286.371C171.894 285.441 173.014 284.095 173.668 282.513C174.322 280.93 174.478 279.186 174.116 277.513C173.754 275.84 172.891 274.316 171.642 273.145C170.392 271.974 168.816 271.211 167.122 270.957C165.428 270.703 163.696 270.971 162.158 271.725C160.62 272.478 159.348 273.682 158.512 275.176L158.511 275.176Z" fill="#A0616A"/>
<path d="M26.4887 360.544C27.6945 360.172 28.804 359.54 29.739 358.693C30.6741 357.846 31.4119 356.804 31.9005 355.641C32.3892 354.478 32.6168 353.223 32.5673 351.962C32.5177 350.702 32.1923 349.468 31.614 348.346L58.2314 274.403L39.7465 271.128L19.3949 344.842C17.575 345.938 16.2205 347.663 15.5881 349.691C14.9558 351.718 15.0894 353.907 15.9638 355.843C16.8382 357.778 18.3926 359.326 20.3324 360.192C22.2722 361.059 24.4626 361.184 26.4887 360.544Z" fill="#A0616A"/>
<path d="M54.8514 287.528L36.6004 280.527C36.0811 280.328 35.6109 280.02 35.2217 279.622C34.8326 279.225 34.5337 278.749 34.3453 278.226C34.157 277.703 34.0837 277.145 34.1304 276.591C34.177 276.037 34.3426 275.5 34.6158 275.015L44.1903 258.048C45.2252 255.399 47.269 253.268 49.8736 252.122C52.4782 250.976 55.431 250.91 58.0847 251.937C60.7384 252.963 62.8765 255 64.0301 257.6C65.1838 260.2 65.259 263.151 64.2392 265.806L60.016 284.759C59.8949 285.301 59.6583 285.811 59.3222 286.254C58.986 286.697 58.5583 287.063 58.0682 287.326C57.5781 287.588 57.037 287.743 56.4819 287.778C55.9268 287.813 55.3706 287.728 54.8514 287.528V287.528Z" fill="#024EFB"/>
<path d="M96.046 499.371L105.898 499.37L110.584 461.391L96.0444 461.392L96.046 499.371Z" fill="#A0616A"/>
<path d="M93.5327 496.156L112.934 496.156H112.935C114.558 496.155 116.166 496.475 117.666 497.096C119.166 497.717 120.529 498.627 121.677 499.775C122.825 500.922 123.736 502.285 124.357 503.784C124.979 505.283 125.299 506.89 125.299 508.513V508.915L93.5333 508.916L93.5327 496.156Z" fill="#2F2E41"/>
<path d="M40.6002 499.371L50.4519 499.37L55.1383 461.391L40.5986 461.392L40.6002 499.371Z" fill="#A0616A"/>
<path d="M38.0869 496.156L57.488 496.156H57.4888C59.1125 496.155 60.7202 496.475 62.2203 497.096C63.7204 497.717 65.0834 498.627 66.2315 499.775C67.3796 500.922 68.2903 502.285 68.9117 503.784C69.533 505.283 69.8528 506.89 69.8528 508.513V508.915L38.0875 508.916L38.0869 496.156Z" fill="#2F2E41"/>
<path d="M50.9277 484.085H38.4607C37.9714 484.085 37.4872 483.985 37.0374 483.793C36.5876 483.6 36.1815 483.319 35.8439 482.965C35.5062 482.611 35.2439 482.192 35.0729 481.734C34.9018 481.275 34.8256 480.787 34.8488 480.299L40.7706 353.135L41.1437 353.124L101.346 351.556L113.127 478.793C113.172 479.27 113.122 479.751 112.979 480.209C112.837 480.666 112.605 481.091 112.297 481.458C111.989 481.825 111.611 482.127 111.185 482.347C110.759 482.566 110.293 482.699 109.815 482.737L95.8122 483.857C94.9325 483.927 94.0575 483.673 93.352 483.143C92.6465 482.613 92.1591 481.844 91.9815 480.98L74.0698 390.403C74.021 390.128 73.8749 389.88 73.6583 389.703C73.4417 389.526 73.1689 389.433 72.8894 389.44H72.8845C72.604 389.434 72.3306 389.529 72.1143 389.707C71.898 389.886 71.7531 390.136 71.7062 390.413L54.4757 481.169C54.3125 481.99 53.8699 482.729 53.2231 483.26C52.5762 483.792 51.7652 484.083 50.9277 484.085Z" fill="#2F2E41"/>
<path d="M73.7647 239.72C84.6648 239.72 93.501 230.888 93.501 219.994C93.501 209.1 84.6648 200.268 73.7647 200.268C62.8646 200.268 54.0283 209.1 54.0283 219.994C54.0283 230.888 62.8646 239.72 73.7647 239.72Z" fill="#A0616A"/>
<path d="M67.1467 368.037C57.7399 368.037 48.0779 365.565 40.0682 358.259C39.6419 357.872 39.3129 357.391 39.1077 356.854C38.9025 356.317 38.827 355.739 38.8874 355.167C39.7447 347.468 43.9033 307.716 41.5613 281.162C41.1043 276.202 41.8069 271.203 43.6136 266.561C45.4203 261.919 48.2817 257.76 51.972 254.413C55.5976 251.073 59.9503 248.621 64.6864 247.25C69.4225 245.88 74.4125 245.628 79.2627 246.515H79.2629C79.5087 246.559 79.7544 246.605 80.0004 246.652C95.8013 249.709 106.78 264.325 105.538 280.65C103.725 304.472 102.1 336.693 104.651 354.916C104.757 355.661 104.627 356.421 104.279 357.089C103.931 357.757 103.383 358.299 102.711 358.64C96.9054 361.572 82.3598 368.037 67.1467 368.037Z" fill="#024EFB"/>
<path d="M92.9008 288.948C92.4377 288.64 92.0465 288.236 91.754 287.763C91.4614 287.29 91.2744 286.76 91.2057 286.208L88.8011 266.941C88.0378 264.2 88.3928 261.27 89.7881 258.791C91.1834 256.312 93.5053 254.487 96.2447 253.716C98.984 252.946 101.917 253.293 104.401 254.68C106.885 256.068 108.718 258.383 109.496 261.119L117.416 278.918C117.642 279.426 117.756 279.977 117.75 280.532C117.744 281.088 117.618 281.636 117.381 282.139C117.144 282.642 116.801 283.088 116.376 283.447C115.951 283.805 115.453 284.068 114.917 284.217L96.084 289.455C95.5482 289.604 94.9864 289.636 94.437 289.549C93.8876 289.461 93.3636 289.256 92.9008 288.948Z" fill="#024EFB"/>
<path d="M66.8751 239.442C65.0071 239.476 63.1506 239.141 61.4131 238.454C60.6486 238.159 59.855 237.917 59.0919 237.623C52.3527 235.02 47.9134 227.847 47.7544 220.628C47.5954 213.408 51.3359 206.402 56.8902 201.784C62.4446 197.166 69.6388 194.795 76.8426 194.247C84.6023 193.657 93.34 195.623 97.676 202.082C98.8302 203.802 99.6374 205.888 98.9535 207.963C98.7486 208.59 98.3828 209.152 97.8925 209.592C95.9561 211.314 94.0256 210.019 92.0516 209.905C89.3383 209.748 86.9014 211.943 86.0255 214.514C85.1496 217.086 85.5351 219.917 86.2424 222.54C86.7811 224.118 87.1208 225.757 87.2535 227.42C87.3106 228.253 87.1537 229.087 86.7978 229.843C86.4418 230.599 85.8987 231.252 85.2197 231.739C83.5242 232.764 81.2977 232.171 79.6012 231.148C77.9048 230.125 76.4389 228.704 74.6064 227.951C72.774 227.198 70.3121 227.365 69.2455 229.034C68.9065 229.641 68.6771 230.303 68.5677 230.99C67.6115 235.344 67.8313 235.088 66.8751 239.442V239.442Z" fill="#2F2E41"/>
<path d="M499.454 510H3.14924C2.45646 510 1.79205 509.915 1.30218 509.765C0.812313 509.614 0.537109 509.41 0.537109 509.197C0.537109 508.984 0.812313 508.78 1.30218 508.629C1.79205 508.478 2.45646 508.394 3.14924 508.394H499.454C500.147 508.394 500.811 508.478 501.301 508.629C501.791 508.78 502.066 508.984 502.066 509.197C502.066 509.41 501.791 509.614 501.301 509.765C500.811 509.915 500.147 510 499.454 510Z" fill="#CCCCCC"/>
<path d="M544.826 344.254L435.495 405.548C432.334 407.315 428.601 407.757 425.115 406.777C421.628 405.797 418.673 403.474 416.898 400.319L366.972 311.359C365.204 308.2 364.762 304.468 365.742 300.984C366.723 297.499 369.047 294.545 372.204 292.771L481.534 231.477C484.695 229.709 488.428 229.267 491.915 230.248C495.401 231.228 498.356 233.55 500.132 236.705L550.057 325.666C551.826 328.825 552.268 332.556 551.287 336.041C550.306 339.526 547.983 342.479 544.826 344.254Z" fill="white"/>
<path d="M544.826 344.254L435.495 405.548C432.334 407.315 428.601 407.757 425.115 406.777C421.628 405.797 418.673 403.474 416.898 400.319L366.972 311.359C365.204 308.2 364.762 304.468 365.742 300.984C366.723 297.499 369.047 294.545 372.204 292.771L481.534 231.477C484.695 229.709 488.428 229.267 491.915 230.248C495.401 231.228 498.356 233.55 500.132 236.705L550.057 325.666C551.826 328.825 552.268 332.556 551.287 336.041C550.306 339.526 547.983 342.479 544.826 344.254ZM372.99 294.172C370.204 295.738 368.154 298.344 367.289 301.418C366.423 304.493 366.814 307.785 368.374 310.573L418.299 399.533C419.866 402.317 422.473 404.367 425.55 405.232C428.626 406.096 431.92 405.706 434.709 404.147L544.04 342.853C546.825 341.287 548.875 338.681 549.741 335.606C550.606 332.532 550.216 329.239 548.656 326.452L498.73 237.491C497.163 234.707 494.556 232.658 491.48 231.793C488.404 230.928 485.11 231.318 482.321 232.878L372.99 294.172Z" fill="#3F3D56"/>
<path d="M484.1 265.158L428.923 296.093C428.443 296.374 427.875 296.464 427.332 296.342C426.789 296.221 426.313 295.899 425.999 295.44C425.845 295.197 425.742 294.926 425.697 294.643C425.652 294.359 425.664 294.07 425.735 293.791C425.805 293.513 425.931 293.252 426.106 293.024C426.28 292.796 426.5 292.606 426.75 292.466L482.918 260.977C485.68 261.564 485.709 264.257 484.1 265.159L484.1 265.158Z" fill="#CCCCCC"/>
<path d="M489.529 274.832L434.351 305.766C433.872 306.048 433.303 306.137 432.761 306.016C432.218 305.895 431.741 305.572 431.428 305.114C431.274 304.871 431.171 304.6 431.126 304.317C431.08 304.033 431.093 303.743 431.163 303.465C431.234 303.187 431.36 302.926 431.535 302.698C431.709 302.47 431.928 302.28 432.179 302.14L488.346 270.65C491.109 271.238 491.137 273.93 489.528 274.832L489.529 274.832Z" fill="#CCCCCC"/>
<path d="M425.514 317.962L408.674 327.402C408.124 327.71 407.474 327.787 406.867 327.616C406.26 327.446 405.746 327.042 405.437 326.492L394.29 306.63C393.983 306.08 393.906 305.431 394.076 304.824C394.247 304.218 394.651 303.704 395.201 303.395L412.041 293.954C412.591 293.647 413.241 293.57 413.847 293.74C414.454 293.911 414.969 294.315 415.278 294.864L426.424 314.726C426.732 315.276 426.809 315.926 426.639 316.532C426.468 317.139 426.063 317.653 425.514 317.962L425.514 317.962Z" fill="#CCCCCC"/>
<path d="M500.484 294.729L416.273 341.94C415.793 342.222 415.225 342.311 414.682 342.19C414.139 342.069 413.663 341.746 413.349 341.287C413.195 341.045 413.093 340.774 413.047 340.49C413.002 340.207 413.015 339.917 413.085 339.639C413.155 339.361 413.281 339.1 413.456 338.872C413.631 338.644 413.85 338.454 414.1 338.314L499.302 290.547C502.065 291.134 502.093 293.827 500.484 294.729Z" fill="#CCCCCC"/>
<path d="M505.915 304.405L421.703 351.617C421.224 351.898 420.655 351.988 420.113 351.867C419.57 351.745 419.094 351.423 418.78 350.964C418.626 350.721 418.523 350.45 418.478 350.167C418.432 349.883 418.445 349.594 418.515 349.316C418.586 349.037 418.712 348.776 418.887 348.548C419.061 348.32 419.28 348.13 419.531 347.99L504.733 300.223C507.495 300.811 507.524 303.503 505.915 304.405V304.405Z" fill="#CCCCCC"/>
<path d="M511.342 314.075L427.13 361.287C426.651 361.568 426.082 361.658 425.539 361.536C424.997 361.415 424.52 361.093 424.206 360.634C424.053 360.391 423.95 360.12 423.905 359.837C423.859 359.553 423.872 359.264 423.942 358.985C424.013 358.707 424.139 358.446 424.313 358.218C424.488 357.99 424.707 357.8 424.958 357.66L510.16 309.893C512.922 310.481 512.951 313.173 511.342 314.075Z" fill="#CCCCCC"/>
<path d="M516.772 323.751L432.56 370.962C432.081 371.244 431.512 371.333 430.97 371.212C430.427 371.091 429.95 370.768 429.637 370.31C429.483 370.067 429.38 369.796 429.335 369.513C429.289 369.229 429.302 368.939 429.372 368.661C429.443 368.383 429.569 368.122 429.744 367.894C429.918 367.666 430.137 367.476 430.388 367.336L515.59 319.569C518.352 320.157 518.381 322.849 516.772 323.751H516.772Z" fill="#CCCCCC"/>
<path d="M522.199 333.422L437.988 380.633C437.508 380.915 436.94 381.004 436.397 380.883C435.854 380.762 435.378 380.439 435.064 379.98C434.91 379.738 434.807 379.467 434.762 379.183C434.717 378.9 434.729 378.61 434.8 378.332C434.87 378.054 434.996 377.793 435.171 377.565C435.345 377.337 435.565 377.147 435.815 377.007L521.017 329.24C523.78 329.827 523.808 332.52 522.199 333.422V333.422Z" fill="#CCCCCC"/>
<path d="M507.508 369.662C507.966 368.651 508.198 367.552 508.185 366.442C508.173 365.332 507.917 364.238 507.436 363.238C506.955 362.238 506.26 361.355 505.4 360.652C504.541 359.949 503.538 359.442 502.461 359.169L500.171 332.284L489.157 340.968L493.021 365.167C492.681 367.005 493.027 368.903 493.994 370.503C494.961 372.103 496.481 373.292 498.267 373.846C500.052 374.4 501.979 374.28 503.683 373.509C505.386 372.738 506.747 371.369 507.508 369.662Z" fill="#FFB8B8"/>
<path d="M500.379 356.353L491.232 357.444C490.767 357.499 490.296 357.458 489.848 357.323C489.4 357.187 488.985 356.961 488.628 356.658C488.271 356.355 487.981 355.982 487.776 355.562C487.57 355.142 487.453 354.684 487.433 354.216L486.099 323.374L468.76 276.031C468.066 274.562 467.749 272.943 467.839 271.321C467.929 269.698 468.423 268.124 469.276 266.741C469.701 266.072 470.187 265.445 470.729 264.867C471.796 263.718 473.125 262.845 474.603 262.32C476.08 261.796 477.663 261.636 479.216 261.855C480.816 262.068 482.342 262.659 483.667 263.579C484.992 264.5 486.079 265.723 486.836 267.147L498.144 290.83C502.873 300.735 505.107 311.647 504.648 322.613L503.373 353.123C503.34 353.921 503.026 354.682 502.486 355.272C501.947 355.862 501.217 356.242 500.424 356.347L500.379 356.353Z" fill="#024EFB"/>
<path d="M532.864 489.651L524.383 493.372L505.99 462.448L518.506 456.957L532.864 489.651Z" fill="#FFB8B8"/>
<path d="M538.636 496.919L511.29 508.916L511.139 508.57C510.525 507.173 510.193 505.669 510.161 504.144C510.129 502.618 510.398 501.102 510.952 499.68C511.507 498.259 512.336 496.96 513.392 495.859C514.449 494.758 515.712 493.876 517.11 493.262L517.11 493.262L533.812 485.935L538.636 496.919Z" fill="#2F2E41"/>
<path d="M419.008 499.942H409.746L405.34 464.237L419.009 464.237L419.008 499.942Z" fill="#FFB8B8"/>
<path d="M421.369 508.916L391.506 508.915V508.537C391.506 507.011 391.806 505.501 392.391 504.091C392.975 502.682 393.831 501.401 394.91 500.322C395.99 499.243 397.271 498.388 398.681 497.804C400.092 497.22 401.603 496.919 403.13 496.919H403.13L421.37 496.92L421.369 508.916Z" fill="#2F2E41"/>
<path d="M509.18 487.736L457.586 372.658C457.493 372.443 457.335 372.261 457.134 372.139C456.933 372.017 456.7 371.96 456.465 371.977C456.231 371.994 456.007 372.083 455.826 372.232C455.644 372.381 455.513 372.583 455.452 372.81L424.016 483.961C423.808 484.739 423.33 485.417 422.666 485.874C422.003 486.33 421.198 486.535 420.397 486.451L403.228 484.735C402.344 484.642 401.53 484.208 400.96 483.526C400.391 482.843 400.109 481.965 400.176 481.079C405.637 413.194 414.245 349.124 440.034 307.181L440.171 306.958L479.179 314.603L531.257 480.352C531.514 481.206 531.427 482.126 531.014 482.916C530.6 483.707 529.894 484.304 529.046 484.58L513.342 489.625C512.537 489.887 511.664 489.838 510.894 489.488C510.124 489.138 509.512 488.513 509.18 487.736Z" fill="#2F2E41"/>
<path d="M459.025 248.232C469.273 248.232 477.58 239.93 477.58 229.687C477.58 219.445 469.273 211.142 459.025 211.142C448.778 211.142 440.471 219.445 440.471 229.687C440.471 239.93 448.778 248.232 459.025 248.232Z" fill="#FFB8B8"/>
<path d="M437.637 310.392L437.4 310.343L437.344 310.109C434.844 299.559 434.785 288.046 437.167 275.89C438.376 269.678 441.739 264.09 446.664 260.112C451.59 256.135 457.761 254.021 464.093 254.145C470.962 254.285 477.519 257.042 482.421 261.854C487.324 266.666 490.201 273.169 490.464 280.031C491.26 300.939 482.711 319.065 482.625 319.245L482.498 319.511L437.637 310.392Z" fill="#024EFB"/>
<path d="M387.897 345.673C388.995 345.511 390.045 345.11 390.972 344.498C391.899 343.886 392.68 343.079 393.261 342.133C393.842 341.187 394.208 340.125 394.334 339.022C394.46 337.919 394.342 336.802 393.989 335.75L415.361 319.265L402.092 314.714L383.831 331.066C382.101 331.776 380.692 333.095 379.87 334.774C379.049 336.453 378.872 338.374 379.373 340.175C379.874 341.975 381.018 343.529 382.589 344.543C384.161 345.556 386.049 345.958 387.897 345.673V345.673Z" fill="#FFB8B8"/>
<path d="M399.57 333.241C398.874 333.652 398.054 333.801 397.258 333.66C396.462 333.52 395.743 333.1 395.23 332.476L389.359 325.381C389.06 325.02 388.84 324.602 388.71 324.153C388.581 323.703 388.547 323.231 388.608 322.768C388.67 322.304 388.827 321.858 389.069 321.458C389.311 321.057 389.633 320.711 390.015 320.441L415.234 302.616L445.661 262.407C446.52 261.027 447.71 259.884 449.124 259.081C450.537 258.278 452.129 257.84 453.754 257.808C454.546 257.803 455.337 257.872 456.116 258.014C457.66 258.288 459.115 258.932 460.357 259.889C461.598 260.847 462.59 262.091 463.247 263.514C463.934 264.973 464.263 266.575 464.207 268.187C464.151 269.799 463.71 271.375 462.923 272.782L440.392 309.251L440.343 309.331L399.57 333.241Z" fill="#024EFB"/>
<path d="M462.344 228.537C460.976 226.288 457.958 225.653 455.338 225.91C452.718 226.166 450.17 227.086 447.538 227.066C440.228 227.009 434.585 218.105 437.658 211.475C440.179 206.039 446.474 203.651 452.168 201.778C464.108 197.849 477.822 194.075 488.657 200.444C492.109 202.534 494.941 205.508 496.859 209.057C498.778 212.607 499.713 216.604 499.569 220.636C499.325 225.649 497.404 230.798 499.029 235.547C500.903 241.026 506.845 243.965 512.461 245.387C522.305 247.88 532.684 247.478 542.59 249.714C552.496 251.95 562.646 257.886 565.316 267.679C567.07 274.111 565.24 281.035 562.209 286.974C559.117 293.033 554.82 298.398 549.581 302.739C544.342 307.08 538.272 310.307 531.741 312.222C525.211 314.136 518.359 314.698 511.603 313.873C504.848 313.048 498.333 310.853 492.456 307.423C480.481 300.434 471.835 288.622 466.681 275.755C463.758 268.25 461.701 260.436 460.548 252.464C459.394 245.002 460.373 237.462 462.464 230.206C462.563 229.935 462.603 229.646 462.583 229.358C462.562 229.071 462.48 228.791 462.344 228.537Z" fill="#2F2E41"/>
<path d="M529.281 510H376.604C376.391 510 376.187 509.915 376.036 509.765C375.885 509.614 375.801 509.41 375.801 509.197C375.801 508.984 375.885 508.779 376.036 508.629C376.187 508.478 376.391 508.394 376.604 508.394H529.281C529.495 508.394 529.699 508.478 529.85 508.629C530 508.779 530.085 508.984 530.085 509.197C530.085 509.41 530 509.614 529.85 509.765C529.699 509.915 529.495 510 529.281 510Z" fill="#CCCCCC"/>
</g>
<defs>
<clipPath id="clip0_906_1225">
<rect width="566" height="510" fill="white"/>
</clipPath>
</defs>
</svg>
