<svg width="514" height="340" viewBox="0 0 514 340" fill="none" xmlns="http://www.w3.org/2000/svg">
<g clip-path="url(#clip0_902_290)">
<path d="M85.3037 179.626V96.9749C85.3037 95.7946 85.771 94.6626 86.6028 93.828C87.4346 92.9934 88.5627 92.5245 89.739 92.5245C90.9153 92.5245 92.0435 92.9934 92.8752 93.828C93.707 94.6626 94.1743 95.7946 94.1743 96.9749V179.626C94.1743 180.806 93.707 181.938 92.8752 182.773C92.0435 183.607 90.9153 184.076 89.739 184.076C88.5627 184.076 87.4346 183.607 86.6028 182.773C85.771 181.938 85.3037 180.806 85.3037 179.626Z" fill="#F0F0F0"/>
<path d="M74.6909 179.626V96.9749C74.6909 95.7946 75.1582 94.6626 75.99 93.828C76.8218 92.9934 77.9499 92.5245 79.1262 92.5245C80.3025 92.5245 81.4307 92.9934 82.2624 93.828C83.0942 94.6626 83.5615 95.7946 83.5615 96.9749V179.626C83.5615 180.806 83.0942 181.938 82.2624 182.773C81.4307 183.607 80.3025 184.076 79.1262 184.076C77.9499 184.076 76.8218 183.607 75.99 182.773C75.1582 181.938 74.6909 180.806 74.6909 179.626Z" fill="#F0F0F0"/>
<path d="M64.0776 179.626V96.9749C64.0776 95.7946 64.5449 94.6626 65.3767 93.828C66.2085 92.9934 67.3366 92.5245 68.5129 92.5245C69.6893 92.5245 70.8174 92.9934 71.6492 93.828C72.4809 94.6626 72.9482 95.7946 72.9482 96.9749V179.626C72.9482 180.806 72.4809 181.938 71.6492 182.773C70.8174 183.607 69.6893 184.076 68.5129 184.076C67.3366 184.076 66.2085 183.607 65.3767 182.773C64.5449 181.938 64.0776 180.806 64.0776 179.626Z" fill="#F0F0F0"/>
<path d="M464.778 311.635C462.992 311.637 461.219 311.328 459.538 310.723L459.279 310.629L459.398 310.053C456.387 303.95 457.44 295.588 462.093 288.712C466.323 282.462 472.756 277.918 478.431 273.909C479.152 273.4 480.007 273.119 480.887 273.102C481.768 273.085 482.633 273.333 483.372 273.814C484.111 274.294 484.69 274.986 485.035 275.799C485.379 276.612 485.473 277.51 485.305 278.378L483.275 288.826C481.81 296.363 480.068 303.497 474.901 307.946C472.062 310.329 468.479 311.635 464.778 311.635Z" fill="#8FF3C9"/>
<path d="M478.07 329.69C476.104 329.678 474.172 329.174 472.45 328.223C470.728 327.272 469.27 325.904 468.208 324.244L468.061 324.014L468.412 323.704C469.32 318.733 473.59 314.305 479.324 312.4C484.536 310.669 490.289 310.952 495.362 311.201C496.032 311.234 496.678 311.465 497.217 311.867C497.756 312.268 498.164 312.821 498.39 313.455C498.615 314.089 498.648 314.776 498.484 315.429C498.32 316.082 497.966 316.672 497.468 317.123L491.76 322.292C487.613 326.048 483.476 329.439 478.487 329.682C478.347 329.687 478.208 329.69 478.07 329.69Z" fill="#8FF3C9"/>
<path d="M460.357 335.216C459.514 328.918 458.647 322.54 459.239 316.175C459.764 310.522 461.445 305.001 464.868 300.474C466.676 298.083 468.887 296.028 471.401 294.401C472.054 293.978 472.655 295.04 472.005 295.461C467.647 298.3 464.296 302.448 462.43 307.312C460.345 312.751 460.01 318.68 460.369 324.458C460.587 327.952 461.047 331.423 461.511 334.889C461.548 335.045 461.526 335.209 461.449 335.349C461.371 335.489 461.244 335.594 461.093 335.645C461.017 335.665 460.937 335.67 460.859 335.66C460.78 335.649 460.705 335.624 460.636 335.584C460.568 335.544 460.508 335.491 460.46 335.428C460.412 335.365 460.377 335.293 460.357 335.216V335.216Z" fill="#3F3D56"/>
<path d="M457.975 338.836C462.032 331.473 466.737 323.29 475.145 320.674C477.48 319.95 479.933 319.69 482.367 319.909C483.134 319.977 482.942 321.189 482.177 321.122C478.089 320.777 474.01 321.884 470.652 324.25C467.402 326.518 464.872 329.673 462.73 333.018C461.418 335.067 460.243 337.203 459.068 339.336C458.693 340.018 457.595 339.526 457.975 338.836H457.975Z" fill="#3F3D56"/>
<path d="M456.15 338.728L460.246 338.822L435.547 206.43L431.451 207.204L437.901 241.549H417.122L423.572 207.204L419.476 206.43L394.983 338.822L398.873 338.728L411.75 270.159H443.273L456.15 338.728ZM412.705 265.072L416.167 246.635H438.856L442.318 265.072H412.705Z" fill="#CACACA"/>
<path d="M277.289 181.734V138.257C277.289 136.966 279.279 135.916 281.724 135.916C284.17 135.916 286.16 136.966 286.16 138.257V181.734C286.16 183.025 284.17 184.076 281.724 184.076C279.279 184.076 277.289 183.025 277.289 181.734Z" fill="#F0F0F0"/>
<path d="M266.676 181.734V138.257C266.676 136.966 268.666 135.916 271.112 135.916C273.557 135.916 275.547 136.966 275.547 138.257V181.734C275.547 183.025 273.557 184.076 271.112 184.076C268.666 184.076 266.676 183.025 266.676 181.734Z" fill="#F0F0F0"/>
<path d="M256.063 181.734V138.257C256.063 136.966 258.053 135.916 260.498 135.916C262.944 135.916 264.934 136.966 264.934 138.257V181.734C264.934 183.025 262.944 184.076 260.498 184.076C258.053 184.076 256.063 183.025 256.063 181.734Z" fill="#F0F0F0"/>
<path d="M345.348 149.761C345.328 149.629 345.281 149.502 345.21 149.39C345.138 149.277 345.043 149.181 344.932 149.107L311.495 126.958C311.998 126.747 312.42 126.376 312.695 125.903H312.695C313.029 125.318 313.119 124.625 312.945 123.974C312.771 123.323 312.348 122.767 311.767 122.429L309.024 120.839C308.441 120.504 307.75 120.414 307.101 120.588C306.453 120.763 305.899 121.188 305.562 121.77C305.379 122.09 305.27 122.447 305.24 122.815L281.104 106.826C280.293 104.856 279.064 103.087 277.502 101.643C275.941 100.198 274.084 99.1125 272.062 98.4616V91.4119H263.191V98.4616C260.248 99.4059 257.68 101.264 255.858 103.768C254.036 106.272 253.054 109.292 253.053 112.392V114.3H261.924C261.924 115.817 262.525 117.273 263.594 118.346C264.664 119.419 266.114 120.022 267.626 120.022C269.139 120.022 270.589 119.419 271.659 118.346C272.728 117.273 273.329 115.817 273.329 114.3H282.2V112.392C282.199 111.478 282.113 110.566 281.943 109.668L343.004 150.116L317.64 181.059C317.443 181.058 317.247 181.056 317.048 181.056C315.025 181.056 313.064 181.104 311.195 181.187C311.308 180.873 311.357 180.539 311.34 180.205C311.303 179.533 311.003 178.902 310.504 178.451C310.005 178 309.348 177.765 308.677 177.798L305.514 177.963C304.843 178 304.214 178.302 303.765 178.803C303.315 179.304 303.081 179.962 303.114 180.635C303.138 181.033 303.256 181.419 303.458 181.762C297.864 182.359 294.238 183.181 294.238 183.599C294.238 184.285 303.973 183.632 316.156 183.601C316.212 183.76 316.309 183.901 316.437 184.01C316.566 184.119 316.72 184.192 316.886 184.221C317.051 184.25 317.222 184.234 317.379 184.176C317.537 184.117 317.676 184.017 317.782 183.887L318.017 183.601C330.165 183.635 339.858 184.283 339.858 183.599C339.858 182.954 331.24 181.35 320.073 181.092L345.143 150.509C345.227 150.406 345.289 150.286 345.325 150.157C345.36 150.028 345.368 149.893 345.348 149.761Z" fill="#CCCCCC"/>
<path d="M346.263 339.046H268.191C266.614 339.044 265.101 338.415 263.985 337.295C262.87 336.176 262.242 334.658 262.241 333.075V204.511C262.239 203.097 261.678 201.74 260.681 200.74C259.685 199.74 258.333 199.177 256.923 199.176H74.3055C72.8958 199.177 71.5443 199.74 70.5474 200.74C69.5506 201.74 68.9898 203.097 68.9882 204.511V333.075C68.9864 334.658 68.3588 336.176 67.2432 337.295C66.1276 338.415 64.615 339.045 63.0372 339.046H60.366C58.7882 339.045 57.2756 338.415 56.16 337.295C55.0444 336.176 54.4168 334.658 54.415 333.075V197.586C54.4193 193.794 55.9226 190.158 58.5953 187.476C61.268 184.794 64.8917 183.286 68.6714 183.282H337.958C341.737 183.286 345.361 184.794 348.034 187.476C350.706 190.158 352.21 193.794 352.214 197.586V333.075C352.212 334.658 351.585 336.176 350.469 337.295C349.353 338.415 347.841 339.045 346.263 339.046Z" fill="#E4E4E4"/>
<path d="M351.897 216.66H262.558V220.474H351.897V216.66Z" fill="white"/>
<path d="M351.897 268.157H262.558V271.972H351.897V268.157Z" fill="white"/>
<path d="M188.605 182.654L186.037 181.569L184.275 168.653H160.819L158.91 181.516L156.612 182.669C156.503 182.724 156.414 182.814 156.362 182.926C156.31 183.038 156.297 183.164 156.326 183.284C156.354 183.404 156.422 183.511 156.518 183.587C156.614 183.664 156.734 183.705 156.856 183.705H188.393C188.519 183.705 188.641 183.662 188.738 183.582C188.836 183.502 188.903 183.39 188.928 183.266C188.953 183.143 188.934 183.014 188.875 182.902C188.816 182.79 188.721 182.703 188.605 182.654Z" fill="#E6E6E6"/>
<path d="M230.289 170.371H115.063C114.459 170.37 113.879 170.128 113.452 169.699C113.025 169.269 112.786 168.687 112.786 168.081V151.777H232.566V168.081C232.566 168.687 232.326 169.269 231.899 169.699C231.472 170.128 230.893 170.37 230.289 170.371Z" fill="#CCCCCC"/>
<path d="M232.686 159.483H112.68V89.7228C112.681 88.9907 112.971 88.2888 113.487 87.7711C114.003 87.2535 114.703 86.9623 115.432 86.9615H229.934C230.664 86.9623 231.363 87.2535 231.879 87.7711C232.395 88.2888 232.686 88.9907 232.686 89.7228V159.483Z" fill="#3F3D56"/>
<path d="M225.519 154.419H119.848C119.285 154.419 118.746 154.194 118.348 153.795C117.95 153.396 117.727 152.855 117.726 152.291V94.1534C117.727 93.589 117.95 93.0479 118.348 92.6488C118.746 92.2497 119.285 92.0252 119.848 92.0245H225.519C226.081 92.0252 226.621 92.2497 227.018 92.6488C227.416 93.0479 227.64 93.589 227.64 94.1534V152.291C227.64 152.855 227.416 153.396 227.018 153.795C226.621 154.194 226.081 154.419 225.519 154.419Z" fill="white"/>
<path d="M343.978 98.6986C344.989 98.5525 346.019 98.6305 346.997 98.9272C347.975 99.2239 348.875 99.732 349.636 100.416C350.397 101.1 350.999 101.942 351.4 102.885C351.8 103.828 351.99 104.847 351.956 105.871L375.125 114.819L364.628 122.344L344.236 112.693C342.525 112.522 340.937 111.726 339.771 110.458C338.605 109.189 337.944 107.536 337.912 105.811C337.881 104.086 338.48 102.409 339.598 101.098C340.716 99.7874 342.275 98.9336 343.978 98.6986V98.6986Z" fill="#9E616A"/>
<path d="M431.948 94.306L435.867 101.456C434.92 105.992 432.472 110.072 428.921 113.034C422.92 118.113 391.543 137.026 391.543 137.026L351.931 117.072L358.861 107.833L389.96 118.29C401.496 107.359 415.418 99.2838 430.615 94.7072L431.948 94.306Z" fill="#E4E4E4"/>
<path d="M424.66 212.627C441.733 212.627 455.574 208.101 455.574 202.519C455.574 196.937 441.733 192.411 424.66 192.411C407.586 192.411 393.745 196.937 393.745 202.519C393.745 208.101 407.586 212.627 424.66 212.627Z" fill="#CACACA"/>
<path d="M355.306 330.163L347.097 327.886L351.943 295.031L364.059 298.392L355.306 330.163Z" fill="#9E616A"/>
<path d="M355.2 338.728L328.73 331.386L328.822 331.05C329.578 328.309 331.388 325.98 333.854 324.578C336.32 323.175 339.24 322.812 341.973 323.57L341.973 323.57L358.14 328.054L355.2 338.728Z" fill="#2F2E41"/>
<path d="M331.504 330.27L323.713 326.817L333.275 295.021L344.774 300.116L331.504 330.27Z" fill="#9E616A"/>
<path d="M330.157 338.728L305.035 327.597L305.175 327.279C306.32 324.676 308.449 322.637 311.092 321.61C313.735 320.582 316.677 320.65 319.271 321.799L319.271 321.799L334.615 328.598L330.157 338.728Z" fill="#2F2E41"/>
<path d="M448.719 177.807C448.719 177.807 452.849 190.645 427.511 206.881L394.879 239.508L360.973 320.891L340.843 311.836L344.791 301.262L347.44 294.166L348.796 290.536L350.249 286.645L371.799 228.925L389.901 197.121L390.427 179.864L394.879 167.699L427.183 156.198L448.719 177.807Z" fill="#2F2E41"/>
<path d="M432.245 178.443C432.245 178.443 436.374 191.281 411.037 207.517L378.405 240.144L344.499 321.527L324.369 312.472L328.317 301.898L330.966 294.802L332.322 291.172L333.775 287.281L355.325 229.561L361.386 218.912C369.382 204.864 379.098 191.875 390.308 180.247L396.25 174.084L396.884 164.547L410.709 156.833L432.245 178.443Z" fill="#2F2E41"/>
<path d="M412.725 115.593L422.862 93.9765L440.554 91.5549C440.554 91.5549 454.368 109.215 450.741 134.03C449.381 143.336 448.273 152.601 448.207 160.733C448.189 162.897 450.076 163.863 450.108 165.819C450.139 167.741 446.532 170.871 447.573 172.177C449.062 173.977 449.949 176.201 450.108 178.535C448.852 181.533 410.852 165.289 394.879 167.699L412.725 115.593Z" fill="#E4E4E4"/>
<path d="M437.852 80.6723C442.368 73.0497 439.871 63.1972 432.274 58.6661C424.677 54.1349 414.858 56.641 410.343 64.2635C405.827 71.886 408.324 81.7385 415.921 86.2697C423.518 90.8009 433.337 88.2948 437.852 80.6723Z" fill="#9E616A"/>
<path d="M434.328 66.7028C434.297 67.1253 434.255 67.6848 434.206 68.3179C434.156 70.0508 434.643 71.7566 435.599 73.2006C436.494 74.7197 435.426 83.8948 435.426 83.8948C461.638 65.5614 440.927 47.1426 432.825 48.7799C432.994 46.4484 426.387 47.3721 426.387 47.3721C423.869 43.438 418.351 48.6601 418.351 48.6601L419.416 46.8629C415.132 47.9562 410.898 61.2411 410.898 61.2411C412.351 66.9724 434.497 64.3713 434.328 66.7028Z" fill="#2F2E41"/>
<path d="M332.645 124.096C341.653 112.074 348.773 98.7401 353.76 84.5567C354.048 83.7083 354.028 82.7845 353.702 81.9499C353.375 81.1152 352.764 80.4239 351.978 79.9989L321.155 63.4272C320.657 63.1571 320.103 63.0047 319.537 62.9817C318.971 62.9586 318.407 63.0655 317.888 63.2942C317.359 63.5246 316.89 63.8729 316.516 64.3127C316.142 64.7525 315.873 65.2721 315.729 65.832C312.142 79.4997 305.398 92.128 296.045 102.695C295.659 103.126 295.377 103.638 295.219 104.194C295.062 104.75 295.032 105.335 295.134 105.904C295.232 106.464 295.455 106.995 295.788 107.455C296.121 107.915 296.554 108.293 297.054 108.56L327.877 125.132C328.665 125.554 329.577 125.681 330.45 125.492C331.324 125.302 332.101 124.807 332.645 124.096Z" fill="#CCCCCC"/>
<path d="M330.542 122.51C330.376 122.718 330.143 122.861 329.884 122.915C329.624 122.969 329.354 122.93 329.119 122.805L298.297 106.233C298.147 106.155 298.018 106.043 297.918 105.906C297.819 105.769 297.753 105.611 297.724 105.444C297.692 105.267 297.701 105.086 297.751 104.914C297.8 104.742 297.889 104.583 298.009 104.451C307.639 93.5725 314.581 80.572 318.274 66.5016C318.317 66.3278 318.399 66.1662 318.515 66.0296C318.63 65.8929 318.775 65.7849 318.939 65.714C319.093 65.6447 319.262 65.6123 319.431 65.6193C319.6 65.6264 319.765 65.6726 319.913 65.7544L350.735 82.3259C350.968 82.4525 351.15 82.657 351.25 82.9039C351.349 83.1509 351.359 83.4249 351.278 83.6786C346.381 97.6082 339.388 110.704 330.542 122.51Z" fill="white"/>
<path d="M319.758 81.4989L341.018 94.0022C343.133 95.2462 345.048 91.9504 342.936 90.7084L321.677 78.2051C319.562 76.9611 317.647 80.2569 319.758 81.4989V81.4989Z" fill="#024EFB"/>
<path d="M315.957 88.4925L337.216 100.996C339.331 102.24 341.246 98.9439 339.135 97.7019L317.875 85.1986C315.76 83.9546 313.845 87.2504 315.957 88.4925V88.4925Z" fill="#024EFB"/>
<path d="M311.522 96.1218L332.781 108.625C334.896 109.869 336.811 106.573 334.7 105.331L313.44 92.8279C311.325 91.5839 309.41 94.8798 311.522 96.1218V96.1218Z" fill="#024EFB"/>
<path d="M307.086 102.48L328.345 114.983C330.46 116.227 332.376 112.931 330.264 111.689L309.005 99.1857C306.89 97.9417 304.974 101.237 307.086 102.48V102.48Z" fill="#024EFB"/>
<path d="M404.001 176.025L411.982 194.034C412.174 194.465 412.257 194.937 412.221 195.408C412.186 195.879 412.034 196.334 411.78 196.731C411.48 197.206 411.047 197.582 410.535 197.81C410.023 198.039 409.455 198.11 408.903 198.015C408.715 197.986 408.53 197.937 408.353 197.868C407.647 197.595 407.079 197.052 406.771 196.359L398.79 178.35C398.638 178.007 398.555 177.637 398.545 177.261C398.535 176.886 398.599 176.512 398.734 176.161C399.005 175.453 399.546 174.882 400.237 174.573C400.928 174.265 401.712 174.245 402.418 174.517C403.124 174.789 403.693 175.332 404.001 176.025Z" fill="#024EFB"/>
<path d="M411.338 192.581L412.937 196.216L413.755 201.369C413.809 201.708 413.749 202.056 413.586 202.358C413.423 202.66 413.165 202.899 412.852 203.039C412.539 203.178 412.189 203.21 411.856 203.129C411.524 203.049 411.227 202.86 411.012 202.592L407.703 198.462L406.127 194.906L411.338 192.581Z" fill="#3F3D56"/>
<path d="M397.016 171.015L398.16 178.224C398.198 178.46 398.289 178.685 398.426 178.88C398.564 179.075 398.744 179.236 398.953 179.35C399.163 179.464 399.395 179.528 399.633 179.537C399.871 179.547 400.108 179.501 400.326 179.404L401.46 178.898L403.648 183.836C403.717 183.99 403.843 184.11 404 184.17C404.157 184.231 404.331 184.226 404.484 184.158C404.638 184.089 404.758 183.962 404.818 183.805C404.879 183.648 404.874 183.473 404.806 183.319L402.618 178.381L403.752 177.875C404.128 177.707 404.422 177.397 404.57 177.012C404.718 176.627 404.709 176.198 404.543 175.82C404.487 175.695 404.415 175.578 404.33 175.471L399.76 169.79C399.545 169.523 399.248 169.334 398.915 169.254C398.582 169.173 398.232 169.205 397.92 169.345C397.607 169.485 397.349 169.724 397.185 170.026C397.022 170.328 396.963 170.675 397.016 171.015Z" fill="#3F3D56"/>
<path d="M400.327 184.028C400.507 183.019 400.905 182.062 401.494 181.225C402.082 180.387 402.846 179.689 403.732 179.18C404.619 178.67 405.605 178.362 406.623 178.277C407.641 178.192 408.665 178.331 409.623 178.686L425.378 159.436L429.194 171.802L413.647 188.186C412.946 189.762 411.694 191.024 410.127 191.735C408.561 192.446 406.788 192.556 405.147 192.043C403.505 191.531 402.107 190.432 401.219 188.954C400.331 187.477 400.014 185.724 400.327 184.028Z" fill="#9E616A"/>
<path d="M420.162 182.777L413.223 172.719L432.928 146.357L422.777 124.531L423.516 98.5687L431.904 97.0139L432.009 97.0663C436.087 99.4218 439.239 103.106 440.942 107.507C443.035 112.757 447.706 132.462 450.304 143.74C450.815 145.926 450.759 148.206 450.142 150.364C449.525 152.522 448.368 154.486 446.781 156.068L420.162 182.777Z" fill="#E4E4E4"/>
<path d="M224.779 134.179C224.722 134.668 224.702 135.16 224.722 135.652L189.193 161.587L179.433 157.253L170.988 171.179L187.524 180.537C188.86 181.293 190.404 181.594 191.925 181.394C193.446 181.194 194.861 180.505 195.958 179.43L231.717 144.384C233.547 144.85 235.475 144.747 237.246 144.087C239.016 143.427 240.544 142.242 241.627 140.689C242.709 139.137 243.295 137.29 243.306 135.395C243.318 133.5 242.754 131.647 241.689 130.081C240.625 128.516 239.111 127.313 237.349 126.632C235.586 125.951 233.659 125.824 231.824 126.269C229.988 126.714 228.331 127.709 227.072 129.122C225.814 130.535 225.014 132.299 224.779 134.179V134.179Z" fill="#FFB6B6"/>
<path d="M188.044 162.535L177.683 179.859C177.388 180.352 176.991 180.775 176.519 181.1C176.046 181.425 175.509 181.644 174.945 181.742C174.38 181.84 173.801 181.815 173.247 181.668C172.693 181.522 172.178 181.257 171.735 180.892L156.222 168.108C153.718 166.58 151.92 164.118 151.222 161.262C150.523 158.406 150.982 155.389 152.498 152.872C154.013 150.354 156.462 148.543 159.306 147.834C162.15 147.125 165.159 147.577 167.672 149.09L186.154 156.783C186.683 157.003 187.159 157.335 187.548 157.757C187.938 158.178 188.233 158.679 188.412 159.225C188.591 159.771 188.651 160.349 188.588 160.92C188.524 161.492 188.339 162.043 188.044 162.535L188.044 162.535Z" fill="#024EFB"/>
<path d="M143.651 313.11H163.96V279.341H143.651V313.11Z" fill="#CACACA"/>
<path d="M162.943 297.209L160.336 301.064L209.077 334.251L211.684 330.396L162.943 297.209Z" fill="#CACACA"/>
<path d="M144.669 297.209L95.9277 330.397L98.5344 334.251L147.276 301.064L144.669 297.209Z" fill="#CACACA"/>
<path d="M210.38 338.728C213.905 338.728 216.763 335.861 216.763 332.324C216.763 328.787 213.905 325.919 210.38 325.919C206.855 325.919 203.998 328.787 203.998 332.324C203.998 335.861 206.855 338.728 210.38 338.728Z" fill="#CACACA"/>
<path d="M153.516 338.728C157.041 338.728 159.898 335.861 159.898 332.324C159.898 328.787 157.041 325.919 153.516 325.919C149.99 325.919 147.133 328.787 147.133 332.324C147.133 335.861 149.99 338.728 153.516 338.728Z" fill="#CACACA"/>
<path d="M97.2309 338.728C100.756 338.728 103.614 335.861 103.614 332.324C103.614 328.787 100.756 325.919 97.2309 325.919C93.7058 325.919 90.8481 328.787 90.8481 332.324C90.8481 335.861 93.7058 338.728 97.2309 338.728Z" fill="#CACACA"/>
<path d="M155.836 299.137H151.194V332.324H155.836V299.137Z" fill="#CACACA"/>
<path d="M149.454 294.479H158.158V249.647H149.454V294.479Z" fill="#CACACA"/>
<path d="M128.854 256.634V246.153C128.857 244.224 129.622 242.374 130.981 241.009C132.341 239.645 134.185 238.878 136.108 238.875H174.985C176.908 238.878 178.751 239.645 180.111 241.009C181.471 242.374 182.236 244.224 182.238 246.153V256.634C182.236 258.563 181.471 260.413 180.111 261.777C178.751 263.142 176.908 263.909 174.985 263.911H136.108C134.185 263.909 132.341 263.142 130.981 261.777C129.622 260.413 128.857 258.563 128.854 256.634Z" fill="#3F3D56"/>
<path d="M199.072 328.271L209.823 328.27L214.939 300.289L199.07 300.29L199.072 328.271Z" fill="#FFB8B8"/>
<path d="M196.329 338.728L230.998 338.727V338.287C230.998 336.509 230.649 334.748 229.97 333.106C229.292 331.463 228.298 329.97 227.045 328.713C225.793 327.456 224.305 326.459 222.668 325.778C221.031 325.098 219.276 324.747 217.504 324.747H217.503L196.329 324.748L196.329 338.728Z" fill="#2F2E41"/>
<path d="M215.153 310.919L236.588 262.689C238.377 258.624 238.575 254.032 237.142 249.827C235.709 245.622 232.75 242.113 228.854 239.999L182.361 214.983L161.145 213.172L141.575 211.387L141.434 211.627C141.254 211.933 137.046 219.226 139.89 227.222C142.048 233.288 147.66 238.025 156.57 241.304C177.367 248.955 201.393 255.495 210.756 257.951C211.17 258.058 211.557 258.25 211.891 258.517C212.226 258.784 212.5 259.119 212.696 259.5C212.892 259.876 213.009 260.289 213.039 260.713C213.068 261.137 213.01 261.563 212.868 261.963L192.954 306.855C192.746 307.425 192.671 308.034 192.735 308.637C192.799 309.24 193 309.82 193.323 310.333C193.646 310.846 194.082 311.277 194.597 311.594C195.112 311.911 195.693 312.105 196.295 312.161L211.175 313.248C211.301 313.26 211.427 313.266 211.552 313.266C212.314 313.266 213.06 313.044 213.699 312.628C214.338 312.211 214.843 311.618 215.153 310.919Z" fill="#2F2E41"/>
<path d="M192.055 328.271L202.807 328.27L207.922 300.289L192.054 300.29L192.055 328.271Z" fill="#FFB8B8"/>
<path d="M189.314 338.728L223.982 338.727V338.287C223.982 336.509 223.633 334.748 222.955 333.106C222.277 331.463 221.283 329.97 220.03 328.713C218.777 327.456 217.289 326.459 215.652 325.778C214.015 325.098 212.261 324.747 210.489 324.747H210.487L189.313 324.748L189.314 338.728Z" fill="#2F2E41"/>
<path d="M207.26 313.559L228.694 265.329C230.484 261.264 230.682 256.672 229.249 252.467C227.815 248.262 224.856 244.753 220.96 242.639L174.468 217.623L153.252 215.812L137.924 214.478L137.926 214.267C137.745 214.573 133.538 221.866 136.382 229.862C138.539 235.928 139.766 240.665 148.677 243.944C169.474 251.595 193.499 258.135 202.863 260.591C203.277 260.698 203.664 260.89 203.998 261.157C204.332 261.424 204.606 261.759 204.802 262.14C204.999 262.516 205.116 262.929 205.145 263.353C205.175 263.777 205.117 264.203 204.975 264.603L185.061 309.495C184.853 310.065 184.778 310.674 184.842 311.277C184.906 311.88 185.107 312.46 185.43 312.973C185.753 313.486 186.189 313.917 186.704 314.234C187.219 314.551 187.8 314.745 188.402 314.801L203.281 315.888C203.408 315.9 203.533 315.906 203.659 315.906C204.421 315.906 205.166 315.684 205.805 315.268C206.444 314.851 206.95 314.258 207.26 313.559Z" fill="#2F2E41"/>
<path d="M193.814 105.819C196.567 94.2064 189.416 82.5535 177.842 79.7918C166.269 77.03 154.655 84.2054 151.903 95.8183C149.151 107.431 156.302 119.084 167.875 121.846C179.448 124.608 191.062 117.432 193.814 105.819Z" fill="#FFB8B8"/>
<path d="M247.107 183.859C256.114 171.837 263.235 158.503 268.221 144.32C268.51 143.471 268.49 142.547 268.163 141.713C267.837 140.878 267.226 140.187 266.44 139.762L235.617 123.19C235.118 122.92 234.565 122.768 233.999 122.745C233.433 122.721 232.869 122.828 232.35 123.057C231.821 123.287 231.352 123.636 230.978 124.076C230.604 124.515 230.335 125.035 230.191 125.595C226.604 139.263 219.86 151.891 210.506 162.458C210.121 162.888 209.839 163.401 209.681 163.957C209.524 164.513 209.494 165.098 209.596 165.667C209.693 166.227 209.917 166.758 210.25 167.218C210.583 167.678 211.016 168.056 211.516 168.323L242.338 184.895C243.127 185.317 244.039 185.444 244.912 185.254C245.785 185.065 246.563 184.57 247.107 183.859Z" fill="#CCCCCC"/>
<path d="M245.004 182.273C244.838 182.481 244.605 182.624 244.345 182.678C244.086 182.731 243.816 182.693 243.581 182.568L212.759 165.996C212.609 165.918 212.479 165.806 212.38 165.669C212.281 165.532 212.215 165.374 212.186 165.207C212.154 165.03 212.163 164.849 212.213 164.677C212.262 164.505 212.351 164.346 212.471 164.214C222.101 153.335 229.043 140.335 232.736 126.264C232.779 126.091 232.861 125.929 232.977 125.792C233.092 125.656 233.237 125.548 233.401 125.477C233.555 125.408 233.724 125.375 233.893 125.382C234.062 125.389 234.227 125.435 234.375 125.517L265.197 142.089C265.43 142.215 265.612 142.42 265.711 142.667C265.811 142.914 265.821 143.188 265.74 143.441C260.843 157.371 253.85 170.467 245.004 182.273Z" fill="white"/>
<path d="M234.22 141.262L255.479 153.765C257.595 155.009 259.51 151.713 257.398 150.471L236.139 137.968C234.024 136.724 232.108 140.02 234.22 141.262V141.262Z" fill="#CCCCCC"/>
<path d="M230.419 148.255L251.678 160.759C253.793 162.003 255.709 158.707 253.597 157.465L232.338 144.961C230.223 143.717 228.307 147.013 230.419 148.255V148.255Z" fill="#CCCCCC"/>
<path d="M227.432 155.222L246.766 166.738C248.69 167.884 250.747 165.515 248.827 164.371L229.492 152.854C227.569 151.709 225.511 154.078 227.432 155.222Z" fill="#CCCCCC"/>
<path d="M221.548 162.242L242.807 174.746C244.922 175.99 246.838 172.694 244.726 171.452L223.467 158.949C221.352 157.705 219.436 161 221.548 162.242V162.242Z" fill="#CCCCCC"/>
<path d="M185.278 216.734L142.653 216.478L142.641 216.174C141.828 194.714 144.442 175.274 150.632 156.745C150.719 156.051 150.814 155.31 150.907 154.582C151.964 146.293 152.804 139.711 160.66 137.259C160.005 136.386 159.619 135.34 159.55 134.249C159.5 133.525 159.595 132.797 159.828 132.11C160.062 131.422 160.429 130.788 160.909 130.244C161.368 129.719 161.927 129.291 162.553 128.984C163.178 128.678 163.859 128.5 164.554 128.46L179.726 127.941C180.523 127.936 181.299 128.2 181.929 128.691C183.084 129.552 183.896 130.797 184.219 132.204C184.542 133.611 184.355 135.088 183.693 136.369C183.514 136.726 183.445 136.889 183.419 136.96C183.959 139.795 185.559 143.163 187.253 146.728C189.678 151.831 192.426 157.615 193.133 163.804C193.514 167.145 193.356 170.526 192.663 173.816C192.347 175.59 192.274 177.398 192.446 179.191C192.585 181.849 192.716 184.36 191.218 186.787C190.836 187.445 190.4 188.147 189.887 188.924L187.78 193.978L185.278 216.734Z" fill="#024EFB"/>
<path d="M121.312 246.765V159.371C121.315 156.523 122.444 153.793 124.45 151.779C126.457 149.765 129.178 148.633 132.016 148.629H134.977C137.815 148.633 140.536 149.765 142.543 151.779C144.55 153.793 145.679 156.523 145.682 159.371V246.765C145.679 249.613 144.55 252.344 142.543 254.357C140.536 256.371 137.815 257.504 134.977 257.507H132.016C129.178 257.504 126.457 256.371 124.45 254.357C122.444 252.344 121.315 249.613 121.312 246.765Z" fill="#3F3D56"/>
<path d="M235.618 168.094C235.312 168.478 235.037 168.886 234.795 169.314L190.975 172.524L184.966 163.673L170.468 171.028L179.59 187.734C180.326 189.084 181.48 190.157 182.876 190.793C184.273 191.429 185.838 191.594 187.335 191.261L236.142 180.435C237.451 181.801 239.144 182.734 240.994 183.111C242.845 183.488 244.766 183.291 246.503 182.546C248.239 181.801 249.708 180.542 250.714 178.939C251.721 177.335 252.217 175.463 252.136 173.569C252.056 171.676 251.403 169.852 250.264 168.341C249.126 166.829 247.556 165.701 245.762 165.106C243.969 164.512 242.038 164.479 240.226 165.013C238.414 165.546 236.807 166.621 235.618 168.094Z" fill="#FFB6B6"/>
<path d="M189.501 172.721L171.588 181.947C171.078 182.209 170.518 182.358 169.946 182.384C169.373 182.41 168.802 182.311 168.271 182.096C167.74 181.88 167.262 181.552 166.869 181.134C166.475 180.716 166.176 180.218 165.992 179.673L159.542 160.599C158.219 157.981 157.984 154.943 158.887 152.151C159.79 149.359 161.759 147.039 164.362 145.7C156.422 149.789 172.959 138.172 179.271 150.511L190.922 166.834C191.256 167.301 191.485 167.835 191.594 168.399C191.703 168.964 191.69 169.545 191.555 170.104C191.42 170.662 191.167 171.185 190.812 171.637C190.458 172.089 190.011 172.458 189.501 172.721H189.501Z" fill="#024EFB"/>
<path d="M163.128 121.841C161.832 121.841 160.401 121.214 158.788 119.943C154.042 116.204 150.65 111.006 149.132 105.146C147.613 99.2857 148.053 93.0878 150.383 87.5026C151.556 84.6919 153.749 80.8717 157.538 78.6328C160.262 77.0241 163.462 76.443 166.247 76.0245C168.658 75.6619 171.1 75.3732 173.504 75.1677C176.376 74.9212 179.694 74.7548 182.72 75.9084C184.938 76.754 186.825 78.2472 188.65 79.6914C189.286 80.1943 189.944 80.7152 190.603 81.197C192.199 82.4465 194.04 83.3438 196.006 83.8301C196.421 83.9164 196.812 84.091 197.154 84.3422C197.496 84.5934 197.78 84.9153 197.987 85.286C198.198 85.663 198.326 86.081 198.363 86.5119C198.399 86.9428 198.343 87.3765 198.198 87.7838C197.914 88.5847 197.657 89.3068 198.177 90.0891C198.369 90.3647 198.626 90.5887 198.925 90.7416C199.224 90.8944 199.556 90.9714 199.891 90.9658C200.068 90.9629 200.243 91.0045 200.4 91.0866C200.557 91.1688 200.691 91.2891 200.79 91.4364C200.89 91.5825 200.953 91.751 200.974 91.9272C200.994 92.1034 200.972 92.2819 200.907 92.4472L200.824 92.6627C201.047 92.6835 201.262 92.7584 201.449 92.881C201.637 93.0035 201.792 93.17 201.902 93.3661C202.064 93.6453 202.127 93.9719 202.08 94.2918C202.032 94.6118 201.878 94.9059 201.641 95.1257C199.719 96.9616 197.323 98.2201 194.724 98.7584C192.945 99.1085 191.115 99.1042 189.339 98.746L189.053 98.6901L189.088 98.3722C181.9 95.7999 175.412 100.165 171.713 105.156L171.179 104.817C171.271 104.632 171.324 104.429 171.336 104.222C171.347 104.014 171.317 103.807 171.247 103.612C171.172 103.378 171.052 103.16 170.894 102.973C170.736 102.785 170.542 102.63 170.325 102.518C169.884 102.335 169.4 102.288 168.932 102.382C168.465 102.475 168.036 102.706 167.699 103.044C167.355 103.405 167.091 103.833 166.922 104.302C166.753 104.772 166.683 105.271 166.717 105.769C166.814 106.824 167.082 107.856 167.51 108.824C167.684 109.287 167.864 109.767 168.01 110.25C168.828 112.994 168.61 115.944 167.397 118.537C166.837 119.72 165.824 121.228 164.181 121.695C163.838 121.792 163.484 121.841 163.128 121.841Z" fill="#2F2E41"/>
<path d="M513.245 340H1.73175C1.53204 339.999 1.34071 339.919 1.1997 339.777C1.05868 339.635 0.979492 339.443 0.979492 339.243C0.979492 339.043 1.05868 338.85 1.1997 338.708C1.34071 338.566 1.53204 338.486 1.73175 338.486H513.245C513.445 338.486 513.637 338.566 513.779 338.708C513.92 338.85 514 339.042 514 339.243C514 339.444 513.92 339.636 513.779 339.778C513.637 339.92 513.445 340 513.245 340Z" fill="#CACACA"/>
</g>
<path d="M470.689 249.099C480.23 255.67 494.806 251.077 494.806 251.077C494.806 251.077 493.903 235.83 484.355 229.264C474.815 222.693 460.246 227.28 460.246 227.28C460.246 227.28 461.148 242.526 470.689 249.099Z" fill="url(#paint0_linear_902_290)"/>
<path d="M340.26 26.3031C349.8 32.8745 364.376 28.2811 364.376 28.2811C364.376 28.2811 363.473 13.034 353.926 6.46868C344.386 -0.102748 329.816 4.48454 329.816 4.48454C329.816 4.48454 330.719 19.7309 340.26 26.3031Z" fill="url(#paint1_linear_902_290)"/>
<path d="M438.75 305.058H438.905C439.827 318.406 449.534 318.612 449.534 318.612C449.534 318.612 438.83 318.826 438.83 334.251C438.83 318.826 428.126 318.612 428.126 318.612C428.126 318.612 437.829 318.406 438.75 305.057V305.058ZM238.749 275.055H238.911C239.874 288.849 250.023 289.061 250.023 289.061C250.023 289.061 238.832 289.283 238.832 305.222C238.832 289.283 227.641 289.061 227.641 289.061C227.641 289.061 237.785 288.849 238.749 275.055Z" fill="#F1A045"/>
<path d="M119.555 53.2183C129.095 59.7897 143.672 55.1963 143.672 55.1963C143.672 55.1963 142.769 39.9492 133.221 33.3839C123.681 26.8125 109.112 31.3998 109.112 31.3998C109.112 31.3998 110.014 46.6461 119.555 53.2183Z" fill="url(#paint2_linear_902_290)"/>
<path d="M389.088 30.003H389.243C390.164 43.3517 399.871 43.5575 399.871 43.5575C399.871 43.5575 389.167 43.771 389.167 59.1964C389.167 43.771 378.463 43.5575 378.463 43.5575C378.463 43.5575 388.166 43.3517 389.088 30.0022V30.003ZM189.086 0H189.248C190.212 13.7948 200.36 14.0068 200.36 14.0068C200.36 14.0068 189.169 14.2279 189.169 30.1675C189.169 14.2279 177.979 14.0068 177.979 14.0068C177.979 14.0068 188.123 13.7948 189.086 0Z" fill="#F1A045"/>
<defs>
<linearGradient id="paint0_linear_902_290" x1="507.854" y1="270.661" x2="432.751" y2="191.467" gradientUnits="userSpaceOnUse">
<stop stop-color="#024EFB"/>
<stop offset="1" stop-color="#EEEEEE"/>
</linearGradient>
<linearGradient id="paint1_linear_902_290" x1="377.425" y1="47.8653" x2="302.322" y2="-31.3286" gradientUnits="userSpaceOnUse">
<stop stop-color="#024EFB"/>
<stop offset="1" stop-color="#EEEEEE"/>
</linearGradient>
<linearGradient id="paint2_linear_902_290" x1="156.72" y1="74.7805" x2="81.6172" y2="-4.41337" gradientUnits="userSpaceOnUse">
<stop stop-color="#024EFB"/>
<stop offset="1" stop-color="#EEEEEE"/>
</linearGradient>
<clipPath id="clip0_902_290">
<rect width="513.022" height="294.095" fill="white" transform="translate(0.977539 45.9047)"/>
</clipPath>
</defs>
</svg>
