<svg width="48" height="42" viewBox="0 0 48 42" fill="none" xmlns="http://www.w3.org/2000/svg">
<path d="M35.6344 10.4431C35.2473 5.22827 30.9258 1.08936 25.6131 1.08936C20.4869 1.08936 16.2866 4.94522 15.6472 9.9003C14.9563 9.57095 14.2035 9.37824 13.4278 9.37824C10.956 9.37824 8.90807 11.0875 8.39789 13.4381C4.26871 13.7652 1 17.1918 1 21.4039C1 25.8314 4.6016 29.433 9.02918 29.433H16.7023V36.5422C16.7023 39.2141 19.3858 41.3894 22.6832 41.3894H28.5448C31.8423 41.3894 34.5257 39.2141 34.5257 36.5422V29.433H34.9434C41.4038 29.433 46.6608 25.1672 46.6608 19.9258C46.6589 14.8705 41.773 10.7354 35.6339 10.4433L35.6344 10.4431ZM32.9837 36.5419C32.9837 38.334 30.9509 39.847 28.543 39.847H22.6813C20.2749 39.847 18.2405 38.3339 18.2405 36.5419V26.189H32.984L32.9837 36.5419ZM30.8665 24.6471H20.3577V19.9365C20.3577 17.0394 22.7157 14.6814 25.6128 14.6814C28.5099 14.6814 30.8661 17.0394 30.8661 19.9365L30.8665 24.6471ZM34.9415 27.8906H34.5239V25.4189C34.5239 24.9935 34.1774 24.649 33.754 24.649H32.4085V19.9384C32.4085 16.1925 29.3592 13.1432 25.6133 13.1432C21.8673 13.1432 18.818 16.1906 18.818 19.9384V24.649H17.4707C17.0453 24.649 16.7008 24.9954 16.7008 25.4189V27.8906H9.0293C5.45089 27.8906 2.54022 24.98 2.54022 21.4035C2.54022 17.8305 5.44322 14.924 9.01388 14.9163C9.02548 14.9163 9.03708 14.9182 9.04675 14.9182C9.44152 14.9182 9.77636 14.6179 9.81277 14.2176C9.98228 12.3369 11.5375 10.9183 13.4279 10.9183C14.2845 10.9183 15.1163 11.2225 15.7707 11.7749C15.8361 11.8284 15.9112 11.8632 15.9863 11.8919C15.9882 11.8919 15.9882 11.8938 15.9902 11.8938C16.0672 11.9247 16.1462 11.9379 16.229 11.9418C16.2502 11.9437 16.2673 11.9534 16.2886 11.9534C16.2944 11.9534 16.3002 11.9495 16.306 11.9495C16.3502 11.9479 16.3924 11.9344 16.4365 11.9247C16.7868 11.8535 17.0562 11.557 17.0562 11.1855C17.0562 6.46723 20.8947 2.63109 25.6106 2.63109C30.3288 2.63109 34.165 6.46954 34.165 11.1855C34.165 11.6108 34.5114 11.9553 34.9349 11.9553H34.9368H34.9387C40.55 11.9553 45.1142 15.5299 45.1142 19.925C45.1187 24.3177 40.5526 27.8907 34.9412 27.8907L34.9415 27.8906Z" fill="#024EFB" stroke="#024EFB" stroke-width="0.7"/>
</svg>
