<svg width="40" height="58" viewBox="0 0 40 58" fill="none" xmlns="http://www.w3.org/2000/svg">
<path d="M38.8894 8.47035H28.8889V5.69259C28.8889 5.07869 28.3916 4.58134 27.7781 4.58134H25.4438C25.0998 2.89531 23.9937 1.46392 22.4489 0.705516C20.9046 -0.0528804 19.0957 -0.0528804 17.5513 0.705516C16.0066 1.46391 14.9005 2.89531 14.5564 4.58134H12.2221C11.6086 4.58134 11.1108 5.07869 11.1108 5.69259V8.47035H1.11084C0.497338 8.47035 0 8.9677 0 9.58119V56.2484C0 56.5434 0.11695 56.826 0.325313 57.0344C0.533675 57.2427 0.816274 57.3597 1.11085 57.3597H38.8892C39.5027 57.3597 40 56.8623 40 56.2484V9.58119C40 8.96769 39.5026 8.47035 38.8892 8.47035H38.8894ZM19.9997 2.35926V2.35886C20.6882 2.36005 21.3596 2.5744 21.9217 2.97236C22.4837 3.37031 22.9088 3.93232 23.1387 4.58134H16.8607C17.0906 3.93231 17.5157 3.37026 18.0777 2.97236C18.6397 2.57445 19.3111 2.36005 19.9997 2.35886V2.35926ZM13.333 6.80343H26.6659V12.3593H13.333V6.80343ZM37.7774 55.1373H2.22158V10.6925H11.1103V13.4703C11.1103 14.0838 11.6081 14.5815 12.2216 14.5815H27.777C28.3905 14.5815 28.8878 14.0838 28.8878 13.4703V10.6925H37.777L37.7774 55.1373Z" fill="#024EFB"/>
<path d="M31.1112 34.5818H8.88835C8.27485 34.5818 7.7771 35.0795 7.7771 35.693C7.7771 36.3069 8.27485 36.8043 8.88835 36.8043H31.1112C31.7247 36.8043 32.2225 36.3069 32.2225 35.693C32.2225 35.0795 31.7247 34.5818 31.1112 34.5818Z" fill="#024EFB"/>
<path d="M31.1112 41.2484H8.88829C8.59173 41.2452 8.30633 41.3609 8.09557 41.5697C7.88482 41.7784 7.76587 42.0626 7.76587 42.3592C7.76587 42.6558 7.88482 42.9404 8.09557 43.1487C8.30633 43.3575 8.59173 43.4733 8.88829 43.4705H31.1112C31.4078 43.4732 31.6932 43.3575 31.9039 43.1487C32.1147 42.9404 32.2336 42.6558 32.2336 42.3592C32.2336 42.0626 32.1147 41.7784 31.9039 41.5697C31.6932 41.3609 31.4078 41.2452 31.1112 41.2484Z" fill="#024EFB"/>
<path d="M31.1112 47.9158H8.88835C8.27485 47.9158 7.7771 48.4131 7.7771 49.027C7.7771 49.6405 8.27485 50.1383 8.88835 50.1383H31.1112C31.7247 50.1383 32.2225 49.6405 32.2225 49.027C32.2225 48.4131 31.7247 47.9158 31.1112 47.9158Z" fill="#024EFB"/>
<path d="M28.5595 22.9187L24.5712 19.8157C24.1864 19.5167 23.6515 19.5031 23.2524 19.7821L18.3683 23.2005L14.0151 19.8156C13.5944 19.4891 13.0016 19.5067 12.6009 19.8572L8.15631 23.7465H8.15671C7.69489 24.1508 7.64818 24.8529 8.05253 25.3144C8.45687 25.7762 9.15897 25.8229 9.62084 25.4185L13.3753 22.1335L17.6515 25.4597C18.0358 25.7595 18.5711 25.7735 18.9702 25.4933L23.8543 22.0749L28.2071 25.4601C28.4614 25.6577 28.7887 25.7356 29.1048 25.6729C29.4206 25.6102 29.694 25.4138 29.8536 25.134L32.0761 21.2443C32.3751 20.7122 32.1891 20.038 31.6586 19.7351C31.1285 19.4321 30.4532 19.6137 30.1466 20.1418L28.5595 22.9187Z" fill="#024EFB"/>
</svg>
