<svg width="60" height="60" viewBox="0 0 60 60" fill="none" xmlns="http://www.w3.org/2000/svg">
<path d="M39.7939 38.6347L51.3481 50.1889C51.6724 50.5758 51.7816 51.0994 51.6386 51.5839C51.4937 52.0734 51.1107 52.4564 50.6212 52.6013C50.1351 52.7448 49.6098 52.6344 49.2226 52.3078L37.6717 40.7569L37.4802 40.5655L37.2702 40.7363C33.741 43.6071 29.245 45.0142 24.7091 44.668C20.1733 44.3215 15.9433 42.248 12.8909 38.8745L12.6685 39.0757L12.8909 38.8745C9.83887 35.5014 8.19752 31.0856 8.30496 26.5377C8.41284 21.9902 10.261 17.657 13.4688 14.4318C16.6939 11.2239 21.027 9.3758 25.5746 9.26797C30.1225 9.16059 34.5384 10.802 37.9115 13.8539C41.285 16.9062 43.3585 21.1362 43.705 25.6721C44.0511 30.2084 42.6441 34.7042 39.7733 38.2332L39.6025 38.4432L39.7939 38.6347ZM15.6279 37.4617L15.6285 37.462C18.388 40.2129 22.1301 41.7527 26.0281 41.7396C30.6127 41.7357 34.9351 39.5999 37.7236 35.9605L37.7236 35.9604C40.5121 32.3201 41.4492 27.5903 40.2594 23.1622C39.0697 18.7341 35.8884 15.1114 31.6505 13.3594C27.4126 11.6075 22.6018 11.9261 18.6321 14.2212L18.632 14.2212C14.6629 16.5165 11.9862 20.5274 11.3907 25.0736C10.7949 29.6196 12.3471 34.1847 15.5913 37.4252L15.6279 37.4617ZM27.5324 16.1529C27.5324 16.5523 27.3737 16.9356 27.0913 17.218C26.809 17.5004 26.4257 17.6591 26.0262 17.6591C23.5515 17.6591 21.1783 18.6422 19.4284 20.3921C17.6785 22.1421 16.6954 24.5152 16.6954 26.99C16.6954 27.5283 16.4082 28.0255 15.9423 28.2944C15.4763 28.5634 14.902 28.5633 14.4361 28.2944C13.9701 28.0255 13.683 27.5282 13.683 26.99C13.683 23.7164 14.9834 20.5767 17.2982 18.2619C19.613 15.9472 22.7527 14.6467 26.0262 14.6467C26.4257 14.6467 26.809 14.8055 27.0913 15.0878C27.3737 15.3702 27.5324 15.7535 27.5324 16.1529Z" fill="#3472FF" stroke="white" stroke-width="0.6"/>
</svg>
