<svg width="60" height="60" viewBox="0 0 60 60" fill="none" xmlns="http://www.w3.org/2000/svg">
<path d="M27.9081 6.59187C29.0947 5.4933 30.9197 5.46867 32.1356 6.53478C34.8786 8.94052 37.4394 10.5325 39.8064 11.3216C42.1656 12.1083 44.6754 12.7124 47.3363 13.1339C48.8705 13.3771 50 14.6997 50 16.2529V35.3589C50 39.0767 48.2146 42.5683 45.2005 44.7458L33.6978 53.0531C31.4905 54.6472 28.5095 54.6472 26.3022 53.0531L14.7995 44.7458C11.7855 42.5688 10 39.0772 10 35.3589V16.289C10 14.7235 11.1472 13.3944 12.6958 13.1654C15.049 12.8172 17.5485 12.2029 20.1936 11.3211C22.7439 10.471 25.1701 9.02813 27.4662 6.9914L27.9081 6.59187ZM30.7477 8.11757C30.3424 7.76231 29.7342 7.77041 29.3302 8.14435L28.8721 8.55953C26.3609 10.7866 23.6891 12.3758 20.8593 13.3189C18.1021 14.2381 15.4843 14.8816 13.0042 15.2485C12.4879 15.325 12.1058 15.768 12.1058 16.2896V35.3594C12.1058 38.4013 13.5664 41.2582 16.0327 43.0394L27.5345 51.3464C29.0062 52.4093 30.9933 52.4093 32.4651 51.3464L43.9669 43.0394C46.4332 41.2582 47.8937 38.4013 47.8937 35.3594V16.2535C47.8937 15.7358 47.5173 15.2949 47.0059 15.2139C44.2333 14.7744 41.6111 14.1432 39.1402 13.3195C36.4793 12.4328 33.6855 10.6956 30.7468 8.11824L30.7477 8.11757ZM40.2321 24.2217C40.6043 24.6084 40.6223 25.2057 40.2935 25.6124L40.2043 25.7101L27.0866 38.3415C26.7105 38.7038 26.1318 38.7316 25.7243 38.425L25.6264 38.3415L19.7963 32.7274C19.3776 32.3243 19.365 31.6578 19.7685 31.2391C20.1407 30.8525 20.737 30.8123 21.1561 31.1253L21.2569 31.2109L26.356 36.1211L38.7438 24.1934C39.1625 23.7902 39.8289 23.803 40.2321 24.2217Z" fill="#3472FF"/>
</svg>
