<svg width="493" height="275" viewBox="0 0 493 275" fill="none" xmlns="http://www.w3.org/2000/svg">
<path d="M300.407 244.388C299.373 234.523 294.221 224.803 286.293 221.593C289.419 231.747 289.419 242.886 286.291 253.039C285.073 256.95 283.375 261.149 284.52 265.09C285.233 267.543 286.978 269.419 288.927 270.592C290.877 271.765 293.041 272.324 295.178 272.872L295.598 273.285C298.99 264.195 301.441 254.253 300.407 244.388Z" fill="#8FF3C9"/>
<path d="M286.214 221.779C290.831 227.918 293.7 235.628 294.415 243.812C294.595 245.571 294.541 247.352 294.253 249.091C293.927 250.774 293.228 252.322 292.227 253.576C291.313 254.767 290.263 255.859 289.609 257.293C289.284 258.033 289.094 258.846 289.052 259.679C289.01 260.512 289.117 261.346 289.366 262.126C289.943 264.09 291.08 265.691 292.238 267.211C293.524 268.898 294.882 270.626 295.428 272.863C295.494 273.134 295.845 272.996 295.779 272.726C294.828 268.834 291.644 266.623 290.126 263.118C289.418 261.483 289.121 259.584 289.785 257.858C290.365 256.348 291.448 255.22 292.381 254.024C293.373 252.818 294.101 251.342 294.501 249.726C294.862 248.01 294.974 246.234 294.833 244.474C294.568 240.505 293.779 236.61 292.495 232.932C291.049 228.724 289.007 224.841 286.458 221.451C286.3 221.241 286.057 221.571 286.214 221.779H286.214Z" fill="#E4E4E4"/>
<path d="M294.316 241.161C295.457 240.832 296.462 240.033 297.152 238.906C297.842 237.779 298.172 236.397 298.084 235.008C298.065 234.727 297.696 234.749 297.715 235.03C297.8 236.323 297.492 237.61 296.847 238.658C296.203 239.706 295.264 240.446 294.2 240.745C293.969 240.81 294.086 241.226 294.316 241.161Z" fill="white"/>
<path d="M292.759 253.044C290.699 251.584 289.177 249.256 288.499 246.525C288.432 246.254 288.081 246.391 288.148 246.662C288.859 249.503 290.446 251.922 292.593 253.436C292.798 253.58 292.963 253.188 292.759 253.044Z" fill="white"/>
<path d="M290.707 229.139C290.288 229.376 289.826 229.485 289.363 229.457C288.899 229.429 288.449 229.265 288.052 228.98C287.849 228.832 287.684 229.225 287.886 229.371C288.325 229.684 288.823 229.864 289.335 229.897C289.847 229.929 290.358 229.812 290.823 229.556C290.869 229.536 290.906 229.496 290.928 229.445C290.95 229.393 290.954 229.334 290.94 229.279C290.925 229.224 290.892 229.178 290.848 229.152C290.804 229.126 290.754 229.122 290.707 229.14L290.707 229.139Z" fill="white"/>
<path d="M262.126 239.213C262.251 239.309 262.375 239.406 262.5 239.505C264.17 240.808 265.747 242.27 267.218 243.876C267.333 243.998 267.448 244.124 267.56 244.25C271.068 248.164 273.932 252.817 276.008 257.972C276.832 260.025 277.524 262.148 278.077 264.325C278.841 267.331 279.467 270.663 280.978 273.122C281.133 273.381 281.302 273.628 281.483 273.862H295.141C295.172 273.843 295.203 273.829 295.234 273.81L295.779 273.84C295.757 273.725 295.733 273.607 295.711 273.492C295.698 273.426 295.683 273.359 295.67 273.292C295.661 273.248 295.652 273.204 295.645 273.163C295.642 273.148 295.639 273.133 295.636 273.122C295.63 273.082 295.62 273.045 295.614 273.008C295.477 272.346 295.336 271.684 295.19 271.022C295.19 271.018 295.19 271.018 295.187 271.015C294.12 265.958 292.551 261.07 290.513 256.452C290.451 256.316 290.389 256.175 290.32 256.038C289.376 253.994 288.294 252.045 287.082 250.211C286.416 249.208 285.708 248.247 284.96 247.33C283.024 244.965 280.786 242.976 278.329 241.436C273.431 238.366 267.76 237.191 262.525 239.065C262.391 239.113 262.26 239.161 262.126 239.213Z" fill="#8FF3C9"/>
<path d="M262.158 239.419C268.959 241.022 275.162 245.127 279.885 251.151C280.921 252.427 281.781 253.888 282.434 255.482C283.027 257.058 283.254 258.795 283.091 260.51C282.966 262.114 282.682 263.737 282.887 265.349C283.003 266.172 283.264 266.957 283.653 267.652C284.042 268.347 284.55 268.936 285.145 269.382C286.602 270.538 288.322 271.003 290.018 271.389C291.9 271.818 293.861 272.227 295.432 273.623C295.623 273.792 295.833 273.432 295.643 273.263C292.909 270.835 289.246 271.344 286.255 269.63C284.86 268.831 283.659 267.527 283.314 265.674C283.011 264.054 283.303 262.38 283.442 260.757C283.622 259.086 283.454 257.388 282.953 255.812C282.371 254.184 281.56 252.686 280.554 251.381C278.329 248.401 275.723 245.855 272.832 243.836C269.543 241.509 265.942 239.868 262.187 238.982C261.954 238.927 261.927 239.365 262.158 239.419Z" fill="#E4E4E4"/>
<path d="M278.46 249.105C279.204 248.028 279.601 246.671 279.58 245.278C279.56 243.885 279.122 242.547 278.346 241.501C278.189 241.29 277.905 241.571 278.063 241.782C278.787 242.754 279.194 244.001 279.211 245.298C279.229 246.596 278.854 247.857 278.156 248.856C278.005 249.073 278.309 249.321 278.46 249.105Z" fill="white"/>
<path d="M283.244 259.707C280.858 260.014 278.462 259.242 276.534 257.545C276.344 257.377 276.134 257.737 276.324 257.905C278.333 259.666 280.828 260.464 283.31 260.138C283.547 260.107 283.48 259.676 283.244 259.707H283.244Z" fill="white"/>
<path d="M269.479 242.085C269.264 242.574 268.95 242.991 268.566 243.3C268.182 243.608 267.739 243.799 267.277 243.855C267.041 243.882 267.108 244.313 267.343 244.286C267.853 244.222 268.342 244.01 268.767 243.67C269.192 243.33 269.541 242.872 269.782 242.335C269.809 242.287 269.818 242.228 269.81 242.172C269.801 242.115 269.775 242.064 269.736 242.03C269.695 241.997 269.646 241.985 269.598 241.995C269.549 242.005 269.507 242.038 269.479 242.085H269.479Z" fill="white"/>
<path d="M424.493 19.9294H103.076C102.952 19.9294 102.833 19.8711 102.746 19.7673C102.659 19.6634 102.609 19.5226 102.609 19.3758C102.609 19.229 102.659 19.0882 102.746 18.9844C102.833 18.8805 102.952 18.8222 103.076 18.8222H424.493C424.617 18.8222 424.736 18.8805 424.823 18.9844C424.911 19.0882 424.96 19.229 424.96 19.3758C424.96 19.5226 424.911 19.6634 424.823 19.7673C424.736 19.8711 424.617 19.9294 424.493 19.9294Z" fill="#CACACA"/>
<path d="M113.576 12.1791C116.41 12.1791 118.707 9.45271 118.707 6.08955C118.707 2.72638 116.41 0 113.576 0C110.742 0 108.444 2.72638 108.444 6.08955C108.444 9.45271 110.742 12.1791 113.576 12.1791Z" fill="#E1E4E5"/>
<path d="M131.302 12.1791C134.136 12.1791 136.434 9.45271 136.434 6.08955C136.434 2.72638 134.136 0 131.302 0C128.468 0 126.171 2.72638 126.171 6.08955C126.171 9.45271 128.468 12.1791 131.302 12.1791Z" fill="#E1E4E5"/>
<path d="M149.03 12.1791C151.864 12.1791 154.161 9.45271 154.161 6.08955C154.161 2.72638 151.864 0 149.03 0C146.196 0 143.898 2.72638 143.898 6.08955C143.898 9.45271 146.196 12.1791 149.03 12.1791Z" fill="#E1E4E5"/>
<path d="M413.873 3.72481H401.278C401.03 3.72481 400.793 3.60817 400.618 3.40053C400.443 3.19289 400.345 2.91127 400.345 2.61763C400.345 2.32398 400.443 2.04236 400.618 1.83472C400.793 1.62709 401.03 1.51044 401.278 1.51044H413.873C413.996 1.51011 414.117 1.5385 414.231 1.59399C414.344 1.64948 414.447 1.73098 414.534 1.83383C414.621 1.93667 414.69 2.05884 414.737 2.19333C414.784 2.32783 414.808 2.47201 414.808 2.61763C414.808 2.76324 414.784 2.90742 414.737 3.04192C414.69 3.17642 414.621 3.29858 414.534 3.40143C414.447 3.50427 414.344 3.58577 414.231 3.64127C414.117 3.69676 413.996 3.72515 413.873 3.72481H413.873Z" fill="#CCCCCC"/>
<path d="M413.873 7.8768H401.278C401.03 7.8768 400.793 7.76015 400.618 7.55251C400.443 7.34488 400.345 7.06326 400.345 6.76961C400.345 6.47597 400.443 6.19435 400.618 5.98671C400.793 5.77907 401.03 5.66241 401.278 5.66241H413.873C414.121 5.66241 414.358 5.77907 414.533 5.98671C414.708 6.19435 414.806 6.47597 414.806 6.76961C414.806 7.06326 414.708 7.34488 414.533 7.55251C414.358 7.76015 414.121 7.8768 413.873 7.8768H413.873Z" fill="#CCCCCC"/>
<path d="M413.873 12.0286H401.278C401.03 12.0286 400.793 11.912 400.618 11.7044C400.443 11.4967 400.345 11.2151 400.345 10.9215C400.345 10.6278 400.443 10.3462 400.618 10.1386C400.793 9.93092 401.03 9.81427 401.278 9.81427H413.873C413.996 9.81394 414.117 9.84233 414.231 9.89782C414.344 9.95331 414.447 10.0348 414.534 10.1377C414.621 10.2405 414.69 10.3627 414.737 10.4972C414.784 10.6317 414.808 10.7758 414.808 10.9215C414.808 11.0671 414.784 11.2113 414.737 11.3458C414.69 11.4802 414.621 11.6024 414.534 11.7053C414.447 11.8081 414.344 11.8896 414.231 11.9451C414.117 12.0006 413.996 12.029 413.873 12.0286H413.873Z" fill="#CCCCCC"/>
<path d="M414.806 43.6686H347.63V91.4644H414.806V43.6686Z" fill="#CCCCCC"/>
<path d="M401.404 113.422H361.434C360.936 113.421 360.457 113.185 360.105 112.766C359.753 112.347 359.555 111.779 359.555 111.187C359.555 110.596 359.753 110.028 360.105 109.609C360.457 109.19 360.936 108.954 361.434 108.953H401.404C401.903 108.953 402.382 109.189 402.735 109.608C403.088 110.027 403.286 110.595 403.286 111.187C403.286 111.78 403.088 112.348 402.735 112.767C402.382 113.186 401.903 113.422 401.404 113.422Z" fill="#E4E4E4"/>
<path d="M394.96 105.774H367.879C367.631 105.775 367.386 105.717 367.157 105.605C366.929 105.493 366.721 105.328 366.546 105.121C366.371 104.913 366.232 104.667 366.137 104.396C366.042 104.124 365.993 103.834 365.993 103.54C365.993 103.246 366.042 102.955 366.137 102.684C366.232 102.413 366.371 102.166 366.546 101.959C366.721 101.751 366.929 101.587 367.157 101.475C367.386 101.363 367.631 101.305 367.879 101.306H394.96C395.207 101.305 395.452 101.363 395.681 101.475C395.91 101.587 396.118 101.751 396.293 101.959C396.468 102.166 396.607 102.413 396.702 102.684C396.796 102.955 396.845 103.246 396.845 103.54C396.845 103.834 396.796 104.124 396.702 104.396C396.607 104.667 396.468 104.913 396.293 105.121C396.118 105.328 395.91 105.493 395.681 105.605C395.452 105.717 395.207 105.775 394.96 105.774Z" fill="#E4E4E4"/>
<path d="M414.806 130.583H347.63V178.379H414.806V130.583Z" fill="#F0F0F0"/>
<path d="M401.404 200.336H361.434C360.935 200.336 360.456 200.101 360.103 199.682C359.75 199.263 359.552 198.695 359.552 198.102C359.552 197.51 359.75 196.941 360.103 196.522C360.456 196.103 360.935 195.868 361.434 195.868H401.404C401.903 195.868 402.382 196.103 402.735 196.522C403.088 196.941 403.286 197.51 403.286 198.102C403.286 198.695 403.088 199.263 402.735 199.682C402.382 200.101 401.903 200.336 401.404 200.336Z" fill="#E4E4E4"/>
<path d="M394.959 192.689H367.879C367.379 192.689 366.901 192.453 366.548 192.034C366.194 191.615 365.996 191.047 365.996 190.455C365.996 189.862 366.194 189.294 366.548 188.875C366.901 188.456 367.379 188.22 367.879 188.22H394.959C395.459 188.22 395.938 188.456 396.291 188.875C396.644 189.294 396.842 189.862 396.842 190.455C396.842 191.047 396.644 191.615 396.291 192.034C395.938 192.453 395.459 192.689 394.959 192.689Z" fill="#E4E4E4"/>
<path d="M313.182 77.1798H110.411C109.912 77.1798 109.433 76.9444 109.08 76.5255C108.727 76.1065 108.528 75.5382 108.528 74.9457C108.528 74.3532 108.727 73.7849 109.08 73.366C109.433 72.947 109.912 72.7116 110.411 72.7116H313.182C313.682 72.7116 314.161 72.947 314.514 73.366C314.867 73.7849 315.065 74.3532 315.065 74.9457C315.065 75.5382 314.867 76.1065 314.514 76.5255C314.161 76.9444 313.682 77.1798 313.182 77.1798Z" fill="#CCCCCC"/>
<path d="M313.182 94.1064H110.411C109.912 94.1064 109.433 93.871 109.08 93.452C108.727 93.0331 108.528 92.4648 108.528 91.8723C108.528 91.2798 108.727 90.7115 109.08 90.2925C109.433 89.8736 109.912 89.6382 110.411 89.6382H313.182C313.682 89.6382 314.161 89.8736 314.514 90.2925C314.867 90.7115 315.065 91.2798 315.065 91.8723C315.065 92.4648 314.867 93.0331 314.514 93.452C314.161 93.871 313.682 94.1064 313.182 94.1064Z" fill="#CCCCCC"/>
<path d="M313.182 111.033H110.411C109.912 111.033 109.433 110.798 109.08 110.379C108.727 109.96 108.528 109.392 108.528 108.799C108.528 108.207 108.727 107.638 109.08 107.219C109.433 106.8 109.912 106.565 110.411 106.565H313.182C313.682 106.565 314.161 106.8 314.514 107.219C314.867 107.638 315.065 108.207 315.065 108.799C315.065 109.392 314.867 109.96 314.514 110.379C314.161 110.798 313.682 111.033 313.182 111.033Z" fill="#CCCCCC"/>
<path d="M313.182 127.96H110.411C109.912 127.96 109.433 127.724 109.08 127.305C108.727 126.886 108.528 126.318 108.528 125.726C108.528 125.133 108.727 124.565 109.08 124.146C109.433 123.727 109.912 123.492 110.411 123.492H313.182C313.682 123.492 314.161 123.727 314.514 124.146C314.867 124.565 315.065 125.133 315.065 125.726C315.065 126.318 314.867 126.886 314.514 127.305C314.161 127.724 313.682 127.96 313.182 127.96Z" fill="#CCCCCC"/>
<path d="M313.182 161.813H110.411C109.912 161.813 109.433 161.578 109.08 161.159C108.727 160.74 108.528 160.172 108.528 159.579C108.528 158.987 108.727 158.418 109.08 157.999C109.433 157.58 109.912 157.345 110.411 157.345H313.182C313.682 157.345 314.161 157.58 314.514 157.999C314.867 158.418 315.065 158.987 315.065 159.579C315.065 160.172 314.867 160.74 314.514 161.159C314.161 161.578 313.682 161.813 313.182 161.813Z" fill="#CCCCCC"/>
<path d="M313.182 178.74H110.411C109.912 178.74 109.433 178.505 109.08 178.086C108.727 177.667 108.528 177.098 108.528 176.506C108.528 175.913 108.727 175.345 109.08 174.926C109.433 174.507 109.912 174.272 110.411 174.272H313.182C313.682 174.272 314.161 174.507 314.514 174.926C314.867 175.345 315.065 175.913 315.065 176.506C315.065 177.098 314.867 177.667 314.514 178.086C314.161 178.505 313.682 178.74 313.182 178.74Z" fill="#CCCCCC"/>
<path d="M279.687 60.1934H143.907C143.66 60.1939 143.415 60.1365 143.186 60.0244C142.957 59.9124 142.749 59.7479 142.574 59.5404C142.399 59.3329 142.26 59.0864 142.165 58.8151C142.07 58.5438 142.021 58.253 142.021 57.9593C142.021 57.6656 142.07 57.3748 142.165 57.1036C142.26 56.8323 142.399 56.5858 142.574 56.3783C142.749 56.1708 142.957 56.0063 143.186 55.8942C143.415 55.7822 143.66 55.7247 143.907 55.7252H279.687C279.934 55.7247 280.179 55.7822 280.408 55.8942C280.637 56.0063 280.845 56.1708 281.02 56.3783C281.195 56.5858 281.334 56.8323 281.429 57.1036C281.523 57.3748 281.572 57.6656 281.572 57.9593C281.572 58.253 281.523 58.5438 281.429 58.8151C281.334 59.0864 281.195 59.3329 281.02 59.5404C280.845 59.7479 280.637 59.9124 280.408 60.0244C280.179 60.1365 279.934 60.1939 279.687 60.1934Z" fill="#CCCCCC"/>
<path d="M331.713 270.122H335.634L337.499 252.177L331.713 252.177L331.713 270.122Z" fill="#FFB6B6"/>
<path d="M330.713 268.602L338.433 268.602H338.434C339.738 268.602 340.99 269.217 341.913 270.312C342.835 271.407 343.354 272.892 343.354 274.441V274.63L330.713 274.631L330.713 268.602Z" fill="#2F2E41"/>
<path d="M311.676 270.122H315.596L317.462 252.177L311.675 252.177L311.676 270.122Z" fill="#FFB6B6"/>
<path d="M310.678 268.602L318.398 268.602H318.398C319.703 268.602 320.955 269.217 321.877 270.312C322.8 271.407 323.318 272.892 323.319 274.441V274.63L310.678 274.631L310.678 268.602Z" fill="#2F2E41"/>
<path d="M357.455 70.1596C357.455 69.3787 357.31 68.6075 357.029 67.9014C356.748 67.1953 356.338 66.5719 355.83 66.076C355.322 65.58 354.727 65.2239 354.089 65.0333C353.451 64.8426 352.786 64.8221 352.14 64.9733C351.495 65.1244 350.885 65.4435 350.356 65.9075C349.827 66.3715 349.391 66.9689 349.08 67.6568C348.768 68.3447 348.589 69.1059 348.555 69.8857C348.521 70.6655 348.634 71.4445 348.884 72.1666L339.875 89.0814L334.267 102.494L338.895 107.369L342.456 102.92L354.105 75.2736C355.062 74.9837 355.912 74.3237 356.518 73.3977C357.125 72.4717 357.454 71.3324 357.455 70.1596Z" fill="#FFB6B6"/>
<path d="M310.7 125.642L301.87 124.018L299.766 142.976L288.305 172.245C287.557 172.798 286.964 173.601 286.601 174.554C286.239 175.506 286.122 176.565 286.266 177.596C286.41 178.628 286.809 179.585 287.411 180.348C288.014 181.11 288.794 181.643 289.651 181.88C290.509 182.117 291.407 182.047 292.232 181.678C293.056 181.31 293.77 180.66 294.283 179.81C294.796 178.96 295.085 177.949 295.114 176.904C295.142 175.859 294.909 174.828 294.444 173.94L306.428 148.261L310.7 125.642Z" fill="#FFB6B6"/>
<path d="M315.595 157.225C315.595 157.225 307.829 165.747 308.816 187.174L310.992 220.275L310.443 266.417L318.419 265.674L325.387 188.345L332.066 220.049L329.669 262.283L337.352 262.494L345.425 214.765L343.511 179.385L340.297 157.225H315.595Z" fill="#2F2E41"/>
<path d="M323.903 107.324L305.351 113.488L314.784 147.03L313.374 159.861L341.98 160.081L335.355 135.28C335.355 135.28 339.073 126.207 334.828 119.848L323.903 107.324Z" fill="#0025FF"/>
<path d="M321.676 112.608L323.902 107.324C323.902 107.324 323.83 105.996 329.061 105.339L335.198 98.0997L340.816 104.744L331.323 121.414L321.676 112.608Z" fill="#0025FF"/>
<path d="M312.77 117.892C312.77 117.892 306.091 109.085 302.381 113.488C298.67 117.892 300.573 131.893 300.573 131.893L312.13 134.022L312.77 117.892Z" fill="#0025FF"/>
<path d="M316.16 84.0392C327.534 84.0998 327.533 104.623 316.159 104.682C304.785 104.622 304.786 84.098 316.16 84.0392Z" fill="#FFB6B6"/>
<path d="M317.426 93.6786C318.963 94.753 320.561 95.852 322.335 96.0824C324.108 96.3128 326.116 95.4269 326.828 93.4852C327.051 92.8124 327.169 92.0974 327.177 91.3747C327.333 87.6869 326.257 84.0747 324.184 81.3216C323.143 79.9721 321.87 78.9048 320.45 78.1925C319.03 77.4801 317.498 77.1394 315.957 77.1937C313.018 77.3453 310.302 78.9963 307.694 80.6115C305.296 82.0968 302.763 83.7334 301.46 86.5468C299.529 90.7157 300.937 95.8199 301.312 100.556C301.575 104.088 301.236 107.646 300.315 111.019C299.394 114.392 297.909 117.509 295.95 120.186L312.134 122.006C314.103 122.227 316.112 122.446 318.043 121.935C319.708 121.493 321.242 120.524 322.481 119.131C323.719 117.738 324.617 115.972 325.077 114.022C325.538 112.072 325.545 110.01 325.097 108.056C324.649 106.101 323.763 104.328 322.534 102.923C320.237 100.298 316.543 98.4403 316.452 94.6578" fill="black"/>
<path d="M438.034 269.692H433.739L431.696 250.038H438.034L438.034 269.692Z" fill="#9F616A"/>
<path d="M439.128 274.631L425.283 274.63V274.423C425.283 272.727 425.851 271.1 426.862 269.901C427.872 268.702 429.243 268.028 430.672 268.028H430.672L439.128 268.028L439.128 274.631Z" fill="#2F2E41"/>
<path d="M477.96 269.692H473.666L471.623 250.038H477.961L477.96 269.692Z" fill="#9F616A"/>
<path d="M479.054 274.631L465.209 274.63V274.423C465.209 272.727 465.777 271.1 466.787 269.901C467.798 268.702 469.169 268.028 470.598 268.028H470.598L479.054 268.028L479.054 274.631Z" fill="#2F2E41"/>
<path d="M436.321 169.955C436.321 169.955 432.717 181.564 433.232 186.451C433.747 191.339 429.628 225.555 430.143 228.61C430.658 231.664 429.628 246.939 430.143 249.383C430.658 251.827 428.698 254.746 429.728 257.19C430.757 259.634 432.202 264.658 432.202 264.658L438.896 264.047L439.925 257.326C439.925 257.326 443.015 256.715 442.5 253.049C441.985 249.383 445.074 224.944 445.074 224.944L453.827 190.728L466.183 221.889C466.183 221.889 466.698 243.884 468.243 246.328C469.787 248.772 466.698 255.493 468.243 257.937C469.787 260.381 471.332 264.658 471.332 264.658H479.055V259.77C479.055 259.77 483.688 256.715 479.055 247.55L475.924 192.512L472.834 167.461L436.321 169.955Z" fill="#2F2E41"/>
<path d="M455.515 93.1291C460.826 93.1291 465.131 88.0199 465.131 81.7174C465.131 75.4149 460.826 70.3057 455.515 70.3057C450.204 70.3057 445.898 75.4149 445.898 81.7174C445.898 88.0199 450.204 93.1291 455.515 93.1291Z" fill="#A0616A"/>
<path d="M447.332 80.9303C448.011 82.9877 448.689 85.045 449.368 87.1024C450.202 89.6316 451.157 92.3375 453.113 93.749C455.527 95.4918 458.751 94.642 461.086 92.7542C463.187 91.0563 464.799 88.6362 465.707 85.819C466.615 83.0019 466.774 79.9225 466.164 76.9947C465.554 74.0668 464.203 71.4307 462.294 69.4403C460.384 67.4499 458.007 66.2005 455.482 65.8602L455.385 67.926L453.249 65.8011C453.091 66.1228 452.874 66.3978 452.613 66.6056C452.353 66.8133 452.056 66.9483 451.746 67.0004C451.435 67.0525 451.118 67.0205 450.82 66.9066C450.521 66.7927 450.248 66.6 450.021 66.3429C450.582 67.7232 449.934 69.4066 448.999 70.464C447.85 71.763 444.564 73.3241 444.7 75.6461C444.791 77.1957 446.802 79.3244 447.332 80.9303Z" fill="black"/>
<path d="M481.987 186.836C482.318 186.249 482.537 185.583 482.628 184.885C482.719 184.187 482.68 183.473 482.514 182.795C482.348 182.117 482.058 181.49 481.665 180.959C481.273 180.428 480.787 180.006 480.242 179.722L480.434 168.682L474.808 166.907L474.722 182.502C474.38 183.62 474.396 184.848 474.767 185.953C475.137 187.058 475.836 187.963 476.732 188.498C477.627 189.032 478.657 189.158 479.625 188.851C480.594 188.545 481.434 187.828 481.987 186.836V186.836Z" fill="#9F616A"/>
<path d="M462.658 100.182C462.658 100.182 455.206 95.7606 448.168 98.7083C441.13 101.656 437.404 105.095 437.404 105.095L441.958 133.59L435.748 171.91C435.748 171.91 467.626 168.962 470.524 171.91C473.421 174.858 473.421 168.471 473.421 168.471L470.937 132.116L475.491 109.025L462.658 100.182Z" fill="#0025FF"/>
<path d="M431.207 187.489C431.664 187.037 432.032 186.47 432.284 185.831C432.537 185.191 432.668 184.493 432.669 183.787C432.67 183.081 432.54 182.383 432.289 181.742C432.038 181.102 431.671 180.534 431.215 180.08L434.012 169.549L429.033 165.971L425.26 180.909C424.668 181.869 424.393 183.053 424.487 184.237C424.581 185.421 425.038 186.523 425.771 187.334C426.504 188.145 427.462 188.609 428.464 188.637C429.466 188.666 430.442 188.258 431.207 187.489Z" fill="#9F616A"/>
<path d="M440.302 105.095H437.404C437.404 105.095 432.85 108.534 432.85 113.447C432.85 118.36 426.227 175.84 426.227 175.84L433.264 177.314L439.474 137.029L444.028 126.22L440.302 105.095Z" fill="#0025FF"/>
<path d="M467.626 109.025H475.492C475.492 109.025 477.976 111.973 479.218 118.851C480.46 125.729 481.702 152.75 481.702 152.75L480.874 177.314H474.664L473.836 145.381L469.696 124.747L467.626 109.025Z" fill="#0025FF"/>
<path d="M103.012 141.719C102.814 141.833 102.623 141.966 102.442 142.116L84.0264 133.573L83.2964 127.939L75.9873 128.135L76.4628 138.258C76.5012 139.076 76.7621 139.857 77.2063 140.484C77.6506 141.111 78.2542 141.55 78.9266 141.735L100.84 147.767C101.107 148.724 101.614 149.562 102.293 150.169C102.972 150.776 103.79 151.124 104.639 151.165C105.488 151.207 106.328 150.941 107.047 150.402C107.765 149.864 108.329 149.078 108.662 148.151C108.995 147.223 109.082 146.197 108.912 145.209C108.742 144.22 108.322 143.317 107.709 142.619C107.096 141.921 106.318 141.461 105.479 141.3C104.64 141.139 103.779 141.286 103.012 141.719H103.012Z" fill="#9F616A"/>
<path d="M75.3633 269.008L80.2518 269.008L82.5771 246.635H75.3623L75.3633 269.008Z" fill="#9F616A"/>
<path d="M74.1152 267.114L83.7413 267.114H83.7417C85.3687 267.114 86.9289 267.881 88.0794 269.246C89.2298 270.612 89.8761 272.463 89.8762 274.394V274.63L74.1155 274.631L74.1152 267.114Z" fill="#2F2E41"/>
<path d="M51.8394 269.008L56.7279 269.008L59.0536 246.635H51.8389L51.8394 269.008Z" fill="#9F616A"/>
<path d="M50.5918 267.114L60.2179 267.114H60.2183C61.8452 267.114 63.4055 267.881 64.5559 269.246C65.7063 270.612 66.3527 272.463 66.3528 274.394V274.63L50.5921 274.631L50.5918 267.114Z" fill="#2F2E41"/>
<path d="M54.674 98.428C53.282 91.6072 52.1026 83.914 54.7279 77.6319C56.5495 73.2731 63.2881 71.8053 67.151 73.3756C71.0138 74.9459 73.8067 79.2062 75.035 83.8514C76.2633 88.4965 76.1206 93.502 75.5852 98.3309C68.4809 98.169 61.3765 98.007 54.674 98.428Z" fill="black"/>
<path d="M66.6614 98.4261C71.2367 98.4261 74.9458 94.0246 74.9458 88.595C74.9458 83.1654 71.2367 78.7639 66.6614 78.7639C62.086 78.7639 58.377 83.1654 58.377 88.595C58.377 94.0246 62.086 98.4261 66.6614 98.4261Z" fill="#9F616A"/>
<path d="M56.5351 86.57C56.5087 84.9153 56.7629 83.2713 57.2825 81.7355C57.8022 80.1998 58.5766 78.8036 59.5599 77.6301C60.5432 76.4565 61.7152 75.5295 63.0064 74.9041C64.2975 74.2787 65.6814 73.9677 67.0759 73.9895C68.4703 74.0113 69.8468 74.3655 71.1236 75.0311C72.4004 75.6967 73.5515 76.6601 74.5083 77.864C75.4652 79.0679 76.2084 80.4877 76.6937 82.0392C77.1791 83.5907 77.3967 85.2421 77.3336 86.8953C70.2427 86.9132 63.1519 86.931 56.5351 86.57Z" fill="black"/>
<path d="M59.7878 134.696L56.3231 141.549C56.3231 141.549 46.8345 162.668 47.3988 180.173L49.4987 201.977L47.1942 207.327L48.7367 216.741L45.8721 223.485L51.0505 256.042L51.2708 263.102H59.6444L59.2037 255.911L62.7295 224.194L68.6791 190.33L71.7641 219.562L70.6623 226.884L72.0947 233.03L74.0779 251.988L74.2982 261.141L81.9006 262.187L84.7652 228.323L86.4179 212.165L77.5608 140.524L59.7878 134.696Z" fill="#2F2E41"/>
<path d="M58.6879 101.609L53.5298 104.208L50.6328 118.437L56.7325 136.974L54.4522 146.237C61.3548 160.249 69.8985 162.284 79.9521 153.299C77.8243 146.209 78.1317 138.92 80.2521 131.481C80.2521 131.481 85.5408 125.636 81.8464 118.038L78.3223 106.687L73.9591 104.098L58.6879 101.609Z" fill="#CBCBCB"/>
<path d="M77.3066 109.162L78.4777 106.581C78.4777 106.581 81.5662 107.132 82.8275 111.544C84.0888 115.955 84.4169 133.777 84.4169 133.777L77.8085 134.174L77.3066 109.162Z" fill="#CBCBCB"/>
<path d="M149.72 130.071L47.9095 170.316C47.6592 170.413 47.3939 170.354 47.1718 170.152C46.9496 169.95 46.7887 169.622 46.7242 169.238C46.6598 168.854 46.6971 168.447 46.8279 168.106C46.9587 167.764 47.1725 167.516 47.4223 167.416L149.232 127.171C149.357 127.121 149.486 127.11 149.613 127.137C149.741 127.164 149.863 127.229 149.974 127.329C150.084 127.429 150.181 127.562 150.259 127.719C150.336 127.876 150.392 128.055 150.424 128.246C150.456 128.437 150.463 128.636 150.445 128.831C150.427 129.026 150.384 129.213 150.319 129.383C150.253 129.552 150.167 129.7 150.064 129.818C149.961 129.936 149.844 130.022 149.72 130.071Z" fill="#7A7360"/>
<path d="M51.4216 169.65C51.9822 169.319 52.4748 168.846 52.8647 168.264C53.2546 167.683 53.5324 167.007 53.6784 166.284C53.8244 165.562 53.8352 164.81 53.7099 164.082C53.5846 163.354 53.3263 162.667 52.9532 162.071L56.1559 124.911H49.2345L46.6893 161.196C45.886 162.006 45.3611 163.138 45.214 164.376C45.0669 165.615 45.3079 166.875 45.8912 167.917C46.4745 168.959 47.3597 169.711 48.379 170.03C49.3983 170.35 50.4808 170.214 51.4216 169.65V169.65Z" fill="#9F616A"/>
<path d="M57.7449 108.411L55.3194 104.342C55.3194 104.342 51.0537 100.91 48.8791 108.808C46.7045 116.707 47.039 131.339 47.039 131.339L55.3194 135.409L57.7449 108.411Z" fill="#CBCBCB"/>
<path d="M188.751 275H1.35611C1.22566 275 1.10056 274.938 1.00832 274.829C0.916077 274.72 0.864258 274.571 0.864258 274.416C0.864258 274.262 0.916077 274.113 1.00832 274.004C1.10056 273.894 1.22566 273.833 1.35611 273.833H188.751C188.881 273.833 189.006 273.894 189.098 274.004C189.191 274.113 189.243 274.262 189.243 274.416C189.243 274.571 189.191 274.72 189.098 274.829C189.006 274.938 188.881 275 188.751 275Z" fill="#2F2E41"/>
<path d="M492.418 275H270.615C270.461 275 270.313 274.938 270.204 274.829C270.095 274.72 270.033 274.571 270.033 274.416C270.033 274.262 270.095 274.113 270.204 274.004C270.313 273.894 270.461 273.833 270.615 273.833H492.418C492.572 273.833 492.72 273.894 492.829 274.004C492.938 274.113 493 274.262 493 274.416C493 274.571 492.938 274.72 492.829 274.829C492.72 274.938 492.572 275 492.418 275Z" fill="#2F2E41"/>
<path d="M0.17539 252.865C0.933625 245.603 4.71227 238.448 10.527 236.085C8.23386 243.559 8.23435 251.759 10.5284 259.232C11.4219 262.111 12.6674 265.202 11.8269 268.103C11.304 269.908 10.0247 271.289 8.59478 272.153C7.16473 273.016 5.57768 273.428 4.01049 273.831L3.70205 274.135C1.21416 267.444 -0.582838 260.126 0.17539 252.865Z" fill="#8FF3C9"/>
<path d="M10.3408 236.37C7.02185 240.792 4.959 246.345 4.4453 252.24C4.31575 253.507 4.35496 254.79 4.56145 256.042C4.79576 257.254 5.29879 258.37 6.01825 259.272C6.67486 260.13 7.43005 260.917 7.89986 261.95C8.13374 262.483 8.27025 263.068 8.30045 263.668C8.33065 264.268 8.25384 264.869 8.07507 265.431C7.66027 266.846 6.84274 267.999 6.01031 269.093C5.08604 270.309 4.10983 271.553 3.71695 273.165C3.66935 273.36 3.4174 273.26 3.46492 273.066C4.14847 270.263 6.43689 268.67 7.52823 266.146C8.03748 264.968 8.25122 263.6 7.77382 262.356C7.35635 261.269 6.57818 260.457 5.90703 259.595C5.19432 258.726 4.67129 257.664 4.38363 256.499C4.12417 255.264 4.04346 253.984 4.14495 252.717C4.33514 249.858 4.90218 247.052 5.82531 244.403C6.86476 241.372 8.33256 238.575 10.1652 236.133C10.2787 235.982 10.4536 236.22 10.3408 236.37L10.3408 236.37Z" fill="#E4E4E4"/>
<path d="M4.98112 250.781C4.00018 250.512 3.13583 249.86 2.54243 248.941C1.94904 248.021 1.66525 246.894 1.74173 245.761C1.7579 245.532 2.07506 245.549 2.05887 245.779C1.98592 246.834 2.25037 247.884 2.80449 248.739C3.35861 249.594 4.16589 250.198 5.08064 250.441C5.27938 250.494 5.17872 250.833 4.98112 250.781Z" fill="white"/>
<path d="M6.12103 259.125C7.63365 258.056 8.75029 256.352 9.24828 254.353C9.29748 254.155 9.5548 254.255 9.50564 254.453C8.98415 256.533 7.81907 258.303 6.24293 259.411C6.09264 259.517 5.97155 259.23 6.12103 259.125Z" fill="white"/>
<path d="M7.11521 241.448C7.45995 241.662 7.83999 241.761 8.22118 241.736C8.60238 241.71 8.9728 241.562 9.29918 241.303C9.46624 241.17 9.60173 241.525 9.43577 241.657C9.07416 241.941 8.66491 242.104 8.2438 242.134C7.82268 242.163 7.40251 242.057 7.01999 241.825C6.98253 241.807 6.9517 241.771 6.93376 241.724C6.91582 241.678 6.91212 241.624 6.92341 241.574C6.93621 241.524 6.96353 241.483 6.99945 241.459C7.03537 241.436 7.07696 241.432 7.11521 241.448Z" fill="white"/>
<path d="M27.67 248.954C27.5804 249.024 27.4907 249.094 27.401 249.166C26.1998 250.113 25.0647 251.176 24.007 252.343C23.9241 252.432 23.8411 252.523 23.7604 252.614C21.2372 255.459 19.1765 258.841 17.683 262.587C17.0899 264.079 16.5923 265.622 16.1945 267.204C15.6452 269.389 15.1946 271.811 14.1074 273.598C13.9957 273.786 13.8744 273.965 13.7442 274.135H3.9185C3.89617 274.122 3.87373 274.111 3.85129 274.098L3.45898 274.119C3.47474 274.036 3.49259 273.95 3.50835 273.866C3.51733 273.818 3.52849 273.77 3.53747 273.721C3.54414 273.689 3.55093 273.657 3.55542 273.627C3.55761 273.617 3.5599 273.606 3.5621 273.598C3.56658 273.568 3.57337 273.541 3.57785 273.514C3.67648 273.033 3.7781 272.552 3.88271 272.071C3.88271 272.069 3.8827 272.069 3.88489 272.066C4.65275 268.391 5.78152 264.839 7.24755 261.483C7.29242 261.383 7.33719 261.281 7.38655 261.182C8.06541 259.696 8.84442 258.28 9.71578 256.947C10.1949 256.218 10.7044 255.52 11.2424 254.853C12.6354 253.134 14.2452 251.689 16.0129 250.569C19.537 248.339 23.6169 247.484 27.3831 248.847C27.4795 248.882 27.5737 248.916 27.67 248.954Z" fill="#8FF3C9"/>
<path d="M28.4156 249.376C23.3579 250.535 18.7454 253.503 15.2331 257.858C14.4626 258.78 13.8228 259.836 13.3374 260.988C12.8961 262.128 12.7273 263.383 12.8486 264.624C12.9417 265.783 13.1532 266.956 13.0003 268.122C12.9144 268.717 12.7204 269.284 12.4311 269.786C12.1418 270.289 11.7636 270.715 11.3215 271.037C10.2379 271.873 8.95867 272.21 7.69777 272.489C6.29778 272.798 4.83938 273.095 3.67095 274.103C3.52938 274.226 3.37325 273.965 3.51461 273.843C5.54748 272.088 8.27167 272.456 10.4956 271.217C11.5333 270.639 12.4262 269.696 12.6833 268.357C12.9081 267.185 12.6908 265.975 12.5879 264.802C12.4541 263.594 12.5788 262.367 12.951 261.227C13.384 260.05 13.9874 258.967 14.7353 258.024C16.3899 255.87 18.3278 254.029 20.4781 252.569C22.9241 250.887 25.6015 249.7 28.3945 249.06C28.5674 249.02 28.5873 249.337 28.4156 249.376V249.376Z" fill="#E4E4E4"/>
<path d="M16.1843 255.919C15.7729 255.199 15.5534 254.292 15.5649 253.361C15.5764 252.43 15.8181 251.535 16.247 250.836C16.3341 250.695 16.4909 250.883 16.4036 251.024C16.0035 251.674 15.7783 252.507 15.7689 253.375C15.7594 254.242 15.9662 255.085 16.3521 255.752C16.4358 255.898 16.2675 256.064 16.1843 255.919Z" fill="#E4E4E4"/>
<path d="M12.2847 264.141C14.2885 264.435 16.3004 263.695 17.9193 262.07C18.0796 261.909 18.2559 262.254 18.0958 262.415C16.4089 264.102 14.314 264.866 12.2293 264.554C12.0306 264.525 12.0871 264.112 12.2847 264.141Z" fill="white"/>
<path d="M22.6968 250.857C22.8353 251.225 23.0374 251.539 23.2851 251.772C23.5328 252.004 23.8183 252.148 24.1159 252.19C24.2686 252.211 24.225 252.535 24.0734 252.515C23.7447 252.466 23.4295 252.307 23.1555 252.051C22.8814 251.795 22.6568 251.449 22.5011 251.045C22.4842 251.008 22.4778 250.964 22.4834 250.922C22.489 250.879 22.5061 250.841 22.5312 250.815C22.5572 250.791 22.5892 250.781 22.6202 250.789C22.6512 250.797 22.6788 250.821 22.6968 250.857Z" fill="white"/>
<path d="M372.4 81.3759C381.939 87.9473 396.514 83.3539 396.514 83.3539C396.514 83.3539 395.611 68.1068 386.065 61.5415C376.525 54.9701 361.958 59.5574 361.958 59.5574C361.958 59.5574 362.86 74.8037 372.4 81.3759Z" fill="url(#paint0_linear_1268_291)"/>
<path d="M180.423 240.376C189.962 246.947 204.536 242.354 204.536 242.354C204.536 242.354 203.633 227.107 194.087 220.541C184.548 213.97 169.98 218.557 169.98 218.557C169.98 218.557 170.883 233.804 180.423 240.376Z" fill="url(#paint1_linear_1268_291)"/>
<path d="M380.066 140.003H380.221C381.142 153.352 390.848 153.558 390.848 153.558C390.848 153.558 380.145 153.771 380.145 169.196C380.145 153.771 369.442 153.558 369.442 153.558C369.442 153.558 379.144 153.352 380.066 140.003Z" fill="#F1A045"/>
<defs>
<linearGradient id="paint0_linear_1268_291" x1="409.561" y1="102.938" x2="334.457" y2="23.7528" gradientUnits="userSpaceOnUse">
<stop stop-color="#024EFB"/>
<stop offset="1" stop-color="#EEEEEE"/>
</linearGradient>
<linearGradient id="paint1_linear_1268_291" x1="217.583" y1="261.938" x2="142.48" y2="182.753" gradientUnits="userSpaceOnUse">
<stop stop-color="#024EFB"/>
<stop offset="1" stop-color="#EEEEEE"/>
</linearGradient>
</defs>
</svg>
