<svg width="25" height="21" viewBox="0 0 25 21" fill="none" xmlns="http://www.w3.org/2000/svg">
<path fill-rule="evenodd" clip-rule="evenodd" d="M25 2.37074C24.0809 2.77666 23.0909 3.04635 22.057 3.16661C23.1162 2.54022 23.9264 1.54753 24.313 0.365804C23.3229 0.9439 22.2226 1.36806 21.0567 1.59489C20.1193 0.611344 18.7878 0 17.3128 0C14.4806 0 12.1876 2.26548 12.1876 5.06039C12.1876 5.45489 12.2319 5.84075 12.3187 6.21295C8.05712 5.99974 4.2791 3.98523 1.74993 0.920218C1.29532 1.69349 1.05593 2.57175 1.05605 3.46588C1.05605 5.22073 1.95844 6.77285 3.33515 7.67806C2.49502 7.65345 1.70474 7.42203 1.01082 7.04708V7.11041C1.01082 9.56455 2.77736 11.6123 5.12473 12.0751C4.69475 12.1904 4.24078 12.2542 3.77298 12.2542C3.44175 12.2542 3.12246 12.2205 2.80505 12.1636C3.46061 14.1735 5.35312 15.6386 7.5944 15.6814C5.83709 17.0408 3.62998 17.8503 1.22394 17.8503C0.80872 17.8503 0.404125 17.8253 0 17.7774C2.27449 19.2184 4.9688 20.053 7.86338 20.053C17.2935 20.053 22.4547 12.3362 22.4547 5.64531C22.4547 5.42299 22.4496 5.20753 22.4404 4.98976C23.442 4.28226 24.3103 3.38935 24.9977 2.37298L25 2.3707L25 2.37074Z" fill="#024EFB"/>
</svg>
