<svg width="530" height="270" viewBox="0 0 530 270" fill="none" xmlns="http://www.w3.org/2000/svg">
<g clip-path="url(#clip0_1098_478)">
<path d="M270.682 269.428C286.622 269.428 299.545 260.086 299.545 248.563C299.545 237.04 286.622 227.698 270.682 227.698C254.741 227.698 241.818 237.04 241.818 248.563C241.818 260.086 254.741 269.428 270.682 269.428Z" fill="#3472FF"/>
<path d="M443.112 268.256C459.259 264.75 476.426 261.095 489.232 252.761C500.675 245.314 508.401 233.942 503.66 222.774C498.929 211.629 484.758 204.197 470.128 200.501C461.829 198.404 453.148 197.241 444.47 196.328C435.036 195.334 425.561 194.521 416.09 193.738C377.741 190.567 339.247 188.63 300.61 187.927C281.544 187.58 262.483 187.588 243.415 187.788C226.386 187.967 208.452 187.962 192.654 182.73C180.37 178.662 169.22 171.26 165.797 161.533C161.846 150.305 169.134 138.87 179.588 130.738C185.099 126.452 191.54 122.844 198.184 119.527C205.392 115.928 212.851 112.584 220.472 109.463C235.481 103.318 251.173 98.0885 267.385 93.8285C275.382 91.7264 283.498 89.9128 291.685 88.2397C298.598 86.827 305.532 85.4122 312.213 83.4874C325.128 79.7663 337.412 73.4633 340.696 63.1299C343.809 53.3364 338.561 42.7048 329.361 35.4294C318.718 27.0123 302.669 23.3225 287.284 22.7255C270.011 22.0553 253.136 25.1803 236.901 29.1463C219.585 33.3764 202.642 38.2403 184.961 41.6667C167.427 45.061 149.554 47.4627 131.504 48.8498C122.668 49.53 113.564 50.298 104.676 49.7773C97.2263 49.3409 89.8149 47.7572 84.3247 43.9353C79.6172 40.6583 76.8129 36.1546 77.777 31.4018C77.9521 30.5385 79.7662 30.9055 79.5921 31.7635C78.4185 37.549 83.8588 42.8802 90.5627 45.6111C98.3107 48.7672 107.739 48.7715 116.365 48.4106C135.069 47.594 153.646 45.6526 171.904 42.6067C189.845 39.6446 207.145 35.41 224.425 30.8866C240.837 26.5904 257.616 22.3974 275.149 21.4669C290.363 20.6595 306.366 22.2617 319.62 28.009C331.268 33.0601 339.833 41.4836 342.563 51.1499C345.23 60.5956 341.536 70.1028 331.645 76.6943C321.404 83.5191 307.362 86.4369 294.275 89.1242C277.678 92.5325 261.436 96.5167 245.715 101.69C229.779 106.919 214.497 113.13 200.036 120.254C186.077 127.149 172.301 135.826 167.887 148.127C165.83 153.857 166.21 159.935 169.651 165.347C172.71 170.16 177.749 174.208 183.619 177.33C197.625 184.78 215.276 186.31 232.194 186.462C251.194 186.633 270.195 186.169 289.201 186.395C327.936 186.854 366.592 188.559 405.168 191.508C414.834 192.247 424.488 193.065 434.13 193.96C442.802 194.766 451.504 195.566 460.03 196.997C475.191 199.541 489.944 204.432 499.367 213.724C503.549 217.752 506.14 222.525 506.863 227.534C507.523 232.761 505.753 237.998 502.483 242.648C495.247 252.94 481.693 259.486 467.3 263.787C459.59 266.09 451.593 267.835 443.612 269.568C442.449 269.82 441.953 268.508 443.112 268.256L443.112 268.256Z" fill="#F2F2F2"/>
<path d="M443.112 268.256C459.259 264.75 476.426 261.095 489.232 252.761C500.675 245.314 508.401 233.942 503.66 222.774C498.929 211.629 484.758 204.197 470.128 200.501C461.829 198.404 453.148 197.241 444.47 196.328C435.036 195.334 425.561 194.521 416.09 193.738C377.741 190.567 339.247 188.63 300.61 187.927C281.544 187.58 262.483 187.588 243.415 187.788C226.386 187.967 208.452 187.962 192.654 182.73C180.37 178.662 169.22 171.26 165.797 161.533C161.846 150.305 169.134 138.87 179.588 130.738C185.099 126.452 191.54 122.844 198.184 119.527C205.392 115.928 212.851 112.584 220.472 109.463C235.481 103.318 251.173 98.0885 267.385 93.8285C275.382 91.7264 283.498 89.9128 291.685 88.2397C298.598 86.827 305.532 85.4122 312.213 83.4874C325.128 79.7663 337.412 73.4633 340.696 63.1299C343.809 53.3364 338.561 42.7048 329.361 35.4294C318.718 27.0123 302.669 23.3225 287.284 22.7255C270.011 22.0553 253.136 25.1803 236.901 29.1463C219.585 33.3764 202.642 38.2403 184.961 41.6667C167.427 45.061 149.554 47.4627 131.504 48.8498C122.668 49.53 113.564 50.298 104.676 49.7773C97.2263 49.3409 89.8149 47.7572 84.3247 43.9353C79.6172 40.6583 76.8129 36.1546 77.777 31.4018C77.9521 30.5385 79.7662 30.9055 79.5921 31.7635C78.4185 37.549 83.8588 42.8802 90.5627 45.6111C98.3107 48.7672 107.739 48.7715 116.365 48.4106C135.069 47.594 153.646 45.6526 171.904 42.6067C189.845 39.6446 207.145 35.41 224.425 30.8866C240.837 26.5904 257.616 22.3974 275.149 21.4669C290.363 20.6595 306.366 22.2617 319.62 28.009C331.268 33.0601 339.833 41.4836 342.563 51.1499C345.23 60.5956 341.536 70.1028 331.645 76.6943C321.404 83.5191 307.362 86.4369 294.275 89.1242C277.678 92.5325 261.436 96.5167 245.715 101.69C229.779 106.919 214.497 113.13 200.036 120.254C186.077 127.149 172.301 135.826 167.887 148.127C165.83 153.857 166.21 159.935 169.651 165.347C172.71 170.16 177.749 174.208 183.619 177.33C197.625 184.78 215.276 186.31 232.194 186.462C251.194 186.633 270.195 186.169 289.201 186.395C327.936 186.854 366.592 188.559 405.168 191.508C414.834 192.247 424.488 193.065 434.13 193.96C442.802 194.766 451.504 195.566 460.03 196.997C475.191 199.541 489.944 204.432 499.367 213.724C503.549 217.752 506.14 222.525 506.863 227.534C507.523 232.761 505.753 237.998 502.483 242.648C495.247 252.94 481.693 259.486 467.3 263.787C459.59 266.09 451.593 267.835 443.612 269.568C442.449 269.82 441.953 268.508 443.112 268.256L443.112 268.256Z" fill="#F2F2F2"/>
<path d="M78.9926 42.4096C87.3095 42.4096 94.0516 37.5358 94.0516 31.5237C94.0516 25.5115 87.3095 20.6377 78.9926 20.6377C70.6757 20.6377 63.9336 25.5115 63.9336 31.5237C63.9336 37.5358 70.6757 42.4096 78.9926 42.4096Z" fill="#F2F2F2"/>
<path d="M183.465 63.0473C191.782 63.0473 198.524 58.1735 198.524 52.1614C198.524 46.1492 191.782 41.2754 183.465 41.2754C175.148 41.2754 168.406 46.1492 168.406 52.1614C168.406 58.1735 175.148 63.0473 183.465 63.0473Z" fill="#F2F2F2"/>
<path d="M271.937 21.7719C280.254 21.7719 286.996 16.8981 286.996 10.886C286.996 4.87382 280.254 0 271.937 0C263.62 0 256.878 4.87382 256.878 10.886C256.878 16.8981 263.62 21.7719 271.937 21.7719Z" fill="#F2F2F2"/>
<path d="M271.937 21.7719C280.254 21.7719 286.996 16.8981 286.996 10.886C286.996 4.87382 280.254 0 271.937 0C263.62 0 256.878 4.87382 256.878 10.886C256.878 16.8981 263.62 21.7719 271.937 21.7719Z" fill="#F2F2F2"/>
<path d="M327.153 68.0376C335.47 68.0376 342.212 63.1638 342.212 57.1516C342.212 51.1394 335.47 46.2656 327.153 46.2656C318.836 46.2656 312.094 51.1394 312.094 57.1516C312.094 63.1638 318.836 68.0376 327.153 68.0376Z" fill="#F2F2F2"/>
<path d="M327.153 68.0376C335.47 68.0376 342.212 63.1638 342.212 57.1516C342.212 51.1394 335.47 46.2656 327.153 46.2656C318.836 46.2656 312.094 51.1394 312.094 57.1516C312.094 63.1638 318.836 68.0376 327.153 68.0376Z" fill="#F2F2F2"/>
<path d="M157.739 147.415C166.056 147.415 172.798 142.541 172.798 136.529C172.798 130.516 166.056 125.643 157.739 125.643C149.422 125.643 142.68 130.516 142.68 136.529C142.68 142.541 149.422 147.415 157.739 147.415Z" fill="#F2F2F2"/>
<path d="M258.133 187.783C266.45 187.783 273.192 182.909 273.192 176.897C273.192 170.885 266.45 166.011 258.133 166.011C249.816 166.011 243.074 170.885 243.074 176.897C243.074 182.909 249.816 187.783 258.133 187.783Z" fill="#F2F2F2"/>
<path d="M258.132 187.783C266.449 187.783 273.191 182.909 273.191 176.897C273.191 170.885 266.449 166.011 258.132 166.011C249.815 166.011 243.073 170.885 243.073 176.897C243.073 182.909 249.815 187.783 258.132 187.783Z" fill="#F2F2F2"/>
<path d="M366.055 210.462C374.372 210.462 381.114 205.589 381.114 199.576C381.114 193.564 374.372 188.69 366.055 188.69C357.738 188.69 350.996 193.564 350.996 199.576C350.996 205.589 357.738 210.462 366.055 210.462Z" fill="#F2F2F2"/>
<path d="M492.175 205.473C500.492 205.473 507.234 200.599 507.234 194.587C507.234 188.575 500.492 183.701 492.175 183.701C483.858 183.701 477.116 188.575 477.116 194.587C477.116 200.599 483.858 205.473 492.175 205.473Z" fill="#F2F2F2"/>
<path d="M267.4 31.1559C222.451 31.3854 185.647 57.7906 185.008 90.2813C185.002 90.5813 185 92.6905 185 95.4493C185 99.4942 187.223 103.373 191.18 106.234C195.136 109.094 200.502 110.701 206.098 110.702C208.872 110.701 211.618 110.306 214.18 109.538C216.743 108.77 219.07 107.644 221.031 106.225C222.991 104.807 224.546 103.123 225.605 101.27C226.665 99.4168 227.209 97.431 227.207 95.4259C227.205 93.5492 227.203 92.2504 227.203 92.1706C227.202 87.1492 229.009 82.2141 232.446 77.8506C235.883 73.487 240.833 69.8455 246.808 67.2842C252.782 64.7229 259.576 63.33 266.522 63.2426C273.467 63.1551 280.324 64.3762 286.419 66.7855C292.513 69.1949 297.635 72.7096 301.281 76.984C304.926 81.2583 306.97 86.145 307.21 91.1634C307.45 96.1818 305.879 101.159 302.652 105.605C299.424 110.052 294.651 113.814 288.802 116.523L288.809 116.529C288.809 116.529 258.78 130.504 249.625 149.675L249.633 149.676C248.023 153.603 247.207 157.678 247.211 161.774C247.211 163.458 247.348 178.191 247.613 190.148C247.705 194.274 250.038 198.208 254.107 201.102C258.176 203.996 263.656 205.617 269.365 205.616C272.233 205.616 275.073 205.206 277.721 204.409C280.369 203.613 282.773 202.446 284.795 200.975C286.817 199.504 288.416 197.759 289.502 195.84C290.587 193.921 291.137 191.865 291.119 189.792C291.027 178.841 290.977 166.09 290.977 165.164C290.977 153.393 306.687 141.664 319.59 134.015C334.45 125.208 345.143 113.205 349.437 99.6659C350.388 96.8784 350.912 94.0239 351 91.1537C351 83.238 348.833 75.4005 344.624 68.0929C340.416 60.7852 334.248 54.1518 326.477 48.5748C318.707 42.9978 309.486 38.5874 299.347 35.5979C289.208 32.6084 278.35 31.0987 267.4 31.1559Z" fill="#3472FF"/>
<path d="M529.254 270H0.747876C0.550106 270 0.360636 269.943 0.220994 269.841C0.0813512 269.74 0.00292969 269.603 0.00292969 269.46C0.00292969 269.317 0.0813512 269.18 0.220994 269.079C0.360636 268.977 0.550106 268.92 0.747876 268.92H529.254C529.452 268.92 529.642 268.977 529.782 269.078C529.922 269.179 530.001 269.317 530.001 269.46C530.001 269.603 529.922 269.741 529.782 269.842C529.642 269.943 529.452 270 529.254 270Z" fill="#3F3D56"/>
<path d="M394.327 123.826C404.723 123.826 413.151 117.734 413.151 110.219C413.151 102.704 404.723 96.6113 394.327 96.6113C383.931 96.6113 375.503 102.704 375.503 110.219C375.503 117.734 383.931 123.826 394.327 123.826Z" fill="#2F2E41"/>
<path d="M359.541 264.044H351.849L348.189 242.595H359.543L359.541 264.044Z" fill="#A0616A"/>
<path d="M346.355 262.454H361.19V269.207H337.014C337.014 268.32 337.255 267.442 337.725 266.622C338.194 265.803 338.882 265.059 339.75 264.432C340.617 263.805 341.647 263.307 342.78 262.968C343.913 262.629 345.128 262.454 346.355 262.454Z" fill="#2F2E41"/>
<path d="M419.151 264.044H411.459L407.799 242.595H419.153L419.151 264.044Z" fill="#A0616A"/>
<path d="M405.964 262.454H420.8V269.207H396.623C396.623 268.32 396.865 267.442 397.334 266.622C397.803 265.803 398.492 265.059 399.359 264.432C400.226 263.805 401.256 263.307 402.389 262.968C403.523 262.629 404.737 262.454 405.964 262.454Z" fill="#2F2E41"/>
<path d="M391.466 123.906C399.977 123.906 406.877 118.918 406.877 112.765C406.877 106.613 399.977 101.625 391.466 101.625C382.954 101.625 376.055 106.613 376.055 112.765C376.055 118.918 382.954 123.906 391.466 123.906Z" fill="#A0616A"/>
<path d="M400.651 159.845L407.547 148.392C409.222 145.706 409.702 142.709 408.921 139.817C408.14 136.925 406.136 134.279 403.186 132.245C402.581 131.812 401.937 131.407 401.26 131.034C397.857 129.11 393.664 128.061 389.345 128.054C386.44 128.062 383.572 128.523 380.937 129.405C380.711 129.478 380.491 129.555 380.265 129.632C379.832 129.782 379.406 129.945 378.991 130.113C376.29 131.234 373.991 132.799 372.28 134.68C370.569 136.562 369.493 138.707 369.14 140.945L366.097 159.378C365.332 160.825 338.025 213.078 347.575 252.97C347.676 253.396 347.964 253.788 348.395 254.087C348.826 254.387 349.378 254.579 349.971 254.635L359.653 255.587C360.36 255.657 361.077 255.531 361.661 255.234C362.244 254.937 362.65 254.491 362.797 253.986L379.042 198.01C379.143 197.662 379.403 197.349 379.779 197.12C380.155 196.891 380.627 196.761 381.118 196.749C381.61 196.737 382.093 196.844 382.49 197.054C382.887 197.263 383.175 197.563 383.308 197.905L406.261 256.771C406.424 257.199 406.777 257.576 407.266 257.845C407.754 258.114 408.351 258.259 408.965 258.259C409.148 258.258 409.331 258.246 409.511 258.223L421.339 256.576C422.026 256.483 422.641 256.208 423.062 255.804C423.484 255.401 423.681 254.898 423.616 254.394C421.878 240.383 412.642 170.201 400.651 159.845Z" fill="#54545B"/>
<path d="M331.575 122.036C331.468 122.698 331.563 123.369 331.854 124.002C332.144 124.635 332.624 125.214 333.257 125.698C333.891 126.183 334.664 126.561 335.522 126.806C336.38 127.051 337.302 127.158 338.222 127.117L346.837 142.082L353.353 135.1L344.173 121.959C343.977 120.846 343.223 119.823 342.054 119.084C340.884 118.346 339.38 117.943 337.827 117.952C336.274 117.962 334.78 118.383 333.628 119.135C332.475 119.888 331.745 120.92 331.575 122.036L331.575 122.036Z" fill="#A0616A"/>
<path d="M390.612 174.913C391.528 174.834 392.409 174.611 393.192 174.259C393.976 173.907 394.643 173.435 395.147 172.877C395.651 172.319 395.98 171.687 396.11 171.027C396.24 170.367 396.168 169.694 395.899 169.056L414.024 159.513L403.112 156.56L387.574 166.074C386.121 166.472 384.921 167.24 384.2 168.235C383.479 169.229 383.287 170.38 383.662 171.469C384.036 172.559 384.951 173.511 386.232 174.146C387.513 174.781 389.071 175.054 390.612 174.913Z" fill="#A0616A"/>
<path d="M361.065 152.06C360.37 152.059 359.677 152.01 358.996 151.912C357.347 151.685 355.801 151.169 354.494 150.408C353.186 149.648 352.158 148.666 351.499 147.55L339.43 136.912C339.175 136.688 338.99 136.426 338.886 136.145C338.782 135.864 338.762 135.57 338.828 135.283C338.894 134.996 339.044 134.723 339.268 134.481C339.493 134.24 339.785 134.035 340.128 133.882L348.714 130.04C349.031 129.898 349.384 129.803 349.752 129.76C350.12 129.717 350.496 129.728 350.859 129.791C351.221 129.853 351.563 129.968 351.864 130.126C352.165 130.285 352.42 130.486 352.614 130.716L361.12 140.846L377.41 132.144C378.707 131.652 380.205 131.514 381.631 131.755C383.057 131.996 384.315 132.6 385.176 133.457C386.037 134.313 386.443 135.365 386.32 136.42C386.197 137.474 385.553 138.462 384.506 139.202L368.247 149.923C366.337 151.292 363.755 152.06 361.065 152.06Z" fill="#2F2E41"/>
<path d="M405.082 168.058C405.06 168.058 405.038 168.058 405.016 168.058C404.62 168.051 404.231 167.984 403.873 167.861C403.515 167.739 403.197 167.563 402.939 167.346L395.305 160.908C395.045 160.689 394.852 160.432 394.74 160.155C394.627 159.878 394.597 159.587 394.651 159.301C394.706 159.014 394.844 158.74 395.056 158.495C395.268 158.251 395.55 158.041 395.882 157.881L410.177 150.992L397.227 139.738C396.474 138.83 396.197 137.757 396.449 136.714C396.7 135.671 397.462 134.728 398.595 134.057C399.728 133.387 401.157 133.034 402.621 133.062C404.085 133.09 405.486 133.499 406.568 134.212L422.307 145.331C423.546 146.149 424.491 147.172 425.063 148.312C425.634 149.452 425.814 150.676 425.587 151.878C425.36 153.079 424.734 154.223 423.761 155.211C422.788 156.199 421.498 157.002 420.001 157.55L407.137 167.417C406.873 167.62 406.555 167.781 406.201 167.891C405.848 168.001 405.467 168.058 405.082 168.058Z" fill="#2F2E41"/>
<path d="M387.547 144.337C387.425 144.337 387.302 144.331 387.181 144.32C386.649 144.273 386.147 144.117 385.735 143.871C385.322 143.624 385.016 143.297 384.853 142.928L379.116 130.214C378.972 129.893 378.995 129.545 379.178 129.234C379.362 128.924 379.695 128.672 380.116 128.525L380.303 128.461C380.471 128.403 380.638 128.346 380.809 128.291C383.484 127.394 386.396 126.927 389.344 126.92C393.172 126.925 396.915 127.738 400.113 129.259C400.541 129.465 400.841 129.785 400.947 130.149C401.052 130.514 400.956 130.893 400.678 131.207L389.917 143.394C389.665 143.683 389.315 143.921 388.901 144.086C388.486 144.251 388.02 144.337 387.547 144.337Z" fill="#E6E6E6"/>
<path d="M409.167 104.144C412.569 104.144 415.327 102.15 415.327 99.6909C415.327 97.2318 412.569 95.2383 409.167 95.2383C405.766 95.2383 403.008 97.2318 403.008 99.6909C403.008 102.15 405.766 104.144 409.167 104.144Z" fill="#2F2E41"/>
<path d="M388.052 94.7969C383.726 94.7969 379.576 96.0394 376.517 98.251C373.457 100.463 371.738 103.462 371.738 106.59V111.579H380.227L384.287 106.59L385.506 111.579H411.268L404.366 106.59C404.366 103.462 402.647 100.463 399.588 98.251C396.529 96.0394 392.379 94.7969 388.052 94.7969Z" fill="#2F2E41"/>
<path d="M412.333 96.6408C413.014 95.1012 414.424 93.7844 416.316 92.922C418.207 92.0595 420.458 91.7068 422.674 91.9256C426.599 92.4 429.703 94.6809 431.552 97.2284C433.402 99.776 434.255 102.627 435.499 105.36C436.742 108.093 438.505 110.841 441.643 112.61C444.782 114.379 449.598 114.859 452.68 113.039C452.328 114.936 451.16 116.705 449.341 118.095C447.522 119.486 445.145 120.428 442.545 120.788C439.945 121.148 437.254 120.908 434.853 120.102C432.452 119.296 430.462 117.965 429.165 116.297C427.538 114.205 427.119 111.753 426.636 109.379C426.154 107.005 425.527 104.549 423.585 102.602C421.644 100.656 418.009 99.3852 414.924 100.272L412.333 96.6408Z" fill="#2F2E41"/>
<path d="M212.048 103.434C206.433 103.434 201.048 101.821 197.077 98.9504C193.106 96.0799 190.876 92.1869 190.875 88.1275C190.875 85.359 190.878 83.2422 190.883 82.9412C191.062 73.4583 194.366 64.1429 200.521 55.7676C190.408 65.775 184.848 77.8068 184.609 90.1985C184.603 90.4995 184.6 92.6163 184.601 95.3848C184.601 99.4442 186.832 103.337 190.802 106.208C194.773 109.078 200.158 110.691 205.774 110.691C210.388 110.69 214.876 109.6 218.555 107.587C222.234 105.574 224.904 102.748 226.158 99.5376C222.281 102.051 217.256 103.439 212.048 103.434Z" fill="#3F3D56"/>
<path d="M212.048 103.434C206.433 103.434 201.048 101.821 197.077 98.9504C193.106 96.0799 190.876 92.1869 190.875 88.1275C190.875 85.359 190.878 83.2422 190.883 82.9412C191.062 73.4583 194.366 64.1429 200.521 55.7676C190.408 65.775 184.848 77.8068 184.609 90.1985C184.603 90.4995 184.6 92.6163 184.601 95.3848C184.601 99.4442 186.832 103.337 190.802 106.208C194.773 109.078 200.158 110.691 205.774 110.691C210.388 110.69 214.876 109.6 218.555 107.587C222.234 105.574 224.904 102.748 226.158 99.5376C222.281 102.051 217.256 103.439 212.048 103.434Z" fill="#3472FF" fill-opacity="0.48"/>
<path d="M269.024 63.0973C275.516 63.3215 281.836 64.6812 287.441 67.0598C293.045 69.4384 297.768 72.7647 301.202 76.7533C304.637 80.7418 306.681 85.2734 307.16 89.9589C307.638 94.6443 306.536 99.3437 303.948 103.653C307.691 100.476 310.442 96.7524 312.014 92.7367C313.585 88.721 313.941 84.5075 313.055 80.3835C312.17 76.2595 310.065 72.322 306.884 68.8394C303.703 65.3569 299.52 62.4111 294.621 60.2029C289.723 57.9947 284.223 56.5761 278.497 56.0438C272.771 55.5114 266.953 55.8779 261.441 57.1181C255.929 58.3583 250.851 60.4432 246.554 63.2306C242.258 66.018 238.843 69.4423 236.543 73.2702C240.518 69.8898 245.514 67.2145 251.146 65.4508C256.777 63.687 262.894 62.8818 269.024 63.0973Z" fill="#3F3D56"/>
<path d="M269.025 63.0973C275.517 63.3215 281.837 64.6812 287.442 67.0598C293.046 69.4384 297.769 72.7647 301.203 76.7533C304.638 80.7418 306.682 85.2734 307.161 89.9589C307.639 94.6443 306.537 99.3437 303.949 103.653C307.692 100.476 310.443 96.7524 312.015 92.7367C313.586 88.721 313.941 84.5075 313.056 80.3835C312.171 76.2595 310.066 72.322 306.885 68.8394C303.704 65.3569 299.521 62.4111 294.622 60.2029C289.724 57.9947 284.224 56.5761 278.498 56.0438C272.772 55.5114 266.954 55.8779 261.442 57.1181C255.93 58.3583 250.852 60.4432 246.555 63.2306C242.259 66.018 238.844 69.4423 236.544 73.2702C240.519 69.8898 245.515 67.2145 251.147 65.4508C256.778 63.687 262.895 62.8818 269.025 63.0973Z" fill="#3472FF" fill-opacity="0.48"/>
<path d="M275.539 198.686C269.811 198.687 264.311 197.06 260.228 194.156C256.144 191.252 253.803 187.304 253.71 183.164C253.444 171.164 253.307 156.379 253.307 154.689C253.303 150.578 254.122 146.489 255.737 142.547L255.73 142.546C256.684 140.568 257.836 138.642 259.177 136.785C255.06 140.751 251.783 145.139 249.455 149.803L249.463 149.805C247.847 153.746 247.029 157.835 247.032 161.946C247.032 163.636 247.17 178.421 247.435 190.421C247.528 194.561 249.869 198.51 253.953 201.414C258.037 204.318 263.536 205.945 269.265 205.944C273.988 205.943 278.584 204.835 282.362 202.787C286.141 200.738 288.899 197.86 290.223 194.582C286.209 197.228 280.971 198.692 275.539 198.686Z" fill="#3F3D56"/>
<path d="M275.539 198.686C269.811 198.687 264.311 197.06 260.228 194.156C256.144 191.252 253.803 187.304 253.71 183.164C253.444 171.164 253.307 156.379 253.307 154.689C253.303 150.578 254.122 146.489 255.737 142.547L255.73 142.546C256.684 140.568 257.836 138.642 259.177 136.785C255.06 140.751 251.783 145.139 249.455 149.803L249.463 149.805C247.847 153.746 247.029 157.835 247.032 161.946C247.032 163.636 247.17 178.421 247.435 190.421C247.528 194.561 249.869 198.51 253.953 201.414C258.037 204.318 263.536 205.945 269.265 205.944C273.988 205.943 278.584 204.835 282.362 202.787C286.141 200.738 288.899 197.86 290.223 194.582C286.209 197.228 280.971 198.692 275.539 198.686Z" fill="#3472FF" fill-opacity="0.48"/>
<path d="M79.3993 264.25L87.0914 264.25L90.7514 242.801L79.3975 242.801L79.3993 264.25Z" fill="#FFB8B8"/>
<path d="M101.928 269.413L77.7513 269.414L77.7508 262.661L92.5864 262.661C95.0638 262.661 97.4397 263.372 99.1915 264.638C100.943 265.905 101.928 267.622 101.928 269.413L101.928 269.413Z" fill="#2F2E41"/>
<path d="M51.7909 264.25L59.483 264.25L63.143 242.801L51.7891 242.801L51.7909 264.25Z" fill="#FFB8B8"/>
<path d="M74.3193 269.413L50.1429 269.414L50.1424 262.661L64.978 262.661C67.4554 262.661 69.8313 263.372 71.5831 264.638C73.335 265.905 74.3192 267.622 74.3193 269.413L74.3193 269.413Z" fill="#2F2E41"/>
<path d="M58.513 257.653L50.9992 257.368C50.6117 257.353 50.2322 257.283 49.8825 257.161C49.5328 257.04 49.22 256.869 48.9621 256.66C48.7043 256.45 48.5065 256.206 48.3803 255.94C48.254 255.675 48.2018 255.394 48.2267 255.115L57.2074 183.237L98.5639 191.304L102.548 190.519L90.0881 254.149C89.982 254.628 89.6531 255.066 89.156 255.391C88.6588 255.717 88.023 255.91 87.3535 255.939L79.2537 256.211C78.8487 256.228 78.4434 256.183 78.0635 256.08C77.6836 255.977 77.3373 255.819 77.0465 255.614C76.7557 255.41 76.5267 255.164 76.374 254.893C76.2213 254.621 76.1482 254.329 76.1594 254.036L77.627 215.846C77.6339 215.67 77.549 215.498 77.3891 215.364C77.2292 215.23 77.0059 215.145 76.7632 215.124C76.5204 215.104 76.2759 215.15 76.0777 215.253C75.8795 215.357 75.7421 215.51 75.6925 215.683L61.5389 255.967C61.4053 256.445 61.0465 256.874 60.5237 257.182C60.0009 257.491 59.3465 257.658 58.6719 257.656C58.6193 257.656 58.5663 257.656 58.513 257.653Z" fill="#2F2E41"/>
<path d="M80.7802 124.426C89.2915 124.426 96.1912 119.439 96.1912 113.286C96.1912 107.133 89.2915 102.145 80.7802 102.145C72.2689 102.145 65.3691 107.133 65.3691 113.286C65.3691 119.439 72.2689 124.426 80.7802 124.426Z" fill="#FFB8B8"/>
<path d="M55.1227 146.016L56.8172 172.445L57.4298 182.06C57.4542 182.479 57.6508 182.882 57.9944 183.22C58.338 183.557 58.8131 183.813 59.3588 183.954L99.0996 194.361C99.4206 194.447 99.7608 194.49 100.103 194.488C100.495 194.489 100.882 194.433 101.243 194.324C101.605 194.215 101.931 194.054 102.204 193.851C102.478 193.648 102.691 193.408 102.833 193.144C102.975 192.88 103.042 192.599 103.03 192.316L101.4 144.795C101.293 140.897 99.3079 137.147 95.7865 134.193C92.265 131.239 87.4282 129.265 82.1098 128.613C81.7254 128.571 81.3343 128.528 80.9432 128.49C77.6454 128.195 74.2979 128.425 71.1363 129.164C67.9746 129.904 65.0757 131.136 62.6434 132.773C60.1248 134.447 58.1457 136.501 56.8462 138.79C55.5466 141.078 54.9583 143.545 55.1227 146.016L55.1227 146.016Z" fill="#CCCCCC"/>
<path d="M118.084 189.087C117.144 188.876 116.285 188.51 115.576 188.016C114.867 187.523 114.327 186.916 114 186.245C113.673 185.575 113.567 184.858 113.691 184.152C113.815 183.446 114.166 182.771 114.715 182.181L101.238 169.226L112.868 168.706L123.882 181.087C125.062 181.746 125.882 182.685 126.2 183.737C126.518 184.79 126.313 185.89 125.621 186.844C124.93 187.799 123.795 188.547 122.417 188.957C121.038 189.367 119.504 189.413 118.084 189.087H118.084Z" fill="#FFB8B8"/>
<path d="M108.607 179.837C108.25 179.732 107.926 179.577 107.652 179.381C107.378 179.185 107.161 178.952 107.013 178.694L86.7094 143.726C86.311 143.041 86.1032 142.306 86.0978 141.564C86.0923 140.821 86.2895 140.085 86.6778 139.397C87.0662 138.709 87.6383 138.084 88.3612 137.556C89.0842 137.028 89.944 136.609 90.8914 136.321C91.8388 136.034 92.8553 135.884 93.8828 135.881C94.9103 135.877 95.9286 136.021 96.8796 136.302C97.8305 136.583 98.6955 136.997 99.425 137.52C100.155 138.043 100.734 138.665 101.131 139.35L121.435 174.319C121.735 174.838 121.738 175.421 121.444 175.941C121.15 176.462 120.582 176.876 119.866 177.094L110.852 179.829C110.497 179.938 110.116 179.994 109.731 179.995C109.345 179.997 108.964 179.943 108.607 179.837L108.607 179.837Z" fill="#CCCCCC"/>
<path d="M75.8256 178.603L95.3266 151.611C95.7027 151.092 96.3482 150.702 97.1217 150.526C97.8951 150.351 98.7332 150.404 99.4521 150.675L127.758 161.361C128.476 161.633 129.016 162.1 129.258 162.659C129.501 163.218 129.427 163.824 129.053 164.344L109.552 191.336C109.175 191.855 108.53 192.245 107.757 192.421C106.983 192.596 106.145 192.543 105.426 192.272L77.1204 181.585C76.4023 181.314 75.8627 180.847 75.6199 180.288C75.3772 179.729 75.4512 179.123 75.8256 178.603Z" fill="#3F3D56"/>
<path d="M88.904 166.271C88.5573 165.605 88.0002 165.007 87.277 164.525C86.5538 164.042 85.6845 163.689 84.7387 163.492C83.7928 163.296 82.7965 163.262 81.8293 163.393C80.862 163.524 79.9506 163.817 79.1677 164.248L60.4829 155.288L60.4512 163.711L78.1994 170.928C79.1791 171.74 80.5231 172.277 81.9955 172.444C83.468 172.612 84.9749 172.399 86.252 171.843C87.529 171.288 88.4948 170.425 88.9797 169.406C89.4646 168.387 89.4378 167.277 88.904 166.271Z" fill="#FFB8B8"/>
<path d="M65.2796 168.166L50.0092 159.422C48.3573 159.021 46.8646 158.336 45.6593 157.426C44.4541 156.516 43.5722 155.409 43.0895 154.198C42.6067 152.988 42.5375 151.711 42.8877 150.477C43.238 149.243 43.9973 148.089 45.1003 147.114L58.9654 133.978C59.9289 133.127 61.284 132.555 62.7829 132.367C64.2818 132.178 65.8244 132.386 67.1287 132.952C68.4331 133.518 69.4121 134.405 69.8867 135.45C70.3613 136.495 70.2998 137.628 69.7136 138.643L58.7432 151.615L74.8651 157.143C75.24 157.272 75.5729 157.456 75.8418 157.685C76.1107 157.913 76.3095 158.18 76.425 158.468C76.5406 158.756 76.5702 159.059 76.5121 159.356C76.4539 159.653 76.3092 159.937 76.0875 160.191L69.5796 167.636C69.3596 167.887 69.0691 168.102 68.7268 168.267C68.3845 168.432 67.9981 168.544 67.5927 168.594C67.5766 168.596 67.5603 168.597 67.5441 168.599C67.1457 168.643 66.7392 168.627 66.3497 168.552C65.9602 168.478 65.596 168.346 65.2796 168.166Z" fill="#CCCCCC"/>
<path d="M69.1353 120.746C69.0692 120.606 69.0482 120.457 69.074 120.31C69.0998 120.164 69.1716 120.023 69.2841 119.9C69.3965 119.776 69.5465 119.673 69.7226 119.598C69.8987 119.523 70.0963 119.478 70.3001 119.467C70.7175 119.483 71.126 119.561 71.5008 119.694C71.8757 119.828 72.2092 120.015 72.4812 120.245C73.0389 120.71 73.6882 121.113 74.4082 121.441C75.1537 121.713 76.1648 121.674 76.5898 121.156C76.9889 120.67 76.7155 120.018 76.4738 119.454C75.859 118.016 75.515 116.526 75.4511 115.022C75.3815 113.344 75.7091 111.592 76.9945 110.283C78.6534 108.593 81.6198 107.952 84.427 107.999C87.2343 108.045 89.996 108.672 92.7767 109.068C93.7367 109.204 94.8651 109.274 95.5072 108.736C96.1899 108.164 95.9391 107.239 95.6487 106.467C94.8952 104.463 94.0958 102.391 92.345 100.773C90.452 99.0917 87.7479 97.9912 84.7773 97.6933C81.9254 97.4379 79.0304 97.6755 76.3302 98.3866C71.931 99.3889 68.06 101.338 65.2349 103.974C62.3227 106.777 61.0643 110.3 61.7349 113.772C62.3901 116.795 64.6067 119.527 67.9379 121.416L69.1353 120.746Z" fill="#2F2E41"/>
<path d="M264.323 264.338C260.223 263.047 256.594 261.085 253.722 258.607C250.851 256.128 248.815 253.201 247.776 250.057C246.738 246.912 246.724 243.636 247.737 240.487C248.75 237.339 250.761 234.403 253.612 231.912C250.306 233.657 247.552 235.89 245.531 238.463C243.511 241.036 242.271 243.89 241.893 246.836C241.515 249.782 242.008 252.752 243.34 255.55C244.671 258.348 246.811 260.909 249.616 263.063C252.422 265.217 255.829 266.916 259.612 268.045C263.395 269.175 267.466 269.71 271.557 269.615C275.648 269.52 279.664 268.797 283.339 267.494C287.013 266.192 290.263 264.339 292.871 262.059C288.803 264.209 284.026 265.55 279.017 265.95C274.009 266.35 268.942 265.794 264.323 264.338Z" fill="#3F3D56"/>
<path opacity="0.3" d="M264.323 264.338C260.223 263.047 256.594 261.085 253.722 258.607C250.851 256.128 248.815 253.201 247.776 250.057C246.738 246.912 246.724 243.636 247.737 240.487C248.75 237.339 250.761 234.403 253.612 231.912C250.306 233.657 247.552 235.89 245.531 238.463C243.511 241.036 242.271 243.89 241.893 246.836C241.515 249.782 242.008 252.752 243.34 255.55C244.671 258.348 246.811 260.909 249.616 263.063C252.422 265.217 255.829 266.916 259.612 268.045C263.395 269.175 267.466 269.71 271.557 269.615C275.648 269.52 279.664 268.797 283.339 267.494C287.013 266.192 290.263 264.339 292.871 262.059C288.803 264.209 284.026 265.55 279.017 265.95C274.009 266.35 268.942 265.794 264.323 264.338Z" fill="#3472FF"/>
<path d="M507.135 220.427C507.667 204.537 500.396 188.749 486.252 183.335C489.622 199.574 486.761 217.842 478.336 233.88C475.054 240.127 470.795 246.822 471.964 253.194C472.692 257.158 475.51 260.23 478.891 262.178C482.274 264.126 486.214 265.094 490.106 266.044L490.795 266.721C499.48 252.219 506.602 236.317 507.135 220.427Z" fill="#8FF3C9"/>
<path d="M486.056 183.632C493.147 193.54 496.765 206.244 495.98 219.31C495.866 222.202 495.315 225.061 494.347 227.789C493.28 230.526 491.584 232.973 489.397 234.933C487.374 236.818 485.118 238.541 483.525 240.824C482.738 241.939 482.184 243.2 481.896 244.534C481.608 245.867 481.592 247.245 481.849 248.585C482.443 251.76 484.185 254.37 485.987 256.849C487.987 259.602 490.113 262.424 490.581 266.037C490.638 266.475 491.334 266.264 491.277 265.827C490.463 259.542 485.015 255.886 483.034 250.204C482.109 247.552 482.026 244.491 483.713 241.737C485.189 239.329 487.514 237.551 489.576 235.658C491.738 233.767 493.469 231.434 494.654 228.818C495.753 226.131 496.41 223.284 496.601 220.387C497.112 214.137 496.604 207.846 495.097 201.759C493.479 195.059 490.594 188.729 486.6 183.112C486.355 182.769 485.813 183.292 486.057 183.632L486.056 183.632Z" fill="white"/>
<path d="M496.459 215.045C498.738 214.518 500.796 213.294 502.347 211.543C503.898 209.792 504.865 207.601 505.113 205.276C505.148 204.823 504.447 204.846 504.412 205.299C504.185 207.465 503.284 209.505 501.838 211.132C500.391 212.76 498.47 213.893 496.346 214.372C496.301 214.379 496.258 214.395 496.22 214.418C496.181 214.442 496.148 214.473 496.121 214.51C496.095 214.546 496.076 214.588 496.066 214.632C496.055 214.676 496.054 214.721 496.061 214.766C496.069 214.811 496.085 214.853 496.109 214.891C496.134 214.93 496.165 214.963 496.202 214.989C496.239 215.014 496.281 215.033 496.325 215.042C496.369 215.052 496.415 215.053 496.459 215.045V215.045Z" fill="white"/>
<path d="M490.53 234.096C488.775 232.878 487.298 231.302 486.196 229.472C485.094 227.642 484.392 225.6 484.136 223.479C484.077 223.042 483.382 223.252 483.44 223.689C483.711 225.895 484.446 228.019 485.597 229.92C486.748 231.821 488.289 233.457 490.118 234.719C490.468 234.958 490.878 234.333 490.53 234.096Z" fill="white"/>
<path d="M492.678 195.606C491.89 195.977 491.019 196.14 490.15 196.08C489.281 196.02 488.441 195.739 487.711 195.264C487.365 195.021 486.955 195.646 487.299 195.888C488.108 196.409 489.035 196.718 489.995 196.787C490.955 196.855 491.917 196.68 492.792 196.279C492.883 196.249 492.961 196.189 493.014 196.109C493.067 196.029 493.091 195.933 493.083 195.838C493.075 195.794 493.057 195.752 493.032 195.716C493.006 195.68 492.973 195.65 492.934 195.628C492.896 195.606 492.853 195.592 492.809 195.589C492.764 195.585 492.72 195.591 492.678 195.606Z" fill="white"/>
<path d="M436.241 210.883C436.452 211.041 436.662 211.2 436.873 211.364C439.69 213.508 442.3 215.911 444.67 218.541C444.857 218.741 445.043 218.947 445.223 219.152C450.899 225.64 455.151 233.246 457.702 241.48C458.748 244.838 459.518 248.275 460.006 251.758C460.689 256.614 461.032 261.99 463.264 265.991C463.49 266.41 463.746 266.812 464.03 267.196L489.788 267.633C489.851 267.604 489.914 267.582 489.977 267.553L490.998 267.618C490.986 267.433 490.969 267.242 490.956 267.057C490.95 266.95 490.937 266.842 490.93 266.735C490.924 266.663 490.917 266.591 490.916 266.526C490.914 266.502 490.912 266.478 490.909 266.46C490.907 266.395 490.899 266.335 490.896 266.275C490.804 265.207 490.706 264.139 490.597 263.07C490.598 263.064 490.598 263.064 490.593 263.058C489.751 254.921 488.205 246.879 485.442 239.502C485.358 239.28 485.276 239.052 485.181 238.83C483.927 235.538 482.374 232.367 480.541 229.359C479.541 227.731 478.446 226.162 477.264 224.661C474.204 220.794 470.47 217.512 466.241 214.974C457.775 209.884 447.375 207.812 437.03 210.658C436.765 210.731 436.506 210.804 436.241 210.883Z" fill="#8FF3C9"/>
<path d="M436.247 211.214C448.541 213.975 459.469 220.842 466.727 230.641C468.374 232.749 469.633 235.133 470.445 237.682C471.168 240.337 471.159 243.137 470.42 245.787C469.78 248.36 468.835 250.96 468.818 253.557C468.802 254.828 469.088 256.084 469.652 257.223C470.216 258.363 471.041 259.353 472.06 260.112C474.518 262.016 477.645 262.82 480.746 263.494C484.188 264.244 487.784 264.965 490.396 267.258C490.712 267.536 491.199 266.963 490.883 266.686C486.338 262.696 479.301 263.398 474.093 260.547C471.662 259.217 469.725 257.083 469.54 254.093C469.377 251.479 470.349 248.798 471.019 246.195C471.775 243.606 471.886 240.871 471.342 238.23C470.673 235.636 469.516 233.193 467.932 231.032C464.491 226.176 460.2 221.983 455.266 218.656C449.554 214.77 443.155 212.007 436.411 210.513C435.986 210.418 435.825 211.12 436.247 211.214Z" fill="white"/>
<path d="M464.555 227.306C468.015 223.806 468.733 218.572 466.255 215.079C466.011 214.735 465.405 215.177 465.65 215.522C467.971 218.794 467.279 223.624 464.046 226.895C463.705 227.24 464.217 227.648 464.555 227.306V227.306Z" fill="white"/>
<path d="M470.911 244.501C468.748 244.738 466.559 244.533 464.478 243.899C462.396 243.264 460.465 242.214 458.802 240.81C458.484 240.534 457.997 241.106 458.315 241.383C460.049 242.839 462.061 243.929 464.229 244.584C466.398 245.24 468.676 245.448 470.927 245.196C471.381 245.153 471.363 244.458 470.911 244.501L470.911 244.501Z" fill="white"/>
<path d="M449.385 215.735C448.869 216.506 448.19 217.155 447.396 217.634C446.602 218.114 445.711 218.412 444.788 218.508C444.335 218.545 444.354 219.24 444.804 219.203C445.824 219.093 446.807 218.762 447.686 218.234C448.565 217.706 449.318 216.994 449.894 216.145C449.956 216.078 449.99 215.989 449.988 215.897C449.986 215.806 449.948 215.719 449.883 215.654C449.805 215.601 449.71 215.58 449.618 215.595C449.525 215.61 449.442 215.66 449.385 215.735V215.735Z" fill="white"/>
<path d="M383.109 232.003H383.264C384.186 245.352 393.893 245.558 393.893 245.558C393.893 245.558 383.189 245.771 383.189 261.196C383.189 245.771 372.484 245.558 372.484 245.558C372.484 245.558 382.188 245.352 383.109 232.003ZM183.107 202H183.27C184.233 215.795 194.382 216.007 194.382 216.007C194.382 216.007 183.191 216.228 183.191 232.168C183.191 216.228 172 216.007 172 216.007C172 216.007 182.144 215.795 183.107 202Z" fill="#F1A045"/>
<path d="M447.443 59.3759C456.984 65.9473 471.56 61.3539 471.56 61.3539C471.56 61.3539 470.657 46.1068 461.11 39.5415C451.569 32.9701 437 37.5574 437 37.5574C437 37.5574 437.902 52.8037 447.443 59.3759Z" fill="url(#paint0_linear_1098_478)"/>
<path d="M133.443 86.3759C142.984 92.9473 157.56 88.3539 157.56 88.3539C157.56 88.3539 156.657 73.1068 147.11 66.5415C137.569 59.9701 123 64.5574 123 64.5574C123 64.5574 123.902 79.8037 133.443 86.3759Z" fill="url(#paint1_linear_1098_478)"/>
</g>
<defs>
<linearGradient id="paint0_linear_1098_478" x1="484.608" y1="80.9381" x2="409.505" y2="1.74422" gradientUnits="userSpaceOnUse">
<stop stop-color="#024EFB"/>
<stop offset="1" stop-color="#EEEEEE"/>
</linearGradient>
<linearGradient id="paint1_linear_1098_478" x1="170.608" y1="107.938" x2="95.5054" y2="28.7442" gradientUnits="userSpaceOnUse">
<stop stop-color="#024EFB"/>
<stop offset="1" stop-color="#EEEEEE"/>
</linearGradient>
<clipPath id="clip0_1098_478">
<rect width="530" height="270" fill="white"/>
</clipPath>
</defs>
</svg>
