<svg width="336" height="265" viewBox="0 0 336 265" fill="none" xmlns="http://www.w3.org/2000/svg">
<path d="M79.0864 99.9755C78.2823 99.9755 77.5112 100.259 76.9426 100.763C76.3741 101.266 76.0547 101.95 76.0547 102.662C76.0547 103.375 76.3741 104.059 76.9426 104.562C77.5112 105.066 78.2823 105.349 79.0864 105.349H117.194V104.177C117.194 103.344 117.428 102.524 117.873 101.791C118.319 101.057 118.964 100.434 119.749 99.9755H79.0864Z" fill="#E6E6E6"/>
<path d="M113.764 93.93H100.88C100.076 93.93 99.3046 93.6469 98.7361 93.143C98.1675 92.6391 97.8481 91.9556 97.8481 91.243C97.8481 90.5304 98.1675 89.847 98.7361 89.3431C99.3046 88.8392 100.076 88.5561 100.88 88.5561H113.764C114.568 88.5561 115.34 88.8392 115.908 89.3431C116.477 89.847 116.796 90.5304 116.796 91.243C116.796 91.9556 116.477 92.6391 115.908 93.143C115.34 93.6469 114.568 93.93 113.764 93.93Z" fill="#E6E6E6"/>
<path d="M84.8643 74.7855H34.8417C34.0377 74.7855 33.2666 74.5024 32.698 73.9985C32.1295 73.4946 31.8101 72.8112 31.8101 72.0986C31.8101 71.3859 32.1295 70.7025 32.698 70.1986C33.2666 69.6947 34.0377 69.4116 34.8417 69.4116H84.8643C85.6684 69.4116 86.4395 69.6947 87.008 70.1986C87.5766 70.7025 87.896 71.3859 87.896 72.0986C87.896 72.8112 87.5766 73.4946 87.008 73.9985C86.4395 74.5024 85.6684 74.7855 84.8643 74.7855Z" fill="#E6E6E6"/>
<path d="M63.0765 63.3661H56.6342C55.8302 63.3661 55.059 63.083 54.4905 62.5791C53.9219 62.0752 53.6025 61.3917 53.6025 60.6791C53.6025 59.9665 53.9219 59.2831 54.4905 58.7792C55.059 58.2753 55.8302 57.9922 56.6342 57.9922H63.0765C63.8806 57.9922 64.6517 58.2753 65.2202 58.7792C65.7888 59.2831 66.1082 59.9665 66.1082 60.6791C66.1082 61.3917 65.7888 62.0752 65.2202 62.5791C64.6517 63.083 63.8806 63.3661 63.0765 63.3661Z" fill="#E6E6E6"/>
<path d="M116.814 154.015H69.6571C67.9491 154.013 66.3116 153.411 65.1039 152.34C63.8961 151.27 63.2168 149.819 63.2148 148.305V82.1929C63.2168 80.6792 63.8961 79.2279 65.1039 78.1574C66.3116 77.087 67.9491 76.4849 69.6571 76.4832H144.984C146.692 76.4849 148.33 77.087 149.537 78.1574C150.745 79.2279 151.425 80.6792 151.426 82.1929V98.5791H150.669V82.1929C150.667 80.8572 150.067 79.5767 149.002 78.6322C147.936 77.6877 146.491 77.1565 144.984 77.1549H69.6572C68.1501 77.1565 66.7052 77.6877 65.6396 78.6322C64.5739 79.5767 63.9745 80.8572 63.9728 82.1929V148.305C63.9745 149.641 64.5739 150.921 65.6396 151.866C66.7052 152.81 68.1501 153.341 69.6572 153.343H116.814V154.015Z" fill="#CCCCCC"/>
<path d="M63.5943 114.437H29.2192C27.5111 114.436 25.8736 113.834 24.6659 112.763C23.4581 111.693 22.7788 110.242 22.7769 108.728V54.9694C22.7788 53.4556 23.4581 52.0043 24.6659 50.9339C25.8736 49.8635 27.5111 49.2614 29.2192 49.2597H90.4897C92.1978 49.2614 93.8353 49.8635 95.043 50.9339C96.2508 52.0043 96.9301 53.4556 96.932 54.9694V76.8191H96.1741V54.9694C96.1724 53.6337 95.573 52.3532 94.5073 51.4087C93.4417 50.4642 91.9968 49.9329 90.4897 49.9314H29.2192C27.7121 49.9329 26.2672 50.4642 25.2016 51.4087C24.1359 52.3532 23.5365 53.6337 23.5348 54.9694V108.728C23.5365 110.063 24.1359 111.344 25.2016 112.288C26.2672 113.233 27.7121 113.764 29.2192 113.766H63.5943V114.437Z" fill="#CCCCCC"/>
<path d="M217.028 99.9755C217.813 100.434 218.458 101.057 218.903 101.791C219.349 102.524 219.583 103.344 219.582 104.177V105.349H257.691C258.495 105.349 259.266 105.066 259.834 104.562C260.403 104.059 260.722 103.375 260.722 102.662C260.722 101.95 260.403 101.266 259.834 100.763C259.266 100.259 258.495 99.9755 257.691 99.9755H217.028Z" fill="#E6E6E6"/>
<path d="M219.981 91.243C219.982 90.5307 220.302 89.8477 220.87 89.344C221.439 88.8403 222.209 88.5569 223.013 88.5561H235.898C236.702 88.5561 237.473 88.8392 238.041 89.3431C238.61 89.847 238.929 90.5304 238.929 91.243C238.929 91.9556 238.61 92.6391 238.041 93.143C237.473 93.6469 236.702 93.93 235.898 93.93H223.013C222.209 93.9291 221.439 93.6458 220.87 93.1421C220.302 92.6383 219.982 91.9554 219.981 91.243Z" fill="#E6E6E6"/>
<path d="M248.878 72.0986C248.879 71.3862 249.199 70.7032 249.767 70.1995C250.336 69.6958 251.106 69.4124 251.91 69.4116H301.933C302.737 69.4116 303.508 69.6947 304.076 70.1986C304.645 70.7025 304.964 71.3859 304.964 72.0986C304.964 72.8112 304.645 73.4946 304.076 73.9985C303.508 74.5024 302.737 74.7855 301.933 74.7855H251.91C251.106 74.7847 250.336 74.5013 249.767 73.9976C249.199 73.4939 248.879 72.8109 248.878 72.0986Z" fill="#E6E6E6"/>
<path d="M270.67 60.6791C270.671 59.9668 270.991 59.2838 271.559 58.7801C272.128 58.2764 272.898 57.993 273.702 57.9922H280.144C280.948 57.9922 281.72 58.2753 282.288 58.7792C282.857 59.2831 283.176 59.9665 283.176 60.6791C283.176 61.3917 282.857 62.0752 282.288 62.5791C281.72 63.083 280.948 63.3661 280.144 63.3661H273.702C272.898 63.3652 272.128 63.0819 271.559 62.5782C270.991 62.0744 270.671 61.3915 270.67 60.6791Z" fill="#E6E6E6"/>
<path d="M219.963 154.015H267.12C268.828 154.013 270.465 153.411 271.673 152.34C272.881 151.27 273.56 149.819 273.562 148.305V82.1929C273.56 80.6792 272.881 79.2279 271.673 78.1574C270.465 77.087 268.828 76.4849 267.12 76.4832H191.793C190.085 76.4849 188.447 77.087 187.24 78.1574C186.032 79.2279 185.353 80.6792 185.351 82.1929V98.5791H186.109V82.1929C186.11 80.8572 186.71 79.5767 187.775 78.6322C188.841 77.6877 190.286 77.1565 191.793 77.1549H267.12C268.627 77.1565 270.072 77.6877 271.138 78.6322C272.203 79.5767 272.803 80.8572 272.804 82.1929V148.305C272.803 149.641 272.203 150.921 271.138 151.866C270.072 152.81 268.627 153.341 267.12 153.343H219.963V154.015Z" fill="#CCCCCC"/>
<path d="M273.183 114.437H307.558C309.266 114.436 310.903 113.834 312.111 112.763C313.319 111.693 313.998 110.242 314 108.728V54.9694C313.998 53.4556 313.319 52.0043 312.111 50.9339C310.903 49.8635 309.266 49.2614 307.558 49.2597H246.287C244.579 49.2614 242.942 49.8635 241.734 50.9339C240.526 52.0043 239.847 53.4556 239.845 54.9694V76.8191H240.603V54.9694C240.604 53.6337 241.204 52.3532 242.269 51.4087C243.335 50.4642 244.78 49.9329 246.287 49.9314H307.558C309.065 49.9329 310.51 50.4642 311.575 51.4087C312.641 52.3532 313.24 53.6337 313.242 54.9694V108.728C313.24 110.063 312.641 111.344 311.575 112.288C310.51 113.233 309.065 113.764 307.558 113.766H273.183V114.437Z" fill="#CCCCCC"/>
<path d="M213.738 98.4675H122.879C121.171 98.4705 119.535 99.073 118.327 100.143C117.12 101.213 116.44 102.664 116.437 104.177V183.942C116.438 185.456 117.118 186.907 118.325 187.978C119.533 189.048 121.171 189.65 122.879 189.652H213.738C215.446 189.65 217.084 189.048 218.291 187.978C219.499 186.907 220.178 185.456 220.18 183.942V104.177C220.178 102.663 219.499 101.212 218.291 100.142C217.084 99.0711 215.446 98.4691 213.738 98.4675ZM219.422 183.942C219.42 185.278 218.821 186.558 217.755 187.503C216.69 188.447 215.245 188.978 213.738 188.98H122.879C121.372 188.978 119.927 188.447 118.861 187.503C117.796 186.558 117.196 185.278 117.194 183.942V104.177C117.197 102.842 117.796 101.561 118.862 100.617C119.927 99.6727 121.372 99.1413 122.879 99.1392H213.738C215.245 99.1408 216.69 99.6721 217.755 100.617C218.821 101.561 219.42 102.842 219.422 104.177V183.942Z" fill="#CCCCCC"/>
<path d="M206.585 129.532H130.035C129.231 129.532 128.46 129.249 127.891 128.745C127.323 128.241 127.003 127.557 127.003 126.845C127.003 126.132 127.323 125.449 127.891 124.945C128.46 124.441 129.231 124.158 130.035 124.158H206.585C207.389 124.158 208.16 124.441 208.728 124.945C209.297 125.449 209.616 126.132 209.616 126.845C209.616 127.557 209.297 128.241 208.728 128.745C208.16 129.249 207.389 129.532 206.585 129.532Z" fill="#3472FF"/>
<path d="M184.794 118.112H151.825C151.021 118.112 150.249 117.829 149.681 117.325C149.112 116.821 148.793 116.138 148.793 115.425C148.793 114.713 149.112 114.029 149.681 113.525C150.249 113.022 151.021 112.738 151.825 112.738H184.794C185.598 112.738 186.369 113.022 186.938 113.525C187.506 114.029 187.826 114.713 187.826 115.425C187.826 116.138 187.506 116.821 186.938 117.325C186.369 117.829 185.598 118.112 184.794 118.112Z" fill="#0025FF"/>
<path d="M162.813 145.653H129.844C129.04 145.653 128.269 145.37 127.7 144.866C127.131 144.362 126.812 143.679 126.812 142.966C126.812 142.254 127.131 141.57 127.7 141.066C128.269 140.563 129.04 140.279 129.844 140.279H162.813C163.617 140.279 164.388 140.563 164.957 141.066C165.525 141.57 165.845 142.254 165.845 142.966C165.845 143.679 165.525 144.362 164.957 144.866C164.388 145.37 163.617 145.653 162.813 145.653Z" fill="#CCCCCC"/>
<path d="M162.813 157.409H129.844C129.04 157.409 128.269 157.126 127.7 156.622C127.131 156.118 126.812 155.434 126.812 154.722C126.812 154.009 127.131 153.326 127.7 152.822C128.269 152.318 129.04 152.035 129.844 152.035H162.813C163.617 152.035 164.388 152.318 164.957 152.822C165.525 153.326 165.845 154.009 165.845 154.722C165.845 155.434 165.525 156.118 164.957 156.622C164.388 157.126 163.617 157.409 162.813 157.409Z" fill="#CCCCCC"/>
<path d="M162.813 169.164H129.844C129.04 169.164 128.269 168.881 127.7 168.377C127.131 167.873 126.812 167.19 126.812 166.477C126.812 165.764 127.131 165.081 127.7 164.577C128.269 164.073 129.04 163.79 129.844 163.79H162.813C163.617 163.79 164.388 164.073 164.957 164.577C165.525 165.081 165.845 165.764 165.845 166.477C165.845 167.19 165.525 167.873 164.957 168.377C164.388 168.881 163.617 169.164 162.813 169.164Z" fill="#CCCCCC"/>
<path d="M203.933 147.957C207.057 147.957 209.59 145.712 209.59 142.943C209.59 140.173 207.057 137.928 203.933 137.928C200.808 137.928 198.275 140.173 198.275 142.943C198.275 145.712 200.808 147.957 203.933 147.957Z" fill="#0025FF"/>
<path d="M203.373 144.855C203.246 144.856 203.122 144.819 203.02 144.751L203.014 144.747L201.684 143.846C201.56 143.761 201.478 143.636 201.458 143.499C201.437 143.361 201.479 143.222 201.575 143.112C201.67 143.001 201.811 142.929 201.966 142.911C202.121 142.893 202.279 142.93 202.403 143.015L203.264 143.6L205.299 141.247C205.346 141.192 205.405 141.146 205.472 141.112C205.54 141.078 205.614 141.055 205.691 141.046C205.768 141.037 205.846 141.042 205.921 141.06C205.996 141.077 206.066 141.108 206.127 141.15L206.127 141.15L206.115 141.166L206.128 141.15C206.252 141.235 206.333 141.359 206.354 141.497C206.374 141.635 206.332 141.774 206.237 141.884L203.843 144.651C203.788 144.714 203.717 144.766 203.635 144.801C203.554 144.837 203.464 144.855 203.373 144.855L203.373 144.855Z" fill="white"/>
<path d="M59.8546 42.5873C58.1154 42.5873 56.4152 42.1302 54.9691 41.2738C53.523 40.4174 52.396 39.2002 51.7304 37.7761C51.0648 36.352 50.8907 34.785 51.23 33.2732C51.5693 31.7613 52.4068 30.3727 53.6366 29.2827C54.8665 28.1927 56.4333 27.4505 58.1391 27.1498C59.8449 26.849 61.613 27.0034 63.2198 27.5933C64.8266 28.1831 66.2 29.1821 67.1662 30.4637C68.1325 31.7454 68.6482 33.2522 68.6482 34.7936C68.6456 36.8599 67.7182 38.8409 66.0697 40.302C64.4211 41.7631 62.186 42.585 59.8546 42.5873ZM59.8546 27.6717C58.2653 27.6717 56.7117 28.0894 55.3902 28.872C54.0688 29.6546 53.0388 30.7669 52.4306 32.0682C51.8224 33.3696 51.6633 34.8016 51.9734 36.1831C52.2834 37.5646 53.0488 38.8336 54.1726 39.8296C55.2964 40.8256 56.7282 41.5039 58.287 41.7787C59.8457 42.0535 61.4614 41.9125 62.9298 41.3734C64.3981 40.8344 65.6531 39.9216 66.536 38.7504C67.419 37.5792 67.8903 36.2022 67.8903 34.7936C67.8879 32.9054 67.0405 31.0952 65.534 29.76C64.0276 28.4249 61.985 27.6739 59.8546 27.6717Z" fill="#024DFA"/>
<path d="M59.0212 37.6385C58.8319 37.6388 58.6476 37.5845 58.4961 37.4839L58.4867 37.4776L56.5092 36.1369C56.4176 36.0747 56.3407 35.997 56.283 35.9085C56.2252 35.8199 56.1877 35.7222 56.1726 35.6208C56.1575 35.5194 56.1651 35.4163 56.1949 35.3175C56.2247 35.2187 56.2762 35.126 56.3464 35.0449C56.4166 34.9637 56.5042 34.8956 56.6041 34.8444C56.704 34.7932 56.8144 34.76 56.9288 34.7466C57.0432 34.7332 57.1594 34.7399 57.2709 34.7663C57.3824 34.7928 57.487 34.8384 57.5785 34.9006L58.8594 35.7712L61.8863 32.2714C61.9565 32.1902 62.044 32.1221 62.1439 32.071C62.2438 32.0198 62.354 31.9866 62.4684 31.9732C62.5828 31.9598 62.699 31.9665 62.8104 31.9929C62.9219 32.0194 63.0264 32.065 63.1179 32.1272L63.1182 32.1274L63.0994 32.1505L63.1187 32.1274C63.3034 32.2532 63.4242 32.4388 63.4547 32.6435C63.4851 32.8482 63.4227 33.0552 63.2812 33.2191L59.7209 37.3339C59.6386 37.4287 59.5327 37.5054 59.4114 37.5581C59.2902 37.6107 59.1569 37.638 59.0219 37.6376L59.0212 37.6385Z" fill="#024DFA"/>
<path d="M115.636 69.7925C113.897 69.7925 112.196 69.3354 110.75 68.479C109.304 67.6226 108.177 66.4054 107.512 64.9813C106.846 63.5572 106.672 61.9901 107.011 60.4783C107.351 58.9665 108.188 57.5778 109.418 56.4879C110.648 55.3979 112.215 54.6557 113.92 54.355C115.626 54.0542 117.394 54.2086 119.001 54.7985C120.608 55.3884 121.981 56.3873 122.947 57.6689C123.914 58.9506 124.429 60.4574 124.429 61.9988C124.427 64.0651 123.499 66.0461 121.851 67.5072C120.202 68.9683 117.967 69.7902 115.636 69.7925ZM115.636 54.8769C114.046 54.877 112.493 55.2947 111.171 56.0772C109.85 56.8598 108.82 57.9721 108.212 59.2735C107.604 60.5748 107.445 62.0068 107.755 63.3883C108.065 64.7698 108.83 66.0388 109.954 67.0348C111.078 68.0308 112.509 68.7091 114.068 68.9839C115.627 69.2587 117.243 69.1177 118.711 68.5786C120.179 68.0396 121.434 67.1267 122.317 65.9556C123.2 64.7844 123.672 63.4074 123.672 61.9988C123.669 60.1106 122.822 58.3004 121.315 56.9652C119.809 55.6301 117.766 54.8791 115.636 54.8769Z" fill="#024DFA"/>
<path d="M114.801 64.8437C114.612 64.844 114.428 64.7897 114.276 64.6891L114.267 64.6828L112.289 63.3421C112.104 63.2164 111.983 63.0307 111.953 62.826C111.922 62.6212 111.985 62.414 112.127 62.2501C112.268 62.0861 112.478 61.9788 112.709 61.9518C112.94 61.9247 113.174 61.9801 113.359 62.1058L114.64 62.9764L117.667 59.4766C117.737 59.3954 117.824 59.3273 117.924 59.2762C118.024 59.225 118.134 59.1918 118.249 59.1784C118.363 59.165 118.479 59.1717 118.591 59.1981C118.702 59.2246 118.807 59.2702 118.898 59.3324L118.898 59.3326L118.88 59.3557L118.899 59.3326C119.084 59.4584 119.204 59.644 119.235 59.8487C119.265 60.0533 119.203 60.2604 119.061 60.4243L115.501 64.5391C115.419 64.6339 115.313 64.7106 115.192 64.7633C115.07 64.8159 114.937 64.8432 114.802 64.8428L114.801 64.8437Z" fill="#024DFA"/>
<path d="M203.933 159.712C207.057 159.712 209.59 157.467 209.59 154.698C209.59 151.929 207.057 149.684 203.933 149.684C200.808 149.684 198.275 151.929 198.275 154.698C198.275 157.467 200.808 159.712 203.933 159.712Z" fill="#0025FF"/>
<path d="M203.373 156.611C203.246 156.611 203.122 156.574 203.02 156.507L203.014 156.502L201.684 155.601C201.622 155.559 201.571 155.507 201.532 155.447C201.493 155.388 201.468 155.322 201.458 155.254C201.448 155.186 201.453 155.117 201.473 155.05C201.493 154.984 201.527 154.921 201.575 154.867C201.622 154.812 201.681 154.766 201.748 154.732C201.815 154.698 201.889 154.675 201.966 154.666C202.043 154.657 202.121 154.662 202.196 154.68C202.271 154.697 202.341 154.728 202.403 154.77L203.264 155.355L205.299 153.002C205.346 152.948 205.405 152.902 205.472 152.867C205.54 152.833 205.614 152.811 205.691 152.802C205.768 152.793 205.846 152.797 205.921 152.815C205.996 152.833 206.066 152.863 206.127 152.905L206.127 152.905L206.115 152.921L206.128 152.905C206.252 152.99 206.333 153.115 206.354 153.252C206.374 153.39 206.332 153.529 206.237 153.639L203.843 156.406C203.788 156.47 203.717 156.521 203.635 156.557C203.554 156.592 203.464 156.61 203.373 156.61L203.373 156.611Z" fill="white"/>
<path d="M203.933 171.491C207.057 171.491 209.59 169.246 209.59 166.477C209.59 163.708 207.057 161.463 203.933 161.463C200.808 161.463 198.275 163.708 198.275 166.477C198.275 169.246 200.808 171.491 203.933 171.491Z" fill="#0025FF"/>
<path d="M203.373 168.39C203.246 168.39 203.122 168.354 203.02 168.286L203.014 168.282L201.684 167.38C201.56 167.296 201.479 167.171 201.459 167.033C201.438 166.896 201.48 166.757 201.576 166.646C201.671 166.536 201.812 166.464 201.967 166.446C202.122 166.428 202.279 166.465 202.403 166.549L203.265 167.134L205.3 164.781C205.347 164.727 205.406 164.681 205.473 164.647C205.54 164.612 205.614 164.59 205.691 164.581C205.768 164.572 205.846 164.576 205.921 164.594C205.996 164.612 206.066 164.642 206.128 164.684L206.128 164.684L206.115 164.7L206.128 164.684C206.252 164.769 206.334 164.894 206.354 165.031C206.375 165.169 206.333 165.308 206.238 165.418L203.844 168.185C203.788 168.249 203.717 168.3 203.636 168.336C203.554 168.371 203.465 168.389 203.374 168.389L203.373 168.39Z" fill="white"/>
<path d="M168.316 91.6238C162.348 91.5336 159.635 87.5202 159.636 83.8295C159.636 80.1387 162.349 76.1259 168.303 76.0365H168.316C174.272 76.1265 176.984 80.1399 176.984 83.8306C176.984 87.5214 174.271 91.5344 168.316 91.6238ZM168.31 76.7082C162.871 76.7925 160.394 80.4582 160.394 83.8295C160.393 87.2023 162.872 90.8697 168.316 90.9521C173.746 90.8704 176.226 87.2032 176.226 83.8306C176.226 80.4593 173.749 76.7937 168.31 76.7082Z" fill="#024DFA"/>
<path d="M170.285 84.2534C171.806 86.5955 167.63 87.5102 166.033 86.0993L166.433 85.3415C169.03 87.3299 171.319 83.8857 167.351 84.213V83.3827C170.984 83.6424 168.944 80.4014 166.524 82.3187L166.133 81.561C168.105 79.7468 172.533 81.9405 169.407 83.7535C169.756 83.8258 170.066 84.0023 170.285 84.2534Z" fill="#024DFA"/>
<path d="M221.744 69.7925C220.005 69.7925 218.305 69.3354 216.859 68.479C215.413 67.6226 214.286 66.4054 213.62 64.9813C212.954 63.5572 212.78 61.9901 213.12 60.4783C213.459 58.9665 214.296 57.5778 215.526 56.4879C216.756 55.3979 218.323 54.6557 220.029 54.355C221.735 54.0542 223.503 54.2086 225.109 54.7985C226.716 55.3884 228.09 56.3873 229.056 57.6689C230.022 58.9506 230.538 60.4574 230.538 61.9988C230.535 64.0651 229.608 66.0461 227.959 67.5072C226.311 68.9683 224.076 69.7902 221.744 69.7925ZM221.744 54.8769C220.155 54.877 218.601 55.2947 217.28 56.0772C215.958 56.8598 214.928 57.9721 214.32 59.2735C213.712 60.5748 213.553 62.0068 213.863 63.3883C214.173 64.7698 214.938 66.0388 216.062 67.0348C217.186 68.0308 218.618 68.7091 220.177 68.9839C221.735 69.2587 223.351 69.1177 224.819 68.5786C226.288 68.0396 227.543 67.1267 228.426 65.9556C229.309 64.7844 229.78 63.4074 229.78 61.9988C229.778 60.1106 228.93 58.3004 227.424 56.9652C225.917 55.6301 223.875 54.8791 221.744 54.8769Z" fill="#024DFA"/>
<path d="M224.187 63.748H223.269V64.8685H222.123V63.748H219.303V62.9741L222.332 59.1292H223.269V62.9339H224.187V63.748ZM222.123 62.9339V60.7493L220.413 62.9339H222.123Z" fill="#024DFA"/>
<path d="M276.922 42.5873C275.183 42.5873 273.483 42.1302 272.036 41.2738C270.59 40.4174 269.463 39.2002 268.798 37.7761C268.132 36.352 267.958 34.7849 268.297 33.2731C268.637 31.7613 269.474 30.3726 270.704 29.2827C271.934 28.1927 273.501 27.4505 275.207 27.1497C276.912 26.849 278.68 27.0034 280.287 27.5933C281.894 28.1832 283.267 29.1821 284.234 30.4637C285.2 31.7454 285.716 33.2522 285.716 34.7936C285.713 36.8599 284.786 38.8409 283.137 40.302C281.488 41.7631 279.253 42.585 276.922 42.5873ZM276.922 27.6717C275.333 27.6718 273.779 28.0895 272.458 28.872C271.136 29.6546 270.106 30.7669 269.498 32.0683C268.89 33.3696 268.731 34.8016 269.041 36.1831C269.351 37.5646 270.116 38.8336 271.24 39.8296C272.364 40.8256 273.796 41.5039 275.354 41.7787C276.913 42.0535 278.529 41.9125 279.997 41.3734C281.465 40.8344 282.72 39.9215 283.603 38.7504C284.486 37.5792 284.958 36.2022 284.958 34.7936C284.955 32.9054 284.108 31.0952 282.601 29.76C281.095 28.4249 279.052 27.6739 276.922 27.6717Z" fill="#024DFA"/>
<path d="M278.232 34.1932C278.537 34.3423 278.786 34.5662 278.951 34.838C279.125 35.1322 279.213 35.4608 279.205 35.7931C279.213 36.1424 279.113 36.4869 278.914 36.7887C278.716 37.0799 278.425 37.3126 278.077 37.4577C277.682 37.6223 277.25 37.7037 276.813 37.6955C276.404 37.6952 275.999 37.6338 275.613 37.5141C275.255 37.4115 274.924 37.2456 274.64 37.0265L275.031 36.2687C275.539 36.6406 276.173 36.8506 276.832 36.8653C277.17 36.8859 277.504 36.789 277.764 36.5952C277.974 36.383 278.088 36.1101 278.087 35.8279C278.085 35.5458 277.967 35.274 277.755 35.0637C277.636 34.9661 277.496 34.8905 277.344 34.8414C277.192 34.7922 277.03 34.7705 276.868 34.7775C276.621 34.7761 276.377 34.8186 276.149 34.9025C275.925 34.9858 275.723 35.1108 275.558 35.2692H274.849V31.8918H278.905V32.6978H275.995V34.2615C276.339 34.0584 276.746 33.9543 277.159 33.9634C277.533 33.9564 277.903 34.0356 278.232 34.1932Z" fill="#024DFA"/>
<path d="M70.4571 201.936C70.2271 201.486 70.1112 200.997 70.1174 200.504C70.1237 200.01 70.252 199.524 70.4933 199.079C70.7347 198.634 71.0832 198.241 71.5143 197.928C71.9454 197.615 72.4487 197.39 72.9886 197.268L74.1374 185.31L79.6623 189.173L77.7244 199.937C77.8949 200.754 77.7213 201.599 77.2362 202.31C76.7512 203.022 75.9886 203.551 75.0928 203.797C74.197 204.044 73.2303 203.99 72.3759 203.647C71.5216 203.304 70.8388 202.695 70.4571 201.936H70.4571Z" fill="#FFB8B8"/>
<path d="M74.0116 196.013C73.614 195.967 73.2477 195.797 72.9772 195.535C72.7066 195.273 72.5491 194.934 72.5323 194.579L71.8927 181.008C71.6628 176.13 72.7829 171.276 75.1554 166.87L80.8276 156.336C81.2076 155.702 81.7526 155.158 82.4175 154.749C83.0823 154.339 83.8477 154.076 84.6502 153.982C85.4292 153.884 86.2231 153.955 86.9644 154.189C87.7057 154.422 88.3724 154.81 88.9077 155.321C89.1793 155.579 89.4233 155.858 89.6365 156.155C90.0645 156.77 90.3123 157.47 90.3574 158.192C90.4025 158.914 90.2436 159.634 89.895 160.287L81.1974 181.346L80.5282 195.065C80.5181 195.273 80.4596 195.477 80.3564 195.664C80.2533 195.851 80.1077 196.017 79.9289 196.152C79.75 196.286 79.5416 196.387 79.3169 196.447C79.0921 196.507 78.8558 196.526 78.6226 196.501L74.0342 196.016L74.0116 196.013Z" fill="#0025FF"/>
<path d="M57.7373 255.309L61.9915 256.964L71.2184 243.209L64.9398 240.766L57.7373 255.309Z" fill="#FFB8B8"/>
<path d="M57.263 253.656L65.641 256.915L65.6413 256.916C66.3425 257.188 66.9761 257.581 67.5061 258.071C68.0361 258.56 68.452 259.138 68.7301 259.77C69.0083 260.403 69.1432 261.077 69.1271 261.756C69.1111 262.434 68.9444 263.103 68.6366 263.725L68.5604 263.878L54.8433 258.542L57.263 253.656Z" fill="#2F2E41"/>
<path d="M114.854 259.887H119.5L121.71 244.004L114.853 244.005L114.854 259.887Z" fill="#FFB8B8"/>
<path d="M113.668 258.543L122.817 258.542H122.818C123.584 258.542 124.342 258.676 125.049 258.936C125.757 259.195 126.399 259.576 126.941 260.056C127.482 260.536 127.912 261.105 128.205 261.732C128.498 262.359 128.649 263.031 128.649 263.71V263.878L113.668 263.878L113.668 258.543Z" fill="#2F2E41"/>
<path d="M68.0564 255.371C67.8777 255.371 67.7001 255.346 67.5301 255.298L59.6525 253.053C59.227 252.93 58.8728 252.665 58.6655 252.313C58.4582 251.962 58.4144 251.552 58.5434 251.173L84.6671 177.445L104.235 174.044L104.303 174.144C117.24 192.8 121.558 221.3 124.297 251.496C124.331 251.89 124.19 252.281 123.904 252.584C123.618 252.888 123.21 253.081 122.766 253.122L114.154 253.886C113.752 253.923 113.348 253.832 113.016 253.629C112.683 253.426 112.443 253.124 112.339 252.778L96.5696 203.336C96.5386 203.235 96.4731 203.145 96.382 203.079C96.2909 203.013 96.1788 202.973 96.0612 202.966C95.9436 202.958 95.8263 202.984 95.7256 203.038C95.6248 203.092 95.5457 203.173 95.499 203.269L69.6179 254.457C69.4872 254.728 69.2695 254.96 68.9919 255.122C68.7143 255.285 68.389 255.371 68.0564 255.371Z" fill="#2F2E41"/>
<path d="M94.7778 147.922C99.9183 147.922 104.085 144.229 104.085 139.673C104.085 135.117 99.9183 131.424 94.7778 131.424C89.6374 131.424 85.4702 135.117 85.4702 139.673C85.4702 144.229 89.6374 147.922 94.7778 147.922Z" fill="#FFB8B8"/>
<path d="M83.0045 179.628L82.9407 179.51C82.8974 179.429 78.6091 171.367 79.0081 162.067C79.1403 159.014 80.5836 156.122 83.0427 153.981C85.5018 151.841 88.7909 150.614 92.2369 150.552C95.4128 150.497 98.5088 151.437 100.98 153.206C103.45 154.976 105.137 157.461 105.744 160.225C106.939 165.632 106.909 170.753 105.655 175.446L105.627 175.55L105.508 175.572L83.0045 179.628Z" fill="#0025FF"/>
<path d="M130.459 191.265C129.908 191.193 129.382 191.015 128.917 190.743C128.452 190.471 128.06 190.112 127.769 189.691C127.477 189.27 127.293 188.798 127.23 188.307C127.167 187.816 127.226 187.319 127.403 186.851L116.683 179.518L123.339 177.494L132.499 184.768C133.367 185.084 134.073 185.67 134.486 186.417C134.898 187.164 134.987 188.019 134.735 188.82C134.484 189.62 133.91 190.312 133.122 190.763C132.334 191.213 131.386 191.392 130.459 191.265H130.459Z" fill="#FFB8B8"/>
<path d="M104.151 175.099L104.126 175.064L92.8241 158.842C92.429 158.216 92.2081 157.515 92.1799 156.798C92.1516 156.081 92.3167 155.369 92.6615 154.72C92.9911 154.086 93.4884 153.533 94.1112 153.107C94.734 152.681 95.4638 152.395 96.2384 152.273C96.6292 152.21 97.0259 152.179 97.4232 152.181C98.2386 152.196 99.037 152.39 99.746 152.748C100.455 153.105 101.052 153.613 101.483 154.227L116.746 172.113L129.396 180.042C129.588 180.162 129.75 180.316 129.871 180.494C129.993 180.672 130.071 180.87 130.102 181.077C130.133 181.283 130.116 181.493 130.051 181.693C129.986 181.893 129.876 182.079 129.726 182.239L126.781 185.395C126.524 185.672 126.163 185.859 125.763 185.922C125.364 185.984 124.953 185.918 124.604 185.735L104.151 175.099Z" fill="#0025FF"/>
<path d="M93.1133 139.161C93.7993 138.161 95.3131 137.878 96.6274 137.992C97.9417 138.106 99.2199 138.516 100.54 138.507C104.207 138.482 107.038 134.521 105.496 131.572C104.232 129.154 101.074 128.092 98.2176 127.258C92.2285 125.511 85.3488 123.832 79.914 126.665C78.1821 127.595 76.7616 128.917 75.7993 130.496C74.837 132.075 74.3677 133.853 74.44 135.647C74.5622 137.876 75.5258 140.167 74.7109 142.279C73.7707 144.716 70.7899 146.024 67.9729 146.656C63.0349 147.765 57.8284 147.587 52.8594 148.581C47.8905 149.575 42.7986 152.216 41.4592 156.572C40.5794 159.433 41.4974 162.513 43.0177 165.155C44.5688 167.85 46.7244 170.236 49.3524 172.168C51.9805 174.099 55.0256 175.534 58.3014 176.385C61.5771 177.237 65.0146 177.487 68.4032 177.12C71.7917 176.753 75.0601 175.777 78.0081 174.251C84.0152 171.142 88.3522 165.888 90.9378 160.165C92.4038 156.826 93.4358 153.35 94.014 149.804C94.593 146.485 94.1017 143.131 93.0528 139.904C93.0032 139.783 92.983 139.655 92.9934 139.527C93.0038 139.399 93.0447 139.274 93.1133 139.161Z" fill="#2F2E41"/>
<path d="M311.214 264H15.0756C14.8695 264 14.6718 263.965 14.526 263.902C14.3802 263.839 14.2983 263.753 14.2983 263.664C14.2983 263.575 14.3802 263.49 14.526 263.427C14.6718 263.364 14.8695 263.328 15.0756 263.328H311.214C311.42 263.328 311.618 263.364 311.764 263.427C311.909 263.49 311.991 263.575 311.991 263.664C311.991 263.753 311.909 263.839 311.764 263.902C311.618 263.965 311.42 264 311.214 264Z" fill="#3F3D56"/>
<path d="M35.727 244.778C35.9944 238.08 32.3425 231.424 25.2382 229.141C26.931 235.987 25.4941 243.689 21.2623 250.45C19.6141 253.083 17.4749 255.906 18.0623 258.592C18.4277 260.263 19.8428 261.558 21.5414 262.379C23.2401 263.201 25.2192 263.609 27.1741 264.009L27.5203 264.294C31.8822 258.181 35.4596 251.477 35.727 244.778Z" fill="#8FF3C9"/>
<path d="M25.1424 229.266C28.7039 233.443 30.5209 238.799 30.1266 244.307C30.0693 245.527 29.7928 246.732 29.3064 247.882C28.7704 249.035 27.9187 250.067 26.82 250.893C25.8043 251.688 24.6711 252.414 23.8708 253.377C23.4756 253.847 23.1974 254.379 23.0528 254.941C22.9082 255.503 22.9001 256.084 23.0291 256.649C23.3275 257.987 24.2025 259.087 25.1073 260.133C26.112 261.293 27.18 262.483 27.415 264.006C27.4435 264.191 27.7929 264.102 27.7645 263.918C27.3556 261.268 24.6194 259.727 23.6243 257.331C23.16 256.213 23.1183 254.923 23.9656 253.762C24.7065 252.747 25.8744 251.997 26.91 251.199C27.9958 250.402 28.8655 249.419 29.4605 248.315C30.0124 247.183 30.3427 245.982 30.4387 244.761C30.6954 242.127 30.4402 239.474 29.6832 236.908C28.8702 234.084 27.4216 231.415 25.4154 229.047C25.2923 228.903 25.0202 229.123 25.1424 229.266L25.1424 229.266Z" fill="white"/>
<path d="M30.3678 242.509C31.5124 242.287 32.5462 241.771 33.3252 241.033C34.1042 240.295 34.5897 239.371 34.7142 238.391C34.7319 238.2 34.3798 238.21 34.3621 238.401C34.2479 239.314 33.7957 240.174 33.069 240.86C32.3423 241.546 31.3776 242.024 30.3107 242.226C30.2883 242.228 30.2667 242.235 30.2474 242.245C30.228 242.255 30.2112 242.268 30.1979 242.284C30.1846 242.299 30.1751 242.316 30.17 242.335C30.1648 242.354 30.1641 242.373 30.1679 242.392C30.1717 242.41 30.1799 242.428 30.192 242.444C30.2042 242.461 30.22 242.475 30.2386 242.485C30.2572 242.496 30.2782 242.504 30.3004 242.508C30.3225 242.512 30.3455 242.513 30.3678 242.509V242.509Z" fill="white"/>
<path d="M27.3888 250.541C26.5074 250.027 25.7655 249.363 25.212 248.591C24.6585 247.82 24.3059 246.959 24.1774 246.065C24.1481 245.881 23.7987 245.969 23.8279 246.153C23.9638 247.083 24.3331 247.979 24.9112 248.78C25.4893 249.582 26.2633 250.271 27.1821 250.803C27.3578 250.904 27.5636 250.64 27.3888 250.541Z" fill="white"/>
<path d="M28.4684 234.314C28.0724 234.471 27.6353 234.539 27.1987 234.514C26.7621 234.489 26.3404 234.371 25.9736 234.17C25.7998 234.068 25.5942 234.331 25.7669 234.433C26.1731 234.653 26.6389 234.783 27.121 234.812C27.6032 234.841 28.0862 234.767 28.5255 234.598C28.5713 234.585 28.6107 234.56 28.6372 234.526C28.6638 234.493 28.6759 234.452 28.6717 234.412C28.6677 234.394 28.659 234.376 28.6461 234.361C28.6332 234.345 28.6165 234.333 28.5971 234.323C28.5777 234.314 28.5562 234.309 28.534 234.307C28.5117 234.305 28.4894 234.308 28.4684 234.314Z" fill="white"/>
<path d="M0.12207 240.755C0.22796 240.821 0.33384 240.888 0.439404 240.958C1.85434 241.861 3.16554 242.874 4.35587 243.983C4.44969 244.067 4.54304 244.154 4.63338 244.241C7.48441 246.976 9.61974 250.182 10.9012 253.654C11.4265 255.069 11.8135 256.518 12.0583 257.986C12.4016 260.034 12.5738 262.3 13.6947 263.987C13.8085 264.163 13.9371 264.333 14.0794 264.494L27.0168 264.679C27.0486 264.667 27.08 264.657 27.1119 264.645L27.6247 264.672C27.6184 264.595 27.6099 264.514 27.6036 264.436C27.6002 264.391 27.5939 264.345 27.5905 264.3C27.5873 264.27 27.584 264.24 27.5832 264.212C27.5822 264.202 27.581 264.192 27.5796 264.184C27.5788 264.157 27.5746 264.132 27.5733 264.106C27.5271 263.656 27.478 263.206 27.4229 262.755C27.4233 262.753 27.4233 262.753 27.4209 262.75C26.9981 259.32 26.2217 255.93 24.8337 252.82C24.7918 252.726 24.7507 252.63 24.7029 252.536C24.0732 251.148 23.2931 249.812 22.3726 248.544C21.8698 247.857 21.3202 247.196 20.7265 246.563C19.1894 244.933 17.3138 243.549 15.1902 242.479C10.9379 240.333 5.71445 239.46 0.518537 240.66C0.385617 240.69 0.255445 240.721 0.12207 240.755Z" fill="#8FF3C9"/>
<path d="M0.124125 240.894C6.29892 242.058 11.7874 244.953 15.4331 249.084C16.2601 249.973 16.8924 250.978 17.3005 252.053C17.6635 253.172 17.659 254.352 17.2876 255.469C16.9664 256.554 16.4919 257.65 16.4829 258.745C16.4754 259.281 16.619 259.81 16.9021 260.291C17.1852 260.771 17.5997 261.188 18.1117 261.508C19.3459 262.311 20.9165 262.65 22.4739 262.934C24.203 263.25 26.0089 263.554 27.3209 264.521C27.4799 264.638 27.7243 264.397 27.5656 264.28C25.283 262.598 21.7485 262.893 19.1324 261.692C17.9116 261.131 16.9389 260.231 16.8457 258.971C16.7641 257.869 17.2524 256.739 17.5886 255.641C17.9684 254.55 18.0241 253.397 17.751 252.283C17.4149 251.19 16.8335 250.16 16.038 249.249C14.3099 247.202 12.1547 245.434 9.67663 244.031C6.80773 242.393 3.59379 241.228 0.206186 240.599C-0.00711125 240.559 -0.0877776 240.854 0.124125 240.894Z" fill="white"/>
<path d="M14.3435 247.678C16.081 246.203 16.4418 243.996 15.1971 242.524C15.0745 242.379 14.7704 242.565 14.8931 242.71C16.0592 244.09 15.7117 246.126 14.0876 247.505C13.9166 247.65 14.1736 247.823 14.3435 247.678V247.678Z" fill="white"/>
<path d="M17.533 254.927C16.4465 255.027 15.3471 254.941 14.3016 254.673C13.256 254.406 12.2862 253.963 11.4508 253.371C11.2912 253.255 11.0468 253.496 11.2061 253.612C12.0772 254.227 13.0879 254.686 14.1769 254.962C15.2659 255.238 16.4104 255.326 17.541 255.22C17.769 255.202 17.7598 254.909 17.533 254.927L17.533 254.927Z" fill="white"/>
<path d="M6.72249 242.8C6.46376 243.125 6.12273 243.399 5.7237 243.601C5.32468 243.803 4.87746 243.929 4.41392 243.969C4.18612 243.985 4.19559 244.278 4.42192 244.262C4.93391 244.216 5.42774 244.076 5.86919 243.854C6.31064 243.631 6.68913 243.331 6.97845 242.973C7.00966 242.945 7.02651 242.907 7.02545 242.869C7.0244 242.83 7.00552 242.793 6.9728 242.766C6.93378 242.744 6.88612 242.735 6.83958 242.741C6.79304 242.748 6.75115 242.769 6.72249 242.8V242.8Z" fill="white"/>
<path d="M306.442 230.376C317.808 236.947 335.174 232.354 335.174 232.354C335.174 232.354 334.099 217.107 322.724 210.541C311.358 203.97 294 208.557 294 208.557C294 208.557 295.075 223.804 306.442 230.376Z" fill="url(#paint0_linear_1268_292)"/>
<path d="M178.046 23.3759C189.412 29.9473 206.778 25.3539 206.778 25.3539C206.778 25.3539 205.702 10.1068 194.328 3.5415C182.961 -3.02993 165.604 1.55735 165.604 1.55735C165.604 1.55735 166.678 16.8037 178.046 23.3759Z" fill="url(#paint1_linear_1268_292)"/>
<path d="M253.041 239.246H253.154C253.827 247.364 260.915 247.489 260.915 247.489C260.915 247.489 253.099 247.619 253.099 257C253.099 247.619 245.283 247.489 245.283 247.489C245.283 247.489 252.368 247.365 253.041 239.246ZM106.996 221H107.115C107.818 229.389 115.229 229.518 115.229 229.518C115.229 229.518 107.057 229.653 107.057 239.346C107.057 229.653 98.8853 229.518 98.8853 229.518C98.8853 229.518 106.293 229.389 106.996 221Z" fill="#F1A045"/>
<defs>
<linearGradient id="paint0_linear_1268_292" x1="350.721" y1="251.938" x2="277.428" y2="159.861" gradientUnits="userSpaceOnUse">
<stop stop-color="#024EFB"/>
<stop offset="1" stop-color="#EEEEEE"/>
</linearGradient>
<linearGradient id="paint1_linear_1268_292" x1="222.324" y1="44.9381" x2="149.031" y2="-47.1389" gradientUnits="userSpaceOnUse">
<stop stop-color="#024EFB"/>
<stop offset="1" stop-color="#EEEEEE"/>
</linearGradient>
</defs>
</svg>
