<svg width="33" height="41" viewBox="0 0 33 41" fill="none" xmlns="http://www.w3.org/2000/svg">
<path d="M29 0.48877H4.6631C2.64211 0.48877 1 2.13088 1 4.15187V36.8257C1 38.8467 2.64211 40.4888 4.6631 40.4888H29.0421C31.0631 40.4888 32.7052 38.8467 32.7052 36.8257L32.7055 4.15187C32.6632 2.13088 31.0212 0.48877 29.0002 0.48877H29ZM31.2316 36.8258C31.2316 38.0467 30.221 39.0153 29 39.0153L4.6631 39.015C3.44219 39.015 2.43151 38.0044 2.43151 36.8255V4.15165C2.43151 2.93074 3.44212 1.92006 4.6631 1.92006H29.0421C30.263 1.92006 31.2737 2.93067 31.2737 4.15165V36.8255L31.2316 36.8258Z" fill="#024EFB" stroke="#024EFB" stroke-width="0.5"/>
<path d="M12.5789 17.5837L16.3263 13.8363L18.221 15.7309C18.5158 16.0258 18.9367 16.0258 19.2316 15.7309L23.1896 11.773L23.9053 12.4887C24.1159 12.6993 24.4528 12.573 24.4948 12.2781L24.8736 9.49909C24.9156 9.2885 24.7054 9.07792 24.4948 9.12021L21.7157 9.49909C21.4209 9.54109 21.2946 9.87797 21.5051 10.0886L22.2209 10.8043L18.7681 14.2571L16.8314 12.3204C16.5365 12.0255 16.1157 12.0255 15.8208 12.3204L11.6103 16.5732C11.3154 16.8681 11.3154 17.289 11.6103 17.5838C11.8631 17.8361 12.326 17.8361 12.5789 17.5835V17.5837Z" fill="#024EFB" stroke="#024EFB" stroke-width="0.5"/>
<path d="M24.9158 26.0046H8.74731C8.36843 26.0046 8.03156 26.3415 8.03156 26.7204C8.03156 27.0993 8.36844 27.4361 8.74731 27.4361H24.8737C25.2526 27.4361 25.5894 27.0993 25.5894 26.7204C25.6314 26.2995 25.2946 26.0046 24.9157 26.0046H24.9158Z" fill="#024EFB" stroke="#024EFB" stroke-width="0.5"/>
<path d="M24.9158 32.531H8.74731C8.36843 32.531 8.03156 32.8679 8.03156 33.2468C8.03156 33.6256 8.36844 33.9625 8.74731 33.9625H24.8737C25.2526 33.9625 25.5894 33.6256 25.5894 33.2468C25.6314 32.8256 25.2946 32.531 24.9157 32.531H24.9158Z" fill="#024EFB" stroke="#024EFB" stroke-width="0.5"/>
<path d="M24.9158 19.4783H9.46313V8.19403C9.46313 7.81514 9.12624 7.47827 8.74737 7.47827C8.36849 7.47827 8.03162 7.81515 8.03162 8.19403V20.1941C8.03162 20.573 8.3685 20.9098 8.74737 20.9098H24.8737C25.2526 20.9098 25.5895 20.5729 25.5895 20.1941C25.6315 19.7729 25.2946 19.478 24.9157 19.478L24.9158 19.4783Z" fill="#024EFB" stroke="#024EFB" stroke-width="0.5"/>
</svg>
