<svg width="61" height="61" viewBox="0 0 61 61" fill="none" xmlns="http://www.w3.org/2000/svg">
<path d="M44.8776 7.26376H16.6346C14.2893 7.26376 12.3836 9.16943 12.3836 11.5148V49.4327C12.3836 51.7781 14.2893 53.6838 16.6346 53.6838H44.9265C47.2719 53.6838 49.1775 51.7781 49.1775 49.4327L49.1779 11.5148C49.1288 9.16943 47.2232 7.26376 44.8778 7.26376H44.8776ZM47.4674 49.4328C47.4674 50.8497 46.2946 51.9738 44.8776 51.9738L16.6346 51.9735C15.2178 51.9735 14.0449 50.8007 14.0449 49.4325V11.5145C14.0449 10.0977 15.2177 8.92478 16.6346 8.92478H44.9265C46.3434 8.92478 47.5163 10.0976 47.5163 11.5145V49.4325L47.4674 49.4328Z" fill="#3472FF" stroke="#3472FF" stroke-width="0.5"/>
<path d="M25.8209 27.1023L30.1697 22.7534L32.3685 24.9522C32.7107 25.2944 33.1991 25.2944 33.5413 24.9522L38.1346 20.359L38.9652 21.1896C39.2096 21.434 39.6005 21.2874 39.6493 20.9452L40.089 17.7201C40.1377 17.4758 39.8936 17.2314 39.6493 17.2804L36.4242 17.7201C36.082 17.7689 35.9354 18.1598 36.1798 18.4042L37.0104 19.2348L33.0035 23.2418L30.7559 20.9943C30.4137 20.6521 29.9253 20.6521 29.5831 20.9943L24.6968 25.9296C24.3546 26.2719 24.3546 26.7603 24.6968 27.1025C24.9903 27.3952 25.5274 27.3952 25.8209 27.1021V27.1023Z" fill="#3472FF" stroke="#3472FF" stroke-width="0.5"/>
<path d="M40.138 36.8749H21.3745C20.9348 36.8749 20.5439 37.2659 20.5439 37.7056C20.5439 38.1452 20.9348 38.5362 21.3745 38.5362H40.0892C40.5289 38.5362 40.9198 38.1452 40.9198 37.7056C40.9686 37.2171 40.5776 36.8749 40.1379 36.8749H40.138Z" fill="#3472FF" stroke="#3472FF" stroke-width="0.5"/>
<path d="M40.138 44.4488H21.3745C20.9348 44.4488 20.5439 44.8397 20.5439 45.2794C20.5439 45.7191 20.9348 46.11 21.3745 46.11H40.0892C40.5289 46.11 40.9198 45.7191 40.9198 45.2794C40.9686 44.7906 40.5776 44.4488 40.1379 44.4488H40.138Z" fill="#3472FF" stroke="#3472FF" stroke-width="0.5"/>
<path d="M40.138 29.3011H22.2052V16.2057C22.2052 15.766 21.8142 15.3751 21.3745 15.3751C20.9348 15.3751 20.5439 15.7661 20.5439 16.2057V30.1318C20.5439 30.5715 20.9348 30.9624 21.3745 30.9624H40.0892C40.5289 30.9624 40.9198 30.5715 40.9198 30.1318C40.9686 29.643 40.5776 29.3008 40.1379 29.3008L40.138 29.3011Z" fill="#3472FF" stroke="#3472FF" stroke-width="0.5"/>
</svg>
