<svg width="48" height="41" viewBox="0 0 48 41" fill="none" xmlns="http://www.w3.org/2000/svg">
<path d="M3.24351 0.0400391C1.50409 0.0400391 0 1.39181 0 3.13114V29.3644C0 31.1041 1.50409 32.4725 3.24351 32.4725H18.3452L16.0308 37.878H14.0542C13.4569 37.878 12.9732 38.3622 12.9732 38.959C12.9732 39.5563 13.4573 40.04 14.0542 40.04H33.5141C34.1114 40.04 34.5951 39.5559 34.5951 38.959C34.5951 38.3618 34.111 37.878 33.5141 37.878H31.5715L29.6459 32.4725H44.3248C46.0642 32.4725 47.5683 31.1041 47.5683 29.3644V3.13114C47.5683 1.39142 46.0646 0.0400391 44.3248 0.0400391H3.24274H3.24351ZM3.24351 2.20206H44.3256C44.982 2.20206 45.4066 2.63493 45.4066 3.13114V29.3644C45.4066 29.8606 44.9817 30.3104 44.3256 30.3104H3.24351C2.58705 30.3104 2.1625 29.861 2.1625 29.3644V3.13114C2.1625 2.63493 2.58745 2.20206 3.24351 2.20206V2.20206ZM23.244 7.06685C19.8094 7.06685 16.9377 9.49364 16.3521 12.7932C13.9876 13.7287 12.4329 16.1962 12.4329 18.9589C12.4329 22.4758 15.0392 25.4455 18.3792 25.4455H29.1903C32.5303 25.4455 35.1366 22.4757 35.1366 18.9589C35.1366 15.729 32.9304 12.9867 29.9844 12.5568C29.0987 9.12974 26.2481 7.04764 23.2441 7.06723L23.244 7.06685ZM23.244 9.22887C25.4853 9.21416 27.7031 10.7001 28.1258 13.7053L28.1262 13.7057C28.2016 14.2366 28.6544 14.6318 29.1902 14.6348C31.2406 14.6348 32.974 16.487 32.974 18.9593C32.974 21.4317 31.2406 23.2838 29.1902 23.2838H18.3791C16.3287 23.2838 14.5953 21.4317 14.5953 18.9593C14.5953 16.8056 15.915 14.9791 17.5175 14.5843C17.9662 14.4697 18.292 14.0828 18.3286 13.6213C18.5054 11.0965 20.6195 9.22929 23.2443 9.22929L23.244 9.22887ZM20.7102 32.4727H27.3486L29.2912 37.8782H18.3952L20.7102 32.4727Z" fill="#024EFB"/>
</svg>
