<svg width="61" height="61" viewBox="0 0 61 61" fill="none" xmlns="http://www.w3.org/2000/svg">
<path d="M40.5747 39.5986L52.1289 51.1529C52.4532 51.5398 52.5624 52.0634 52.4194 52.5479C52.2745 53.0374 51.8915 53.4204 51.4019 53.5653C50.9159 53.7088 50.3905 53.5984 50.0033 53.2718L38.4524 41.7209L38.261 41.5295L38.051 41.7003C34.5218 44.5711 30.0258 45.9782 25.4899 45.632C20.954 45.2855 16.7241 43.212 13.6717 39.8385L13.4492 40.0397L13.6717 39.8384C10.6196 36.4654 8.97828 32.0496 9.08572 27.5017C9.19361 22.9542 11.0417 18.621 14.2496 15.3958C17.4746 12.1879 21.8078 10.3398 26.3554 10.232C30.9032 10.1246 35.3191 11.766 38.6922 14.8179C42.0657 17.8702 44.1393 22.1002 44.4858 26.6361C44.8319 31.1724 43.4249 35.6682 40.5541 39.1972L40.3832 39.4072L40.5747 39.5986ZM16.4086 38.4257L16.4092 38.426C19.1688 41.1769 22.9109 42.7167 26.8088 42.7036C31.3935 42.6997 35.7159 40.5639 38.5043 36.9245L38.5044 36.9244C41.2929 33.2841 42.2299 28.5543 41.0402 24.1262C39.8504 19.6981 36.6692 16.0754 32.4313 14.3234C28.1934 12.5715 23.3825 12.8901 19.4128 15.1852L19.4128 15.1852C15.4437 17.4805 12.767 21.4914 12.1715 26.0376C11.5756 30.5836 13.1279 35.1487 16.372 38.3891L16.4086 38.4257ZM28.3132 17.1169C28.3132 17.5163 28.1544 17.8996 27.8721 18.182C27.5897 18.4644 27.2064 18.6231 26.807 18.6231C24.3322 18.6231 21.9591 19.6062 20.2092 21.3561C18.4592 23.1061 17.4761 25.4792 17.4761 27.9539C17.4761 28.4922 17.189 28.9894 16.7231 29.2584C16.2571 29.5273 15.6828 29.5273 15.2168 29.2584C14.7509 28.9894 14.4638 28.4922 14.4638 27.9539C14.4638 24.6804 15.7642 21.5407 18.079 19.2259C20.3938 16.9111 23.5335 15.6107 26.807 15.6107C27.2064 15.6107 27.5897 15.7694 27.8721 16.0518C28.1544 16.3342 28.3132 16.7175 28.3132 17.1169Z" fill="#3472FF" stroke="white" stroke-width="0.6"/>
</svg>
