<svg width="61" height="61" viewBox="0 0 61 61" fill="none" xmlns="http://www.w3.org/2000/svg">
<path d="M28.8185 7.14583C30.0051 6.04726 31.8301 6.02263 33.046 7.08873C35.789 9.49448 38.3498 11.0865 40.7168 11.8756C43.076 12.6622 45.5858 13.2663 48.2467 13.6878C49.7809 13.931 50.9104 15.2537 50.9104 16.8069V35.9128C50.9104 39.6307 49.125 43.1223 46.1109 45.2998L34.6082 53.6071C32.4009 55.2012 29.4199 55.2012 27.2126 53.6071L15.7099 45.2998C12.6959 43.1227 10.9104 39.6311 10.9104 35.9128V16.843C10.9104 15.2774 12.0576 13.9484 13.6062 13.7193C15.9594 13.3711 18.4589 12.7568 21.104 11.875C23.6543 11.025 26.0805 9.58209 28.3766 7.54536L28.8185 7.14583ZM31.6581 8.67152C31.2528 8.31626 30.6446 8.32437 30.2406 8.69831L29.7825 9.11349C27.2713 11.3406 24.5995 12.9297 21.7697 13.8728C19.0125 14.792 16.3947 15.4355 13.9146 15.8025C13.3983 15.8789 13.0162 16.3219 13.0162 16.8436V35.9134C13.0162 38.9553 14.4768 41.8122 16.9431 43.5934L28.4449 51.9003C29.9166 52.9633 31.9037 52.9633 33.3755 51.9003L44.8773 43.5934C47.3436 41.8122 48.8041 38.9553 48.8041 35.9134V16.8075C48.8041 16.2897 48.4277 15.8488 47.9163 15.7678C45.1437 15.3283 42.5215 14.6971 40.0506 13.8735C37.3897 12.9867 34.5959 11.2495 31.6572 8.6722L31.6581 8.67152ZM41.1425 24.7757C41.5147 25.1623 41.5327 25.7597 41.2039 26.1664L41.1147 26.264L27.997 38.8954C27.6209 39.2577 27.0422 39.2856 26.6347 38.979L26.5368 38.8954L20.7067 33.2814C20.288 32.8782 20.2754 32.2118 20.6789 31.7931C21.0511 31.4064 21.6474 31.3663 22.0665 31.6792L22.1673 31.7649L27.2664 36.6751L39.6542 24.7474C40.0729 24.3442 40.7393 24.357 41.1425 24.7757Z" fill="#3472FF"/>
</svg>
