<svg width="37" height="52" viewBox="0 0 37 52" fill="none" xmlns="http://www.w3.org/2000/svg">
<path d="M28.7168 18.26H8.3424C7.81168 18.26 7.38135 17.8297 7.38135 17.2989C7.38135 16.7682 7.81168 16.3379 8.3424 16.3379H28.7168C29.2475 16.3379 29.6778 16.7682 29.6778 17.2989C29.6778 17.8297 29.2475 18.26 28.7168 18.26Z" fill="#024EFB"/>
<path d="M34.5787 51.8968H2.47946C1.82173 51.8968 1.19109 51.6355 0.725943 51.1704C0.261287 50.7058 0 50.0751 0 49.4174V2.47944C0 1.82172 0.261287 1.19108 0.725943 0.726371C1.19103 0.261286 1.82172 0 2.47946 0H26.217C29.0735 0 31.8134 1.1335 33.835 3.15127C35.8566 5.16949 36.9949 7.90723 37 10.7638V49.418C37 50.0658 36.7469 50.6876 36.2942 51.1513C35.8416 51.6147 35.2255 51.8824 34.5781 51.8974L34.5787 51.8968ZM2.47946 1.92196C2.1714 1.92196 1.92213 2.17166 1.92213 2.47928V49.4172C1.92213 49.7248 2.1714 49.9745 2.47946 49.9745H34.5787C34.8867 49.9745 35.136 49.7248 35.136 49.4172V10.763C35.1309 8.4063 34.1874 6.14864 32.5137 4.48959C30.84 2.83009 28.5743 1.90594 26.2175 1.92132L2.47946 1.92196Z" fill="#024EFB"/>
<path d="M28.7168 26.9094H8.32263C7.79191 26.9094 7.36157 26.4791 7.36157 25.9484C7.36157 25.4176 7.79191 24.9873 8.32263 24.9873H28.7168C29.2475 24.9873 29.6778 25.4176 29.6778 25.9484C29.6778 26.4791 29.2475 26.9094 28.7168 26.9094Z" fill="#024EFB"/>
<path d="M28.7168 9.61034H8.3424C7.81168 9.61034 7.38135 9.18001 7.38135 8.64929C7.38135 8.11857 7.81168 7.68823 8.3424 7.68823H28.7168C29.2475 7.68823 29.6778 8.11857 29.6778 8.64929C29.6778 9.18001 29.2475 9.61034 28.7168 9.61034Z" fill="#024EFB"/>
</svg>
