<svg width="37" height="51" viewBox="0 0 37 51" fill="none" xmlns="http://www.w3.org/2000/svg">
<path d="M36.994 9.0779C36.9979 9.1158 37 9.15407 37 9.19268V49.64C37 50.2745 36.4852 50.7889 35.8507 50.7889H1.14893C0.514414 50.7889 0 50.2745 0 49.64V1.14893C0 0.514414 0.514414 0 1.14893 0H27.8079C27.8465 0 27.8847 0.00212571 27.923 0.00566845C27.9506 0.00850267 27.9779 0.0131083 28.0052 0.0180683C28.0148 0.0194854 28.0247 0.0205482 28.0342 0.0223196C28.0672 0.0290508 28.0994 0.0375537 28.1313 0.0467647C28.1352 0.0478275 28.1391 0.0485361 28.143 0.0495989C28.1752 0.0595192 28.2068 0.0712098 28.238 0.0836096C28.2411 0.085381 28.245 0.0860896 28.2486 0.0875067C28.2776 0.0999065 28.3063 0.113723 28.334 0.128249C28.3393 0.130729 28.3449 0.133209 28.3503 0.136043C28.3754 0.149506 28.3995 0.164385 28.4236 0.179619C28.431 0.184579 28.4392 0.189185 28.447 0.194145C28.4682 0.208316 28.4888 0.224258 28.509 0.240201C28.5185 0.247286 28.5281 0.253664 28.5373 0.261457C28.5586 0.278817 28.5781 0.297239 28.5979 0.316016C28.6053 0.323101 28.6131 0.329124 28.6206 0.336564L36.6642 8.38014C36.6712 8.38722 36.6773 8.39537 36.6843 8.40246C36.7031 8.4223 36.7219 8.44213 36.7393 8.46304C36.7467 8.47225 36.7531 8.48217 36.7605 8.49138C36.7761 8.51193 36.792 8.53212 36.8066 8.55373C36.8115 8.56117 36.8158 8.56932 36.8207 8.57712C36.836 8.60121 36.8512 8.6253 36.8647 8.65045C36.8675 8.65576 36.8696 8.66143 36.8725 8.66675C36.887 8.69473 36.9005 8.72308 36.9129 8.75213C36.9143 8.75567 36.9153 8.75921 36.9167 8.76276C36.9291 8.79393 36.9408 8.82547 36.9508 8.85771C36.9518 8.8616 36.9525 8.8655 36.9536 8.8694C36.9632 8.90128 36.9717 8.93352 36.978 8.96647C36.9802 8.97603 36.9809 8.98595 36.9826 8.99552C36.9873 9.0228 36.9922 9.05008 36.9947 9.07807L36.994 9.0779ZM28.9565 3.92315V8.04343H33.0768L28.9565 3.92315ZM2.29754 48.4907H34.702V10.3416H27.8074C27.1729 10.3416 26.6584 9.82723 26.6584 9.19272V2.29807H2.29773L2.29754 48.4907ZM10.1572 22.7034C10.1572 21.6491 10.4955 20.5809 11.1729 19.4986C11.8499 18.4162 12.8376 17.52 14.1364 16.8097C15.4348 16.0993 16.9501 15.7444 18.6814 15.7444C20.2909 15.7444 21.7116 16.0412 22.9438 16.635C24.1756 17.2288 25.1275 18.0362 25.7988 19.0572C26.4705 20.0786 26.806 21.1885 26.806 22.3871C26.806 23.3305 26.6147 24.1574 26.2317 24.868C25.8487 25.5784 25.3939 26.1916 24.8667 26.7074C24.3392 27.2236 23.3932 28.0923 22.0278 29.3131C21.6505 29.6571 21.348 29.9597 21.1205 30.2204C20.8931 30.4815 20.7237 30.7199 20.6125 30.9364C20.5016 31.1529 20.4155 31.3693 20.3546 31.5858C20.2936 31.8023 20.2019 32.1824 20.08 32.7262C19.8688 33.8805 19.2085 34.4576 18.0985 34.4576C17.5214 34.4576 17.0356 34.2691 16.6417 33.8918C16.2478 33.5141 16.0508 32.9536 16.0508 32.21C16.0508 31.2776 16.195 30.4701 16.4837 29.7875C16.7721 29.1051 17.1551 28.5057 17.6323 27.9895C18.1099 27.4734 18.7536 26.8601 19.5638 26.1498C20.2742 25.5284 20.7875 25.0594 21.1038 24.7429C21.4202 24.4265 21.6866 24.074 21.9031 23.6858C22.1192 23.2971 22.2276 22.8755 22.2276 22.4203C22.2276 21.5325 21.8974 20.7832 21.237 20.1728C20.5767 19.5624 19.7246 19.257 18.6812 19.257C17.4604 19.257 16.5612 19.5652 15.9841 20.1812C15.407 20.797 14.9185 21.7046 14.5189 22.9032C14.1416 24.1573 13.4259 24.7847 12.3712 24.7847C11.7498 24.7847 11.2251 24.5654 10.7978 24.1268C10.3706 23.6886 10.1569 23.2139 10.1569 22.7034L10.1572 22.7034ZM18.2818 40.9513C17.6048 40.9513 17.0139 40.732 16.5087 40.2937C16.0038 39.8551 15.7512 39.2418 15.7512 38.454C15.7512 37.7546 15.9953 37.1666 16.4839 36.6893C16.972 36.2118 17.5715 35.9733 18.2818 35.9733C18.9811 35.9733 19.5692 36.2118 20.0468 36.6893C20.524 37.1665 20.7625 37.7546 20.7625 38.454C20.7625 39.2309 20.5127 39.8413 20.0135 40.2852C19.514 40.7295 18.9369 40.9512 18.2818 40.9512L18.2818 40.9513Z" fill="#024EFB"/>
</svg>
