<svg width="38" height="52" viewBox="0 0 38 52" fill="none" xmlns="http://www.w3.org/2000/svg">
<path d="M0.806434 52H36.3385C36.7829 52 37.1429 51.609 37.1429 51.1262V0.874183C37.1429 0.391374 36.7809 0.000365835 36.3385 0.000365835L15.3251 0C15.2204 0 15.116 0.0241405 15.0173 0.0676675C14.9308 0.10717 14.8564 0.166061 14.7901 0.231532C14.78 0.242505 14.7658 0.244699 14.7557 0.255672L0.235357 16.0297C0.223237 16.0451 0.219195 16.0626 0.20539 16.078C0.148825 16.15 0.0966378 16.2243 0.0622892 16.3139C0.0222224 16.4211 0 16.5348 0 16.6482V51.1252C0 51.6081 0.361949 51.9994 0.806731 51.9994L0.806434 52ZM35.5317 50.252H1.61063V17.0466C5.76177 12.9192 12.2402 16.2751 12.3065 16.3081C12.6123 16.4675 12.9742 16.4086 13.2197 16.153C13.4631 15.8951 13.5355 15.5019 13.3968 15.1676C13.3665 15.0912 10.4382 7.74141 15.6853 1.74857H35.5317L35.5317 50.252ZM11.4299 6.34294C10.6394 9.41685 10.9855 12.2706 11.3855 14.0402C9.84916 13.4897 7.4195 12.9107 4.93769 13.3957L11.4299 6.34294Z" fill="#024EFB"/>
<path d="M12.7127 23.3649C12.4372 23.0174 12.0851 22.7445 11.6628 22.5433C11.2406 22.3444 10.7396 22.2441 10.1666 22.2441H5.6272V34.8636H8.6541V30.057H9.71197C10.9588 30.057 11.9062 29.7293 12.5517 29.076C13.1971 28.4227 13.519 27.4417 13.519 26.133C13.519 25.5913 13.4547 25.0821 13.3241 24.6058C13.1931 24.1249 12.9901 23.7141 12.7126 23.3644L12.7127 23.3649ZM10.0938 27.3152C9.8928 27.5643 9.60324 27.6864 9.22307 27.6864H8.65371V24.6125H9.22273C10.0032 24.6125 10.3931 25.1239 10.3931 26.1506C10.3934 26.6795 10.2951 27.0683 10.0938 27.3153L10.0938 27.3152Z" fill="#024EFB"/>
<path d="M14.8843 22.2422V34.8616H19.2768C20.1556 34.8616 20.8395 34.689 21.3284 34.3415C21.8152 33.994 22.1832 33.5287 22.4263 32.9431C22.6697 32.3597 22.8186 31.6888 22.8748 30.931C22.929 30.1684 22.9573 29.3776 22.9573 28.5539C22.9573 27.728 22.929 26.935 22.8748 26.1767C22.8186 25.4163 22.6697 24.7433 22.4263 24.1624C22.1829 23.579 21.8149 23.1138 21.3284 22.7663C20.8415 22.4188 20.158 22.244 19.2768 22.244H14.8843V22.2422ZM19.6105 25.3011C19.7031 25.5831 19.7634 25.9851 19.7896 26.5027C19.8179 27.0228 19.8317 27.7042 19.8317 28.5542C19.8317 29.4021 19.8176 30.0857 19.7896 30.6037C19.7634 31.1216 19.7031 31.5236 19.6105 31.8052C19.5199 32.0872 19.3853 32.2727 19.2122 32.3623C19.0391 32.4497 18.8058 32.4954 18.5122 32.4954H17.9108V24.6102H18.5122C18.8058 24.6102 19.0391 24.6537 19.2122 24.7411C19.3873 24.8311 19.5199 25.0169 19.6105 25.3011Z" fill="#024EFB"/>
<path d="M27.658 29.6659H31.2701V27.0858H27.658V24.9292H31.5152V22.2419H24.6311V34.8614H27.658V29.6659Z" fill="#024EFB"/>
</svg>
