<svg width="30" height="21" viewBox="0 0 30 21" fill="none" xmlns="http://www.w3.org/2000/svg">
<path opacity="0.9" d="M20.1938 0.363187C20.0989 0.255413 19.9812 0.167547 19.8484 0.105193C19.7156 0.0428391 19.5705 0.00736401 19.4225 0.00102964C19.2744 -0.00530473 19.1265 0.0176406 18.9883 0.0684028C18.8501 0.119165 18.7246 0.19663 18.6197 0.29586C18.5149 0.39509 18.4331 0.513907 18.3795 0.644736C18.3258 0.775565 18.3016 0.915536 18.3083 1.05572C18.315 1.19591 18.3525 1.33325 18.4183 1.45896C18.4842 1.58468 18.577 1.69603 18.6909 1.7859L26.3588 9.05314H1.01339C0.739787 9.06688 0.482173 9.17945 0.293635 9.36765C0.105097 9.55584 0 9.80533 0 10.0647C0 10.3241 0.105097 10.5735 0.293635 10.7617C0.482173 10.9499 0.739787 11.0625 1.01339 11.0762H26.3588L18.6788 18.335C18.4855 18.5266 18.3777 18.7813 18.3777 19.0463C18.3777 19.3113 18.4855 19.566 18.6788 19.7577C18.7774 19.8513 18.8945 19.9255 19.0235 19.9762C19.1524 20.0269 19.2907 20.053 19.4303 20.053C19.5699 20.053 19.7082 20.0269 19.8371 19.9762C19.9661 19.9255 20.0832 19.8513 20.1818 19.7577L29.6803 10.7661C29.7814 10.674 29.8618 10.5635 29.9168 10.4413C29.9717 10.319 30 10.1876 30 10.0547C30 9.9219 29.9717 9.79044 29.9168 9.66821C29.8618 9.54598 29.7814 9.4355 29.6803 9.34338L20.1938 0.363187Z" fill="black"/>
</svg>
