<svg width="322" height="247" viewBox="0 0 322 247" fill="none" xmlns="http://www.w3.org/2000/svg">
<path d="M304.64 218.548L305.138 207.41C310.327 204.65 316.116 203.192 322 203.163C313.901 209.751 314.914 222.451 309.423 231.31C307.689 234.061 305.355 236.387 302.595 238.118C299.835 239.849 296.718 240.939 293.477 241.309L286.699 245.438C285.769 240.279 285.974 234.982 287.3 229.91C288.626 224.838 291.041 220.112 294.38 216.058C296.275 213.802 298.448 211.793 300.848 210.078C302.471 214.336 304.64 218.548 304.64 218.548Z" fill="#F2F2F2"/>
<path d="M264.396 244.762C279.397 244.762 291.557 232.663 291.557 217.738C291.557 202.813 279.397 190.714 264.396 190.714C249.396 190.714 237.236 202.813 237.236 217.738C237.236 232.663 249.396 244.762 264.396 244.762Z" fill="#024EFB"/>
<path d="M253.311 207.169C252.939 209.161 252.327 211.102 251.491 212.951C246.7 223.035 260.344 219.748 265.22 219.748C270.551 219.748 275.651 222.537 274.872 210.144C274.54 204.85 270.551 200.539 265.22 200.539C260.666 200.539 254.264 202.553 253.311 207.169Z" fill="#2F2E41"/>
<path d="M264.42 219.745C268.752 219.745 272.264 216.251 272.264 211.941C272.264 207.63 268.752 204.136 264.42 204.136C260.088 204.136 256.576 207.63 256.576 211.941C256.576 216.251 260.088 219.745 264.42 219.745Z" fill="#FFB6B6"/>
<path d="M259.094 203.984C260.468 203.151 262.043 202.7 263.653 202.679C265.262 202.657 266.848 203.067 268.244 203.864C269.64 204.662 270.795 205.818 271.589 207.211C272.382 208.605 272.785 210.185 272.754 211.787C268.758 212.785 264.558 213.549 260.296 212.026L259.289 209.574L258.696 212.027C257.398 212.555 256.096 213.002 254.795 212.022C254.742 210.425 255.111 208.843 255.865 207.432C256.62 206.022 257.733 204.833 259.094 203.984Z" fill="#2F2E41"/>
<path d="M285.514 235.708C280.809 241.035 274.187 244.307 267.078 244.819C259.968 245.33 252.942 243.039 247.516 238.44L249.845 231.972C250.372 230.824 251.202 229.839 252.248 229.124C253.294 228.41 254.516 227.992 255.783 227.915L257.265 227.825L260.799 224.792C260.799 224.792 270.321 224.454 270.179 224.292L275.947 227.744L275.942 227.72L278.21 227.858C279.476 227.934 280.698 228.352 281.744 229.067C282.79 229.782 283.621 230.766 284.147 231.915L285.514 235.708Z" fill="#3F3D56"/>
<path d="M54.3202 27.2537C54.3106 32.5985 52.7084 37.8205 49.7161 42.2594C46.7238 46.6982 42.4758 50.1545 37.5093 52.1911C32.5428 54.2277 27.0809 54.7533 21.8142 53.7012C16.5475 52.6492 11.7127 50.0669 7.921 46.2808C4.12933 42.4947 1.55117 37.6749 0.512534 32.4309C-0.526101 27.1869 0.0214369 21.7542 2.08592 16.8198C4.1504 11.8854 7.63909 7.671 12.1108 4.70944C16.5826 1.74787 21.8365 0.172206 27.2083 0.181683C30.7776 0.178763 34.3123 0.877703 37.6093 2.23835C40.9063 3.59899 43.9005 5.59451 46.4199 8.11022C48.9393 10.6259 50.9342 13.6122 52.29 16.8975C53.6458 20.1828 54.3358 23.7022 54.3202 27.2537Z" fill="#F2F2F2"/>
<path d="M14.5715 18.4148C15.6946 14.8535 18.2484 11.5873 21.7804 10.3834C25.3125 9.17951 30.4845 11.0134 33.1399 13.6466C37.9971 18.4632 39.1825 35.0098 35.8453 40.2388C35.1816 40.2038 32.8912 40.1779 32.2194 40.1529L31.269 37.0013V40.1219C30.1988 40.0889 29.1201 40.0662 28.0331 40.0537C24.3885 40.0087 20.9033 38.5595 18.3103 36.0108C15.7173 33.4621 14.2185 30.0123 14.1288 26.3868C14.0419 22.9184 14.1289 19.8181 14.5715 18.4148Z" fill="#CCCCCC"/>
<path d="M26.757 30.2179C31.032 30.2179 34.4975 26.7697 34.4975 22.5162C34.4975 18.2627 31.032 14.8145 26.757 14.8145C22.4821 14.8145 19.0166 18.2627 19.0166 22.5162C19.0166 26.7697 22.4821 30.2179 26.757 30.2179Z" fill="#CCCCCC"/>
<path d="M20.0771 15.7529L28.9895 11.3126C30.8116 12.1295 32.3809 13.4166 33.5345 15.0404C34.6882 16.6642 35.3842 18.5655 35.5505 20.5471L35.7726 23.1947L32.0406 22.2494L31.6317 18.864L30.9979 21.9854L29.2756 21.5493L29.292 16.2934L27.5686 21.5456L21.4172 20.1394L20.0771 15.7529Z" fill="#CCCCCC"/>
<path d="M47.3151 45.0895C42.6097 50.4168 35.9876 53.6892 28.8783 54.2004C21.769 54.7116 14.7428 52.4207 9.31641 47.822L11.646 41.3542C12.1724 40.2054 13.0032 39.2209 14.0493 38.5062C15.0953 37.7915 16.3171 37.3736 17.5837 37.2973L19.0657 37.2068L22.5996 34.1742C22.5996 34.1742 32.1214 33.8359 31.9801 33.6739L37.7478 37.1257L37.743 37.1019L40.0104 37.2401C41.277 37.3161 42.499 37.7339 43.5451 38.4486C44.5912 39.1634 45.4219 40.1481 45.9481 41.297L47.3151 45.0895Z" fill="#CCCCCC"/>
<path d="M27.3535 178.343C42.3536 178.343 54.5136 166.244 54.5136 151.319C54.5136 136.394 42.3536 124.295 27.3535 124.295C12.3534 124.295 0.193359 136.394 0.193359 151.319C0.193359 166.244 12.3534 178.343 27.3535 178.343Z" fill="#F2F2F2"/>
<path d="M16.2683 140.749C15.8955 142.741 15.2843 144.683 14.4476 146.531C9.65655 156.615 23.3006 153.328 28.1766 153.328C33.5077 153.328 38.6085 156.118 37.8294 143.724C37.4966 138.43 33.5077 134.119 28.1766 134.119C23.6229 134.119 17.2205 136.133 16.2683 140.749Z" fill="#CCCCCC"/>
<path d="M27.3782 153.325C31.7103 153.325 35.2222 149.831 35.2222 145.521C35.2222 141.21 31.7103 137.716 27.3782 137.716C23.0461 137.716 19.5342 141.21 19.5342 145.521C19.5342 149.831 23.0461 153.325 27.3782 153.325Z" fill="#CCCCCC"/>
<path d="M22.052 137.566C23.4265 136.732 25.0009 136.281 26.6105 136.26C28.2202 136.239 29.806 136.648 31.2021 137.445C32.5983 138.243 33.7534 139.399 34.5469 140.793C35.3403 142.186 35.7429 143.766 35.7125 145.368C31.7155 146.366 27.5165 147.13 23.2541 145.607L22.2474 143.155L21.654 145.609C20.3559 146.136 19.0545 146.583 17.7531 145.603C17.6999 144.006 18.069 142.424 18.8234 141.013C19.5778 139.603 20.6911 138.414 22.052 137.566Z" fill="#CCCCCC"/>
<path d="M48.4714 169.288C43.766 174.615 37.1439 177.887 30.0346 178.399C22.9252 178.91 15.899 176.619 10.4727 172.02L12.8022 165.552C13.3287 164.404 14.1595 163.419 15.2055 162.704C16.2515 161.99 17.4733 161.572 18.7399 161.496L20.2219 161.405L23.7558 158.372C23.7558 158.372 33.2777 158.034 33.1364 157.872L38.9041 161.324L38.8993 161.3L41.1666 161.438C42.4333 161.514 43.6553 161.932 44.7013 162.647C45.7474 163.362 46.5781 164.346 47.1043 165.495L48.4714 169.288Z" fill="#CCCCCC"/>
<path d="M144.203 153.644C168.489 153.644 188.177 134.055 188.177 109.89C188.177 85.7253 168.489 66.1358 144.203 66.1358C119.917 66.1358 100.229 85.7253 100.229 109.89C100.229 134.055 119.917 153.644 144.203 153.644Z" fill="#F2F2F2"/>
<path d="M145.996 114.354C153.915 114.354 160.335 107.967 160.335 100.087C160.335 92.2072 153.915 85.8194 145.996 85.8194C138.076 85.8194 131.656 92.2072 131.656 100.087C131.656 107.967 138.076 114.354 145.996 114.354Z" fill="#CCCCCC"/>
<path d="M158.621 90.6611C158.621 90.6611 162.355 83.5596 154.141 82.914C154.141 82.914 147.139 76.5938 140.001 81.7586C140.001 81.7586 136.108 81.7586 133.979 86.1419C133.979 86.1419 130.918 84.9865 130.245 88.0787C130.245 88.0787 128.004 94.5346 130.245 100.345C132.485 106.155 133.229 106.801 133.229 106.801C133.229 106.801 131.657 99.5906 140.619 98.945C149.58 98.2994 157.801 92.7137 158.548 99.8152C159.294 106.917 160.115 103.709 160.115 103.709C160.115 103.709 167.208 93.5662 158.621 90.6611Z" fill="#CCCCCC"/>
<path d="M177.031 138.984C169.413 147.609 158.691 152.908 147.18 153.735C135.67 154.563 124.294 150.854 115.508 143.408L119.28 132.936C120.132 131.076 121.477 129.482 123.171 128.325C124.864 127.168 126.842 126.491 128.893 126.368L131.293 126.221L137.014 121.311C137.014 121.311 152.431 120.763 152.202 120.501L161.541 126.09L161.533 126.051L165.204 126.275C167.255 126.398 169.233 127.075 170.927 128.232C172.621 129.389 173.966 130.983 174.818 132.844L177.031 138.984Z" fill="#CCCCCC"/>
<path d="M71.7773 110.035C86.7774 110.035 98.9374 97.9355 98.9374 83.0105C98.9374 68.0855 86.7774 55.9864 71.7773 55.9864C56.7772 55.9864 44.6172 68.0855 44.6172 83.0105C44.6172 97.9355 56.7772 110.035 71.7773 110.035Z" fill="#F2F2F2"/>
<path d="M71.0272 86.3583C75.8154 86.3583 79.697 82.4961 79.697 77.7319C79.697 72.9677 75.8154 69.1055 71.0272 69.1055C66.239 69.1055 62.3574 72.9677 62.3574 77.7319C62.3574 82.4961 66.239 86.3583 71.0272 86.3583Z" fill="#CCCCCC"/>
<path d="M92.153 101.092C87.4476 106.419 80.8255 109.691 73.7162 110.202C66.6069 110.714 59.5807 108.423 54.1543 103.824L56.4839 97.3562C57.0103 96.2074 57.8411 95.2229 58.8871 94.5082C59.9332 93.7935 61.155 93.3756 62.4215 93.2992L63.9036 93.2087L67.4375 90.1761C67.4375 90.1761 76.9593 89.8378 76.818 89.6758L82.5857 93.1277L82.5809 93.1038L84.8483 93.242C86.1149 93.318 87.3369 93.7358 88.383 94.4506C89.4291 95.1653 90.2598 96.15 90.786 97.299L92.153 101.092Z" fill="#CCCCCC"/>
<path d="M80.1708 72.3828C79.4382 69.7737 77.7736 67.5204 75.4897 66.0458C73.6695 64.8874 71.3982 64.296 69.3361 64.9086C67.274 65.5212 65.5668 67.5348 65.7017 69.7103C65.3197 69.6104 64.9173 69.6189 64.5399 69.7349C64.1625 69.8509 63.8253 70.0696 63.5664 70.3664C63.049 70.9742 62.6893 71.6988 62.5187 72.477C61.857 74.9162 61.9008 77.4917 62.6452 79.9072L62.6042 80.2539C63.6103 80.0883 64.3734 79.2294 64.8479 78.3143C65.3224 77.3993 65.5955 76.3841 66.1097 75.4914C66.624 74.5987 67.4781 73.8024 68.4969 73.7746L68.4071 75.3241L71.0367 73.9761C70.8282 74.4723 70.6197 74.9686 70.4113 75.4648C71.1767 75.1465 71.9422 74.8281 72.7077 74.5098C72.6222 74.987 72.5366 75.4641 72.451 75.9413C72.6518 75.5271 72.9349 75.1577 73.2832 74.8555C73.6315 74.5533 74.0379 74.3245 74.4776 74.183C74.9174 74.0416 75.3814 73.9903 75.8416 74.0324C76.3018 74.0745 76.7487 74.2091 77.1551 74.428C78.0706 75.0408 78.7304 75.9644 79.0113 77.0261C79.2893 78.0854 79.4386 79.174 79.4558 80.2687C80.6387 77.8109 80.8925 75.0115 80.1708 72.3828Z" fill="#CCCCCC"/>
<path d="M129.416 104.778V104.794C129.391 104.735 129.375 104.672 129.367 104.608L129.416 104.778Z" fill="#F2F2F2"/>
<path d="M129.415 104.793C129.456 104.962 129.504 105.131 129.553 105.291C129.486 105.309 129.419 105.323 129.351 105.332L129.415 104.793Z" fill="#F2F2F2"/>
<path d="M188.178 109.8C188.176 121.106 183.776 131.973 175.899 140.121C168.023 148.27 157.282 153.069 145.928 153.511V66.0899C157.283 66.53 168.025 71.3278 175.902 79.4771C183.779 87.6264 188.179 98.4939 188.178 109.8Z" fill="#024EFB"/>
<path d="M129.367 104.608L129.416 104.778V104.794C129.391 104.735 129.375 104.672 129.367 104.608Z" fill="#FFB6B6"/>
<path d="M157.028 101.256C157.03 102.411 156.886 103.562 156.599 104.681V104.689C155.954 107.212 154.613 109.507 152.727 111.313C150.842 113.12 148.487 114.366 145.928 114.913V87.5919C149.069 88.2637 151.884 89.9864 153.904 92.4728C155.924 94.9593 157.026 98.0594 157.028 101.256Z" fill="#A0616A"/>
<path d="M177.191 139.074C173.266 143.529 168.469 147.141 163.094 149.69C157.719 152.238 151.878 153.669 145.928 153.896V121.045C149.361 120.884 152.471 120.715 152.366 120.595L161.705 126.181L161.697 126.141L165.364 126.366C167.416 126.487 169.395 127.163 171.089 128.32C172.782 129.477 174.127 131.072 174.978 132.933L177.102 138.825L177.191 139.074Z" fill="#3F3D56"/>
<path d="M129.415 104.793C129.456 104.962 129.504 105.131 129.553 105.291C129.486 105.309 129.419 105.323 129.351 105.332L129.415 104.793Z" fill="#2F2E41"/>
<path d="M156.64 105.355C156.624 105.13 156.615 104.913 156.599 104.688V104.68C156.553 103.134 156.325 101.599 155.921 100.106C155.396 98.4181 154.41 96.8025 152.916 95.9022C150.678 94.5519 147.535 95.2833 145.928 97.3089V80.4532C147.449 80.8487 148.897 81.4837 150.217 82.3341C153.915 84.72 156.61 88.3672 157.795 92.5906C158.962 96.8454 158.552 101.376 156.64 105.355Z" fill="#2F2E41"/>
<path d="M145.323 245.818C145.184 245.825 145.047 245.776 144.943 245.683C144.84 245.59 144.777 245.46 144.77 245.321V26.3149C144.784 26.1786 144.848 26.0525 144.951 25.9608C145.053 25.8692 145.186 25.8184 145.323 25.8184C145.461 25.8184 145.594 25.8692 145.696 25.9608C145.798 26.0525 145.863 26.1786 145.877 26.3149V245.321C145.869 245.46 145.807 245.59 145.703 245.683C145.599 245.776 145.463 245.825 145.323 245.818Z" fill="#2F2E41"/>
<path d="M200.488 96.2348L185.192 92.5012L164.797 75.2493L168.193 69.8848L186.668 81.5954C186.668 81.5954 198.891 84.6832 203.072 88.2438L200.488 96.2348Z" fill="#FFB6B6"/>
<path d="M165.508 75.5762C167.566 75.5762 169.235 73.916 169.235 71.8682C169.235 69.8203 167.566 68.1602 165.508 68.1602C163.45 68.1602 161.781 69.8203 161.781 71.8682C161.781 73.916 163.45 75.5762 165.508 75.5762Z" fill="#FFB6B6"/>
<path d="M201.207 86.2515L187.022 80.4962L180.204 88.5517L185.269 92.7038L199.077 96.2743L199.086 96.3103C200.056 99.8667 206.292 102.281 211.352 103.68C213.021 104.14 214.804 103.953 216.339 103.155C217.874 102.358 219.048 101.01 219.622 99.3847C220.038 98.1828 220.108 96.8891 219.824 95.6498C219.539 94.4105 218.912 93.2751 218.013 92.3718L213.418 87.787L201.207 86.2515Z" fill="#E6E6E6"/>
<path d="M161.984 230.901L157.013 229.019L161.943 209.044L169.28 211.822L161.984 230.901Z" fill="#FFB6B6"/>
<path d="M163.87 229.767L162.471 229.237L157.853 224.958L154.079 226.06L154.079 226.06C152.424 225.433 150.587 225.487 148.972 226.208C147.357 226.929 146.095 228.259 145.466 229.906L145.389 230.108L161.419 236.176L163.87 229.767Z" fill="#2F2E41"/>
<path d="M212.239 239.194L206.92 239.194L204.39 218.78L212.24 218.781L212.239 239.194Z" fill="#FFB6B6"/>
<path d="M213.597 237.466L212.1 237.466L206.254 235.101L203.121 237.465H203.121C201.351 237.466 199.653 238.165 198.401 239.411C197.149 240.657 196.445 242.346 196.445 244.108V244.324L213.596 244.324L213.597 237.466Z" fill="#2F2E41"/>
<path d="M220.35 151.264C220.35 151.264 220.971 158.68 219.418 165.787C218.445 170.242 218.081 179.769 217.946 186.259C217.865 190.122 216.119 190.738 216.119 190.738L217.277 199.622L214.449 231.912L204.201 230.985L201.406 165.787L182.986 180.279L183.497 181.973C183.746 182.797 181.913 182.692 181.18 183.148L179.373 187.32C179.408 188.009 179.23 188.693 178.863 189.279C178.496 189.865 177.958 190.325 177.32 190.597L167.721 219.009L160.236 214.541L162.731 188.726L166.224 176.811L180.288 159.607L180.599 154.663L181.997 154.72L182.708 152.654L184.015 149.101L220.35 151.264Z" fill="#2F2E41"/>
<path d="M220.887 152.821L220.942 152.744C223.898 148.626 219.453 138.732 218.782 137.297C219.578 137.04 220.26 136.516 220.712 135.815C221.164 135.114 221.357 134.278 221.259 133.451L220.97 131.006L220.669 128.608L222.828 126.461L222.834 126.407L224.076 115.592L225.882 108.409C226.562 105.693 226.504 102.847 225.714 100.161C224.923 97.475 223.429 95.0469 221.383 93.1257L217.208 89.2091L212.135 81.7393H203.953L201.147 87.0119C198.427 87.6374 196.014 89.1924 194.328 91.4062C192.642 93.62 191.79 96.3521 191.92 99.1267L192.556 112.955L190.067 130.173L190.065 133.289L188.769 134.722C188.302 135.239 187.963 135.856 187.778 136.526C187.593 137.196 187.568 137.9 187.705 138.581L187.876 139.429C187.217 139.71 186.635 140.144 186.18 140.695C185.724 141.246 185.408 141.897 185.258 142.595L184.803 144.709C184.413 145.22 181.842 148.632 181.842 149.564C181.842 149.704 181.946 149.84 182.169 149.99C183.921 151.17 193.606 153.577 197.893 151.871C202.459 150.054 220.61 152.779 220.793 152.807L220.887 152.821Z" fill="#E6E6E6"/>
<path d="M206.986 79.3273C212.971 79.3273 217.823 74.5002 217.823 68.5455C217.823 62.5909 212.971 57.7637 206.986 57.7637C201.002 57.7637 196.15 62.5909 196.15 68.5455C196.15 74.5002 201.002 79.3273 206.986 79.3273Z" fill="#FFB6B6"/>
<path d="M203.453 115.908L195.925 129.674L173.961 144.899L169.613 140.264L185.703 125.474C185.703 125.474 191.82 114.501 196.346 111.386L203.453 115.908Z" fill="#FFB6B6"/>
<path d="M170.856 147.062C172.914 147.062 174.582 145.401 174.582 143.354C174.582 141.306 172.914 139.646 170.856 139.646C168.797 139.646 167.129 141.306 167.129 143.354C167.129 145.401 168.797 147.062 170.856 147.062Z" fill="#FFB6B6"/>
<path d="M202.775 117.743L207.509 106.439L205.797 100.192C205.456 98.9673 204.778 97.8613 203.839 96.9996C202.9 96.1378 201.737 95.5546 200.482 95.3158C198.779 95.0035 197.02 95.3463 195.561 96.275C194.102 97.2037 193.052 98.6489 192.624 100.318C191.327 105.383 190.331 111.967 192.95 114.572L192.977 114.598L185.185 124.709L196.66 131.163L202.775 117.743Z" fill="#E6E6E6"/>
<path d="M217.693 61.1161C216.812 59.9345 215.545 59.0945 214.577 57.9828C214.089 57.3381 213.564 56.7215 213.006 56.1358C211.836 55.1679 210.359 54.643 208.837 54.6539C207.186 54.6117 205.549 54.9568 204.057 55.6613C202.565 56.3659 201.26 57.41 200.249 58.7092C199.462 58.2498 198.674 57.7905 197.887 57.3311C197.576 58.1458 197.265 58.9605 196.954 59.7752C196.698 59.5544 196.373 59.4306 196.035 59.4259C195.696 59.4212 195.367 59.5358 195.106 59.7493C194.844 59.9629 194.667 60.2617 194.606 60.5927C194.545 60.9237 194.604 61.2656 194.772 61.5578C194.584 60.9816 193.726 60.8594 193.252 61.24C193.033 61.4512 192.871 61.7135 192.779 62.0032C192.688 62.2928 192.671 62.6006 192.729 62.8985C192.826 63.5575 193.119 64.1725 193.57 64.6646C194.021 65.1567 194.61 65.5033 195.26 65.6599C196.288 65.8877 197.484 65.6484 198.306 66.3023C198.966 66.8265 199.165 67.781 199.838 68.2879C200.667 68.9125 201.839 68.6237 202.869 68.7617C203.768 68.915 204.576 69.398 205.134 70.1152C205.692 70.8325 205.96 71.7318 205.884 72.6357C206.01 72.0576 206.249 71.51 206.589 71.0242C206.762 70.7842 207.002 70.5995 207.28 70.4924C207.557 70.3854 207.859 70.3607 208.15 70.4213C209.089 70.7013 209.243 71.9745 209.015 72.9229C208.412 75.4384 206.125 79.5044 206.125 79.5044C209.094 80.6698 212.632 79.5678 214.923 77.3563C217.214 75.1448 218.407 72.0134 218.927 68.8797C219.368 66.2224 219.305 63.2791 217.693 61.1161Z" fill="#2F2E41"/>
<path d="M315.782 245.73C315.782 245.808 315.767 245.885 315.737 245.957C315.707 246.029 315.663 246.094 315.608 246.149C315.553 246.204 315.487 246.247 315.415 246.277C315.343 246.306 315.266 246.321 315.188 246.321H5.33692C5.17944 246.321 5.02843 246.259 4.91708 246.148C4.80573 246.037 4.74316 245.887 4.74316 245.73C4.74316 245.574 4.80573 245.423 4.91708 245.313C5.02843 245.202 5.17944 245.14 5.33692 245.14H315.188C315.266 245.139 315.343 245.155 315.415 245.184C315.487 245.214 315.553 245.257 315.608 245.312C315.663 245.367 315.707 245.432 315.737 245.504C315.767 245.576 315.782 245.653 315.782 245.73Z" fill="#CCCCCC"/>
</svg>
