<svg width="10" height="13" viewBox="0 0 10 13" fill="none" xmlns="http://www.w3.org/2000/svg">
<path d="M9.58899 10.6333C9.55594 10.7645 9.48906 10.9297 9.38824 11.1291C9.28743 11.3284 9.19555 11.4822 9.11268 11.5905C8.95163 11.8082 8.59659 11.9926 8.04762 12.1436C7.53813 12.2787 7.06453 12.2911 6.6269 12.1809C6.49845 12.1485 6.37572 12.1086 6.25876 12.0611C6.14175 12.0135 6.01267 11.9487 5.87141 11.8666C5.73022 11.7845 5.62613 11.7209 5.55913 11.6756C5.49212 11.6303 5.37265 11.5473 5.20075 11.4265C5.02886 11.3057 4.92332 11.2326 4.88419 11.2073C4.46089 10.9198 4.09541 10.6133 3.78793 10.2879C3.27576 9.75083 2.77855 9.06892 2.29626 8.24224C1.814 7.41549 1.46329 6.64393 1.24409 5.92757C1.11 5.49599 1.01968 5.02125 0.973091 4.50324C0.96981 4.45592 0.956974 4.32612 0.93458 4.11386C0.912186 3.90159 0.897381 3.75447 0.890206 3.67261C0.883034 3.59074 0.877616 3.4667 0.873959 3.30046C0.870302 3.13423 0.875775 2.98707 0.890304 2.85898C0.904902 2.73092 0.928691 2.60129 0.961735 2.47011C1.07432 2.02319 1.30943 1.60196 1.66705 1.20649C2.05701 0.782953 2.38377 0.550187 2.64732 0.508057C2.77962 0.484609 2.9554 0.474628 3.17457 0.478163C3.39374 0.4817 3.56748 0.499666 3.69593 0.532023C3.7625 0.548793 3.81063 0.568679 3.84025 0.591592C3.91855 0.64229 3.99811 0.858686 4.07888 1.24062C4.10797 1.34612 4.14628 1.49519 4.19385 1.68802C4.24142 1.88083 4.28582 2.05602 4.32705 2.2136C4.36827 2.37125 4.40928 2.5197 4.45002 2.65912C4.45943 2.68211 4.48575 2.75335 4.52901 2.8727C4.57228 2.99205 4.60171 3.09117 4.61724 3.17005C4.63278 3.24885 4.63201 3.32233 4.61488 3.39032C4.5904 3.4875 4.49204 3.59188 4.31974 3.70343C4.14744 3.81497 3.96635 3.91144 3.7764 3.99274C3.58645 4.07404 3.40657 4.16564 3.23673 4.26746C3.06688 4.36927 2.97096 4.46398 2.94893 4.55144C2.93791 4.59516 2.93605 4.65284 2.9433 4.72438C2.95054 4.79591 2.95824 4.85083 2.96629 4.889C2.9744 4.9272 2.993 4.99391 3.02209 5.08906C3.05125 5.18423 3.06695 5.23727 3.06926 5.24821C3.26314 6.00475 3.53316 6.67979 3.87937 7.27327C4.22559 7.86673 4.67806 8.43021 5.23671 8.96348C5.24501 8.97075 5.28311 9.01003 5.35119 9.08144C5.41921 9.15284 5.46769 9.2012 5.49677 9.22656C5.52577 9.25198 5.56935 9.28488 5.62742 9.32531C5.68548 9.36581 5.73598 9.39139 5.77879 9.40218C5.86442 9.42375 5.99124 9.3821 6.15935 9.27718C6.32745 9.17227 6.49144 9.05346 6.65129 8.92066C6.8112 8.78788 6.97997 8.67026 7.15752 8.56773C7.33507 8.46521 7.47143 8.42595 7.5666 8.44992C7.63317 8.46669 7.69672 8.50081 7.75711 8.55218C7.8175 8.60354 7.88878 8.67706 7.97097 8.77265C8.05309 8.86822 8.10187 8.92572 8.11719 8.9451C8.21775 9.04791 8.32605 9.15526 8.44199 9.26711C8.55801 9.37899 8.68761 9.50205 8.83078 9.63629C8.97403 9.77056 9.08406 9.87575 9.16099 9.95199C9.45115 10.2059 9.59946 10.3802 9.60597 10.4747C9.6117 10.5123 9.60593 10.5651 9.5888 10.6331L9.58899 10.6333Z" fill="#0275FB"/>
</svg>
