<svg width="42" height="38" viewBox="0 0 42 38" fill="none" xmlns="http://www.w3.org/2000/svg">
<path d="M36.3985 9.41155C34.1976 7.20938 31.4089 5.68895 28.3661 5.03331C25.3236 4.37736 22.1566 4.61373 19.2445 5.71432C16.333 6.81461 13.8002 8.73219 11.9508 11.2368C11.8278 11.1774 11.6929 11.1462 11.5565 11.1454H3.05211C2.54232 11.1465 2.12946 11.5601 2.12946 12.0705C2.12946 12.5807 2.54229 12.9946 3.05211 12.9954H10.8231C9.64135 15.1273 8.95647 17.499 8.81975 19.9329H0.925983C0.680496 19.9324 0.445069 20.0297 0.271272 20.2034C0.0974741 20.3768 0 20.6124 0 20.858C0 21.1037 0.0974741 21.339 0.271272 21.5127C0.445069 21.6861 0.680496 21.7834 0.925983 21.7829H8.81975C8.95642 24.217 9.64128 26.5887 10.8231 28.7205H3.05211C2.54232 28.7215 2.12946 29.1354 2.12946 29.6456C2.12946 30.1557 2.54229 30.5696 3.05211 30.5707H11.5565C11.6929 30.5699 11.8278 30.5387 11.9508 30.4791C13.7194 32.874 16.1139 34.7342 18.8709 35.8549C21.6277 36.9759 24.6402 37.3139 27.5766 36.8321C30.5131 36.3504 33.2601 35.0674 35.5146 33.124C37.7696 31.1809 39.4452 28.6528 40.3569 25.8185C41.269 22.9839 41.3816 19.9523 40.6831 17.0577C39.9846 14.1632 38.5016 11.5172 36.3975 9.41125L36.3985 9.41155ZM35.0914 30.9965C32.405 33.6823 28.7627 35.1905 24.9651 35.1893C21.1678 35.188 17.5261 33.6776 14.8414 30.9901C12.1565 28.3028 10.6485 24.6582 10.6485 20.8579C10.6485 17.0577 12.1565 13.413 14.8414 10.7257C17.526 8.0381 21.1675 6.52778 24.9651 6.52652C28.7626 6.52549 32.4047 8.03348 35.0914 10.7193C37.7745 13.4104 39.2811 17.0564 39.2811 20.8581C39.2811 24.6594 37.7745 28.3057 35.0914 30.9963V30.9965Z" fill="white"/>
<path d="M20.3375 1.89402H29.5812C30.0918 1.89402 30.5057 1.48042 30.5057 0.969849C30.5057 0.459282 30.0918 0.0454102 29.5812 0.0454102H20.3375C19.827 0.0454102 19.4131 0.459275 19.4131 0.969849C19.4131 1.48042 19.827 1.89402 20.3375 1.89402Z" fill="white"/>
<path d="M30.5454 13.9597L24.3067 20.2028L24.3059 20.2034V20.2036C24.0702 20.4477 23.9856 20.8007 24.0847 21.1253C24.1839 21.45 24.4511 21.6951 24.7829 21.7658C24.9588 21.7999 25.1411 21.7823 25.3072 21.715C25.4217 21.6685 25.5258 21.5994 25.613 21.5119L31.8525 15.268V15.2677C32.0263 15.0943 32.124 14.859 32.1243 14.6133C32.1245 14.3679 32.0271 14.1323 31.8535 13.9587C31.68 13.785 31.4445 13.6875 31.1993 13.6877C30.9538 13.688 30.7187 13.7858 30.5454 13.9597L30.5454 13.9597Z" fill="white"/>
</svg>
