<svg width="171" height="65" viewBox="0 0 171 65" fill="none" xmlns="http://www.w3.org/2000/svg">
<path fill-rule="evenodd" clip-rule="evenodd" d="M38.4474 55.8947H21V36.218L35.0548 21H38.4474C48.0833 21 55.8947 28.8115 55.8947 38.4474C55.8947 48.0833 48.0833 55.8947 38.4474 55.8947ZM38.4457 45.9249H30.9683V37.492L36.9918 30.9701H38.4457C42.5754 30.9701 45.9232 34.3178 45.9232 38.4475C45.9232 42.5772 42.5754 45.9249 38.4457 45.9249Z" fill="#014EFE"/>
<g filter="url(#filter0_d_1374_2)">
<path d="M35.0548 21L21 36.218H35.3456L35.0548 21Z" fill="#01E3FB"/>
</g>
<path d="M85.3143 38.4188C85.3143 40.2326 85.115 41.7872 84.7163 43.0828C84.3376 44.3584 83.8493 45.4347 83.2514 46.3117C82.6534 47.1687 81.9757 47.8464 81.2183 48.3447C80.4809 48.843 79.7633 49.2217 79.0657 49.4808C78.3681 49.72 77.7303 49.8794 77.1523 49.9591C76.5743 50.0189 76.1458 50.0488 75.8667 50.0488H67.5254V28.0145H74.1626C76.0162 28.0145 77.6406 28.3135 79.0358 28.9115C80.451 29.4895 81.617 30.2668 82.5338 31.2434C83.4706 32.2201 84.1682 33.3363 84.6266 34.5919C85.0851 35.8277 85.3143 37.1033 85.3143 38.4188ZM74.6708 47.4179C77.1025 47.4179 78.8565 46.6405 79.9328 45.0859C81.0091 43.5312 81.5472 41.279 81.5472 38.3291C81.5472 37.4122 81.4376 36.5054 81.2183 35.6084C80.9991 34.7115 80.5706 33.9043 79.9328 33.1868C79.3149 32.4493 78.4678 31.8613 77.3915 31.4228C76.3152 30.9644 74.92 30.7352 73.2059 30.7352H71.1131V47.4179H74.6708Z" fill="white"/>
<path d="M99.7248 36.8342C99.1667 36.6748 98.489 36.5851 97.6917 36.5652C96.9742 36.5652 96.2567 36.6549 95.5391 36.8342C94.8415 36.9937 94.2835 37.2727 93.8649 37.6714V44.0694V44.1292V50.0488H90.2473V33.1868H93.4762L93.8649 34.9208C94.1639 34.6218 94.4728 34.3528 94.7917 34.1136C95.1305 33.8744 95.5192 33.6851 95.9577 33.5455C96.3962 33.3861 96.9144 33.2665 97.5124 33.1868C98.1103 33.107 98.8478 33.0672 99.7248 33.0672V36.8342Z" fill="white"/>
<path d="M107.199 50.0488H103.552V33.1868H107.199V50.0488ZM107.528 27.8053C107.528 28.4032 107.319 28.9115 106.9 29.33C106.482 29.7286 105.973 29.928 105.375 29.928C104.777 29.928 104.269 29.7187 103.851 29.3001C103.452 28.8816 103.253 28.3833 103.253 27.8053C103.253 27.2073 103.462 26.6991 103.88 26.2805C104.299 25.8619 104.797 25.6526 105.375 25.6526C105.973 25.6526 106.482 25.8619 106.9 26.2805C107.319 26.6991 107.528 27.2073 107.528 27.8053Z" fill="white"/>
<path d="M115.869 44.9065C115.869 45.5842 115.959 46.1223 116.138 46.521C116.318 46.8997 116.567 47.1887 116.886 47.388C117.205 47.5674 117.563 47.6869 117.962 47.7467C118.381 47.8065 118.829 47.8364 119.307 47.8364V50.0488C119.048 50.0887 118.779 50.1186 118.5 50.1385C118.281 50.1585 118.022 50.1684 117.723 50.1684C117.424 50.1884 117.125 50.1983 116.826 50.1983C116.527 50.1983 116.228 50.1884 115.929 50.1684C115.63 50.1485 115.361 50.1186 115.122 50.0787C114.444 49.9392 113.916 49.6402 113.537 49.1818C113.159 48.7234 112.87 48.2151 112.67 47.6571C112.471 47.079 112.341 46.521 112.282 45.9828C112.242 45.4447 112.222 45.0261 112.222 44.7271V44.3683V26.8186H115.869V44.9065Z" fill="white"/>
<path d="M126.722 44.9065C126.722 45.5842 126.812 46.1223 126.991 46.521C127.17 46.8997 127.42 47.1887 127.739 47.388C128.057 47.5674 128.416 47.6869 128.815 47.7467C129.233 47.8065 129.682 47.8364 130.16 47.8364V50.0488C129.901 50.0887 129.632 50.1186 129.353 50.1385C129.134 50.1585 128.875 50.1684 128.576 50.1684C128.277 50.1884 127.978 50.1983 127.679 50.1983C127.38 50.1983 127.081 50.1884 126.782 50.1684C126.483 50.1485 126.214 50.1186 125.975 50.0787C125.297 49.9392 124.769 49.6402 124.39 49.1818C124.011 48.7234 123.722 48.2151 123.523 47.6571C123.324 47.079 123.194 46.521 123.134 45.9828C123.094 45.4447 123.075 45.0261 123.075 44.7271V44.3683V26.8186H126.722V44.9065Z" fill="white"/>
<path d="M144.69 38.4487C145.149 38.5085 145.637 38.658 146.155 38.8971C146.673 39.1363 147.152 39.4752 147.59 39.9137C148.049 40.3521 148.427 40.8903 148.726 41.5281C149.025 42.146 149.175 42.8635 149.175 43.6807C149.175 44.6773 149.025 45.5343 148.726 46.2519C148.427 46.9694 148.049 47.5674 147.59 48.0457C147.152 48.5041 146.663 48.8729 146.125 49.1519C145.607 49.411 145.099 49.6103 144.601 49.7499C144.122 49.8894 143.694 49.9791 143.315 50.0189C142.936 50.0389 142.687 50.0488 142.568 50.0488H134.286V28.0145H140.624C141.561 28.0145 142.468 28.1242 143.345 28.3434C144.222 28.5627 144.999 28.9115 145.677 29.3898C146.355 29.8682 146.893 30.496 147.291 31.2733C147.69 32.0307 147.889 32.9376 147.889 33.994C147.889 34.6119 147.79 35.1799 147.59 35.6981C147.391 36.1964 147.142 36.6349 146.843 37.0136C146.544 37.3923 146.195 37.7112 145.796 37.9703C145.418 38.2095 145.049 38.369 144.69 38.4487ZM142.358 47.4179C143.415 47.4179 144.242 47.079 144.84 46.4014C145.438 45.7237 145.737 44.8168 145.737 43.6807C145.737 42.6044 145.428 41.6975 144.81 40.9601C144.192 40.2226 143.285 39.8539 142.089 39.8539H137.874V47.4179H142.358ZM140.535 37.4322C140.973 37.4322 141.422 37.4222 141.88 37.4023C142.338 37.3824 142.767 37.2727 143.166 37.0734C143.564 36.8741 143.883 36.5353 144.122 36.0569C144.381 35.5785 144.511 34.8909 144.511 33.994C144.511 33.6352 144.461 33.2665 144.361 32.8878C144.262 32.4892 144.062 32.1304 143.763 31.8115C143.464 31.4926 143.036 31.2335 142.478 31.0342C141.92 30.8348 141.182 30.7352 140.265 30.7352H137.874V37.4322H138.023H140.535Z" fill="white"/>
<path d="M157.666 50.0488H154.018V33.1868H157.666V50.0488ZM157.995 27.8053C157.995 28.4032 157.785 28.9115 157.367 29.33C156.948 29.7286 156.44 29.928 155.842 29.928C155.244 29.928 154.736 29.7187 154.317 29.3001C153.919 28.8816 153.719 28.3833 153.719 27.8053C153.719 27.2073 153.929 26.6991 154.347 26.2805C154.766 25.8619 155.264 25.6526 155.842 25.6526C156.44 25.6526 156.948 25.8619 157.367 26.2805C157.785 26.6991 157.995 27.2073 157.995 27.8053Z" fill="white"/>
<path d="M167.562 44.9364C167.562 45.6141 167.651 46.1423 167.831 46.521C168.01 46.8997 168.259 47.1887 168.578 47.388C168.917 47.5873 169.286 47.7168 169.684 47.7766C170.103 47.8165 170.541 47.8364 171 47.8364V50.0488C170.741 50.0887 170.482 50.1186 170.223 50.1385C170.003 50.1585 169.734 50.1684 169.415 50.1684C169.116 50.1884 168.817 50.1983 168.518 50.1983C168.219 50.1983 167.91 50.1884 167.592 50.1684C167.293 50.1485 167.034 50.1186 166.814 50.0787C166.137 49.9591 165.608 49.6701 165.23 49.2117C164.851 48.7334 164.562 48.2151 164.363 47.6571C164.183 47.079 164.064 46.521 164.004 45.9828C163.964 45.4447 163.944 45.0261 163.944 44.7271V35.6383H161.732V33.1868H163.944V28.4032H167.562V33.1868H170.252V35.6383H167.562V44.9364Z" fill="white"/>
<defs>
<filter id="filter0_d_1374_2" x="0.631462" y="0.631462" width="63.2302" height="64.1025" filterUnits="userSpaceOnUse" color-interpolation-filters="sRGB">
<feFlood flood-opacity="0" result="BackgroundImageFix"/>
<feColorMatrix in="SourceAlpha" type="matrix" values="0 0 0 0 0 0 0 0 0 0 0 0 0 0 0 0 0 0 127 0" result="hardAlpha"/>
<feOffset dx="4.07371" dy="4.07371"/>
<feGaussianBlur stdDeviation="12.2211"/>
<feComposite in2="hardAlpha" operator="out"/>
<feColorMatrix type="matrix" values="0 0 0 0 0.0301736 0 0 0 0 0.221352 0 0 0 0 0.658333 0 0 0 0.75 0"/>
<feBlend mode="normal" in2="BackgroundImageFix" result="effect1_dropShadow_1374_2"/>
<feBlend mode="normal" in="SourceGraphic" in2="effect1_dropShadow_1374_2" result="shape"/>
</filter>
</defs>
</svg>
