<svg width="44" height="41" viewBox="0 0 44 41" fill="none" xmlns="http://www.w3.org/2000/svg">
<path fill-rule="evenodd" clip-rule="evenodd" d="M12.4448 5.33446C12.4448 2.38824 14.7663 0 17.6298 0H25.9262C28.7897 0 31.1111 2.38824 31.1111 5.33446V7.46803C31.1111 8.05706 30.6469 8.535 30.074 8.535H13.4823C12.9094 8.535 12.4452 8.05706 12.4452 7.46803L12.4448 5.33446ZM17.6298 2.13393C15.9118 2.13393 14.5187 3.56667 14.5187 5.33446V6.40106H29.0376V5.33446C29.0376 3.56667 27.6445 2.13393 25.9265 2.13393H17.6298Z" fill="#024EFB"/>
<path fill-rule="evenodd" clip-rule="evenodd" d="M0 11.7356C0 8.78936 2.32147 6.40112 5.18497 6.40112H38.3701C41.2336 6.40112 43.5551 8.78936 43.5551 11.7356V35.2055C43.5551 38.1518 41.2336 40.54 38.3701 40.54H5.18497C2.32147 40.54 0 38.1518 0 35.2055V11.7356ZM5.18497 8.53505C3.46696 8.53505 2.07392 9.96779 2.07392 11.7356V35.2055C2.07392 36.9733 3.46696 38.4061 5.18497 38.4061H38.3701C40.0881 38.4061 41.4812 36.9733 41.4812 35.2055V11.7356C41.4812 9.96779 40.0881 8.53505 38.3701 8.53505H5.18497Z" fill="#024EFB"/>
<path fill-rule="evenodd" clip-rule="evenodd" d="M0.00036417 11.7356C0.00036417 8.78936 2.32183 6.40112 5.18534 6.40112H38.3705C41.234 6.40112 43.5555 8.78936 43.5555 11.7356V18.1367C43.5555 18.6078 43.2551 19.0232 42.8166 19.1583L22.0756 25.5593C21.8816 25.6193 21.6739 25.6193 21.4798 25.5593L0.738875 19.1583C0.300341 19.0232 0 18.6078 0 18.1367L0.00036417 11.7356ZM5.18534 8.53506C3.46732 8.53506 2.07428 9.9678 2.07428 11.7356V17.3429L21.7779 23.4239L41.4816 17.3429V11.7356C41.4816 9.9678 40.0885 8.53506 38.3705 8.53506H5.18534Z" fill="#024EFB"/>
<path fill-rule="evenodd" clip-rule="evenodd" d="M20.7402 28.8047V20.27H22.8145V28.8047H20.7402Z" fill="#024EFB"/>
</svg>
