<svg width="36" height="36" viewBox="0 0 36 36" fill="none" xmlns="http://www.w3.org/2000/svg">
<path d="M17.6258 14.1182C15.7481 14.1182 13.9473 13.3745 12.6196 12.0506C11.2919 10.7267 10.5459 8.93131 10.5459 7.05911C10.5459 5.1869 11.2918 3.3914 12.6196 2.06758C13.9474 0.743761 15.7481 0 17.6258 0C19.5036 0 21.3044 0.743694 22.6321 2.06758C23.9598 3.39146 24.7058 5.1869 24.7058 7.05911C24.7058 8.93131 23.9599 10.7268 22.6321 12.0506C21.3043 13.3745 19.5036 14.1182 17.6258 14.1182ZM17.6258 2.35304C16.374 2.35304 15.1734 2.84885 14.2884 3.73151C13.4032 4.6139 12.9059 5.81092 12.9059 7.05911C12.9059 8.30729 13.4032 9.50431 14.2884 10.3867C15.1734 11.2694 16.374 11.7652 17.6258 11.7652C18.8777 11.7652 20.0782 11.2694 20.9632 10.3867C21.8485 9.50431 22.3458 8.30729 22.3458 7.05911C22.3458 5.81092 21.8485 4.6139 20.9632 3.73151C20.0782 2.84885 18.8777 2.35304 17.6258 2.35304V2.35304Z" fill="#024DFA"/>
<path d="M31.1009 35.3897H4.14993C2.88801 35.3905 1.6938 34.8191 0.904961 33.8369C0.1319 32.8891 -0.167548 31.6424 0.0908358 30.4484C0.825193 27.1144 2.50927 24.0629 4.94066 21.6601C8.31576 18.3283 12.8762 16.4629 17.6252 16.4716C21.5073 16.4383 25.2924 17.6783 28.3982 20.0012C29.0851 20.4862 29.7285 21.0293 30.3217 21.6246C32.7531 24.0278 34.4369 27.0794 35.1715 30.4135C35.4299 31.6077 35.1304 32.8543 34.3571 33.8018C33.573 34.8007 32.3727 35.3861 31.1005 35.3901L31.1009 35.3897ZM17.6254 18.8244C13.4952 18.8144 9.52865 20.4345 6.59284 23.3303C4.48572 25.4158 3.02732 28.0629 2.39202 30.9541C2.28245 31.452 2.40861 31.9728 2.73416 32.366C3.0792 32.7927 3.60047 33.0396 4.15014 33.0364H31.1011C31.6508 33.0396 32.172 32.7927 32.5171 32.366C32.8426 31.9728 32.9688 31.452 32.8592 30.9541C32.2207 28.0614 30.7579 25.414 28.6465 23.3303C28.1598 22.8237 27.6309 22.3594 27.0654 21.9421C24.3499 19.893 21.0309 18.7968 17.6255 18.8244H17.6254Z" fill="#024DFA"/>
</svg>
