<svg width="30" height="21" viewBox="0 0 30 21" fill="none" xmlns="http://www.w3.org/2000/svg">
<path d="M10.7177 20.6915C11.1032 20.2921 11.1032 19.6931 10.7177 19.2932L3.3903 11.6379L29.0361 11.6379C29.5503 11.6379 30 11.1717 30 10.6396C30 10.1069 29.5499 9.6412 29.0361 9.6412L3.3903 9.6412L10.7177 2.05222C11.1032 1.65287 11.1032 1.05385 10.7177 0.654003C10.3321 0.254654 9.75372 0.254654 9.36765 0.654003L0.305212 10.04C0.305212 10.04 0.241098 10.04 0.241098 10.1064C-0.0803699 10.4394 -0.0803699 10.972 0.241098 11.3045C0.241098 11.3045 0.305212 11.3045 0.305212 11.3709L9.36765 20.7569C9.75368 21.0912 10.3966 21.0912 10.7177 20.6914V20.6915Z" fill="white"/>
</svg>
