<svg width="42" height="41" viewBox="0 0 42 41" fill="none" xmlns="http://www.w3.org/2000/svg">
<path d="M20.8685 7.38599C13.6432 7.38599 7.77289 13.2653 7.77289 20.4816C7.77289 27.698 13.6431 33.5773 20.8685 33.5773C28.094 33.5773 33.9642 27.7071 33.9642 20.4816C33.9642 13.2562 28.094 7.38599 20.8685 7.38599ZM20.8685 31.771C14.6458 31.771 9.57918 26.7043 9.57918 20.4816C9.57918 14.2589 14.6458 9.19228 20.8685 9.19228C27.0912 9.19228 32.1579 14.2589 32.1579 20.4816C32.1579 26.7043 27.0912 31.771 20.8685 31.771Z" fill="#024EFB" stroke="#024EFB" stroke-width="0.4"/>
<path d="M21.9797 19.5422H21.3567H21.3025H19.7489C18.8817 19.5422 18.1682 18.8379 18.1682 17.9616C18.1682 17.0856 18.8726 16.3809 19.7489 16.3809H24.4543C24.9511 16.3809 25.3574 15.9745 25.3574 15.4778C25.3574 14.9811 24.951 14.5747 24.4543 14.5747L21.7718 14.5751V13.0757C21.7718 12.5789 21.3655 12.1726 20.8687 12.1726C20.372 12.1726 19.9657 12.579 19.9657 13.0757V14.5751H19.7581C17.8886 14.5751 16.3713 16.0924 16.3713 17.9619C16.3713 19.8314 17.8886 21.3487 19.7581 21.3487H22.016H22.0339C22.8828 21.3758 23.5692 22.0713 23.5692 22.9202C23.5692 23.7873 22.8649 24.5008 21.9885 24.5008H17.2831C16.7864 24.5008 16.38 24.9072 16.38 25.4039C16.38 25.9006 16.7864 26.307 17.2831 26.307L19.9656 26.3066V27.8781C19.9656 28.3749 20.372 28.7812 20.8687 28.7812C21.3654 28.7812 21.7718 28.3748 21.7718 27.8781V26.3066H21.9793C23.8489 26.3066 25.3661 24.7894 25.3661 22.9198C25.3665 21.0503 23.8492 19.5421 21.9797 19.5421L21.9797 19.5422Z" fill="#024EFB" stroke="#024EFB" stroke-width="0.4"/>
<path d="M39.6903 17.6553L38.9318 16.8968C38.3717 16.3367 38.155 15.5149 38.3717 14.7564L38.6609 13.7267C39.2569 11.6043 38.0196 9.40059 35.8972 8.80459L35.1387 8.58788C34.3619 8.37116 33.766 7.739 33.5943 6.94423L33.4226 6.17659C33.1968 5.13805 32.5829 4.24377 31.6795 3.66576C30.7764 3.08774 29.7108 2.89812 28.6719 3.12397L26.9562 3.5029C26.2248 3.6563 25.4751 3.43959 24.9513 2.91576L23.6961 1.66054C22.1425 0.106967 19.6049 0.106967 18.0514 1.66054L17.2929 2.41904C16.7328 2.9791 15.911 3.19582 15.1525 2.9791L14.1227 2.68994C12.0003 2.09397 9.79666 3.33126 9.20066 5.45365L8.98395 6.21215C8.76723 6.98893 8.13507 7.58486 7.3403 7.75654L6.57266 7.92821C5.53412 8.15406 4.63984 8.76798 4.06183 9.67137C3.48381 10.5656 3.29419 11.6401 3.52004 12.6789L3.89929 14.413C4.06182 15.1444 3.83597 15.8941 3.31214 16.4179L2.05693 17.6731C1.29843 18.4228 0.891785 19.4342 0.891785 20.4999C0.891785 21.5655 1.30726 22.5681 2.05693 23.3266L2.81543 24.0851C3.37548 24.6452 3.5922 25.467 3.37548 26.2255L3.08632 27.2553C2.49036 29.3777 3.72765 31.5814 5.85004 32.1774L6.60854 32.3941C7.38531 32.6108 7.98124 33.243 8.15292 34.0377L8.32459 34.8054C8.79424 36.9549 10.9167 38.3276 13.075 37.8671L14.809 37.4879C15.5404 37.3253 16.2901 37.5512 16.8139 38.075L18.0692 39.3302C18.8459 40.107 19.8665 40.4954 20.8959 40.4954C21.9257 40.4954 22.937 40.107 23.7227 39.3302L24.4812 38.5717C25.0413 38.0117 25.8631 37.7949 26.6216 38.0117L27.6513 38.3008C29.7737 38.8968 31.9774 37.6595 32.5734 35.5371L32.7901 34.7786C33.0068 34.0018 33.639 33.4059 34.4338 33.2342L35.2014 33.0626C36.24 32.8367 37.1342 32.2228 37.7123 31.3194C38.2903 30.4251 38.4799 29.3507 38.254 28.3118L37.8748 26.5778C37.7123 25.8464 37.9381 25.0967 38.4619 24.5729L39.7171 23.3177C40.4756 22.5592 40.8823 21.5565 40.8823 20.4909C40.8826 19.4253 40.4492 18.4138 39.6904 17.6553L39.6903 17.6553ZM38.4171 22.0265L37.1616 23.2817C36.1952 24.248 35.798 25.6208 36.0868 26.9485L36.4661 28.6826C36.5924 29.2515 36.484 29.8386 36.1681 30.3262C35.8518 30.8138 35.3642 31.1572 34.7954 31.2835L34.0277 31.4552C32.5825 31.7714 31.4265 32.8458 31.0293 34.2731L30.8126 35.0316C30.4875 36.1876 29.2773 36.874 28.1122 36.5397L27.0824 36.2506C25.6917 35.8622 24.2015 36.2506 23.1809 37.2711L22.4224 38.0296C22.0069 38.4451 21.456 38.671 20.878 38.671C20.3 38.671 19.7491 38.4451 19.3336 38.0296L18.0692 36.7747C17.3107 36.0162 16.299 35.6007 15.2513 35.6007C14.9713 35.6007 14.6824 35.6278 14.4024 35.6911L12.6684 36.0704C11.4944 36.3233 10.3201 35.5736 10.0672 34.3996L9.89549 33.632C9.57923 32.1868 8.5048 31.0308 7.07759 30.6336L6.31909 30.4168C5.16306 30.0918 4.47666 28.8816 4.81091 27.7164L5.10007 26.6867C5.48846 25.296 5.10007 23.8057 4.07951 22.7852L3.32101 22.0267C2.90554 21.6112 2.67969 21.0603 2.67969 20.4823C2.67969 19.9043 2.90554 19.3533 3.32101 18.9379L4.57623 17.6823C5.5426 16.716 5.93982 15.3432 5.65097 14.0155L5.27172 12.2814C5.14541 11.7126 5.25377 11.1254 5.56971 10.6378C5.88596 10.1502 6.37357 9.80681 6.94241 9.68053L7.71005 9.50886C9.15525 9.19261 10.3113 8.11818 10.7085 6.69096L10.9252 5.93246C11.2503 4.77643 12.4605 4.09004 13.6256 4.42428L14.6554 4.71344C16.0461 5.10183 17.5363 4.71344 18.5569 3.69289L19.3154 2.93439C19.7309 2.51891 20.2818 2.29306 20.8598 2.29306C21.4378 2.29306 21.9887 2.51891 22.4042 2.93439L23.6686 4.18928C24.6349 5.15565 26.0077 5.55287 27.3354 5.26403L29.0695 4.88478C29.6384 4.75846 30.2255 4.86682 30.7131 5.18276C31.2007 5.49901 31.5441 5.98662 31.6704 6.55546L31.8421 7.3231C32.1583 8.7683 33.2327 9.92433 34.66 10.3216L35.4185 10.5383C35.9785 10.7008 36.4482 11.0621 36.7371 11.5768C37.0262 12.0827 37.0892 12.6786 36.9358 13.2387L36.6467 14.2684C36.2583 15.6591 36.6467 17.1494 37.6672 18.17L38.4257 18.9285C38.8412 19.3439 39.067 19.8948 39.067 20.4728C39.0674 21.0509 38.8236 21.6109 38.4172 22.0264L38.4171 22.0265Z" fill="#024EFB" stroke="#024EFB" stroke-width="0.4"/>
</svg>
