<svg width="61" height="61" viewBox="0 0 61 61" fill="none" xmlns="http://www.w3.org/2000/svg">
<path d="M10.1732 10.0182C8.43378 10.0182 6.92969 11.37 6.92969 13.1093V39.3426C6.92969 41.0823 8.43378 42.4507 10.1732 42.4507H25.2749L22.9605 47.8562H20.9839C20.3866 47.8562 19.9029 48.3404 19.9029 48.9372C19.9029 49.5345 20.387 50.0182 20.9839 50.0182H40.4438C41.0411 50.0182 41.5248 49.5341 41.5248 48.9372C41.5248 48.34 41.0407 47.8562 40.4438 47.8562H38.5012L36.5756 42.4507H51.2545C52.9939 42.4507 54.498 41.0823 54.498 39.3426V13.1093C54.498 11.3696 52.9943 10.0182 51.2545 10.0182H10.1732ZM10.1732 12.1803H51.2553C51.9117 12.1803 52.3363 12.6131 52.3363 13.1093V39.3426C52.3363 39.8388 51.9113 40.2887 51.2553 40.2887H10.1732C9.51674 40.2887 9.09219 39.8392 9.09219 39.3426V13.1093C9.09219 12.6131 9.51713 12.1803 10.1732 12.1803ZM27.6398 42.4509H34.2783L36.2209 47.8564H25.3249L27.6398 42.4509Z" fill="#3472FF"/>
<path d="M27.8167 23.8953C28.3882 23.8953 28.888 23.3951 28.888 22.8241V19.2526C28.888 18.6811 28.3877 18.1813 27.8167 18.1813C27.2457 18.1808 26.7455 18.6811 26.7455 19.2526V22.8241C26.7455 23.3951 27.2457 23.8953 27.8167 23.8953Z" fill="#3472FF"/>
<path d="M32.8169 23.8953C33.3884 23.8953 33.8881 23.3951 33.8881 22.8241V19.2526C33.8881 18.6811 33.3879 18.1813 32.8169 18.1813C32.2454 18.1808 31.7451 18.6811 31.7451 19.2526V22.8241C31.7451 23.3951 32.2454 23.8953 32.8169 23.8953Z" fill="#3472FF"/>
<path d="M38.9598 24.2524C38.3883 24.1094 37.8168 24.5379 37.7456 25.1094C37.6026 25.9664 37.2453 26.6097 36.8168 27.3954C35.4595 29.6815 33.031 31.0382 30.3884 31.0382C28.3883 31.0382 26.4596 30.2525 25.0311 28.824C24.6026 28.3955 23.9599 28.3955 23.5309 28.824C23.1023 29.2525 23.1023 29.8953 23.5309 30.3243C25.3879 32.1814 27.8169 33.1813 30.3884 33.1813C33.7456 33.1813 36.9599 31.3955 38.6744 28.4668C39.2459 27.538 39.6744 26.681 39.8886 25.538C39.8881 24.8953 39.5309 24.3955 38.9599 24.2525L38.9598 24.2524Z" fill="#3472FF"/>
</svg>
