<svg width="48" height="41" viewBox="0 0 48 41" fill="none" xmlns="http://www.w3.org/2000/svg">
<path d="M3.24351 0.0400391C1.50409 0.0400391 0 1.39181 0 3.13114V29.3644C0 31.1041 1.50409 32.4725 3.24351 32.4725H18.3452L16.0308 37.878H14.0542C13.4569 37.878 12.9732 38.3622 12.9732 38.959C12.9732 39.5563 13.4573 40.04 14.0542 40.04H33.5141C34.1114 40.04 34.5951 39.5559 34.5951 38.959C34.5951 38.3618 34.111 37.878 33.5141 37.878H31.5715L29.6459 32.4725H44.3248C46.0642 32.4725 47.5683 31.1041 47.5683 29.3644V3.13114C47.5683 1.39142 46.0646 0.0400391 44.3248 0.0400391H3.24351ZM3.24351 2.20206H44.3256C44.982 2.20206 45.4066 2.63493 45.4066 3.13114V29.3644C45.4066 29.8606 44.9817 30.3104 44.3256 30.3104H3.24351C2.58705 30.3104 2.1625 29.861 2.1625 29.3644V3.13114C2.1625 2.63493 2.58745 2.20206 3.24351 2.20206ZM20.7102 32.4727H27.3486L29.2912 37.8782H18.3952L20.7102 32.4727Z" fill="#024EFB"/>
<path d="M20.887 13.9171C21.4585 13.9171 21.9583 13.4169 21.9583 12.8459V9.27437C21.9583 8.70287 21.458 8.20313 20.887 8.20313C20.316 8.20263 19.8158 8.70288 19.8158 9.27437V12.8459C19.8158 13.4169 20.316 13.9171 20.887 13.9171Z" fill="#024EFB"/>
<path d="M25.8872 13.9171C26.4587 13.9171 26.9584 13.4169 26.9584 12.8459V9.27437C26.9584 8.70287 26.4582 8.20313 25.8872 8.20313C25.3157 8.20263 24.8154 8.70288 24.8154 9.27437V12.8459C24.8154 13.4169 25.3157 13.9171 25.8872 13.9171Z" fill="#024EFB"/>
<path d="M32.0301 14.2743C31.4586 14.1313 30.8871 14.5598 30.8159 15.1313C30.6729 15.9883 30.3156 16.6316 29.8871 17.4173C28.5298 19.7034 26.1014 21.0601 23.4587 21.0601C21.4587 21.0601 19.5299 20.2744 18.1015 18.8459C17.6729 18.4174 17.0302 18.4174 16.6012 18.8459C16.1727 19.2744 16.1727 19.9172 16.6012 20.3462C18.4582 22.2033 20.8872 23.2032 23.4587 23.2032C26.8159 23.2032 30.0303 21.4174 31.7447 18.4887C32.3162 17.5599 32.7447 16.7029 32.9589 15.5599C32.9584 14.9172 32.6012 14.4174 32.0302 14.2744L32.0301 14.2743Z" fill="#024EFB"/>
</svg>
