<svg width="30" height="21" viewBox="0 0 30 21" fill="none" xmlns="http://www.w3.org/2000/svg">
<path d="M19.2823 0.308547C18.8968 0.707901 18.8968 1.30692 19.2823 1.70677L26.6097 9.36219H0.963943C0.449685 9.36219 0 9.82841 0 10.3606C0 10.8932 0.450144 11.3589 0.963943 11.3589H26.6097L19.2823 18.948C18.8968 19.3474 18.8968 19.9464 19.2823 20.3462C19.6679 20.7456 20.2463 20.7456 20.6323 20.3462L29.6948 10.9601C29.6948 10.9601 29.7589 10.9601 29.7589 10.8937C30.0804 10.5607 30.0804 10.0281 29.7589 9.69566C29.7589 9.69566 29.6948 9.69566 29.6948 9.62926L20.6323 0.243119C20.2463 -0.0912213 19.6034 -0.0912212 19.2823 0.308594V0.308547Z" fill="white"/>
</svg>
