<svg width="125" height="25" viewBox="0 0 125 25" fill="none" xmlns="http://www.w3.org/2000/svg">
<path d="M1.89 7.4H7.2C8.532 7.4 9.714 7.664 10.746 8.192C11.778 8.72 12.576 9.464 13.14 10.424C13.716 11.372 14.004 12.464 14.004 13.7C14.004 14.936 13.716 16.034 13.14 16.994C12.576 17.942 11.778 18.68 10.746 19.208C9.714 19.736 8.532 20 7.2 20H1.89V7.4ZM7.092 18.434C8.112 18.434 9.006 18.236 9.774 17.84C10.554 17.444 11.154 16.892 11.574 16.184C11.994 15.464 12.204 14.636 12.204 13.7C12.204 12.764 11.994 11.942 11.574 11.234C11.154 10.514 10.554 9.956 9.774 9.56C9.006 9.164 8.112 8.966 7.092 8.966H3.69V18.434H7.092ZM20.5951 20.108C19.6471 20.108 18.7951 19.898 18.0391 19.478C17.2831 19.058 16.6891 18.482 16.2571 17.75C15.8371 17.006 15.6271 16.166 15.6271 15.23C15.6271 14.294 15.8371 13.46 16.2571 12.728C16.6891 11.984 17.2831 11.408 18.0391 11C18.7951 10.58 19.6471 10.37 20.5951 10.37C21.5431 10.37 22.3891 10.58 23.1331 11C23.8891 11.408 24.4771 11.984 24.8971 12.728C25.3291 13.46 25.5451 14.294 25.5451 15.23C25.5451 16.166 25.3291 17.006 24.8971 17.75C24.4771 18.482 23.8891 19.058 23.1331 19.478C22.3891 19.898 21.5431 20.108 20.5951 20.108ZM20.5951 18.596C21.2071 18.596 21.7531 18.458 22.2331 18.182C22.7251 17.894 23.1091 17.498 23.3851 16.994C23.6611 16.478 23.7991 15.89 23.7991 15.23C23.7991 14.57 23.6611 13.988 23.3851 13.484C23.1091 12.968 22.7251 12.572 22.2331 12.296C21.7531 12.02 21.2071 11.882 20.5951 11.882C19.9831 11.882 19.4311 12.02 18.9391 12.296C18.4591 12.572 18.0751 12.968 17.7871 13.484C17.5111 13.988 17.3731 14.57 17.3731 15.23C17.3731 15.89 17.5111 16.478 17.7871 16.994C18.0751 17.498 18.4591 17.894 18.9391 18.182C19.4311 18.458 19.9831 18.596 20.5951 18.596ZM42.1072 10.46L38.5432 20H36.8872L34.1332 12.764L31.3432 20H29.6872L26.1412 10.46H27.7792L30.5512 18.056L33.4312 10.46H34.8892L37.7152 18.092L40.5592 10.46H42.1072ZM48.9547 10.37C50.1667 10.37 51.1267 10.724 51.8347 11.432C52.5547 12.128 52.9147 13.154 52.9147 14.51V20H51.1867V14.708C51.1867 13.784 50.9647 13.088 50.5207 12.62C50.0767 12.152 49.4407 11.918 48.6127 11.918C47.6767 11.918 46.9387 12.194 46.3987 12.746C45.8587 13.286 45.5887 14.066 45.5887 15.086V20H43.8607V10.46H45.5167V11.9C45.8647 11.408 46.3327 11.03 46.9207 10.766C47.5207 10.502 48.1987 10.37 48.9547 10.37ZM56.1126 6.644H57.8406V20H56.1126V6.644ZM65.226 20.108C64.278 20.108 63.426 19.898 62.67 19.478C61.914 19.058 61.32 18.482 60.888 17.75C60.468 17.006 60.258 16.166 60.258 15.23C60.258 14.294 60.468 13.46 60.888 12.728C61.32 11.984 61.914 11.408 62.67 11C63.426 10.58 64.278 10.37 65.226 10.37C66.174 10.37 67.02 10.58 67.764 11C68.52 11.408 69.108 11.984 69.528 12.728C69.96 13.46 70.176 14.294 70.176 15.23C70.176 16.166 69.96 17.006 69.528 17.75C69.108 18.482 68.52 19.058 67.764 19.478C67.02 19.898 66.174 20.108 65.226 20.108ZM65.226 18.596C65.838 18.596 66.384 18.458 66.864 18.182C67.356 17.894 67.74 17.498 68.016 16.994C68.292 16.478 68.43 15.89 68.43 15.23C68.43 14.57 68.292 13.988 68.016 13.484C67.74 12.968 67.356 12.572 66.864 12.296C66.384 12.02 65.838 11.882 65.226 11.882C64.614 11.882 64.062 12.02 63.57 12.296C63.09 12.572 62.706 12.968 62.418 13.484C62.142 13.988 62.004 14.57 62.004 15.23C62.004 15.89 62.142 16.478 62.418 16.994C62.706 17.498 63.09 17.894 63.57 18.182C64.062 18.458 64.614 18.596 65.226 18.596ZM75.9518 10.37C77.2718 10.37 78.2798 10.694 78.9758 11.342C79.6838 11.99 80.0378 12.956 80.0378 14.24V20H78.3998V18.74C78.1118 19.184 77.6978 19.526 77.1578 19.766C76.6298 19.994 75.9998 20.108 75.2678 20.108C74.1998 20.108 73.3418 19.85 72.6938 19.334C72.0578 18.818 71.7398 18.14 71.7398 17.3C71.7398 16.46 72.0458 15.788 72.6578 15.284C73.2698 14.768 74.2418 14.51 75.5738 14.51H78.3098V14.168C78.3098 13.424 78.0938 12.854 77.6618 12.458C77.2298 12.062 76.5938 11.864 75.7538 11.864C75.1898 11.864 74.6378 11.96 74.0978 12.152C73.5578 12.332 73.1018 12.578 72.7298 12.89L72.0098 11.594C72.5018 11.198 73.0898 10.898 73.7738 10.694C74.4578 10.478 75.1838 10.37 75.9518 10.37ZM75.5558 18.776C76.2158 18.776 76.7858 18.632 77.2658 18.344C77.7458 18.044 78.0938 17.624 78.3098 17.084V15.752H75.6458C74.1818 15.752 73.4498 16.244 73.4498 17.228C73.4498 17.708 73.6358 18.086 74.0078 18.362C74.3798 18.638 74.8958 18.776 75.5558 18.776ZM92.2884 6.644V20H90.6324V18.488C90.2484 19.016 89.7624 19.418 89.1744 19.694C88.5864 19.97 87.9384 20.108 87.2304 20.108C86.3064 20.108 85.4784 19.904 84.7464 19.496C84.0144 19.088 83.4384 18.518 83.0184 17.786C82.6104 17.042 82.4064 16.19 82.4064 15.23C82.4064 14.27 82.6104 13.424 83.0184 12.692C83.4384 11.96 84.0144 11.39 84.7464 10.982C85.4784 10.574 86.3064 10.37 87.2304 10.37C87.9144 10.37 88.5444 10.502 89.1204 10.766C89.6964 11.018 90.1764 11.396 90.5604 11.9V6.644H92.2884ZM87.3744 18.596C87.9744 18.596 88.5204 18.458 89.0124 18.182C89.5044 17.894 89.8884 17.498 90.1644 16.994C90.4404 16.478 90.5784 15.89 90.5784 15.23C90.5784 14.57 90.4404 13.988 90.1644 13.484C89.8884 12.968 89.5044 12.572 89.0124 12.296C88.5204 12.02 87.9744 11.882 87.3744 11.882C86.7624 11.882 86.2104 12.02 85.7184 12.296C85.2384 12.572 84.8544 12.968 84.5664 13.484C84.2904 13.988 84.1524 14.57 84.1524 15.23C84.1524 15.89 84.2904 16.478 84.5664 16.994C84.8544 17.498 85.2384 17.894 85.7184 18.182C86.2104 18.458 86.7624 18.596 87.3744 18.596Z" fill="#024EFB"/>
<path d="M122.226 9.90904L121.087 8.44263L115.884 13.2098V0H114.117V13.2098L108.914 8.44263L107.774 9.90904L115 16.5297L122.226 9.90904ZM123.233 13.2985V18.0818H106.767V13.2985H105V18.5878C105 19.3667 105.584 20 106.301 20H123.699C124.417 20 125 19.3664 125 18.5878V13.2985H123.233Z" fill="#024EFB"/>
</svg>
