<svg width="50" height="71" viewBox="0 0 50 71" fill="none" xmlns="http://www.w3.org/2000/svg">
<path d="M1.08558 70.5714H48.9172C49.5155 70.5714 50 70.0451 50 69.3951V1.7482C50 1.09826 49.5128 0.571904 48.9172 0.571904L20.6299 0.571411C20.489 0.571411 20.3484 0.603908 20.2156 0.662502C20.0992 0.715678 19.999 0.794955 19.9097 0.883088C19.8961 0.89786 19.8771 0.900813 19.8635 0.915585L0.316827 22.1499C0.300511 22.1705 0.29507 22.1942 0.276486 22.2149C0.200341 22.3119 0.130089 22.4118 0.0838508 22.5324C0.0299148 22.6767 0 22.8298 0 22.9825V69.3939C0 70.0438 0.48724 70.5706 1.08598 70.5706L1.08558 70.5714ZM47.8311 68.2183H2.16816V23.5187C7.75623 17.9627 16.4771 22.4803 16.5665 22.5246C16.978 22.7393 17.4653 22.66 17.7957 22.3158C18.1234 21.9687 18.2209 21.4394 18.0341 20.9894C17.9933 20.8865 14.0515 10.9925 21.1149 2.92526H47.8311L47.8311 68.2183ZM15.3865 9.10998C14.3222 13.2479 14.7882 17.0895 15.3266 19.4716C13.2585 18.7306 9.98779 17.9512 6.6469 18.604L15.3865 9.10998Z" fill="#024EFB"/>
<path d="M17.1133 32.0242C16.7426 31.5564 16.2685 31.1891 15.7001 30.9183C15.1317 30.6504 14.4572 30.5155 13.6859 30.5155H7.5752V47.5032H11.6499V41.0328H13.0739C14.7523 41.0328 16.0277 40.5917 16.8966 39.7122C17.7655 38.8328 18.1988 37.5123 18.1988 35.7505C18.1988 35.0213 18.1122 34.3358 17.9364 33.6947C17.7601 33.0473 17.4867 32.4943 17.1133 32.0236L17.1133 32.0242ZM13.5879 37.3419C13.3174 37.6773 12.9276 37.8417 12.4158 37.8417H11.6493V33.7038H12.4153C13.466 33.7038 13.9908 34.3921 13.9908 35.7742C13.9913 36.4862 13.8589 37.0096 13.5879 37.342L13.5879 37.3419Z" fill="#024EFB"/>
<path d="M20.0366 30.5129V47.5006H25.9497C27.1326 47.5006 28.0532 47.2682 28.7114 46.8004C29.3667 46.3327 29.8622 45.7064 30.1894 44.918C30.5171 44.1327 30.7174 43.2296 30.7931 42.2095C30.8661 41.1828 30.9041 40.1183 30.9041 39.0094C30.9041 37.8976 30.8661 36.8302 30.7931 35.8094C30.7174 34.7858 30.5171 33.8797 30.1894 33.0978C29.8617 32.3125 29.3663 31.6862 28.7114 31.2184C28.056 30.7507 27.1359 30.5153 25.9497 30.5153H20.0366V30.5129ZM26.3989 34.6307C26.5235 35.0103 26.6046 35.5514 26.64 36.2482C26.6781 36.9483 26.6966 37.8656 26.6966 39.0099C26.6966 40.1512 26.6776 41.0714 26.64 41.7687C26.6046 42.4659 26.5235 43.0071 26.3989 43.3862C26.2769 43.7658 26.0956 44.0155 25.8627 44.1361C25.6297 44.2538 25.3156 44.3153 24.9204 44.3153H24.1109V33.7006H24.9204C25.3156 33.7006 25.6297 33.7592 25.8627 33.8769C26.0983 33.998 26.2769 34.2481 26.3989 34.6307Z" fill="#024EFB"/>
<path d="M37.2319 40.5062H42.0943V37.0329H37.2319V34.1299H42.4243V30.5124H33.1572V47.5H37.2319V40.5062Z" fill="#024EFB"/>
</svg>
