<svg width="407" height="251" viewBox="0 0 407 251" fill="none" xmlns="http://www.w3.org/2000/svg">
<path d="M339.716 237.807H324.764V251H339.716V237.807Z" fill="#F0F0F0"/>
<path d="M407 111.154C407.006 131.048 401.657 150.576 391.513 167.689C381.369 184.803 366.806 198.869 349.351 208.413C348.361 208.954 347.359 209.482 346.352 209.992C342.616 211.896 338.774 213.582 334.843 215.04C333.277 215.63 331.696 216.178 330.098 216.685C329.944 216.738 329.786 216.791 329.632 216.835C313.983 221.803 297.425 223.225 281.158 220.998C264.892 218.771 249.325 212.95 235.588 203.958C233.745 202.753 231.941 201.495 230.174 200.185C229.176 199.442 228.191 198.685 227.219 197.907C224.47 195.726 221.832 193.414 219.303 190.972C208.553 180.646 200.003 168.251 194.169 154.534C188.336 140.817 185.338 126.061 185.358 111.154C185.358 49.9476 234.972 0.333191 296.179 0.333191C357.385 0.333191 407 49.9476 407 111.154Z" fill="#E3E3E3" fill-opacity="0.8"/>
<path d="M322.644 162.871L320.146 172.317L329.631 216.834C304.133 224.866 276.596 223.45 252.057 212.846L259.462 181.794L259.709 164.951L260.513 109.413L260.716 109.307C260.728 109.3 260.741 109.294 260.755 109.29L279.621 99.6016L312.173 98.788L336.461 110.618L336.276 111.308L322.644 162.871Z" fill="#3F3D56"/>
<path d="M335.952 244.027C335.205 243.137 334.661 242.094 334.361 240.972C334.06 239.849 334.009 238.674 334.211 237.53C334.413 236.385 334.864 235.299 335.532 234.348C336.199 233.396 337.067 232.603 338.075 232.023L332.791 204.271L346.342 209.918L349.282 235.406C350.143 237.163 350.331 239.175 349.808 241.061C349.285 242.946 348.089 244.575 346.446 245.637C344.803 246.7 342.827 247.123 340.893 246.826C338.959 246.529 337.201 245.533 335.952 244.027Z" fill="#9E616A"/>
<path d="M331.566 111.481L335.043 110.35C335.043 110.35 346.073 117.429 345.023 134.542C345.023 134.542 345.437 143.398 345.042 149.292C344.589 156.052 350.657 223.229 350.657 223.229H331.003L322.58 162.395L331.566 111.481Z" fill="#3F3D56"/>
<path d="M320.165 68.4221C320.165 72.885 318.841 77.2477 316.362 80.9585C313.883 84.6692 310.358 87.5614 306.235 89.2693C302.112 90.9772 297.575 91.424 293.198 90.5534C288.821 89.6827 284.8 87.5336 281.644 84.3779C278.489 81.2221 276.339 77.2015 275.469 72.8243C274.598 68.4471 275.045 63.9101 276.753 59.7869C278.461 55.6637 281.353 52.1396 285.064 49.6601C288.774 47.1807 293.137 45.8573 297.6 45.8572H297.6C300.556 45.8499 303.484 46.4248 306.218 47.5491C308.952 48.6734 311.437 50.3252 313.533 52.4101C315.628 54.495 317.292 56.9722 318.43 59.7003C319.568 62.4283 320.157 65.3538 320.165 68.3097C320.165 68.3472 320.165 68.3846 320.165 68.4221Z" fill="#9E616A"/>
<path d="M275.111 38.1135C277.754 32.4294 282.87 33.5532 287.343 35.4799C293.009 34.2233 298.397 30.461 304.501 32.686C310.514 41.4312 330.701 38.8582 326.407 53.0956C326.401 56.5072 332.826 54.5214 331.704 60.1088C335.108 70.8616 319.419 91.2259 310.412 86.9375C312.639 82.8551 317.728 73.5825 310.01 72.6628C293.408 88.1106 308.297 43.2467 287.437 56.2938C280.53 62.6148 271.074 44.4361 275.111 38.1135Z" fill="#2F2E41"/>
<path d="M309.641 219.119L273.621 211.985L282.857 165.352C295.602 170.173 307.608 172.551 318.877 172.486C309.029 186.929 304.555 202.436 309.641 219.119Z" fill="#E4E4E4"/>
<path d="M304.403 221.858L268.384 214.724C265.427 193.598 268.115 177.692 277.62 168.092C290.364 172.912 302.371 175.29 313.639 175.226C307.686 190.06 304.554 205.875 304.403 221.858Z" fill="#3472FF"/>
<path d="M280.538 208.868C280.395 207.715 280.001 206.607 279.384 205.622C278.766 204.637 277.941 203.8 276.965 203.169C275.989 202.538 274.886 202.129 273.735 201.97C272.584 201.811 271.411 201.906 270.301 202.25L253.573 179.484L248.482 193.254L265.148 212.761C265.848 214.588 267.194 216.095 268.931 216.996C270.668 217.897 272.675 218.13 274.572 217.65C276.469 217.17 278.124 216.011 279.224 214.393C280.323 212.774 280.791 210.809 280.538 208.868Z" fill="#9E616A"/>
<path d="M265.539 110.614L262.508 108.567C262.508 108.567 244.478 110.246 240.768 126.986C240.768 126.986 238.056 137.043 236.81 142.817C236.169 145.787 227.625 174.481 227.625 174.481L256.599 206.144L264.515 194.27L256.599 174.481L265.539 110.614Z" fill="#3F3D56"/>
<path d="M14.9521 55.972H0V69.165H14.9521V55.972Z" fill="#3472FF"/>
<path d="M47.0556 108.744H32.1035V121.937H47.0556V108.744Z" fill="#3472FF"/>
<path d="M70.3622 198.896H55.4102V212.089H70.3622V198.896Z" fill="#3472FF"/>
<path d="M55.5188 25.6852C55.0756 25.6852 54.6505 25.8613 54.3371 26.1747C54.0237 26.4881 53.8477 26.9132 53.8477 27.3564C53.8477 27.7996 54.0237 28.2247 54.3371 28.5381C54.6505 28.8515 55.0756 29.0276 55.5188 29.0276H177.533C177.976 29.0265 178.4 28.85 178.712 28.5367C179.025 28.2234 179.2 27.799 179.2 27.3564C179.2 26.9138 179.025 26.4894 178.712 26.1761C178.4 25.8628 177.976 25.6863 177.533 25.6852H55.5188Z" fill="#CCCCCC"/>
<path d="M55.52 35.7122C55.3004 35.7115 55.0828 35.7541 54.8797 35.8376C54.6766 35.9211 54.4919 36.0437 54.3362 36.1986C54.1806 36.3535 54.057 36.5375 53.9725 36.7402C53.888 36.9429 53.8442 37.1602 53.8438 37.3798C53.8433 37.5994 53.8861 37.8169 53.9698 38.02C54.0534 38.223 54.1763 38.4075 54.3313 38.5631C54.4863 38.7186 54.6704 38.842 54.8732 38.9264C55.0759 39.0107 55.2933 39.0542 55.5129 39.0545H132.652C133.095 39.0545 133.52 38.8784 133.833 38.565C134.147 38.2516 134.323 37.8265 134.323 37.3833C134.323 36.9401 134.147 36.515 133.833 36.2016C133.52 35.8882 133.095 35.7122 132.652 35.7122H55.52Z" fill="#CCCCCC"/>
<path d="M39.6868 145.741C39.2436 145.741 38.8185 145.918 38.5051 146.231C38.1917 146.544 38.0156 146.969 38.0156 147.413C38.0156 147.856 38.1917 148.281 38.5051 148.594C38.8185 148.908 39.2436 149.084 39.6868 149.084H161.701C162.144 149.083 162.568 148.906 162.88 148.593C163.193 148.28 163.368 147.855 163.368 147.413C163.368 146.97 163.193 146.546 162.88 146.232C162.568 145.919 162.144 145.742 161.701 145.741H39.6868Z" fill="#CCCCCC"/>
<path d="M39.6879 155.768C39.4683 155.768 39.2508 155.81 39.0477 155.894C38.8446 155.977 38.6599 156.1 38.5042 156.255C38.3485 156.41 38.2249 156.594 38.1404 156.796C38.0559 156.999 38.0122 157.216 38.0117 157.436C38.0113 157.656 38.0541 157.873 38.1377 158.076C38.2214 158.279 38.3442 158.464 38.4992 158.619C38.6543 158.775 38.8384 158.898 39.0412 158.983C39.2439 159.067 39.4613 159.11 39.6809 159.111H116.82C117.263 159.111 117.688 158.935 118.001 158.621C118.315 158.308 118.491 157.883 118.491 157.439C118.491 156.996 118.315 156.571 118.001 156.258C117.688 155.944 117.263 155.768 116.82 155.768H39.6879Z" fill="#CCCCCC"/>
<path d="M109.171 231.496C108.728 231.496 108.303 231.672 107.989 231.985C107.676 232.299 107.5 232.724 107.5 233.167C107.5 233.61 107.676 234.035 107.989 234.349C108.303 234.662 108.728 234.838 109.171 234.838H231.185C231.628 234.837 232.052 234.661 232.365 234.347C232.677 234.034 232.853 233.61 232.853 233.167C232.853 232.725 232.677 232.3 232.365 231.987C232.052 231.673 231.628 231.497 231.185 231.496H109.171Z" fill="#CCCCCC"/>
<path d="M109.17 241.523C108.951 241.522 108.733 241.565 108.53 241.648C108.327 241.732 108.142 241.854 107.987 242.009C107.831 242.164 107.707 242.348 107.623 242.551C107.538 242.754 107.495 242.971 107.494 243.19C107.494 243.41 107.536 243.628 107.62 243.831C107.704 244.034 107.827 244.218 107.982 244.374C108.137 244.529 108.321 244.653 108.524 244.737C108.726 244.821 108.944 244.865 109.163 244.865H186.302C186.745 244.865 187.17 244.689 187.484 244.376C187.797 244.062 187.973 243.637 187.973 243.194C187.973 242.751 187.797 242.326 187.484 242.012C187.17 241.699 186.745 241.523 186.302 241.523H109.17Z" fill="#CCCCCC"/>
<path d="M7.03018 62.6281C10.6122 61.8415 14.0008 60.3466 16.9966 58.2314C19.9925 56.1161 22.5352 53.4232 24.4752 50.311C25.5766 48.5415 26.4642 46.6477 27.1196 44.6692C27.1691 44.5054 27.1531 44.3287 27.0749 44.1765C26.9967 44.0242 26.8625 43.9083 26.7005 43.8531C26.5385 43.798 26.3614 43.8078 26.2066 43.8807C26.0517 43.9535 25.9312 44.0837 25.8704 44.2437C24.7459 47.5505 22.971 50.5989 20.6502 53.2093C18.3295 55.8197 15.5098 57.9393 12.3574 59.4432C10.581 60.292 8.70988 60.9261 6.7835 61.3321C5.95254 61.5073 6.19747 62.8038 7.03018 62.6281Z" fill="#3F3D56"/>
<path d="M19.8853 47.1957C22.2635 45.8564 24.6416 44.5171 27.0198 43.1777C27.13 43.116 27.4384 42.8824 27.5536 42.9103C27.4613 42.8879 27.5451 42.9563 27.5478 43.0399C27.5515 43.1523 27.5657 43.2665 27.5699 43.3798C27.5958 44.0743 27.6084 44.7696 27.6276 45.4643L27.7382 49.4596C27.7615 50.3005 29.0782 50.4005 29.0546 49.5497L28.9248 44.8595C28.8951 43.7847 29.1639 41.4006 27.4224 41.6067C26.794 41.681 26.2129 42.1213 25.6769 42.4232L23.5055 43.646L19.3179 46.0044C18.5805 46.4197 19.1447 47.6128 19.8853 47.1957V47.1957Z" fill="#3F3D56"/>
<path d="M39.7137 115.294C36.1681 116.225 32.8442 117.855 29.9375 120.088C27.0307 122.321 24.5997 125.113 22.7873 128.3C21.7584 130.111 20.9482 132.038 20.3735 134.04C20.3338 134.206 20.3602 134.382 20.4473 134.529C20.5344 134.676 20.6752 134.784 20.8402 134.83C21.0052 134.875 21.1814 134.855 21.3317 134.773C21.4819 134.691 21.5945 134.554 21.6457 134.39C22.6413 131.04 24.2976 127.923 26.5168 125.222C28.736 122.522 31.4733 120.293 34.5673 118.667C36.3097 117.751 38.1551 117.046 40.0645 116.566C40.8872 116.359 40.5386 115.086 39.7137 115.294L39.7137 115.294Z" fill="#3F3D56"/>
<path d="M27.4813 131.231L20.5872 135.481C20.469 135.554 20.3529 135.634 20.2299 135.698C20.1078 135.763 19.9823 135.761 20.0612 135.838C19.9548 135.734 19.9819 135.346 19.974 135.228L19.8397 133.234L19.5711 129.246C19.5144 128.403 18.1946 128.397 18.2518 129.246L18.5671 133.927C18.6389 134.993 18.4403 137.199 20.0722 137.11C20.7988 137.071 21.491 136.474 22.0864 136.107L24.0562 134.892L28.1472 132.37C28.8687 131.925 28.2068 130.784 27.4813 131.231V131.231Z" fill="#3F3D56"/>
<path d="M62.4013 204.959C65.7826 205.844 68.9525 207.397 71.7241 209.527C74.4958 211.657 76.813 214.319 78.5393 217.359C79.5126 219.07 80.2782 220.891 80.8201 222.783C80.8713 222.947 80.9839 223.084 81.1341 223.166C81.2844 223.248 81.4606 223.268 81.6256 223.222C81.7905 223.177 81.9314 223.069 82.0185 222.922C82.1055 222.775 82.132 222.599 82.0923 222.433C81.0515 218.918 79.3186 215.646 76.9955 212.811C74.6723 209.975 71.8058 207.633 68.5643 205.921C66.7221 204.949 64.7711 204.199 62.7521 203.687C61.9286 203.479 61.5773 204.751 62.4013 204.959Z" fill="#3F3D56"/>
<path d="M74.3176 220.763L78.4086 223.285L80.3784 224.5C80.9753 224.868 81.6649 225.463 82.3926 225.503C84.0241 225.592 83.8259 223.387 83.8977 222.32L84.213 217.639C84.2701 216.791 82.9505 216.795 82.8937 217.639L82.6251 221.627L82.4967 223.534C82.4869 223.68 82.5251 224.11 82.4036 224.231C82.4903 224.144 82.3999 224.186 82.3031 224.127C82.1623 224.041 82.0181 223.961 81.8776 223.874L74.9835 219.624C74.2587 219.177 73.5954 220.318 74.3176 220.763Z" fill="#3F3D56"/>
<path d="M29.9048 37.9416C33.305 37.9416 36.0615 35.1851 36.0615 31.7848C36.0615 28.3846 33.305 25.6281 29.9048 25.6281C26.5045 25.6281 23.748 28.3846 23.748 31.7848C23.748 35.1851 26.5045 37.9416 29.9048 37.9416Z" fill="#3472FF"/>
<path d="M19.3501 158.583C22.7504 158.583 25.5068 155.826 25.5068 152.426C25.5068 149.026 22.7504 146.269 19.3501 146.269C15.9498 146.269 13.1934 149.026 13.1934 152.426C13.1934 155.826 15.9498 158.583 19.3501 158.583Z" fill="#3472FF"/>
<path d="M85.7544 244.192C89.1547 244.192 91.9111 241.436 91.9111 238.035C91.9111 234.635 89.1547 231.879 85.7544 231.879C82.3541 231.879 79.5977 234.635 79.5977 238.035C79.5977 241.436 82.3541 244.192 85.7544 244.192Z" fill="#3472FF"/>
</svg>
