<svg width="372" height="245" viewBox="0 0 372 245" fill="none" xmlns="http://www.w3.org/2000/svg">
<path d="M85.1133 127.555L80.558 81L66.9746 81.4516L77.7273 127.425C76.85 128.135 76.2184 129.086 75.9171 130.151C75.6157 131.217 75.6588 132.345 76.0408 133.386C76.4227 134.427 77.1253 135.331 78.0544 135.977C78.9835 136.622 80.095 136.979 81.2401 136.999C82.3852 137.019 83.5095 136.702 84.4624 136.089C85.4154 135.477 86.1517 134.598 86.5728 133.572C86.994 132.545 87.0799 131.418 86.819 130.343C86.5582 129.268 85.9631 128.295 85.1133 127.555L85.1133 127.555Z" fill="#FFB8B8"/>
<path d="M333.844 231.545C333.732 236.014 333.032 240.444 331.765 244.705C331.736 244.804 331.705 244.902 331.675 245H323.914C323.923 244.91 323.931 244.812 323.939 244.705C324.456 238.343 327.44 199.622 323.873 193C324.185 193.538 334.444 211.329 333.844 231.545Z" fill="#8FF3C9"/>
<path d="M332.81 244.376C332.66 244.585 332.503 244.794 332.344 245H318.875C318.977 244.822 319.095 244.613 319.232 244.376C321.458 240.451 328.043 228.719 334.157 216.552C340.727 203.479 346.754 189.911 346.247 185C346.403 186.108 350.948 219.872 332.81 244.376Z" fill="#8FF3C9"/>
<path d="M44.0233 224.816C44.2024 231.52 45.3226 238.166 47.3507 244.557C47.3956 244.706 47.4455 244.852 47.4941 245H59.9096C59.8966 244.867 59.8831 244.719 59.8701 244.557C59.0423 235.014 54.2693 176.933 59.9762 167C59.4766 167.806 43.0588 194.493 44.0233 224.816Z" fill="#8FF3C9"/>
<path d="M45.0253 244.553C45.1325 244.703 45.244 244.852 45.3583 245H54.9785C54.9056 244.872 54.8211 244.723 54.7231 244.553C53.1338 241.74 48.4296 233.33 44.063 224.612C39.3722 215.244 35.065 205.519 35.4277 202C35.3158 202.793 32.0685 226.991 45.0253 244.553Z" fill="#8FF3C9"/>
<path d="M315.465 196H185.337C184.699 195.999 184.086 195.746 183.634 195.295C183.183 194.845 182.929 194.234 182.928 193.597V161.403C182.929 160.766 183.183 160.155 183.634 159.705C184.086 159.254 184.699 159.001 185.337 159H315.465C316.104 159.001 316.717 159.254 317.168 159.705C317.62 160.155 317.874 160.766 317.875 161.403V193.596C317.874 194.234 317.62 194.844 317.168 195.295C316.717 195.746 316.104 195.999 315.465 196ZM185.337 159.959C184.955 159.96 184.588 160.112 184.317 160.382C184.046 160.652 183.894 161.018 183.893 161.4V193.593C183.894 193.975 184.046 194.341 184.317 194.611C184.588 194.881 184.955 195.033 185.337 195.034H315.465C315.848 195.033 316.215 194.881 316.486 194.611C316.757 194.341 316.909 193.975 316.91 193.593V161.403C316.909 161.021 316.757 160.655 316.486 160.385C316.215 160.115 315.848 159.963 315.465 159.963L185.337 159.959Z" fill="#3F3D56"/>
<path d="M172.932 235C178.452 235 182.928 230.747 182.928 225.5C182.928 220.253 178.452 216 172.932 216C167.411 216 162.936 220.253 162.936 225.5C162.936 230.747 167.411 235 172.932 235Z" fill="#E6E6E6"/>
<path d="M195.571 219C195.134 219 194.715 219.211 194.406 219.586C194.097 219.961 193.924 220.47 193.924 221C193.924 221.53 194.097 222.039 194.406 222.414C194.715 222.789 195.134 223 195.571 223H273.242C273.458 223.001 273.672 222.949 273.872 222.849C274.072 222.749 274.254 222.602 274.407 222.417C274.561 222.232 274.682 222.011 274.766 221.769C274.849 221.527 274.892 221.267 274.892 221.004C274.893 220.741 274.85 220.481 274.768 220.238C274.686 219.995 274.565 219.775 274.412 219.589C274.259 219.403 274.078 219.255 273.878 219.154C273.679 219.053 273.464 219.001 273.248 219H195.571Z" fill="#E6E6E6"/>
<path d="M195.586 229C195.146 228.999 194.724 229.156 194.412 229.437C194.1 229.718 193.925 230.099 193.924 230.497C193.923 230.895 194.097 231.277 194.408 231.559C194.718 231.84 195.14 231.999 195.58 232H229.25C229.69 232 230.112 231.842 230.423 231.561C230.735 231.279 230.909 230.898 230.909 230.5C230.909 230.102 230.735 229.721 230.423 229.439C230.112 229.158 229.69 229 229.25 229H195.586Z" fill="#E6E6E6"/>
<path d="M205.42 187C210.665 187 214.916 182.747 214.916 177.5C214.916 172.253 210.665 168 205.42 168C200.175 168 195.924 172.253 195.924 177.5C195.924 182.747 200.175 187 205.42 187Z" fill="#E6E6E6"/>
<path d="M228.539 171C228.108 171 227.694 171.211 227.389 171.586C227.084 171.961 226.912 172.47 226.912 173C226.912 173.53 227.084 174.039 227.389 174.414C227.694 174.789 228.108 175 228.539 175H305.254C305.685 175 306.099 174.789 306.404 174.414C306.709 174.039 306.881 173.53 306.881 173C306.881 172.47 306.709 171.961 306.404 171.586C306.099 171.211 305.685 171 305.254 171H228.539Z" fill="#E6E6E6"/>
<path d="M228.527 181C228.099 181 227.688 181.211 227.385 181.586C227.082 181.961 226.912 182.47 226.912 183C226.912 183.53 227.082 184.039 227.385 184.414C227.688 184.789 228.099 185 228.527 185H261.283C261.712 185 262.122 184.789 262.425 184.414C262.728 184.039 262.898 183.53 262.898 183C262.898 182.47 262.728 181.961 262.425 181.586C262.122 181.211 261.712 181 261.283 181H228.527Z" fill="#E6E6E6"/>
<path d="M290.459 116H159.367C158.723 115.999 158.106 115.745 157.651 115.294C157.196 114.843 156.94 114.231 156.939 113.592V2.40764C156.94 1.76935 157.196 1.15744 157.651 0.706104C158.106 0.254764 158.723 0.000835382 159.367 0H290.459C291.102 0.000835382 291.719 0.254764 292.174 0.706104C292.63 1.15744 292.886 1.76935 292.886 2.40764V113.592C292.886 114.23 292.63 114.842 292.175 115.294C291.719 115.745 291.102 115.999 290.459 116V116ZM159.367 0.961162C158.981 0.961996 158.612 1.11433 158.339 1.38482C158.066 1.65532 157.913 2.02195 157.912 2.40449V113.592C157.913 113.974 158.066 114.341 158.339 114.612C158.612 114.882 158.981 115.034 159.367 115.035H290.459C290.845 115.035 291.214 114.882 291.487 114.612C291.76 114.341 291.913 113.974 291.914 113.592V2.40764C291.913 2.02511 291.76 1.65848 291.487 1.38798C291.214 1.11749 290.845 0.965155 290.459 0.964321L159.367 0.961162Z" fill="#3F3D56"/>
<path d="M179.93 29C185.45 29 189.926 24.7467 189.926 19.5C189.926 14.2533 185.45 10 179.93 10C174.409 10 169.934 14.2533 169.934 19.5C169.934 24.7467 174.409 29 179.93 29Z" fill="#024DFA"/>
<path d="M202.569 13C202.132 13 201.713 13.158 201.404 13.4393C201.095 13.7206 200.922 14.1022 200.922 14.5C200.922 14.8978 201.095 15.2794 201.404 15.5607C201.713 15.842 202.132 16 202.569 16H280.243C280.68 16 281.099 15.842 281.408 15.5607C281.717 15.2794 281.89 14.8978 281.89 14.5C281.89 14.1022 281.717 13.7206 281.408 13.4393C281.099 13.158 280.68 13 280.243 13H202.569Z" fill="#CCCCCC"/>
<path d="M202.581 23C202.141 23 201.719 23.158 201.408 23.4393C201.097 23.7206 200.922 24.1022 200.922 24.5C200.922 24.8978 201.097 25.2794 201.408 25.5607C201.719 25.842 202.141 26 202.581 26H236.248C236.688 26 237.11 25.842 237.421 25.5607C237.733 25.2794 237.907 24.8978 237.907 24.5C237.907 24.1022 237.733 23.7206 237.421 23.4393C237.11 23.158 236.688 23 236.248 23H202.581Z" fill="#CCCCCC"/>
<path d="M124.501 236H114.513L108.612 152.743L108.385 173.899L86.5942 232.133L77.9688 225.309L92.2688 167.302L85.4593 135H129.948L124.501 236Z" fill="#2F2E41"/>
<path d="M108.458 33C114.807 33 119.954 27.8513 119.954 21.5C119.954 15.1487 114.807 10 108.458 10C102.11 10 96.9629 15.1487 96.9629 21.5C96.9629 27.8513 102.11 33 108.458 33Z" fill="#FFB8B8"/>
<path d="M130.949 142C111.851 137.071 93.9326 133.75 82.8431 139.739C84.7853 119.205 82.5387 92.9938 75.8745 65.5984C73.7102 56.7001 75.1781 48.6822 83.0679 44.1043L93.6332 38L109.818 38.4522L118.263 43.1512C122.392 45.2264 125.736 48.6004 127.785 52.7607C129.834 56.9209 130.477 61.6402 129.617 66.2016C125.079 90.2152 127.531 116.133 130.949 142Z" fill="#E6E6E6"/>
<path d="M86.9664 84L65.9746 82.6627C67.6146 62.0514 72.282 50.7843 79.3736 47L86.9664 55.9157V84Z" fill="#E6E6E6"/>
<path d="M321.445 102H190.353C189.71 101.999 189.093 101.745 188.638 101.293C188.183 100.84 187.927 100.227 187.926 99.5875V42.4125C187.927 41.7729 188.183 41.1597 188.638 40.7074C189.093 40.2551 189.71 40.0007 190.353 40H321.445C322.089 40.0007 322.706 40.2551 323.161 40.7074C323.616 41.1597 323.872 41.7729 323.873 42.4125V99.5875C323.872 100.227 323.616 100.84 323.161 101.293C322.706 101.745 322.089 101.999 321.445 102Z" fill="#024DFA"/>
<path d="M217.543 60C217.112 60 216.698 60.158 216.393 60.4393C216.087 60.7206 215.916 61.1022 215.916 61.5C215.916 61.8978 216.087 62.2794 216.393 62.5607C216.698 62.842 217.112 63 217.543 63H294.258C294.689 63 295.103 62.842 295.408 62.5607C295.713 62.2794 295.885 61.8978 295.885 61.5C295.885 61.1022 295.713 60.7206 295.408 60.4393C295.103 60.158 294.689 60 294.258 60H217.543Z" fill="white"/>
<path d="M217.543 69C217.112 69 216.698 69.158 216.393 69.4393C216.087 69.7206 215.916 70.1022 215.916 70.5C215.916 70.8978 216.087 71.2794 216.393 71.5607C216.698 71.842 217.112 72 217.543 72H294.258C294.689 72 295.103 71.842 295.408 71.5607C295.713 71.2794 295.885 70.8978 295.885 70.5C295.885 70.1022 295.713 69.7206 295.408 69.4393C295.103 69.158 294.689 69 294.258 69H217.543Z" fill="white"/>
<path d="M217.531 79C217.102 79 216.692 79.158 216.389 79.4393C216.086 79.7206 215.916 80.1022 215.916 80.5C215.916 80.8978 216.086 81.2794 216.389 81.5607C216.692 81.842 217.102 82 217.531 82H250.287C250.716 82 251.126 81.842 251.429 81.5607C251.732 81.2794 251.902 80.8978 251.902 80.5C251.902 80.1022 251.732 79.7206 251.429 79.4393C251.126 79.158 250.716 79 250.287 79H217.531Z" fill="white"/>
<path d="M112.829 6.01469C111.714 5.90085 110.662 6.47855 109.565 6.71474C107.31 7.19609 104.998 6.19844 102.679 6.20696C100.685 6.31731 98.7459 6.88079 97.0162 7.85222C95.6173 8.49579 94.3408 9.3658 93.2411 10.4252C92.1351 11.5017 91.4912 12.9474 91.44 14.4691C91.5932 15.3408 91.5657 16.2334 91.359 17.0945C91.1252 17.5287 90.8476 17.9392 90.5303 18.3199C90.2433 18.7684 90.06 19.2724 89.9933 19.7968C89.9265 20.3212 89.9778 20.8535 90.1436 21.3567C90.6083 22.3536 91.2369 23.27 92.0045 24.07C93.497 25.934 94.4321 28.1659 95.7713 30.1441C96.3557 31.0028 97.0112 31.8136 97.7312 32.5683C97.849 32.702 97.9926 32.812 98.1538 32.8919C98.3124 32.9462 98.4804 32.9699 98.6483 32.9618C101.489 33.0407 104.429 33.1017 107.045 32.0166C107.883 31.7338 108.595 31.1771 109.059 30.4413C109.436 29.4317 109.505 28.3373 109.256 27.2906C109.138 26.1248 109.165 24.9493 109.338 23.7899C109.349 23.3983 109.514 23.0259 109.798 22.7483C110.012 22.6185 110.258 22.5461 110.511 22.5382C110.763 22.5303 111.013 22.5873 111.236 22.7035C111.681 22.9313 112.166 23.0739 112.666 23.1234C113.646 23.1234 114.266 22.0379 114.464 21.0927C114.356 20.2433 114.485 19.3812 114.838 18.5973C115.191 17.8133 115.754 17.1364 116.469 16.6378C117.142 15.8058 117.605 14.8309 117.819 13.7923C118.033 12.7537 117.992 11.6806 117.7 10.6601C117.054 8.693 115.077 6.2334 112.829 6.01469Z" fill="#2F2E41"/>
<path d="M282.479 244H152.351C151.712 243.999 151.1 243.746 150.648 243.295C150.196 242.845 149.942 242.234 149.941 241.597V209.403C149.942 208.766 150.196 208.155 150.648 207.705C151.1 207.254 151.712 207.001 152.351 207H282.479C283.118 207.001 283.73 207.254 284.182 207.705C284.634 208.155 284.888 208.766 284.889 209.403V241.596C284.888 242.233 284.634 242.844 284.182 243.295C283.73 243.745 283.118 243.999 282.479 244V244ZM152.351 207.959C151.968 207.96 151.601 208.112 151.331 208.382C151.06 208.652 150.907 209.018 150.907 209.4V241.593C150.907 241.975 151.06 242.341 151.331 242.611C151.601 242.881 151.968 243.033 152.351 243.034H282.479C282.862 243.033 283.229 242.881 283.5 242.611C283.77 242.341 283.923 241.975 283.924 241.593V209.403C283.923 209.021 283.77 208.655 283.5 208.385C283.229 208.115 282.862 207.963 282.479 207.963L152.351 207.959Z" fill="#3F3D56"/>
<path d="M163.04 102.116L127.686 75.484L119.268 85.2769L158.2 107.2C158.131 108.269 158.387 109.32 158.935 110.213C159.484 111.106 160.297 111.799 161.268 112.199C162.239 112.598 163.32 112.686 164.367 112.449C165.414 112.212 166.377 111.663 167.127 110.875C167.878 110.087 168.379 109.097 168.565 108.038C168.751 106.979 168.613 105.901 168.169 104.949C167.724 103.996 166.995 103.215 166.078 102.709C165.162 102.202 164.102 101.996 163.04 102.116L163.04 102.116Z" fill="#FFB8B8"/>
<path d="M134.947 80.4167L115.824 85L114.955 52L125.82 52.4583L134.947 80.4167Z" fill="#E6E6E6"/>
<path d="M113.955 235.001L128.607 235H128.608C131.084 235 133.459 235.918 135.211 237.553C136.962 239.187 137.946 241.404 137.946 243.716V243.999L113.956 244L113.955 235.001Z" fill="#2F2E41"/>
<path d="M77.9939 224L89.8442 231.522L89.8446 231.523C91.8473 232.794 93.2555 234.798 93.7593 237.092C94.2631 239.387 93.8213 241.785 92.5312 243.758L92.373 244L72.9707 231.684L77.9939 224Z" fill="#2F2E41"/>
<path d="M352.862 244H18.9922V245H352.862V244Z" fill="#CACACA"/>
<path d="M317.32 165.376C326.857 171.947 341.427 167.354 341.427 167.354C341.427 167.354 340.524 152.107 330.981 145.541C321.444 138.97 306.881 143.557 306.881 143.557C306.881 143.557 307.783 158.804 317.32 165.376Z" fill="url(#paint0_linear_1305_2)"/>
<path d="M317.32 165.376C326.857 171.947 341.427 167.354 341.427 167.354C341.427 167.354 340.524 152.107 330.981 145.541C321.444 138.97 306.881 143.557 306.881 143.557C306.881 143.557 307.783 158.804 317.32 165.376Z" fill="url(#paint1_linear_1305_2)"/>
<path d="M10.4392 182.376C19.9758 188.947 34.5462 184.354 34.5462 184.354C34.5462 184.354 33.6436 169.107 24.1001 162.541C14.5635 155.97 0 160.557 0 160.557C0 160.557 0.901811 175.804 10.4392 182.376Z" fill="url(#paint2_linear_1305_2)"/>
<path d="M10.4392 182.376C19.9758 188.947 34.5462 184.354 34.5462 184.354C34.5462 184.354 33.6436 169.107 24.1001 162.541C14.5635 155.97 0 160.557 0 160.557C0 160.557 0.901811 175.804 10.4392 182.376Z" fill="url(#paint3_linear_1305_2)"/>
<path d="M225.512 142.606L225.652 142.671C220.834 155.154 229.537 159.452 229.537 159.452C229.537 159.452 219.754 155.111 213.222 169.084C219.754 155.111 210.151 150.383 210.151 150.383C210.151 150.383 219.025 154.308 225.512 142.606ZM57.1163 30.7052L57.2632 30.7739C52.2942 43.678 61.394 48.169 61.394 48.169C61.394 48.169 51.1671 43.6288 44.4176 58.0676C51.1671 43.6288 41.1275 38.688 41.1275 38.688C41.1275 38.688 50.4027 42.7931 57.1163 30.7052Z" fill="#F1A045"/>
<path d="M225.512 142.606L225.652 142.671C220.834 155.154 229.537 159.452 229.537 159.452C229.537 159.452 219.754 155.111 213.222 169.084C219.754 155.111 210.151 150.383 210.151 150.383C210.151 150.383 219.025 154.308 225.512 142.606ZM57.1163 30.7052L57.2632 30.7739C52.2942 43.678 61.394 48.169 61.394 48.169C61.394 48.169 51.1671 43.6288 44.4176 58.0676C51.1671 43.6288 41.1275 38.688 41.1275 38.688C41.1275 38.688 50.4027 42.7931 57.1163 30.7052Z" fill="#F1A045"/>
<path d="M341.353 119.435C342.27 121.349 344.54 122.19 346.424 121.314C348.308 120.439 349.092 118.178 348.176 116.265C347.259 114.351 344.988 113.51 343.105 114.386C341.221 115.261 340.437 117.522 341.353 119.435Z" fill="#F1A045"/>
<path d="M363.517 46.6353C364.434 48.5487 366.705 49.3899 368.588 48.5143C370.472 47.6387 371.256 45.3778 370.34 43.4644C369.423 41.5511 367.153 40.7098 365.269 41.5854C363.385 42.4611 362.601 44.722 363.517 46.6353Z" fill="#F1A045"/>
<path d="M301.435 11.9143L301.502 11.8577C306.734 17.2359 310.966 13.8003 310.966 13.8003C310.966 13.8003 306.459 17.7775 312.048 24.3778C306.459 17.7775 301.796 21.571 301.796 21.571C301.796 21.571 305.878 17.9612 301.435 11.9143Z" fill="#F1A045"/>
<defs>
<linearGradient id="paint0_linear_1305_2" x1="354.471" y1="186.938" x2="279.366" y2="107.773" gradientUnits="userSpaceOnUse">
<stop stop-color="#024EFB"/>
<stop offset="1" stop-color="#EEEEEE"/>
</linearGradient>
<linearGradient id="paint1_linear_1305_2" x1="354.471" y1="186.938" x2="279.366" y2="107.773" gradientUnits="userSpaceOnUse">
<stop stop-color="#024EFB"/>
<stop offset="1" stop-color="#EEEEEE"/>
</linearGradient>
<linearGradient id="paint2_linear_1305_2" x1="47.5899" y1="203.938" x2="-27.5148" y2="124.773" gradientUnits="userSpaceOnUse">
<stop stop-color="#024EFB"/>
<stop offset="1" stop-color="#EEEEEE"/>
</linearGradient>
<linearGradient id="paint3_linear_1305_2" x1="47.5899" y1="203.938" x2="-27.5148" y2="124.773" gradientUnits="userSpaceOnUse">
<stop stop-color="#024EFB"/>
<stop offset="1" stop-color="#EEEEEE"/>
</linearGradient>
</defs>
</svg>
