<svg width="61" height="61" viewBox="0 0 61 61" fill="none" xmlns="http://www.w3.org/2000/svg">
<path d="M42.4281 20.1678C42.041 14.9529 37.7195 10.814 32.4068 10.814C27.2806 10.814 23.0803 14.6698 22.4409 19.6249C21.75 19.2956 20.9972 19.1028 20.2215 19.1028C17.7497 19.1028 15.7018 20.8122 15.1916 23.1627C11.0624 23.4898 7.7937 26.9165 7.7937 31.1285C7.7937 35.556 11.3953 39.1576 15.8229 39.1576H23.496V46.2668C23.496 48.9387 26.1795 51.114 29.4769 51.114H35.3385C38.636 51.114 41.3194 48.9387 41.3194 46.2668V39.1576H41.7371C48.1975 39.1576 53.4545 34.8918 53.4545 29.6504C53.4526 24.5951 48.5667 20.46 42.4276 20.1679L42.4281 20.1678ZM39.7774 46.2665C39.7774 48.0586 37.7446 49.5716 35.3367 49.5716H29.475C27.0686 49.5716 25.0342 48.0585 25.0342 46.2665V35.9136H39.7777L39.7774 46.2665ZM37.6602 34.3717H27.1514V29.6611C27.1514 26.764 29.5094 24.406 32.4065 24.406C35.3036 24.406 37.6598 26.764 37.6598 29.6611L37.6602 34.3717ZM41.7352 37.6152H41.3176V35.1435C41.3176 34.7181 40.9711 34.3736 40.5477 34.3736H39.2022V29.663C39.2022 25.9171 36.1529 22.8678 32.407 22.8678C28.661 22.8678 25.6117 25.9152 25.6117 29.663V34.3736H24.2644C23.839 34.3736 23.4945 34.72 23.4945 35.1435V37.6152H15.823C12.2446 37.6152 9.33392 34.7046 9.33392 31.1281C9.33392 27.5551 12.2369 24.6486 15.8076 24.6409C15.8192 24.6409 15.8308 24.6428 15.8404 24.6428C16.2352 24.6428 16.5701 24.3425 16.6065 23.9422C16.776 22.0615 18.3312 20.6429 20.2216 20.6429C21.0782 20.6429 21.91 20.9471 22.5644 21.4995C22.6298 21.553 22.7049 21.5878 22.78 21.6165C22.782 21.6165 22.782 21.6184 22.7839 21.6184C22.8609 21.6493 22.9399 21.6626 23.0227 21.6664C23.0439 21.6684 23.061 21.678 23.0823 21.678C23.0881 21.678 23.0939 21.6742 23.0997 21.6742C23.1439 21.6725 23.1861 21.659 23.2302 21.6493C23.5805 21.5781 23.8499 21.2816 23.8499 20.9101C23.8499 16.1918 27.6884 12.3557 32.4043 12.3557C37.1225 12.3557 40.9587 16.1942 40.9587 20.9101C40.9587 21.3355 41.3051 21.68 41.7286 21.68H41.7305H41.7324C47.3437 21.68 51.9079 25.2545 51.9079 29.6496C51.9124 34.0423 47.3463 37.6153 41.7349 37.6153L41.7352 37.6152Z" fill="#3472FF" stroke="#3472FF" stroke-width="0.7"/>
</svg>
