<svg width="61" height="61" viewBox="0 0 61 61" fill="none" xmlns="http://www.w3.org/2000/svg">
<path d="M10.2401 10.964C8.50067 10.964 6.99658 12.3158 6.99658 14.0551V40.2883C6.99658 42.0281 8.50067 43.3964 10.2401 43.3964H25.3418L23.0274 48.802H21.0508C20.4535 48.802 19.9698 49.2861 19.9698 49.883C19.9698 50.4802 20.4539 50.964 21.0508 50.964H40.5107C41.108 50.964 41.5917 50.4798 41.5917 49.883C41.5917 49.2857 41.1076 48.802 40.5107 48.802H38.5681L36.6425 43.3964H51.3214C53.0608 43.3964 54.5649 42.0281 54.5649 40.2883V14.0551C54.5649 12.3154 53.0612 10.964 51.3214 10.964H10.2401ZM10.2401 13.126H51.3222C51.9786 13.126 52.4032 13.5589 52.4032 14.0551V40.2883C52.4032 40.7846 51.9782 41.2344 51.3222 41.2344H10.2401C9.58363 41.2344 9.15909 40.7849 9.15909 40.2883V14.0551C9.15909 13.5589 9.58403 13.126 10.2401 13.126ZM27.7067 43.3966H34.3452L36.2878 48.8022H25.3918L27.7067 43.3966Z" fill="#3472FF"/>
<path d="M27.8836 24.8411C28.4551 24.8411 28.9549 24.3408 28.9549 23.7698V20.1983C28.9549 19.6268 28.4546 19.1271 27.8836 19.1271C27.3126 19.1266 26.8124 19.6268 26.8124 20.1983V23.7698C26.8124 24.3408 27.3126 24.8411 27.8836 24.8411Z" fill="#3472FF"/>
<path d="M32.8838 24.8411C33.4553 24.8411 33.955 24.3408 33.955 23.7698V20.1983C33.955 19.6268 33.4547 19.1271 32.8838 19.1271C32.3123 19.1266 31.812 19.6268 31.812 20.1983V23.7698C31.812 24.3408 32.3123 24.8411 32.8838 24.8411Z" fill="#3472FF"/>
<path d="M39.0267 25.1982C38.4552 25.0552 37.8837 25.4837 37.8125 26.0552C37.6695 26.9122 37.3122 27.5555 36.8837 28.3412C35.5264 30.6272 33.0979 31.984 30.4553 31.984C28.4552 31.984 26.5265 31.1982 25.098 29.7698C24.6695 29.3413 24.0268 29.3413 23.5977 29.7698C23.1692 30.1983 23.1692 30.841 23.5977 31.2701C25.4548 33.1271 27.8838 34.127 30.4553 34.127C33.8125 34.127 37.0268 32.3413 38.7413 29.4125C39.3128 28.4838 39.7413 27.6268 39.9555 26.4837C39.955 25.841 39.5978 25.3413 39.0268 25.1983L39.0267 25.1982Z" fill="#3472FF"/>
</svg>
