<svg width="35" height="44" viewBox="0 0 35 44" fill="none" xmlns="http://www.w3.org/2000/svg">
<path d="M34.112 12.5305C34.112 12.2922 34.0166 12.0064 33.8262 11.8159L21.82 0.524418C21.6296 0.381513 21.3913 0.286133 21.153 0.286133H2.90557C1.85741 0.286133 1 1.14355 1 2.1917V41.6406C1 42.6887 1.85741 43.5461 2.90557 43.5461H32.2064C33.2545 43.5461 34.1119 42.6887 34.1119 41.6406L34.112 12.5305ZM22.1535 3.3829L30.777 11.5301H23.1064C22.5823 11.5301 22.1536 11.1014 22.1536 10.5773L22.1535 3.3829ZM2.9055 41.593V2.14416H20.2001V10.5772C20.2001 12.1494 21.4866 13.4359 23.0589 13.4359H32.2065V41.5456L2.9055 41.593Z" fill="#024EFB" stroke="#024EFB" stroke-width="0.2"/>
<path d="M5.81195 21.3931H17.5323V23.2986H5.81195V21.3931Z" fill="#024EFB" stroke="#024EFB" stroke-width="0.2"/>
<path d="M5.81195 28.0623H28.8714V29.9678H5.81195V28.0623Z" fill="#024EFB" stroke="#024EFB" stroke-width="0.2"/>
<path d="M5.81195 34.7798H28.8714V36.6854H5.81195V34.7798Z" fill="#024EFB" stroke="#024EFB" stroke-width="0.2"/>
</svg>
