<svg width="41" height="41" viewBox="0 0 41 41" fill="none" xmlns="http://www.w3.org/2000/svg">
<path d="M5.79302 40.525C4.86345 40.525 4.05009 40.1764 3.35291 39.4793L1.72618 37.8525C0.331834 36.4582 0.331834 34.2505 1.72618 32.9723L13.2295 21.469L14.8563 23.0957L3.35291 34.5991C2.88813 35.0639 2.88813 35.761 3.35291 36.2258L4.97965 37.8525C5.44443 38.3173 6.1416 38.3173 6.60638 37.8525L18.1097 26.3492L19.7365 27.9759L8.23312 39.4793C7.65214 40.1764 6.72258 40.525 5.79302 40.525Z" fill="#024EFB"/>
<path d="M25.5462 30.7647C21.7118 30.7647 17.7612 29.2542 14.8563 26.3493C8.93031 20.4234 8.93031 10.8947 14.8563 4.96937C20.7822 -0.955929 30.3109 -0.956594 36.2362 4.96937C42.1615 10.8953 42.1622 20.424 36.2362 26.3493C33.3313 29.2542 29.3807 30.7647 25.5462 30.7647ZM25.5462 2.87785C22.2928 2.87785 19.0393 4.156 16.483 6.5961C11.4866 11.5925 11.4866 19.7262 16.483 24.7226C21.4794 29.719 29.6131 29.719 34.6095 24.7226C39.6059 19.7262 39.6059 11.5925 34.6095 6.5961C32.0532 4.156 28.7997 2.87785 25.5462 2.87785Z" fill="#024EFB"/>
<path d="M18.69 12.5229C18.4576 12.5229 18.2253 12.5229 18.1091 12.2905C17.5281 11.9419 17.4119 11.2447 17.7605 10.6637C19.5034 7.99124 22.4083 6.3645 25.6618 6.3645C27.0561 6.3645 28.3342 6.71309 29.6124 7.29406C30.1934 7.52646 30.4258 8.22363 30.1934 8.8046C29.961 9.38558 29.2638 9.61797 28.6828 9.38558C27.5209 8.9208 26.5913 8.68841 25.5456 8.68841C23.1055 8.68841 20.8977 9.85036 19.6196 11.9419C19.3872 12.2905 19.0386 12.5229 18.69 12.5229Z" fill="#024EFB"/>
</svg>
