<svg width="604" height="331" viewBox="0 0 604 331" fill="none" xmlns="http://www.w3.org/2000/svg">
<g clip-path="url(#clip0_1287_51)">
<path d="M184.691 78.375C193.454 74.6665 204.438 75.0743 211.607 81.3276C201.415 83.1179 192.185 88.453 185.55 96.3891C183.003 99.459 180.489 103.139 176.572 103.9C174.134 104.374 171.587 103.558 169.506 102.204C167.425 100.85 165.731 98.9916 164.062 97.1542L163.481 96.9386C169.084 89.2523 175.929 82.0835 184.691 78.375Z" fill="#F0F0F0"/>
<path d="M211.497 81.4943C203.785 79.8973 195.765 80.7694 188.576 83.9868C187.016 84.6519 185.571 85.5587 184.294 86.6735C183.085 87.7997 182.2 89.229 181.73 90.8127C181.263 92.2806 180.955 93.8362 180.138 95.165C179.71 95.8389 179.145 96.4149 178.478 96.8551C177.812 97.2953 177.06 97.5897 176.272 97.7191C174.316 98.0926 172.343 97.7417 170.426 97.3315C168.296 96.8761 166.092 96.3693 163.928 96.9034C163.665 96.9682 163.58 96.5578 163.842 96.4931C167.607 95.5638 171.25 97.6334 175.017 97.4467C176.776 97.3595 178.518 96.7424 179.571 95.263C180.492 93.9693 180.811 92.3654 181.271 90.8751C181.706 89.3234 182.515 87.9018 183.627 86.7345C184.843 85.5583 186.251 84.5974 187.79 83.8932C191.229 82.2524 194.906 81.1622 198.684 80.6626C202.993 80.0685 207.372 80.2154 211.631 81.0968C211.894 81.1515 211.759 81.5486 211.498 81.4943L211.497 81.4943Z" fill="white"/>
<path d="M190.83 82.8146C190.453 81.5361 190.544 80.1655 191.085 78.9476C191.627 77.7296 192.584 76.7437 193.786 76.1658C194.029 76.0497 194.221 76.4225 193.977 76.5387C192.857 77.0748 191.966 77.9933 191.464 79.1284C190.962 80.2636 190.883 81.5407 191.24 82.7291C191.318 82.9875 190.907 83.0715 190.83 82.8146Z" fill="white"/>
<path d="M181.869 90.0372C184.25 91.3629 187.044 91.7427 189.694 91.1011C189.956 91.0373 190.042 91.4476 189.78 91.5114C187.021 92.1739 184.114 91.7727 181.639 90.3878C181.403 90.2556 181.634 89.9058 181.869 90.0372Z" fill="white"/>
<path d="M202.844 80.6039C202.886 81.1289 203.058 81.6351 203.345 82.0772C203.632 82.5192 204.024 82.8831 204.486 83.1363C204.723 83.2654 204.492 83.6151 204.256 83.4869C203.747 83.2048 203.314 82.8023 202.996 82.3146C202.679 81.827 202.485 81.269 202.433 80.6894C202.423 80.6352 202.435 80.5793 202.465 80.5333C202.495 80.4873 202.542 80.4544 202.595 80.4415C202.65 80.4304 202.706 80.4413 202.753 80.4717C202.799 80.5021 202.832 80.5496 202.844 80.6039Z" fill="white"/>
<path d="M210.749 113.513C210.599 113.437 210.448 113.36 210.295 113.286C208.265 112.269 206.157 111.418 203.99 110.743C203.823 110.688 203.653 110.635 203.486 110.585C198.247 109.013 192.763 108.427 187.31 108.855C185.141 109.028 182.988 109.366 180.869 109.865C177.944 110.554 174.827 111.534 171.93 111.227C171.627 111.198 171.327 111.151 171.03 111.085L163.263 97.6639C163.261 97.6245 163.255 97.5868 163.253 97.5473L162.918 97.0256C163.025 96.9922 163.138 96.9599 163.245 96.9266C163.307 96.9069 163.371 96.8903 163.434 96.8707C163.476 96.8586 163.518 96.8466 163.555 96.8333C163.569 96.8292 163.583 96.8252 163.594 96.8229C163.631 96.8095 163.667 96.8011 163.701 96.7895C164.328 96.6072 164.957 96.4291 165.588 96.255C165.591 96.2532 165.591 96.2532 165.596 96.2544C170.392 94.8818 175.335 94.0827 180.32 93.8737C180.469 93.8695 180.621 93.8634 180.774 93.8653C183.004 93.8137 185.235 93.9443 187.444 94.2559C188.653 94.4304 189.852 94.6659 191.038 94.9616C194.099 95.7316 197.02 96.9779 199.693 98.6548C205.022 101.999 209.222 107.008 210.645 113.05C210.682 113.205 210.716 113.357 210.749 113.513Z" fill="#F0F0F0"/>
<path d="M210.562 113.582C205.366 107.666 198.436 103.537 190.759 101.781C189.112 101.374 187.412 101.228 185.721 101.35C184.077 101.521 182.509 102.13 181.18 103.112C179.922 104.003 178.739 105.06 177.287 105.629C176.539 105.91 175.74 106.03 174.943 105.98C174.146 105.931 173.368 105.714 172.661 105.343C170.874 104.464 169.51 102.997 168.226 101.516C166.801 99.8708 165.346 98.1399 163.296 97.2642C163.048 97.1581 163.227 96.7792 163.475 96.8851C167.041 98.4087 168.702 102.252 171.823 104.37C173.28 105.358 175.043 105.914 176.775 105.366C178.289 104.887 179.51 103.799 180.776 102.886C182.058 101.909 183.561 101.26 185.151 100.997C186.831 100.79 188.534 100.87 190.187 101.233C193.922 101.993 197.514 103.334 200.832 105.208C204.63 107.326 208.038 110.078 210.908 113.344C211.085 113.547 210.738 113.782 210.562 113.582H210.562Z" fill="white"/>
<path d="M193.264 102.201C193.734 100.954 194.632 99.9138 195.798 99.2671C196.964 98.6205 198.322 98.409 199.63 98.6707C199.894 98.7245 199.823 99.1377 199.558 99.0838C198.341 98.8379 197.076 99.0349 195.991 99.6394C194.907 100.244 194.074 101.216 193.644 102.38C193.55 102.633 193.171 102.452 193.264 102.201V102.201Z" fill="white"/>
<path d="M181.758 102.576C182.861 105.068 184.863 107.052 187.365 108.134C187.613 108.241 187.434 108.62 187.186 108.513C184.585 107.383 182.506 105.313 181.363 102.718C181.255 102.471 181.65 102.33 181.758 102.576V102.576Z" fill="white"/>
<path d="M204.189 107.664C203.906 108.109 203.739 108.617 203.701 109.142C203.664 109.667 203.758 110.194 203.974 110.674C204.086 110.92 203.691 111.06 203.579 110.816C203.343 110.284 203.24 109.702 203.28 109.122C203.32 108.541 203.502 107.979 203.809 107.485C203.834 107.436 203.877 107.398 203.929 107.38C203.981 107.361 204.038 107.363 204.088 107.385C204.138 107.409 204.177 107.452 204.196 107.504C204.215 107.556 204.212 107.614 204.189 107.664V107.664Z" fill="white"/>
<path d="M515.909 323.434H509.033L505.762 296.929L515.91 296.93L515.909 323.434Z" fill="#A0616A"/>
<path d="M517.663 330.096L495.491 330.095V329.814C495.491 327.527 496.4 325.334 498.019 323.716C499.637 322.099 501.832 321.191 504.121 321.19H504.121L517.663 321.191L517.663 330.096Z" fill="#2F2E41"/>
<path d="M569.451 320.46L562.652 321.487L555.453 295.768L564.366 294.253L569.451 320.46Z" fill="#A0616A"/>
<path d="M572.182 326.784L550.258 330.095L550.216 329.818C549.874 327.557 550.445 325.252 551.803 323.411C553.162 321.57 555.196 320.344 557.459 320.002L557.46 320.002L570.85 317.98L572.182 326.784Z" fill="#2F2E41"/>
<path d="M373.311 330.095H167.841V124.767H373.311V330.095Z" fill="white"/>
<path d="M373.311 330.095H167.841V124.767H373.311V330.095ZM170.877 327.062H370.275V127.801H170.877V327.062Z" fill="#F0F0F0"/>
<path d="M341.981 213.035H210.207V217.684H341.981V213.035Z" fill="#024EFB"/>
<path d="M341.981 225.121H210.207V229.77H341.981V225.121Z" fill="#024EFB"/>
<path d="M341.981 237.208H210.207V241.856H341.981V237.208Z" fill="#024EFB"/>
<path d="M202.208 219.074C203.884 219.074 205.243 217.716 205.243 216.041C205.243 214.365 203.884 213.007 202.208 213.007C200.531 213.007 199.172 214.365 199.172 216.041C199.172 217.716 200.531 219.074 202.208 219.074Z" fill="#024EFB"/>
<path d="M341.981 160.957H210.207V165.605H341.981V160.957Z" fill="#F0F0F0"/>
<path d="M341.981 173.043H210.207V177.691H341.981V173.043Z" fill="#F0F0F0"/>
<path d="M341.981 185.129H210.207V189.777H341.981V185.129Z" fill="#F0F0F0"/>
<path d="M202.208 166.49C203.884 166.49 205.243 165.132 205.243 163.456C205.243 161.781 203.884 160.423 202.208 160.423C200.531 160.423 199.172 161.781 199.172 163.456C199.172 165.132 200.531 166.49 202.208 166.49Z" fill="#F0F0F0"/>
<path d="M341.981 265.62H210.207V270.268H341.981V265.62Z" fill="#F0F0F0"/>
<path d="M341.981 277.706H210.207V282.354H341.981V277.706Z" fill="#F0F0F0"/>
<path d="M341.981 289.792H210.207V294.44H341.981V289.792Z" fill="#F0F0F0"/>
<path d="M202.208 271.153C203.884 271.153 205.243 269.795 205.243 268.119C205.243 266.444 203.884 265.086 202.208 265.086C200.531 265.086 199.172 266.444 199.172 268.119C199.172 269.795 200.531 271.153 202.208 271.153Z" fill="#E5E5E5"/>
<path d="M483.606 248.985H364.054C362.263 248.98 360.811 246.013 360.809 242.35V153.47C360.809 149.807 362.263 146.841 364.054 146.835H483.606C485.397 146.84 486.849 149.807 486.851 153.47V242.349C486.849 246.012 485.395 248.98 483.606 248.985Z" fill="white"/>
<path d="M483.606 248.985H364.054C362.263 248.98 360.811 246.013 360.809 242.35V153.47C360.809 149.807 362.263 146.841 364.054 146.835H483.606C485.397 146.84 486.849 149.807 486.851 153.47V242.349C486.849 246.012 485.395 248.98 483.606 248.985ZM364.054 149.489C362.979 149.489 362.108 151.273 362.106 153.47V242.349C362.106 244.546 362.979 246.328 364.054 246.33H483.606C484.681 246.33 485.552 244.547 485.554 242.349V153.47C485.554 151.273 484.681 149.491 483.606 149.489L364.054 149.489Z" fill="#E6E6E6"/>
<path d="M440.017 219.305H407.836V221.722H440.017V219.305Z" fill="#024EFB"/>
<path d="M444.03 225.586H403.53V228.003H444.03V225.586Z" fill="#024EFB"/>
<path d="M444.842 188.814C444.841 192.447 443.897 196.018 442.102 199.177C440.307 202.336 437.723 204.976 434.603 206.839C431.482 208.702 427.931 209.725 424.296 209.807C420.662 209.889 417.068 209.027 413.867 207.307L413.863 207.303C410.592 205.542 407.847 202.946 405.908 199.78C403.968 196.614 402.903 192.991 402.821 189.28C402.738 185.568 403.642 181.902 405.44 178.653C407.238 175.405 409.865 172.69 413.055 170.787C416.244 168.884 419.881 167.859 423.596 167.818C427.311 167.777 430.97 168.72 434.2 170.553C437.431 172.385 440.118 175.04 441.988 178.248C443.857 181.456 444.842 185.102 444.842 188.814Z" fill="#0512B8"/>
<path d="M430.087 185.075L422.602 193.061L418.108 188.27" stroke="white" stroke-width="3.568" stroke-linecap="round" stroke-linejoin="round"/>
<path d="M339.603 280.765H429.307V241.46H427.927V279.386H339.603V280.765Z" fill="#3F3D56"/>
<path d="M428.617 255.414C432.809 255.414 436.207 252.018 436.207 247.829C436.207 243.64 432.809 240.244 428.617 240.244C424.425 240.244 421.026 243.64 421.026 247.829C421.026 252.018 424.425 255.414 428.617 255.414Z" fill="#3F3D56"/>
<path d="M173.73 194.552H54.1772C52.3861 194.547 50.9344 191.58 50.9321 187.917V99.037C50.9321 95.3743 52.3861 92.4081 54.1772 92.402H173.73C175.521 92.4065 176.973 95.3736 176.975 99.037V187.916C176.973 191.578 175.519 194.547 173.73 194.552Z" fill="white"/>
<path d="M173.73 194.552H54.1772C52.3861 194.547 50.9344 191.58 50.9321 187.917V99.037C50.9321 95.3743 52.3861 92.4081 54.1772 92.402H173.73C175.521 92.4065 176.973 95.3736 176.975 99.037V187.916C176.973 191.578 175.519 194.547 173.73 194.552ZM54.1772 95.0558C53.1021 95.0558 52.2314 96.8395 52.2298 99.0369V187.916C52.2298 190.113 53.1021 191.895 54.1772 191.897H173.73C174.805 191.897 175.676 190.114 175.677 187.916V99.037C175.677 96.8395 174.805 95.0581 173.73 95.0558L54.1772 95.0558Z" fill="#E6E6E6"/>
<path d="M140.494 120.168C135.174 114.524 127.851 111.191 120.098 110.885V140.551L140.494 120.168Z" fill="#419AF7"/>
<path d="M140.494 123.862L120.098 144.245H148.603C148.613 136.664 145.71 129.368 140.494 123.862Z" fill="#E4E4E4"/>
<path d="M148.633 146.377C148.634 148.226 148.463 150.071 148.121 151.888C148.095 152.032 148.067 152.175 148.037 152.317C147.394 155.487 146.232 158.53 144.599 161.322C144.512 161.472 144.422 161.622 144.333 161.769V161.77C142.723 164.417 140.71 166.797 138.366 168.823C138.25 168.925 138.134 169.025 138.017 169.123C132.98 173.358 126.674 175.793 120.097 176.043V146.377H148.633Z" fill="#F0F0F0"/>
<path d="M117.214 176.069C117.608 176.069 118.001 176.059 118.392 176.044V146.376L96.8013 167.951C102.312 173.173 109.62 176.079 117.214 176.069Z" fill="#72D8D9"/>
<path d="M117.254 114.552C113.352 114.552 109.488 115.32 105.884 116.812C102.279 118.305 99.003 120.492 96.2438 123.249C93.4847 126.006 91.296 129.279 89.8028 132.882C88.3096 136.484 87.541 140.346 87.541 144.245H118.463V114.579C118.062 114.563 117.659 114.552 117.254 114.552Z" fill="#F9D251"/>
<path d="M110.166 146.377L103.919 152.62L103.714 152.824L103.71 152.828L98.2622 158.271L98.055 158.478L92.1694 164.359L91.9621 164.566V164.568L88.5748 167.951C85.6336 165.179 83.2911 161.836 81.6915 158.125C80.092 154.415 79.2693 150.417 79.2739 146.377H110.166Z" fill="#0512B8"/>
<path d="M210.549 227.542H120.845V188.237H122.225V226.163H210.549V227.542Z" fill="#3F3D56"/>
<path d="M121.535 202.19C125.727 202.19 129.125 198.794 129.125 194.605C129.125 190.416 125.727 187.02 121.535 187.02C117.343 187.02 113.944 190.416 113.944 194.605C113.944 198.794 117.343 202.19 121.535 202.19Z" fill="#3F3D56"/>
<path d="M548.249 192.082L540.614 194.081L541.122 206.451L541.185 228.973C540.433 229.493 539.856 230.229 539.532 231.083C539.207 231.938 539.15 232.87 539.367 233.758C539.585 234.646 540.067 235.447 540.75 236.055C541.432 236.663 542.284 237.049 543.191 237.163C544.099 237.277 545.02 237.113 545.832 236.693C546.644 236.273 547.309 235.616 547.74 234.809C548.17 234.003 548.345 233.085 548.242 232.177C548.139 231.269 547.763 230.413 547.163 229.723L549.509 207.119L548.249 192.082Z" fill="#A0616A"/>
<path d="M550.386 199.52L539.226 195.764L539.2 195.596C539.183 195.491 537.546 184.928 537.566 177.682C537.544 176.875 537.698 176.072 538.018 175.331C538.338 174.589 538.815 173.926 539.418 173.388C540.256 172.624 541.3 172.121 542.42 171.941C543.541 171.76 544.69 171.911 545.725 172.374C546.832 172.83 547.784 173.595 548.467 174.577C549.15 175.56 549.536 176.718 549.578 177.913L550.386 199.52Z" fill="#E4E4E4"/>
<path d="M529.624 198.484L512.555 194.068L504.665 220.623L504.384 319.552L517.437 319.47L522.894 239.4L557.669 313.387L571.691 311.705L541.122 232.394C541.122 232.394 542.805 218.381 537.477 211.375L538.598 204.089L529.624 198.484Z" fill="#2F2E41"/>
<path d="M539.104 206.051L537.812 206.03L511.581 195.553L524.13 167.622L530.088 168.704L529.003 164.368L542.168 161.152L544.459 170.308L547.839 173.378C548.69 174.152 549.298 175.157 549.589 176.269C549.88 177.382 549.841 178.555 549.478 179.646L541.692 202.988C541.756 203.364 541.737 203.75 541.636 204.118C541.536 204.486 541.356 204.828 541.109 205.12C540.863 205.411 540.556 205.646 540.209 205.806C539.863 205.967 539.486 206.051 539.104 206.051L539.104 206.051Z" fill="#E4E4E4"/>
<path d="M519.377 185.136L512.476 181.308L504.288 190.6L488.759 206.922C487.856 206.779 486.931 206.912 486.105 207.306C485.28 207.699 484.593 208.334 484.136 209.126C483.68 209.918 483.474 210.829 483.547 211.74C483.62 212.651 483.968 213.519 484.545 214.228C485.123 214.937 485.902 215.454 486.779 215.711C487.657 215.968 488.592 215.953 489.461 215.667C490.33 215.382 491.091 214.839 491.645 214.112C492.198 213.384 492.518 212.506 492.561 211.593L509.888 196.874L519.377 185.136Z" fill="#A0616A"/>
<path d="M515.777 191.987L510.308 181.566L510.405 181.427C510.466 181.339 516.587 172.574 521.613 167.35C522.155 166.751 522.821 166.277 523.565 165.962C524.309 165.647 525.113 165.498 525.92 165.525C527.055 165.552 528.157 165.909 529.091 166.553C530.025 167.196 530.751 168.098 531.18 169.148C531.665 170.242 531.824 171.452 531.639 172.634C531.453 173.815 530.931 174.919 530.135 175.812L515.777 191.987Z" fill="#E4E4E4"/>
<path d="M532.428 159.449C538.205 159.449 542.888 154.769 542.888 148.996C542.888 143.223 538.205 138.543 532.428 138.543C526.651 138.543 521.968 143.223 521.968 148.996C521.968 154.769 526.651 159.449 532.428 159.449Z" fill="#A0616A"/>
<path d="M519.841 142.867C521.6 139.72 522.273 138.405 524.541 136.492C526.546 134.8 529.013 134.303 531.003 135.906C533.357 134.89 535.976 134.659 538.471 135.249C540.967 135.839 543.205 137.217 544.854 139.179C546.503 141.141 547.475 143.583 547.625 146.141C547.775 148.699 547.095 151.237 545.687 153.378C544.278 155.519 542.216 157.149 539.807 158.026C537.397 158.903 534.769 158.98 532.313 158.245C529.856 157.51 527.702 156.004 526.171 153.948C524.64 151.893 523.813 149.399 523.813 146.836C523.815 146.386 523.842 145.937 523.894 145.49C522.165 145.247 521.57 143.11 519.841 142.867Z" fill="#2F2E41"/>
<path d="M57.232 234.246C57.7244 233.95 58.1459 233.55 58.4668 233.074C58.7878 232.598 59.0003 232.058 59.0896 231.49C59.1788 230.923 59.1425 230.344 58.9832 229.792C58.824 229.24 58.5456 228.731 58.1678 228.298L63.2742 177.091L54.7476 177.657L52.3854 228.08C51.7005 228.762 51.2899 229.672 51.2314 230.637C51.1728 231.601 51.4705 232.554 52.0679 233.314C52.6653 234.074 53.521 234.589 54.4727 234.761C55.4245 234.933 56.4063 234.75 57.232 234.246V234.246Z" fill="#FFB8B8"/>
<path d="M51.293 175.195L53.5284 192.173L53.2181 202.579L62.596 203.437L64.4756 194.782L65.5111 171.87C65.5892 170.142 65.0089 168.448 63.8871 167.131C62.7653 165.813 61.1855 164.969 59.466 164.77C57.682 164.562 55.888 165.064 54.4711 166.167C53.0542 167.27 52.1281 168.885 51.8926 170.665L51.293 175.195Z" fill="#2F2E41"/>
<path d="M87.2073 324.585H92.8958L95.6018 302.658H87.2061L87.2073 324.585Z" fill="#FFB7B7"/>
<path d="M85.7559 322.729L96.9589 322.729H96.9594C98.8528 322.729 100.669 323.48 102.008 324.818C103.346 326.156 104.099 327.971 104.099 329.863V330.095L85.7562 330.096L85.7559 322.729Z" fill="#2F2E41"/>
<path d="M40.2346 324.585H45.9232L48.6291 302.658H40.2334L40.2346 324.585Z" fill="#FFB7B7"/>
<path d="M38.7832 322.729L49.9863 322.729H49.9867C51.8802 322.729 53.6961 323.48 55.0349 324.818C56.3738 326.156 57.1261 327.971 57.1262 329.863V330.095L38.7836 330.096L38.7832 322.729Z" fill="#2F2E41"/>
<path d="M62.3556 156.699C69.1672 156.699 74.6892 151.181 74.6892 144.374C74.6892 137.567 69.1672 132.049 62.3556 132.049C55.5439 132.049 50.022 137.567 50.022 144.374C50.022 151.181 55.5439 156.699 62.3556 156.699Z" fill="#FFB8B8"/>
<path d="M63.949 161.703L55.3897 162.68C53.3084 165.63 51.9588 169.032 51.4524 172.605C50.9461 176.179 51.2974 179.822 52.4773 183.233L58.9357 201.903C58.9357 201.903 49.9704 219.864 49.9704 236.54C49.9704 253.215 32.8965 312.738 32.8965 312.738L56.9297 315.244L67.4162 251.834L81.8671 314.988L98.3642 312.304L89.278 229.503L83.2739 202.249L83.0181 188.959C83.0181 188.959 85.571 178.986 79.1815 172.601L71.3806 161.738L63.949 161.703Z" fill="#2F2E41"/>
<path d="M124.289 205.608C124.264 204.979 124.101 204.364 123.812 203.805C123.524 203.246 123.116 202.757 122.618 202.373C122.119 201.989 121.543 201.718 120.929 201.58C120.314 201.443 119.678 201.442 119.063 201.577L72.5194 169.705L68.5723 178.189L115.808 207.013C116.103 208.03 116.761 208.904 117.658 209.468C118.555 210.032 119.628 210.248 120.673 210.075C121.718 209.902 122.664 209.351 123.33 208.528C123.997 207.705 124.338 206.666 124.289 205.608H124.289Z" fill="#FFB8B8"/>
<path d="M64.386 180.209L81.8873 187.005L91.7286 192.783L97.4927 184.231L90.1615 177.868L68.6776 164.807C67.0572 163.822 65.1234 163.487 63.2658 163.87C61.4082 164.253 59.765 165.326 58.6673 166.871C57.5284 168.475 57.0662 170.462 57.3804 172.403C57.6945 174.344 58.7599 176.084 60.3465 177.248L64.386 180.209Z" fill="#2F2E41"/>
<path d="M76.7327 139.972H58.6089V132.077C62.5869 130.498 66.4795 129.155 68.8326 132.077C70.9278 132.077 72.9372 132.909 74.4188 134.39C75.9003 135.87 76.7327 137.878 76.7327 139.972V139.972Z" fill="#2F2E41"/>
<path d="M61.842 131.289C51.0074 131.337 47.9746 144.86 47.9746 152.517C47.9746 156.787 49.907 158.314 52.9435 158.831L54.0159 153.115L56.5276 159.077C57.3805 159.081 58.2766 159.064 59.2056 159.047L60.0572 157.295L61.9562 159.016C69.562 159.027 80.6147 158.348 75.7093 152.517C69.1378 144.705 71.2859 131.247 61.842 131.289Z" fill="#2F2E41"/>
<path d="M558.473 173.789C557.994 171.977 557.923 170.081 558.264 168.238C558.769 164.678 559.906 161.244 560.946 157.802C561.986 154.36 562.939 150.851 563.06 147.257C563.18 143.664 562.4 139.939 560.256 137.052C558.112 134.165 554.456 132.273 550.9 132.816C547.502 133.334 544.534 136.398 544.516 139.796C543.908 140.896 544.694 142.398 545.813 143.05C546.986 143.735 548.401 143.826 549.703 144.215C550.981 144.628 552.16 145.3 553.166 146.19C554.171 147.079 554.983 148.167 555.548 149.384C556.664 151.842 556.962 154.593 556.396 157.233C555.883 159.79 554.703 162.157 553.819 164.611C552.935 167.066 552.344 169.76 553.054 172.27C553.644 174.124 554.884 175.702 556.547 176.714C558.209 177.727 560.181 178.104 562.1 177.778C561.224 177.445 560.439 176.91 559.809 176.217C559.179 175.524 558.721 174.692 558.473 173.789Z" fill="#2F2E41"/>
<path d="M603.395 330.403H1.19263C1.03211 330.403 0.878171 330.34 0.764669 330.226C0.651167 330.113 0.587402 329.959 0.587402 329.799C0.587402 329.638 0.651167 329.484 0.764669 329.371C0.878171 329.258 1.03211 329.194 1.19263 329.194H603.395C603.555 329.194 603.709 329.258 603.823 329.371C603.936 329.484 604 329.638 604 329.799C604 329.959 603.936 330.113 603.823 330.226C603.709 330.34 603.555 330.403 603.395 330.403Z" fill="#CACACA"/>
<path d="M465.986 301C464.812 291.563 458.959 282.266 449.954 279.195C453.505 288.908 453.504 299.563 449.951 309.275C448.568 313.016 446.639 317.033 447.94 320.803C448.75 323.149 450.732 324.944 452.946 326.066C455.161 327.188 457.619 327.723 460.046 328.247L460.524 328.642C464.377 319.947 467.161 310.437 465.986 301Z" fill="#F0F0F0"/>
<path d="M449.864 279.373C455.109 285.245 458.369 292.62 459.18 300.449C459.385 302.131 459.323 303.836 458.997 305.499C458.627 307.108 457.832 308.59 456.695 309.789C455.657 310.928 454.464 311.973 453.721 313.345C453.352 314.052 453.136 314.83 453.088 315.627C453.041 316.423 453.162 317.221 453.445 317.968C454.1 319.847 455.392 321.378 456.707 322.831C458.168 324.445 459.71 326.099 460.331 328.238C460.407 328.498 460.805 328.366 460.73 328.107C459.649 324.384 456.033 322.27 454.309 318.917C453.504 317.352 453.166 315.536 453.921 313.884C454.58 312.44 455.81 311.361 456.87 310.217C457.997 309.064 458.823 307.652 459.278 306.106C459.688 304.465 459.815 302.766 459.655 301.082C459.354 297.286 458.458 293.56 457 290.041C455.357 286.016 453.038 282.302 450.142 279.059C449.962 278.858 449.686 279.174 449.864 279.373H449.864Z" fill="white"/>
<path d="M459.067 297.913C460.363 297.598 461.505 296.834 462.289 295.756C463.073 294.678 463.448 293.356 463.347 292.027C463.326 291.758 462.907 291.779 462.928 292.048C463.024 293.285 462.675 294.516 461.943 295.519C461.211 296.521 460.144 297.229 458.936 297.515C458.673 297.577 458.806 297.975 459.067 297.913V297.913Z" fill="white"/>
<path d="M457.297 309.28C454.956 307.884 453.228 305.657 452.458 303.043C452.381 302.784 451.983 302.916 452.059 303.175C452.866 305.893 454.669 308.207 457.108 309.655C457.341 309.793 457.528 309.417 457.297 309.28L457.297 309.28Z" fill="white"/>
<path d="M454.968 286.413C454.492 286.639 453.967 286.744 453.44 286.717C452.914 286.69 452.402 286.533 451.952 286.26C451.721 286.12 451.534 286.495 451.763 286.635C452.262 286.934 452.828 287.107 453.409 287.138C453.991 287.168 454.571 287.056 455.099 286.811C455.151 286.792 455.194 286.755 455.218 286.705C455.243 286.656 455.248 286.599 455.233 286.547C455.215 286.494 455.177 286.451 455.128 286.426C455.078 286.401 455.021 286.396 454.968 286.413Z" fill="white"/>
<path d="M422.502 296.05C422.644 296.142 422.785 296.234 422.927 296.329C424.823 297.575 426.616 298.974 428.286 300.51C428.417 300.627 428.548 300.747 428.675 300.867C432.659 304.612 435.913 309.063 438.271 313.994C439.208 315.957 439.993 317.989 440.622 320.071C441.489 322.947 442.2 326.134 443.917 328.486C444.093 328.734 444.285 328.97 444.491 329.194H460.005C460.04 329.176 460.076 329.162 460.111 329.144L460.731 329.173C460.706 329.063 460.678 328.95 460.653 328.84C460.639 328.776 460.621 328.713 460.607 328.649C460.596 328.607 460.585 328.564 460.578 328.525C460.575 328.511 460.571 328.497 460.568 328.486C460.561 328.447 460.55 328.412 460.543 328.377C460.387 327.743 460.227 327.11 460.062 326.477C460.062 326.474 460.062 326.474 460.058 326.47C458.846 321.633 457.063 316.957 454.749 312.54C454.678 312.409 454.607 312.275 454.529 312.144C453.457 310.189 452.227 308.324 450.851 306.569C450.095 305.611 449.29 304.691 448.441 303.814C446.241 301.551 443.699 299.649 440.908 298.175C435.344 295.24 428.902 294.115 422.955 295.908C422.803 295.954 422.654 296 422.502 296.05Z" fill="#F0F0F0"/>
<path d="M422.536 296.246C430.262 297.78 437.308 301.707 442.673 307.47C443.85 308.69 444.827 310.087 445.569 311.612C446.243 313.12 446.501 314.781 446.315 316.422C446.173 317.956 445.85 319.508 446.084 321.05C446.215 321.837 446.511 322.588 446.953 323.253C447.395 323.918 447.973 324.482 448.648 324.908C450.303 326.014 452.257 326.459 454.183 326.828C456.322 327.238 458.55 327.63 460.334 328.965C460.551 329.127 460.789 328.782 460.573 328.621C457.468 326.298 453.307 326.786 449.91 325.146C448.325 324.381 446.961 323.134 446.568 321.361C446.225 319.811 446.556 318.21 446.714 316.658C446.918 315.06 446.728 313.436 446.159 311.928C445.498 310.371 444.576 308.937 443.433 307.689C440.906 304.839 437.946 302.403 434.661 300.471C430.925 298.246 426.835 296.676 422.569 295.828C422.305 295.776 422.274 296.194 422.537 296.246L422.536 296.246Z" fill="white"/>
<path d="M441.055 305.512C441.9 304.482 442.352 303.184 442.328 301.852C442.304 300.519 441.808 299.238 440.926 298.238C440.747 298.036 440.425 298.305 440.604 298.507C441.427 299.437 441.889 300.63 441.909 301.871C441.928 303.112 441.503 304.318 440.71 305.274C440.538 305.481 440.884 305.719 441.055 305.512Z" fill="white"/>
<path d="M446.49 315.654C443.78 315.947 441.058 315.208 438.869 313.586C438.652 313.425 438.413 313.769 438.63 313.93C440.912 315.615 443.745 316.377 446.565 316.066C446.834 316.036 446.757 315.624 446.49 315.654Z" fill="white"/>
<path d="M430.853 298.797C430.609 299.264 430.253 299.663 429.817 299.959C429.381 300.254 428.878 300.436 428.353 300.489C428.084 300.516 428.161 300.928 428.428 300.902C429.007 300.84 429.562 300.638 430.045 300.313C430.528 299.988 430.924 299.549 431.198 299.036C431.228 298.99 431.239 298.934 431.229 298.879C431.22 298.825 431.189 298.777 431.145 298.744C431.099 298.713 431.043 298.701 430.988 298.711C430.934 298.721 430.885 298.752 430.853 298.797Z" fill="white"/>
<path d="M116.848 301C118.022 291.563 123.875 282.266 132.881 279.195C129.329 288.908 129.33 299.563 132.883 309.275C134.267 313.016 136.196 317.033 134.894 320.803C134.084 323.149 132.103 324.944 129.888 326.066C127.673 327.188 125.215 327.723 122.788 328.247L122.31 328.642C118.457 319.947 115.673 310.437 116.848 301Z" fill="#F0F0F0"/>
<path d="M132.97 279.373C127.725 285.245 124.466 292.62 123.654 300.449C123.449 302.131 123.511 303.836 123.837 305.499C124.208 307.108 125.002 308.59 126.139 309.789C127.177 310.928 128.37 311.973 129.113 313.345C129.482 314.052 129.698 314.83 129.746 315.627C129.793 316.423 129.672 317.221 129.39 317.968C128.734 319.847 127.442 321.378 126.127 322.831C124.666 324.445 123.124 326.099 122.503 328.238C122.428 328.498 122.029 328.366 122.105 328.107C123.185 324.384 126.801 322.27 128.525 318.917C129.33 317.352 129.668 315.536 128.914 313.884C128.254 312.44 127.024 311.361 125.964 310.217C124.837 309.064 124.011 307.652 123.556 306.106C123.146 304.465 123.019 302.766 123.179 301.082C123.48 297.286 124.376 293.56 125.835 290.041C127.477 286.016 129.796 282.302 132.692 279.059C132.872 278.858 133.148 279.174 132.97 279.373H132.97Z" fill="white"/>
<path d="M123.767 297.913C122.471 297.598 121.329 296.834 120.545 295.756C119.761 294.678 119.386 293.356 119.487 292.027C119.508 291.758 119.927 291.779 119.906 292.048C119.809 293.285 120.159 294.516 120.891 295.519C121.623 296.521 122.69 297.229 123.898 297.515C124.161 297.577 124.028 297.975 123.767 297.913V297.913Z" fill="white"/>
<path d="M125.537 309.28C127.878 307.884 129.606 305.657 130.377 303.043C130.453 302.784 130.851 302.916 130.775 303.175C129.968 305.893 128.165 308.207 125.726 309.655C125.493 309.793 125.306 309.417 125.537 309.28L125.537 309.28Z" fill="white"/>
<path d="M127.867 286.413C128.343 286.639 128.867 286.744 129.394 286.717C129.92 286.69 130.432 286.533 130.882 286.26C131.113 286.12 131.3 286.495 131.071 286.635C130.572 286.934 130.007 287.107 129.425 287.138C128.843 287.168 128.263 287.056 127.735 286.811C127.683 286.792 127.641 286.755 127.616 286.705C127.591 286.656 127.586 286.599 127.602 286.547C127.619 286.494 127.657 286.451 127.707 286.426C127.756 286.401 127.814 286.396 127.867 286.413Z" fill="white"/>
<path d="M160.332 296.05C160.191 296.142 160.049 296.234 159.907 296.329C158.011 297.575 156.218 298.974 154.548 300.51C154.417 300.627 154.286 300.747 154.159 300.867C150.175 304.612 146.921 309.063 144.563 313.994C143.626 315.957 142.841 317.989 142.213 320.071C141.345 322.947 140.634 326.134 138.917 328.486C138.741 328.734 138.549 328.97 138.344 329.194H122.829C122.794 329.176 122.758 329.162 122.723 329.144L122.104 329.173C122.128 329.063 122.157 328.95 122.181 328.84C122.196 328.776 122.213 328.713 122.227 328.649C122.238 328.607 122.249 328.564 122.256 328.525C122.259 328.511 122.263 328.497 122.266 328.486C122.273 328.447 122.284 328.412 122.291 328.377C122.447 327.743 122.607 327.11 122.773 326.477C122.773 326.474 122.773 326.474 122.776 326.47C123.988 321.633 125.771 316.957 128.086 312.54C128.156 312.409 128.227 312.275 128.305 312.144C129.377 310.189 130.607 308.324 131.983 306.569C132.739 305.611 133.544 304.691 134.393 303.814C136.593 301.551 139.135 299.649 141.926 298.175C147.49 295.24 153.932 294.115 159.879 295.908C160.031 295.954 160.18 296 160.332 296.05Z" fill="#F0F0F0"/>
<path d="M160.297 296.246C152.572 297.78 145.526 301.707 140.161 307.47C138.984 308.69 138.007 310.087 137.265 311.612C136.591 313.12 136.333 314.781 136.519 316.422C136.661 317.956 136.984 319.508 136.75 321.05C136.619 321.837 136.323 322.588 135.881 323.253C135.439 323.918 134.861 324.482 134.186 324.908C132.531 326.014 130.577 326.459 128.651 326.828C126.512 327.238 124.284 327.63 122.5 328.965C122.283 329.127 122.045 328.782 122.261 328.621C125.366 326.298 129.527 326.786 132.924 325.146C134.509 324.381 135.873 323.134 136.266 321.361C136.609 319.811 136.278 318.21 136.12 316.658C135.916 315.06 136.106 313.436 136.675 311.928C137.336 310.371 138.258 308.937 139.401 307.689C141.928 304.839 144.888 302.403 148.173 300.471C151.909 298.246 155.999 296.676 160.265 295.828C160.529 295.776 160.56 296.194 160.297 296.246H160.297Z" fill="white"/>
<path d="M141.779 305.512C140.934 304.482 140.483 303.184 140.506 301.852C140.53 300.519 141.027 299.238 141.908 298.238C142.087 298.036 142.409 298.305 142.23 298.507C141.408 299.437 140.945 300.63 140.925 301.871C140.906 303.112 141.331 304.318 142.124 305.274C142.296 305.481 141.95 305.719 141.779 305.512Z" fill="white"/>
<path d="M136.344 315.654C139.054 315.947 141.776 315.208 143.965 313.586C144.182 313.425 144.421 313.769 144.204 313.93C141.922 315.615 139.089 316.377 136.269 316.066C136 316.036 136.077 315.624 136.344 315.654Z" fill="white"/>
<path d="M151.981 298.797C152.224 299.264 152.581 299.663 153.017 299.959C153.453 300.254 153.956 300.436 154.481 300.489C154.75 300.516 154.673 300.928 154.406 300.902C153.827 300.84 153.272 300.638 152.789 300.313C152.306 299.988 151.91 299.549 151.636 299.036C151.606 298.99 151.595 298.934 151.605 298.879C151.614 298.825 151.645 298.777 151.689 298.744C151.735 298.713 151.791 298.701 151.846 298.711C151.9 298.721 151.949 298.752 151.981 298.797H151.981Z" fill="white"/>
<path d="M450.159 306.01C459.829 312.671 474.604 308.015 474.604 308.015C474.604 308.015 473.688 292.561 464.011 285.906C454.341 279.245 439.574 283.895 439.574 283.895C439.574 283.895 440.488 299.349 450.159 306.01Z" fill="url(#paint0_linear_1287_51)"/>
<path d="M335.56 304.196H335.718C336.652 317.726 346.491 317.935 346.491 317.935C346.491 317.935 335.641 318.151 335.641 333.786C335.641 318.151 324.791 317.935 324.791 317.935C324.791 317.935 334.627 317.726 335.56 304.195V304.196ZM132.839 273.785H133.003C133.98 287.767 144.266 287.982 144.266 287.982C144.266 287.982 132.923 288.206 132.923 304.363C132.923 288.206 121.58 287.982 121.58 287.982C121.58 287.982 131.862 287.767 132.839 273.785Z" fill="#F1A045"/>
</g>
<path d="M133.717 53.9421C143.387 60.6029 158.161 55.947 158.161 55.947C158.161 55.947 157.246 40.4925 147.569 33.8379C137.899 27.1771 123.131 31.8268 123.131 31.8268C123.131 31.8268 124.046 47.2805 133.717 53.9421Z" fill="url(#paint1_linear_1287_51)"/>
<path d="M462.964 132.152C452.909 142.387 434.104 140.229 434.104 140.229C434.104 140.229 431.616 121.478 441.681 111.249C451.737 101.014 470.532 103.166 470.532 103.166C470.532 103.166 473.02 121.917 462.964 132.152Z" fill="url(#paint2_linear_1287_51)"/>
<path d="M406.915 30.4111H407.073C408.007 43.9413 417.846 44.15 417.846 44.15C417.846 44.15 406.996 44.3663 406.996 60.0016C406.996 44.3663 396.146 44.15 396.146 44.15C396.146 44.15 405.982 43.9413 406.915 30.4103V30.4111ZM204.194 0H204.358C205.335 13.9824 215.621 14.1973 215.621 14.1973C215.621 14.1973 204.278 14.4214 204.278 30.5778C204.278 14.4214 192.935 14.1973 192.935 14.1973C192.935 14.1973 203.217 13.9824 204.194 0Z" fill="#F1A045"/>
<path d="M374.446 47.3113H220.856C212.289 47.3113 205.344 54.2562 205.344 62.8232V102.597C205.344 111.164 212.289 118.109 220.856 118.109H374.446C383.013 118.109 389.957 111.164 389.957 102.597V62.8232C389.957 54.2562 383.013 47.3113 374.446 47.3113Z" fill="white" stroke="#E1E4E5" stroke-width="4"/>
<path d="M366.943 69.3475H271.453C269.135 69.3475 267.255 71.2268 267.255 73.545C267.255 75.8632 269.135 77.7425 271.453 77.7425H366.943C369.261 77.7425 371.14 75.8632 371.14 73.545C371.14 71.2268 369.261 69.3475 366.943 69.3475Z" fill="#E1E4E5"/>
<path d="M330.216 87.1861H271.453C269.135 87.1861 267.255 89.0654 267.255 91.3836C267.255 93.7018 269.135 95.5811 271.453 95.5811H330.216C332.534 95.5811 334.413 93.7018 334.413 91.3836C334.413 89.0654 332.534 87.1861 330.216 87.1861Z" fill="#E1E4E5"/>
<path fill-rule="evenodd" clip-rule="evenodd" d="M234.602 100.557C224.816 100.557 216.883 92.5114 216.883 82.5884C216.883 72.6647 224.816 64.6187 234.602 64.6187C244.388 64.6187 252.322 72.6647 252.322 82.5884C252.322 92.5114 244.388 100.557 234.602 100.557Z" fill="#024EFB"/>
<path d="M240.842 79.5938L233.357 87.5801L228.863 82.7893" stroke="white" stroke-width="3.568" stroke-linecap="round" stroke-linejoin="round"/>
<path d="M361.261 127.973H207.671C199.104 127.973 192.159 134.918 192.159 143.485V183.259C192.159 191.826 199.104 198.771 207.671 198.771H361.261C369.828 198.771 376.772 191.826 376.772 183.259V143.485C376.772 134.918 369.828 127.973 361.261 127.973Z" fill="white" stroke="#E1E4E5" stroke-width="4"/>
<path d="M353.758 150.009H258.268C255.95 150.009 254.07 151.889 254.07 154.207C254.07 156.525 255.95 158.404 258.268 158.404H353.758C356.076 158.404 357.955 156.525 357.955 154.207C357.955 151.889 356.076 150.009 353.758 150.009Z" fill="#E1E4E5"/>
<path d="M317.031 167.848H258.268C255.95 167.848 254.07 169.727 254.07 172.045C254.07 174.364 255.95 176.243 258.268 176.243H317.031C319.349 176.243 321.228 174.364 321.228 172.045C321.228 169.727 319.349 167.848 317.031 167.848Z" fill="#E1E4E5"/>
<path fill-rule="evenodd" clip-rule="evenodd" d="M221.513 180.975C211.727 180.975 203.793 172.929 203.793 163.006C203.793 153.082 211.727 145.036 221.513 145.036C231.298 145.036 239.233 153.082 239.233 163.006C239.233 172.929 231.298 180.975 221.513 180.975Z" fill="#EA426A"/>
<path d="M225.303 159.383L217.818 167.369" stroke="white" stroke-width="3.568" stroke-linecap="round" stroke-linejoin="round"/>
<path d="M218.278 158.997L224.843 167.755" stroke="white" stroke-width="3.568" stroke-linecap="round" stroke-linejoin="round"/>
<defs>
<linearGradient id="paint0_linear_1287_51" x1="487.83" y1="327.866" x2="411.705" y2="247.595" gradientUnits="userSpaceOnUse">
<stop stop-color="#024EFB"/>
<stop offset="1" stop-color="#EEEEEE"/>
</linearGradient>
<linearGradient id="paint1_linear_1287_51" x1="171.387" y1="75.7975" x2="95.2627" y2="-4.47346" gradientUnits="userSpaceOnUse">
<stop stop-color="#024EFB"/>
<stop offset="1" stop-color="#EEEEEE"/>
</linearGradient>
<linearGradient id="paint2_linear_1287_51" x1="422.844" y1="167.111" x2="495.541" y2="53.1531" gradientUnits="userSpaceOnUse">
<stop stop-color="#024EFB"/>
<stop offset="1" stop-color="#EEEEEE"/>
</linearGradient>
<clipPath id="clip0_1287_51">
<rect width="603.413" height="254.395" fill="white" transform="translate(0.587402 76.0083)"/>
</clipPath>
</defs>
</svg>
