<svg xmlns="http://www.w3.org/2000/svg" width="59" height="30" fill="none" viewBox="0 0 59 30">
    <g clip-path="url(#prefix__clip0)">
        <path fill="#333" fill-rule="evenodd" d="M57.856 6.145h-2.582c-.136-.001-.266-.056-.361-.152-.095-.097-.149-.227-.148-.363V3c0-.284.23-.514.51-.514l2.582.001c.282 0 .51.23.51.514l-.001 2.633c0 .135-.053.265-.15.361-.095.096-.225.15-.36.15zm-3.44-3.66h-1.753c-.046 0-.091-.009-.133-.027-.043-.017-.08-.043-.113-.076-.032-.032-.057-.07-.075-.113-.017-.042-.026-.087-.025-.133V.349c0-.193.155-.349.346-.349h1.754c.191 0 .346.157.346.35v1.788c0 .045-.01.09-.027.132-.017.043-.042.081-.075.113-.032.033-.07.058-.112.076-.042.017-.087.026-.133.026" clip-rule="evenodd"/>
        <mask id="prefix__a" width="53" height="23" x="0" y="7" maskUnits="userSpaceOnUse">
            <path fill="#fff" d="M.007 7.318h52.302v22.005H.007V7.319z"/>
        </mask>
        <g fill="#333" mask="url(#prefix__a)">
            <path fill-rule="evenodd" d="M35.156 12.454L32.237 24.21c-.855 3.445-2.317 4.925-5.044 5.105-.067.005-.133.008-.2.009-.587 0-.773-.328-.882-.854l-.05-.228c-.05-.24-.081-.51.057-.697.135-.182.375-.235.747-.267 1.827-.189 2.446-1.04 3.055-2.968-.288.098-.635.15-1.01.15-2.008 0-2.545-1.408-2.997-3.109l-2.41-8.888c-.08-.303-.134-.61.022-.815.158-.205.462-.234.768-.234h.203c.757 0 1.05.225 1.246.963l2.385 8.813c.308 1.1.618 1.286 1.392 1.286.632 0 1-.198 1.264-1.282l2.105-8.812c.168-.732.466-.968 1.223-.968h.228c.304 0 .607.028.768.231.16.203.118.51.049.81zm-14.728 5.96h-2.807c-2.257 0-3.136.578-3.136 2.06 0 1.352.876 2.01 2.68 2.01 2.73 0 3.263-.84 3.263-2.29v-1.78zm-3.263-7.376c3.693 0 5.489 1.365 5.489 4.174v5.058c0 2.904-1.685 4.198-5.464 4.198-3.18 0-4.93-1.418-4.93-3.994 0-2.655 1.695-3.893 5.336-3.893h2.832v-1.369c0-1.536-.916-2.162-3.162-2.162-1.25 0-2.393.186-2.751.276-.127.034-.257.054-.389.057-.225 0-.39-.081-.493-.241-.09-.137-.13-.332-.13-.613v-.202c0-.718.262-.89.887-1.028.355-.071 1.286-.26 2.775-.26zm-7.137 1.704c0 2.115-.537 3.26-3.365 3.26H2.309v-5.456c0-.757.279-1.038 1.03-1.038h3.324c2.13 0 3.365.528 3.365 3.234zM6.663 7.317H2.908c-2.006 0-2.901.902-2.901 2.922v12.978c0 .78.249 1.031 1.024 1.031h.254c.774 0 1.024-.25 1.024-1.031v-5.05h4.354c3.865 0 5.666-1.723 5.666-5.424 0-3.701-1.8-5.426-5.666-5.426z" clip-rule="evenodd" opacity=".963"/>
            <path d="M51.872 17.933V9.022c0-1.44-.583-1.7-2.153-1.7h-.494c-1.57 0-2.153.26-2.153 1.7v3.368l-.002.021v.74l-.001.075v4.707c0 .575-.11 1.033-.338 1.389-.428.663-1.275.965-2.63.968-1.355-.003-2.203-.304-2.63-.968-.228-.355-.338-.814-.338-1.389v-4.708l-.002-.075v-.739l-.001-.02V9.02c0-1.44-.584-1.7-2.154-1.7h-.494c-1.57 0-2.153.26-2.153 1.7v8.912c0 1.433.321 2.648.941 3.625 1.199 1.896 3.52 2.907 6.819 2.907h.024c3.3 0 5.62-1.01 6.818-2.907.62-.977.941-2.192.941-3.625z" opacity=".963"/>
        </g>
        <path fill="#333" fill-rule="evenodd" d="M54.075 11.07l-3.476-.002c-.09 0-.18-.019-.263-.054-.083-.035-.159-.086-.223-.15-.063-.064-.114-.14-.148-.224-.034-.084-.052-.173-.051-.264l.001-3.543c0-.382.308-.691.687-.691l3.476.001c.378 0 .686.31.685.692v3.544c0 .38-.308.69-.688.69" clip-rule="evenodd" opacity=".921"/>
    </g>
    <defs>
        <clipPath id="prefix__clip0">
            <path fill="#fff" d="M0 0H58.286V30H0z"/>
        </clipPath>
    </defs>
</svg>
