<svg width="30" height="29" viewBox="0 0 30 29" fill="none" xmlns="http://www.w3.org/2000/svg">
<path d="M29.8262 13.7837L27.2769 10.3241L27.3063 6.02615C27.309 5.63477 27.0561 5.28723 26.6829 5.16893L22.5858 3.87146L20.0868 0.374211C19.8586 0.0545822 19.449 -0.0772057 19.0776 0.0463613L14.9999 1.40735L10.9224 0.0458511C10.5507 -0.0777159 10.1409 0.0540724 9.91317 0.3737L7.41466 3.87044L3.31702 5.16861C2.94383 5.28645 2.69096 5.63423 2.69371 6.02538L2.7231 10.3233L0.173765 13.783C-0.0579218 14.0979 -0.0579218 14.5276 0.173765 14.8425L2.7231 18.3021L2.69371 22.6001C2.69097 22.9914 2.94383 23.339 3.31702 23.4573L7.41415 24.7548L9.91317 28.252C10.0843 28.4914 10.3571 28.6259 10.6396 28.6259C10.7343 28.6259 10.8292 28.611 10.9224 28.5799L14.9999 27.2194L19.0774 28.5809C19.4488 28.7047 19.8589 28.5724 20.0866 28.253L22.5851 24.7563L26.6827 23.4581C27.0559 23.3403 27.3088 22.9925 27.306 22.6013L27.2769 18.3027L29.8262 14.8431C30.0579 14.5284 30.0579 14.0984 29.8262 13.7838L29.8262 13.7837ZM25.6631 17.4823C25.5487 17.6377 25.4877 17.8256 25.4892 18.0179L25.5161 21.9541L21.7625 23.143C21.5782 23.2013 21.418 23.3176 21.3056 23.475L19.0176 26.6776L15.2829 25.4307C15.0993 25.3692 14.9008 25.3692 14.7172 25.4307L10.9823 26.6778L8.69405 23.4748C8.58195 23.3176 8.42126 23.2007 8.23715 23.1422L4.48378 21.9536L4.51068 18.0174C4.51218 17.8248 4.45114 17.637 4.33679 17.4818L2.00148 14.3133L4.33653 11.1444C4.45089 10.989 4.51192 10.8011 4.51043 10.6088L4.48352 6.67258L8.23709 5.48372C8.42144 5.42542 8.58163 5.30908 8.69399 5.15163L10.982 1.9491L14.7167 3.19599C14.9003 3.25752 15.0988 3.25752 15.2824 3.19599L19.0171 1.9491L21.3054 5.15214C21.4175 5.30934 21.5781 5.42618 21.7623 5.48472L25.5156 6.67333L25.4887 10.6095C25.4872 10.8021 25.5483 10.99 25.6626 11.1452L27.9984 14.3133L25.6631 17.4823Z" fill="white"/>
<path d="M19.3909 10.3335L13.3254 16.3989L10.6086 13.6822C10.2596 13.3331 9.69459 13.3331 9.34606 13.6822C8.99753 14.0312 8.99703 14.5962 9.34606 14.9448L12.6943 18.293C12.8687 18.4674 13.0972 18.5544 13.3259 18.5544C13.5546 18.5544 13.7828 18.4672 13.9574 18.293L20.6539 11.5965C21.003 11.2475 21.003 10.6824 20.6539 10.3339C20.3049 9.98539 19.7394 9.98488 19.3908 10.3334L19.3909 10.3335Z" fill="white"/>
</svg>
