<svg width="30" height="30" viewBox="0 0 30 30" fill="none" xmlns="http://www.w3.org/2000/svg">
<path d="M15.0859 20.6474C14.9696 20.622 14.849 20.6179 14.7313 20.6354C14.1591 20.5689 13.6313 20.2946 13.248 19.8647C12.8647 19.4352 12.6523 18.8792 12.6514 18.3034C12.6514 17.7321 12.1882 17.269 11.6169 17.269C11.0457 17.269 10.5825 17.7321 10.5825 18.3034C10.5839 19.2718 10.903 20.2128 11.4909 20.9827C12.0783 21.7525 12.9025 22.308 13.8363 22.5643V23.5988C13.8363 24.17 14.2995 24.6332 14.8708 24.6332C15.442 24.6332 15.9052 24.17 15.9052 23.5988V22.6271C17.3437 22.3256 18.5383 21.3286 19.0915 19.9667C19.6452 18.6049 19.485 17.057 18.6639 15.8373C17.8433 14.6178 16.4699 13.8867 15.0001 13.8863C14.3771 13.8863 13.78 13.6387 13.3394 13.1986C12.8989 12.7581 12.6514 12.1605 12.6514 11.5375C12.6514 10.9151 12.8989 10.3175 13.3394 9.87692C13.78 9.43683 14.3771 9.18932 15.0001 9.18932C15.623 9.18932 16.2201 9.43684 16.6607 9.87692C17.1012 10.3175 17.3488 10.915 17.3488 11.5375C17.3488 12.1092 17.8119 12.572 18.3832 12.572C18.9544 12.572 19.4176 12.1092 19.4176 11.5375C19.4162 10.5235 19.0666 9.54071 18.427 8.75384C17.7879 7.96648 16.8975 7.42293 15.9052 7.2138V6.27221C15.9052 5.70098 15.442 5.23779 14.8708 5.23779C14.2995 5.23779 13.8364 5.70098 13.8364 6.27221V7.27707C12.4487 7.65574 11.332 8.68695 10.8443 10.0404C10.3562 11.3939 10.5585 12.9003 11.3856 14.0774C12.2126 15.2545 13.5615 15.9551 15 15.9551C15.8285 15.9546 16.5955 16.391 17.0185 17.1035C17.4415 17.8156 17.4576 18.6986 17.061 19.426C16.6643 20.1533 15.9139 20.6174 15.0859 20.6474L15.0859 20.6474Z" fill="white"/>
<path d="M0 15C0 18.9783 1.58024 22.7937 4.3935 25.6065C7.20628 28.4198 11.0216 30 15 30C18.9784 30 22.7937 28.4198 25.6065 25.6065C28.4198 22.7937 30 18.9784 30 15C30 11.0216 28.4198 7.20628 25.6065 4.3935C22.7937 1.58024 18.9784 0 15 0C11.023 0.00415623 7.21042 1.58626 4.39811 4.39811C1.58626 7.21042 0.00413767 11.023 0 15ZM14.9996 2.06919C18.4294 2.06919 21.7183 3.43143 24.1437 5.85634C26.5686 8.28172 27.9308 11.5706 27.9308 15.0004C27.9308 18.4301 26.5686 21.719 24.1437 24.1444C21.7183 26.5693 18.4294 27.9315 14.9996 27.9315C11.5699 27.9315 8.28102 26.5693 5.85563 24.1444C3.43072 21.719 2.06848 18.4301 2.06848 15.0004C2.07218 11.572 3.43581 8.28492 5.86024 5.86095C8.28421 3.43651 11.5713 2.07286 14.9996 2.06919Z" fill="white"/>
</svg>
