<svg width="30" height="25" viewBox="0 0 30 25" fill="none" xmlns="http://www.w3.org/2000/svg">
<path d="M29.8549 11.8524C29.6775 11.626 26.8399 8.05603 22.6058 5.63135L27.0732 1.16402C27.3398 0.89738 27.3398 0.466579 27.0732 0.199969C26.8065 -0.0666416 26.3757 -0.0666708 26.1091 0.199969L21.3425 4.96658C19.4276 4.04478 17.2806 3.40923 14.9999 3.40923C6.85369 3.40923 0.41519 11.5075 0.145191 11.8523C-0.0483969 12.0991 -0.0483969 12.446 0.145191 12.6931C0.322572 12.9195 3.16019 16.4895 7.39428 18.9142L2.92695 23.3815C2.66031 23.6481 2.66031 24.0789 2.92695 24.3456C3.06004 24.4791 3.23468 24.546 3.40932 24.546C3.58396 24.546 3.75837 24.4791 3.89146 24.3462L8.65807 19.5796C10.5725 20.5014 12.7195 21.137 15.0001 21.137C23.1463 21.137 29.5848 13.0387 29.8548 12.6939C30.0484 12.4465 30.0484 12.0999 29.8548 11.8525L29.8549 11.8524ZM1.57157 12.2732C2.99515 10.6341 8.53605 4.77338 14.9997 4.77338C16.8705 4.77338 18.6596 5.27242 20.298 6.01024L18.3384 7.96984C17.4147 7.25095 16.2582 6.81883 14.9997 6.81883C11.9922 6.81883 9.54522 9.26584 9.54522 12.2733C9.54522 13.5318 9.97759 14.6883 10.696 15.6122L8.41063 17.8976C5.0233 16.0341 2.47181 13.3104 1.57122 12.2733L1.57157 12.2732ZM19.0906 12.2732C19.0906 14.5293 17.2558 16.3641 14.9997 16.3641C14.1173 16.3641 13.3019 16.0806 12.633 15.6039L18.3304 9.90653C18.807 10.5754 19.0906 11.3908 19.0906 12.2732ZM10.9088 12.2732C10.9088 10.017 12.7435 8.18227 14.9997 8.18227C15.882 8.18227 16.6975 8.46581 17.3663 8.94248L11.669 14.6398C11.1923 13.971 10.9088 13.1555 10.9088 12.2732ZM14.9997 19.773C13.1289 19.773 11.3398 19.2739 9.70137 18.5361L11.661 16.5765C12.5846 17.2954 13.7411 17.7275 14.9997 17.7275C18.0071 17.7275 20.4541 15.2805 20.4541 12.2731C20.4541 11.0145 20.0218 9.85803 19.3034 8.93412L21.5887 6.64877C24.9768 8.51229 27.5281 11.236 28.4287 12.2731C27.0044 13.9122 21.4637 19.7729 14.9994 19.7729L14.9997 19.773Z" fill="white"/>
</svg>
