<svg width="30" height="24" viewBox="0 0 30 24" fill="none" xmlns="http://www.w3.org/2000/svg">
<path fill-rule="evenodd" clip-rule="evenodd" d="M13.5717 1.42867C9.23221 1.42867 5.71419 4.94644 5.71419 9.28559C5.71419 9.67996 5.39444 9.99996 5.00007 9.99996C3.02748 9.99996 1.42849 11.599 1.42849 13.5713C1.42849 15.5436 3.02748 17.1426 5.00007 17.1426H6.78562V18.5714H5.00007C2.23855 18.5714 0 16.3326 0 13.5713C0 11.0441 1.87475 8.9551 4.3094 8.61855C4.65115 3.80166 8.66735 0 13.5714 0C17.4908 0 20.8412 2.42791 22.2047 5.86009C22.6457 5.76467 23.1029 5.71444 23.5714 5.71444C27.122 5.71444 30 8.59248 30 12.143C30 13.8542 29.5004 15.4534 28.5196 16.6387C27.5273 17.8381 26.0751 18.5716 24.2858 18.5716H23.2144V17.1428H24.2858C25.6523 17.1428 26.6999 16.5973 27.4188 15.7282C28.1489 14.8458 28.5715 13.5878 28.5715 12.143C28.5715 9.38148 26.3328 7.14293 23.5714 7.14293C23.014 7.14293 22.4794 7.23381 21.9806 7.40122C21.7986 7.46221 21.5996 7.44738 21.4289 7.36009C21.2579 7.27279 21.1289 7.12045 21.0718 6.93726C20.0731 3.74429 17.0917 1.42872 13.5718 1.42872L13.5717 1.42867Z" fill="white"/>
<path fill-rule="evenodd" clip-rule="evenodd" d="M14.2856 14.2859V23.5712H15.7144V14.2859H14.2856Z" fill="white"/>
<path fill-rule="evenodd" clip-rule="evenodd" d="M14.4947 13.0661L10.209 17.3518L11.2192 18.362L14.9998 14.5814L18.7804 18.362L19.7906 17.3518L15.5049 13.0661C15.226 12.7872 14.7736 12.7872 14.4947 13.0661Z" fill="white"/>
</svg>
