<svg width="30" height="25" viewBox="0 0 30 25" fill="none" xmlns="http://www.w3.org/2000/svg">
<path d="M1.87499 4.06209V1.87467H10.3125V23.1248L8.43747 23.1246C8.10244 23.1246 7.79295 23.3033 7.62554 23.5933C7.45813 23.8833 7.45813 24.2408 7.62554 24.5308C7.79295 24.8208 8.10245 24.9996 8.43747 24.9996H14.0625C14.3975 24.9996 14.707 24.8208 14.8744 24.5308C15.0418 24.2408 15.0418 23.8833 14.8744 23.5933C14.707 23.3033 14.3975 23.1246 14.0625 23.1246H12.1875V1.87499H20.6249V4.06241C20.6249 4.39744 20.8036 4.70693 21.0937 4.87434C21.3837 5.04175 21.7411 5.04175 22.0312 4.87434C22.3212 4.70693 22.4999 4.39743 22.4999 4.06241V0.937497C22.4999 0.688685 22.4011 0.450331 22.2254 0.274553C22.0496 0.0987746 21.811 0 21.5624 0H0.937497C0.688894 0 0.450331 0.0987746 0.274553 0.274553C0.0987747 0.450331 0 0.688685 0 0.937497V4.06241C0 4.39744 0.178708 4.70693 0.468748 4.87434C0.758788 5.04175 1.11621 5.04175 1.40624 4.87434C1.69628 4.70693 1.87499 4.39743 1.87499 4.06241V4.06209Z" fill="white"/>
<path d="M29.0623 11.2498H18.4375C18.1887 11.2498 17.9503 11.3485 17.7746 11.5243C17.5988 11.7001 17.5 11.9384 17.5 12.1873V14.3747C17.5 14.7097 17.6787 15.0192 17.9687 15.1866C18.2588 15.354 18.6162 15.354 18.9062 15.1866C19.1963 15.0192 19.375 14.7097 19.375 14.3747V13.1247H22.8126V23.1249H22.1875V23.1247C21.8525 23.1247 21.543 23.3034 21.3756 23.5934C21.2081 23.8835 21.2081 24.2409 21.3756 24.5309C21.543 24.821 21.8525 24.9997 22.1875 24.9997H25.3124C25.6474 24.9997 25.9569 24.821 26.1243 24.5309C26.2917 24.2409 26.2917 23.8835 26.1243 23.5934C25.9569 23.3034 25.6474 23.1247 25.3124 23.1247H24.6873V13.1245L28.1249 13.1247V14.0622C28.1249 14.3971 28.3036 14.7065 28.5936 14.874C28.8837 15.0416 29.2411 15.0416 29.5311 14.874C29.8212 14.7065 29.9999 14.397 29.9999 14.0622V12.1873C29.9999 11.9384 29.9011 11.7001 29.7253 11.5243C29.5496 11.3485 29.311 11.2498 29.0624 11.2498H29.0623Z" fill="white"/>
</svg>
