<svg width="29" height="31" viewBox="0 0 29 31" fill="none" xmlns="http://www.w3.org/2000/svg">
<path d="M26.8136 2.32217C26.5164 1.45491 25.8998 0.754638 25.0758 0.350874C24.6006 0.118031 24.0922 0 23.566 0C22.2438 0 21.062 0.736279 20.4802 1.92136L13.1112 16.9389C12.3757 18.4386 12.0801 25.0721 12.049 25.8234L12 27L12.9004 26.2408C13.4755 25.7558 18.5428 21.4607 19.2783 19.9608L26.6466 4.94326C27.0512 4.12072 27.1106 3.18965 26.8135 2.32213L26.8136 2.32217ZM13.1424 24.6714C13.2769 22.243 13.536 19.2208 13.8761 17.8906L18.058 19.9395C17.2141 21.0234 14.9818 23.0785 13.1423 24.6716L13.1424 24.6714ZM25.7168 4.48762L18.577 19.0408L14.2703 16.9303L21.4114 2.37714C21.8177 1.54912 22.6434 1.03499 23.5669 1.03499C23.9336 1.03499 24.2884 1.11774 24.6211 1.28075C25.1959 1.5623 25.6268 2.05157 25.8342 2.65668C26.0403 3.26276 25.9996 3.91282 25.7171 4.48758L25.7168 4.48762Z" fill="white"/>
<path d="M22.6894 27.5485C21.0899 27.5485 20.2519 28.0084 19.5128 28.4137C18.8366 28.7844 18.2532 29.1045 17.0152 29.1045C15.779 29.1045 15.195 28.7844 14.5194 28.4137C13.7803 28.0084 12.9426 27.5485 11.3438 27.5485C9.74435 27.5485 8.90667 28.0084 8.16761 28.4137C7.49201 28.7844 6.90865 29.1045 5.67105 29.1045C4.43484 29.1045 3.85112 28.7844 3.17553 28.4137C2.43651 28.0084 1.59879 27.5485 0 27.5485V28.9621C1.23621 28.9621 1.81994 29.2822 2.49552 29.6529C3.23455 30.0586 4.07157 30.5178 5.67071 30.5178C7.27019 30.5178 8.10788 30.0586 8.84693 29.6526C9.52253 29.2819 10.1059 28.9617 11.3435 28.9617C12.5797 28.9617 13.1634 29.2819 13.839 29.6519C14.578 30.0586 15.4158 30.5178 17.0152 30.5178C18.6151 30.5178 19.4528 30.0586 20.1925 29.6526C20.8681 29.2819 21.4522 28.9617 22.6894 28.9617C23.9267 28.9617 24.5104 29.2819 25.1863 29.6526C25.9247 30.0586 26.7631 30.5178 28.3626 30.5178V29.1042C27.1253 29.1042 26.5416 28.784 25.8656 28.4133C25.1266 28.0084 24.2889 27.5485 22.6894 27.5485V27.5485Z" fill="white"/>
</svg>
