<svg width="61" height="60" viewBox="0 0 61 60" fill="none" xmlns="http://www.w3.org/2000/svg">
<path d="M50.732 20.6924C50.732 20.9522 50.7196 21.2121 50.701 21.4719C50.6887 21.6142 50.6763 21.7565 50.6577 21.8988C50.6515 21.9359 50.633 22.0844 50.6577 21.905C50.6454 21.9916 50.633 22.072 50.6206 22.1586C50.534 22.666 50.4164 23.1671 50.2556 23.6558C50.1813 23.8909 50.0947 24.126 50.0019 24.355C49.94 24.5034 50.0947 24.157 49.9834 24.3983C49.9586 24.4478 49.94 24.4972 49.9153 24.5467C49.8596 24.6705 49.7977 24.7942 49.7359 24.9118C49.5008 25.3696 49.2347 25.8151 48.9378 26.2295C48.8759 26.3162 48.814 26.4028 48.746 26.4894C48.8512 26.3471 48.746 26.4894 48.715 26.5265C48.6717 26.576 48.6284 26.6317 48.5851 26.6812C48.4181 26.8792 48.251 27.071 48.0716 27.2504C47.9107 27.4174 47.7499 27.5721 47.5767 27.7268C47.4777 27.8196 47.3725 27.9062 47.2735 27.9928C47.2302 28.0299 47.1931 28.0609 47.1498 28.098C47.1374 28.1103 46.927 28.2712 47.0817 28.1537C46.6734 28.463 46.2403 28.7476 45.7886 28.9951C45.5721 29.1126 45.3555 29.224 45.1328 29.323C45.0833 29.3477 44.8111 29.4591 44.9781 29.391C44.8482 29.4405 44.7244 29.49 44.5945 29.5395C44.0996 29.7189 43.5922 29.8612 43.0726 29.9664C42.9488 29.9912 42.8251 30.0159 42.7014 30.0345C42.6333 30.0468 42.5591 30.0592 42.491 30.0654C42.5281 30.0592 42.6704 30.0468 42.4848 30.0654C42.2126 30.0963 41.9466 30.1149 41.6743 30.1273C41.1423 30.1458 40.6102 30.1149 40.0781 30.0654C39.8059 30.0407 40.1957 30.084 40.0287 30.0592C39.9606 30.0468 39.8864 30.0407 39.8183 30.0283C39.7069 30.0097 39.5956 29.9912 39.4842 29.9664C39.212 29.9107 38.9398 29.8489 38.6737 29.7684C38.4324 29.7004 38.1973 29.6261 37.9684 29.5395C37.8632 29.5024 37.7642 29.4591 37.6591 29.422C37.4116 29.3292 37.7642 29.4715 37.6158 29.4034C37.5415 29.3725 37.4673 29.3353 37.393 29.3044C36.9352 29.0941 36.4959 28.8466 36.0753 28.5744C35.8711 28.4382 35.6731 28.3021 35.4813 28.1536C35.6298 28.265 35.3638 28.0547 35.3205 28.0237C35.2091 27.9309 35.0915 27.8319 34.9864 27.7329C34.6152 27.3989 34.2687 27.04 33.9532 26.6564C33.9222 26.6131 33.7119 26.3471 33.8232 26.4956C33.7552 26.4089 33.6933 26.3223 33.6314 26.2357C33.4768 26.013 33.3283 25.7903 33.186 25.5552C33.0622 25.3448 32.9447 25.1344 32.8333 24.9117C32.7776 24.8004 32.722 24.689 32.6725 24.5838C32.6415 24.5219 32.6168 24.4601 32.5859 24.3982C32.5054 24.2188 32.6292 24.522 32.5549 24.3178C32.3755 23.8538 32.2208 23.3836 32.1033 22.901C32.0414 22.6536 31.9919 22.4061 31.9548 22.1586C31.9424 22.0905 31.93 22.0163 31.9239 21.9482C31.8991 21.7874 31.9424 22.171 31.9177 21.8988C31.9053 21.7565 31.8867 21.6142 31.8744 21.4719C31.8372 20.9398 31.8372 20.4077 31.8805 19.8757C31.8929 19.7458 31.9053 19.622 31.9177 19.4921C31.9362 19.3065 31.9239 19.4488 31.9177 19.4859C31.93 19.4179 31.9362 19.3436 31.9486 19.2756C31.9919 19.0157 32.0414 18.7497 32.1033 18.496C32.227 17.9887 32.3879 17.4875 32.5858 16.9988C32.5178 17.1659 32.6292 16.8998 32.6539 16.8442C32.7096 16.7204 32.7715 16.5967 32.8333 16.4791C32.9509 16.2502 33.0746 16.0213 33.2107 15.8048C33.3345 15.5944 33.4706 15.3902 33.6129 15.1922C33.6809 15.0933 33.7552 14.9943 33.8294 14.8953C33.718 15.0438 33.947 14.7468 33.9841 14.7035C34.312 14.3075 34.6708 13.9425 35.0544 13.6022C35.1348 13.528 35.2153 13.4599 35.3019 13.3919C35.3514 13.3485 35.4071 13.3052 35.4566 13.2619C35.4937 13.231 35.636 13.1258 35.4937 13.231C35.6855 13.0825 35.8835 12.9464 36.0876 12.8103C36.5207 12.5257 36.9724 12.2782 37.4426 12.0617C37.4921 12.0369 37.5416 12.0184 37.5911 11.9936C37.8324 11.8822 37.4859 12.0369 37.6344 11.9751C37.752 11.9317 37.8633 11.8823 37.9809 11.8389C38.2407 11.7461 38.5006 11.6595 38.7666 11.5853C38.9955 11.5234 39.2244 11.4677 39.4595 11.4182C39.5833 11.3935 39.707 11.3687 39.8307 11.3502C39.8864 11.344 39.9421 11.3316 39.9978 11.3254C40.2205 11.2883 39.8802 11.3316 40.0906 11.3131C40.635 11.2574 41.1795 11.2326 41.7301 11.2512C41.99 11.2636 42.2436 11.2883 42.4973 11.3131C42.5344 11.3192 42.6829 11.3378 42.5035 11.3131C42.5591 11.3192 42.6148 11.3316 42.6705 11.3378C42.8252 11.3625 42.9737 11.3873 43.1283 11.4182C43.6295 11.5234 44.1244 11.6595 44.607 11.8389C44.7369 11.8884 44.8606 11.9379 44.9906 11.9874C44.8111 11.9132 45.1081 12.0369 45.1452 12.0555C45.3927 12.1669 45.634 12.2906 45.8753 12.4267C46.0856 12.5442 46.296 12.6742 46.5002 12.8041C46.593 12.866 46.6796 12.9216 46.7662 12.9835C46.8219 13.0206 46.8776 13.0639 46.9332 13.1011C46.958 13.1196 47.1498 13.2619 47.0632 13.2001C46.958 13.1196 47.1683 13.2805 47.1622 13.2805C47.2055 13.3114 47.2488 13.3485 47.2859 13.3857C47.3787 13.4661 47.4715 13.5403 47.5581 13.6269C47.7499 13.8002 47.9355 13.9734 48.1088 14.159C48.2758 14.3322 48.4367 14.5117 48.5975 14.7035C48.6346 14.7468 48.6656 14.7839 48.7027 14.8272C48.6965 14.821 48.8636 15.0314 48.7831 14.9262C48.7027 14.821 48.8636 15.0314 48.8574 15.0252C48.9069 15.0932 48.9502 15.1551 48.9997 15.2232C49.2781 15.6253 49.5317 16.0398 49.7545 16.4792C49.8163 16.6029 49.8782 16.7204 49.9339 16.8442C49.9586 16.8999 50.07 17.1659 50.0019 16.9989C50.1071 17.2525 50.1999 17.5124 50.2865 17.7722C50.4412 18.261 50.5649 18.7683 50.6454 19.2756C50.6578 19.3437 50.6701 19.4179 50.6763 19.486C50.6701 19.4489 50.6578 19.3066 50.6763 19.4922C50.6887 19.6221 50.7011 19.7458 50.7134 19.8758C50.7196 20.1418 50.732 20.414 50.732 20.6924C50.732 21.175 51.1589 21.6452 51.66 21.6205C52.1612 21.5957 52.5881 21.2121 52.5881 20.6924C52.5757 18.3785 51.8766 16.0647 50.5216 14.1838C49.1605 12.2845 47.2858 10.8553 45.0957 10.051C40.7215 8.45485 35.5803 9.85305 32.6229 13.4476C31.1257 15.2727 30.2223 17.4691 30.0306 19.8263C29.8388 22.1587 30.4142 24.5593 31.633 26.5576C32.7961 28.4632 34.5408 30.0409 36.5825 30.9565C38.7851 31.9464 41.2103 32.2249 43.5799 31.7547C48.0778 30.8576 51.7467 27.0588 52.4395 22.5177C52.5323 21.9113 52.588 21.305 52.5942 20.6863C52.5942 20.2037 52.1673 19.7335 51.6662 19.7583C51.1588 19.783 50.7381 20.1728 50.7319 20.6925L50.732 20.6924Z" fill="#3472FF"/>
<path d="M23.96 25.7539C23.96 25.9952 23.9476 26.2426 23.929 26.4839C23.9228 26.5891 23.9105 26.6881 23.8981 26.7933C23.9105 26.6695 23.8919 26.8428 23.8857 26.849C23.8733 26.917 23.861 26.9851 23.8486 27.0531C23.762 27.5295 23.632 28.0059 23.465 28.4638C23.3784 28.6989 23.3598 28.7422 23.2732 28.9278C23.168 29.1505 23.0505 29.3671 22.9267 29.5836C22.8092 29.7816 22.6855 29.9734 22.5555 30.1652C22.4009 30.3879 22.3823 30.4126 22.2338 30.5921C21.9492 30.9323 21.6337 31.2541 21.2996 31.551C21.2315 31.6129 21.1573 31.6686 21.0892 31.7304C21.0397 31.7676 20.9964 31.8109 20.9469 31.848C20.9655 31.8356 21.0336 31.7799 20.9531 31.8418C20.7675 31.9779 20.5757 32.1079 20.3777 32.2316C19.592 32.7203 19.0104 32.9678 18.101 33.1844C17.8844 33.2401 17.6617 33.2772 17.4452 33.3143C17.4266 33.3205 17.2657 33.339 17.4019 33.3205C17.3524 33.3267 17.3029 33.3329 17.2596 33.339C17.1296 33.3514 16.9997 33.3638 16.8698 33.37C16.4119 33.4009 15.9479 33.3885 15.4901 33.3452C15.453 33.339 15.156 33.3019 15.3045 33.3267C15.1932 33.3081 15.0818 33.2895 14.9704 33.271C14.7539 33.2277 14.5312 33.1782 14.3208 33.1225C14.1105 33.0668 13.9001 32.9988 13.6898 32.9245C13.5846 32.8874 13.4856 32.8503 13.3804 32.807C13.3804 32.807 13.2381 32.7451 13.3185 32.7822C13.3928 32.8131 13.1701 32.7142 13.1701 32.7142C11.5862 31.9717 10.3983 30.8581 9.57552 29.3299C9.16718 28.5689 8.89496 27.7461 8.75266 26.8057C8.72792 26.6387 8.76504 26.9171 8.74648 26.7439C8.74029 26.6944 8.7341 26.6387 8.72792 26.5892C8.71554 26.4654 8.70936 26.3479 8.70317 26.2242C8.6908 25.9829 8.68461 25.7354 8.69698 25.4941C8.70317 25.3085 8.71554 25.1229 8.7341 24.9373C8.74029 24.8816 8.77123 24.6279 8.74648 24.8074C8.75885 24.696 8.77741 24.5846 8.80216 24.4733C8.87022 24.0897 8.96921 23.7123 9.08675 23.3473C9.14862 23.1617 9.21667 22.9884 9.28473 22.809C9.29092 22.7966 9.34042 22.6729 9.3033 22.7657C9.25999 22.8709 9.32804 22.71 9.34042 22.6915C9.38372 22.5925 9.43322 22.4935 9.48272 22.3945C9.64977 22.0542 9.84775 21.7263 10.0581 21.417C10.1138 21.3365 10.1633 21.2623 10.219 21.188C10.2499 21.1447 10.3674 20.9963 10.2684 21.12C10.3922 20.9591 10.5221 20.8106 10.6582 20.656C10.9181 20.3652 11.2027 20.0991 11.4996 19.8455C11.5615 19.796 11.6234 19.7403 11.6852 19.6908C11.5491 19.8022 11.7409 19.6475 11.7904 19.6166C11.9575 19.499 12.1245 19.3877 12.2916 19.2763C12.6133 19.0783 12.9536 18.9051 13.2938 18.7442C13.3062 18.738 13.43 18.6823 13.331 18.7257C13.2258 18.769 13.3866 18.7009 13.4114 18.6947C13.498 18.6576 13.5908 18.6267 13.6774 18.5957C13.8568 18.5277 14.0425 18.472 14.2281 18.4163C14.4137 18.3606 14.6055 18.3173 14.7911 18.274C14.8839 18.2555 14.9829 18.2369 15.0819 18.2183C15.1252 18.2121 15.1623 18.206 15.2056 18.1998C15.2304 18.1936 15.4531 18.1688 15.3355 18.1812C15.2427 18.1936 15.4716 18.1688 15.5088 18.1627C15.6077 18.1503 15.7067 18.1441 15.8057 18.1379C16.0223 18.1255 16.2388 18.1193 16.4554 18.1255C16.641 18.1255 16.8266 18.1379 17.0122 18.1503C17.1112 18.1565 17.2102 18.1688 17.3091 18.1812C17.4576 18.1936 17.1669 18.1565 17.3153 18.1812C17.371 18.1874 17.4267 18.1998 17.4824 18.206C17.8783 18.274 18.2743 18.3668 18.6579 18.4844C18.825 18.5401 18.9982 18.5957 19.1653 18.6638C19.2148 18.6823 19.4499 18.7813 19.2828 18.7133C19.3818 18.7566 19.4808 18.7999 19.5798 18.8494C19.9201 19.0164 20.2542 19.202 20.5697 19.4124C20.7244 19.5176 20.879 19.6228 21.0337 19.7403C20.91 19.6475 21.0523 19.7589 21.1018 19.796C21.1822 19.864 21.2688 19.9321 21.3492 20.0063C21.64 20.2662 21.9184 20.5446 22.1721 20.8354C22.234 20.9096 22.2897 20.9777 22.3515 21.0519C22.4629 21.188 22.302 20.9777 22.4072 21.12C22.5248 21.287 22.6423 21.4479 22.7537 21.6211C22.9578 21.9428 23.1434 22.2707 23.3043 22.6172C23.329 22.6667 23.428 22.8894 23.36 22.7348C23.3971 22.8214 23.4342 22.9142 23.4652 23.0008C23.5394 23.1926 23.6013 23.3906 23.6631 23.5886C23.7745 23.966 23.8549 24.3434 23.9168 24.7331C23.9168 24.7455 23.9354 24.8816 23.923 24.7764C23.9106 24.6589 23.9292 24.8383 23.9292 24.863C23.9354 24.9497 23.9477 25.0301 23.9539 25.1167C23.9539 25.3209 23.9601 25.5374 23.9601 25.754C23.9601 26.2365 24.387 26.7067 24.8881 26.682C25.3893 26.6572 25.8162 26.2737 25.8162 25.754C25.7976 22.1532 23.694 18.7194 20.4088 17.1912C17.006 15.6074 12.9845 16.1456 10.12 18.5833C7.20599 21.0704 6.07377 25.3023 7.3792 28.9092C8.80839 32.8688 12.7803 35.5539 17.0184 35.2137C19.1157 35.0466 21.077 34.2176 22.6546 32.8256C24.2137 31.446 25.315 29.5033 25.6614 27.4492C25.7542 26.8862 25.8099 26.3232 25.8161 25.7541C25.8161 25.2715 25.3892 24.8013 24.8881 24.826C24.3807 24.8446 23.9662 25.2344 23.96 25.7541L23.96 25.7539Z" fill="#3472FF"/>
<path d="M55.4028 43.4047V46.6528V48.1748V48.2738C55.4152 48.478 55.4523 48.1872 55.3966 48.3604C55.378 48.4099 55.3657 48.4656 55.3471 48.5151C55.4152 48.3295 55.3224 48.5398 55.2976 48.5769C55.3904 48.4285 55.31 48.5646 55.2667 48.6017C55.2481 48.6203 55.1182 48.7254 55.211 48.6574C55.3162 48.5769 55.0996 48.7131 55.1058 48.7131C55.1429 48.6883 55.2667 48.6759 55.1058 48.7131C55.0501 48.7254 55.0006 48.744 54.945 48.7502C55.1182 48.7131 54.9821 48.744 54.9388 48.7378H54.9326C53.7385 48.6945 52.5383 48.7378 51.3504 48.7378H43.4497H34.7386H28.6383C28.3042 48.7378 27.9763 48.7316 27.6422 48.7378C27.6112 48.7378 27.5432 48.7316 27.5494 48.7316C27.7288 48.7378 27.4689 48.7069 27.3947 48.6821C27.5679 48.7502 27.4071 48.6821 27.3638 48.6512C27.2524 48.5646 27.4627 48.7502 27.3638 48.6512C27.3143 48.6079 27.271 48.5584 27.2276 48.5089C27.3266 48.6326 27.2276 48.4903 27.1967 48.4346C27.2833 48.5893 27.172 48.3357 27.1596 48.2738C27.1905 48.447 27.1658 48.3109 27.172 48.2614V48.1315V46.5353C27.172 45.4155 27.1534 44.2956 27.172 43.1759C27.1967 41.8828 27.4256 40.6763 27.8773 39.4266C27.9144 39.3152 27.9577 39.21 28.001 39.1048C27.9948 39.1172 28.1062 38.8574 28.0505 38.9749C28.001 39.0925 28.1124 38.8326 28.1062 38.845C28.2114 38.6099 28.3227 38.3748 28.4465 38.1459C28.6878 37.688 28.9538 37.2488 29.2446 36.8281C29.3188 36.7229 29.3931 36.6178 29.4673 36.5188C29.4921 36.4878 29.6034 36.3394 29.5044 36.4693C29.5416 36.426 29.5725 36.3827 29.6096 36.3332C29.7767 36.1228 29.9561 35.9186 30.1355 35.7207C30.482 35.3433 30.847 34.9906 31.2368 34.6565C31.3358 34.5761 31.4348 34.4957 31.5337 34.4152C31.5585 34.3967 31.6698 34.3039 31.5461 34.4029C31.5894 34.3657 31.6389 34.3348 31.6822 34.2977C31.9111 34.1306 32.1462 33.9636 32.3875 33.8089C32.8206 33.5305 33.2723 33.2768 33.7363 33.0603C33.8415 33.0108 33.9466 32.9613 34.0518 32.918C34.1075 32.8933 34.157 32.8685 34.2127 32.85C34.058 32.918 34.2312 32.8438 34.2684 32.8252C34.522 32.7262 34.7819 32.6334 35.0479 32.5468C35.5491 32.3859 36.0626 32.256 36.5822 32.1632C36.7121 32.1385 36.8483 32.1199 36.9782 32.0952C37.0029 32.089 37.1885 32.0642 37.0772 32.0828C36.9411 32.1013 37.238 32.0642 37.2195 32.0642C37.4917 32.0333 37.7577 32.0147 38.0299 32.0024C38.2589 31.99 38.4878 31.99 38.7167 31.99H42.4474H43.889C44.1797 31.99 44.4643 31.9962 44.7551 32.0147C45.0088 32.0333 45.2625 32.058 45.5161 32.0828C45.3553 32.0642 45.5037 32.0828 45.5347 32.0828L45.7574 32.1199C45.9059 32.1447 46.0482 32.1694 46.1967 32.2003C46.7288 32.3055 47.2485 32.4478 47.762 32.6272C47.8733 32.6643 47.9785 32.7015 48.0899 32.7448C48.1456 32.7633 48.195 32.7881 48.2507 32.8066C48.2384 32.8005 48.4982 32.9056 48.3807 32.8561C48.2817 32.8128 48.4487 32.8871 48.4673 32.8933C48.5353 32.9242 48.5972 32.9489 48.6653 32.9799C48.7952 33.0418 48.9251 33.1036 49.055 33.1655C49.5129 33.3944 49.9583 33.6542 50.3852 33.945C50.5956 34.0873 50.8059 34.2358 51.0101 34.3905C50.8678 34.2853 51.1277 34.4895 51.1586 34.508C51.27 34.6008 51.3751 34.6875 51.4803 34.7864C51.8639 35.1267 52.2289 35.4856 52.563 35.8692C52.7301 36.0609 52.8971 36.2589 53.0518 36.4569C52.9528 36.3332 53.1322 36.5621 53.1631 36.6116C53.2559 36.7353 53.3426 36.8652 53.4292 36.9952C53.7138 37.4221 53.9736 37.8675 54.2087 38.3254C54.3201 38.5419 54.4191 38.7646 54.5181 38.9874C54.45 38.8327 54.5861 39.1668 54.6047 39.2039C54.6666 39.3586 54.7223 39.5195 54.7717 39.6741C55.211 40.9424 55.3966 42.1055 55.4028 43.4049C55.4028 43.8874 55.8297 44.3576 56.3308 44.3329C56.832 44.3081 57.2589 43.9246 57.2589 43.4049C57.2341 38.5235 54.4934 33.9141 50.1501 31.6493C48.2384 30.6532 46.1101 30.1397 43.9571 30.1336H40.3501C38.9519 30.1336 37.5721 30.1088 36.1863 30.3563C33.9466 30.7523 31.8555 31.767 30.1045 33.2085C28.366 34.6377 27.0482 36.5246 26.2191 38.6096C25.5076 40.4038 25.322 42.2846 25.322 44.2026V48.1004C25.322 49.0346 25.7365 49.9318 26.6089 50.3524C26.9801 50.5318 27.3761 50.5999 27.7906 50.5999H32.505H41.1109H49.7912H54.7345C54.951 50.5999 55.149 50.5875 55.3655 50.5565C56.5039 50.3833 57.2587 49.3253 57.2711 48.2179C57.2835 46.9805 57.2711 45.7431 57.2711 44.5058V43.4107C57.2711 42.9281 56.8442 42.4579 56.3431 42.4827C55.8296 42.4951 55.4027 42.8848 55.4027 43.4045L55.4028 43.4047Z" fill="#3472FF"/>
<path d="M27.5494 48.7321C26.8689 48.7568 26.1821 48.7383 25.5015 48.7383H20.7004H9.08747H5.62903H5.28256H5.20832H5.19595C5.1712 48.7383 4.73811 48.7197 5.10933 48.7383C5.35681 48.7507 4.89279 48.6393 5.10933 48.7445C5.0784 48.7321 4.86804 48.5898 5.03509 48.7197C4.97322 48.6702 4.91753 48.6145 4.86804 48.5527C4.99796 48.7135 4.85566 48.5032 4.84329 48.4784C4.92991 48.664 4.84329 48.4351 4.8371 48.398C4.87422 48.5774 4.84329 48.4289 4.84329 48.3732V48.2124V46.9812C4.84329 46.0964 4.81235 45.1993 4.89897 44.3147C4.90516 44.228 4.91753 44.1476 4.92991 44.061C4.90516 44.2775 4.94228 43.9991 4.94228 43.9744C4.96703 43.8073 4.99796 43.6403 5.0289 43.4794C5.10314 43.1268 5.18976 42.7741 5.29494 42.4276C5.39393 42.1121 5.50529 41.8028 5.62903 41.4934C5.72802 41.2398 5.5486 41.6605 5.66615 41.413C5.70327 41.3388 5.7342 41.2645 5.76514 41.1903C5.84557 41.017 5.93219 40.85 6.0188 40.6767C6.17348 40.3922 6.34053 40.1076 6.51375 39.8353C6.60037 39.6992 6.69317 39.5631 6.78597 39.4332C6.83547 39.3651 6.88496 39.3033 6.92827 39.2352C6.99014 39.1486 6.99633 39.1486 6.92827 39.229C6.9592 39.1857 6.99633 39.1424 7.02726 39.1053C7.4356 38.6041 7.88724 38.1339 8.37602 37.7071C8.49976 37.6019 8.62349 37.4967 8.74723 37.3977C8.9514 37.2307 8.59874 37.5029 8.81528 37.342C8.88334 37.2925 8.9452 37.243 9.01326 37.1997C9.29786 36.9956 9.59483 36.8038 9.89799 36.6244C10.1826 36.4573 10.4672 36.3088 10.7641 36.1665C10.8384 36.1294 10.9126 36.0985 10.9869 36.0675C11.2344 35.9562 10.8137 36.1356 11.0673 36.0304C11.2467 35.9624 11.4262 35.8881 11.6056 35.8263C12.2676 35.5973 12.9419 35.4365 13.6349 35.3313C13.9133 35.288 13.4431 35.3499 13.7277 35.3189C13.8143 35.3127 13.8948 35.3004 13.9814 35.2942C14.1546 35.2756 14.3217 35.2694 14.4949 35.2571C14.6991 35.2447 14.8971 35.2447 15.1012 35.2447H17.5079C17.6749 35.2447 17.842 35.2447 18.009 35.2509C18.2008 35.2571 18.3926 35.2694 18.5844 35.288C18.6772 35.2942 18.7762 35.3066 18.869 35.3189C18.9309 35.3251 18.9927 35.3313 19.0546 35.3437C18.9618 35.3313 18.9742 35.3313 19.0917 35.3499C19.8589 35.4798 20.6075 35.6654 21.3314 35.9438C21.6036 36.049 21.8325 36.148 22.1975 36.3336C22.5502 36.513 22.8905 36.711 23.2184 36.9275C23.8494 37.342 24.2702 37.6823 24.8456 38.2638C25.0992 38.5175 25.3405 38.7897 25.5694 39.0681C25.5756 39.0743 25.755 39.3032 25.6499 39.1609C25.7055 39.2352 25.7612 39.3032 25.8107 39.3775C25.9159 39.526 26.0211 39.6745 26.1201 39.8229C26.0891 39.5817 26.0582 39.3465 26.0273 39.1053C25.5632 40.4478 25.3219 41.877 25.3096 43.3C25.3034 43.6959 25.3096 44.0857 25.3096 44.4816C25.3096 45.7191 25.3034 46.9502 25.3096 48.1876C25.3158 49.5053 26.2376 50.4829 27.543 50.6005C28.0256 50.6438 28.4896 50.1426 28.4711 49.6724C28.4587 49.1218 28.0689 48.7815 27.5492 48.732C27.7286 48.7506 27.4935 48.7135 27.4317 48.6949C27.2955 48.6516 27.5616 48.7506 27.4317 48.6887C27.3945 48.6702 27.3636 48.6454 27.3265 48.6268C27.475 48.7196 27.2584 48.5588 27.2213 48.5093C27.3574 48.6702 27.1471 48.3051 27.2213 48.5093C27.2027 48.4598 27.1904 48.4041 27.1718 48.3546C27.1656 48.3361 27.1532 48.2123 27.1594 48.3175C27.1656 48.4165 27.1656 48.3113 27.1656 48.268V48.1752V46.9935V43.7392C27.1656 43.2071 27.178 42.6812 27.2275 42.1553C27.277 41.679 27.3698 41.1654 27.4997 40.6457C27.5616 40.3982 27.6296 40.1508 27.7101 39.9033C27.7596 39.7548 27.8091 39.6187 27.8276 39.4702C27.8647 39.1856 27.7719 38.9567 27.6173 38.7278C26.5469 37.1501 25.1239 35.8199 23.4534 34.8919C21.7335 33.9391 19.7846 33.4194 17.811 33.3885C16.9015 33.37 15.9921 33.3885 15.0888 33.3885C11.754 33.3885 8.49979 34.7558 6.21679 37.2058C5.02891 38.4804 4.13177 39.9961 3.58116 41.648C3.12952 42.9968 2.97484 44.4074 2.97484 45.8242V47.5379C2.97484 47.9896 2.93153 48.4783 3.0429 48.9238C3.28419 49.9137 4.18745 50.5695 5.18358 50.5943H5.41868H9.51439H16.4685H23.3607H27.277C27.3636 50.5943 27.4502 50.5943 27.5368 50.5881C28.0194 50.5695 28.4896 50.1736 28.4649 49.6601C28.4587 49.1713 28.0689 48.7135 27.5492 48.732L27.5494 48.7321Z" fill="#3472FF"/>
</svg>
