<svg width="31" height="30" viewBox="0 0 31 30" fill="none" xmlns="http://www.w3.org/2000/svg">
<path fill-rule="evenodd" clip-rule="evenodd" d="M15.8984 0C24.1768 0 30.8984 6.61624 30.8984 14.7845C30.8984 22.944 24.1858 29.5691 15.8984 29.5691C7.62009 29.5691 0.898438 22.9529 0.898438 14.7845C0.898438 6.62511 7.6111 0 15.8984 0ZM13.9638 11.8489H17.0412V13.401H17.0862C17.5181 12.6383 18.5619 11.8489 20.1276 11.8489C23.3759 11.8489 23.9788 13.8444 23.9788 16.4342V21.7201H20.7665V17.0373C20.7665 15.9198 20.7395 14.483 19.0928 14.483C17.4191 14.483 17.1672 15.698 17.1672 16.9574V21.7201H13.9548V11.8489H13.9638ZM11.7413 9.10842C11.7413 10.013 10.9944 10.758 10.0676 10.758C9.14979 10.758 8.39394 10.0219 8.39394 9.10842C8.39394 8.20378 9.14079 7.45879 10.0676 7.45879C10.9854 7.45879 11.7413 8.19491 11.7413 9.10842ZM8.40294 11.8489H11.7413V21.7201H8.40294V11.8489Z" fill="black"/>
</svg>
