<svg width="30" height="25" viewBox="0 0 30 25" fill="none" xmlns="http://www.w3.org/2000/svg">
<path d="M24.9229 0H5.07676H5.07709C3.73038 0 2.43906 0.632609 1.48706 1.75919C0.534725 2.88541 0 4.41304 0 6.00619V18.5642V18.5638C0 20.157 0.53475 21.6846 1.48706 22.8108C2.43906 23.9374 3.73038 24.57 5.07709 24.57H24.9232H24.9229C26.2696 24.57 27.5609 23.9374 28.5129 22.8108C29.4653 21.6846 30 20.157 30 18.5638V6.00581V6.00619C30 4.41304 29.4652 2.88541 28.5129 1.75919C27.5609 0.63258 26.2696 0 24.9229 0ZM20.8755 12.5248L11.8755 17.9848C11.804 18.0283 11.7187 18.0252 11.6501 17.9761C11.5812 17.9273 11.539 17.8394 11.5384 17.7445V6.82453C11.539 6.72969 11.5812 6.64171 11.6501 6.59296C11.7187 6.54383 11.804 6.54079 11.8755 6.5842L20.8755 12.0442C20.9524 12.091 21.001 12.1847 21.001 12.2872C21.001 12.3896 20.9524 12.4833 20.8755 12.5302V12.5248Z" fill="black"/>
</svg>
