<svg width="54" height="30" viewBox="0 0 54 30" fill="none" xmlns="http://www.w3.org/2000/svg">
<path d="M26.9298 0.408302L52.3114 9.99681C52.7285 10.1621 53.0239 10.5968 53.0239 11.0457C53.0239 11.4946 52.7288 11.929 52.3114 12.0942L49.086 13.3103V19.3913C49.4295 19.701 49.6502 20.144 49.6502 20.6429C49.6502 21.5773 48.8925 22.3351 47.958 22.3351C47.0236 22.3351 46.2658 21.5777 46.2658 20.6429C46.2658 20.144 46.4865 19.701 46.83 19.3913V14.1562L42.9345 15.6367L43.4456 22.8107C43.5298 23.9894 42.7858 24.8979 41.8593 25.6486C40.9327 26.3993 39.6902 27.0527 38.1755 27.6402C35.146 28.8158 31.0405 29.6672 26.5241 29.6672C22.0078 29.6672 17.9027 28.8158 14.8728 27.6402C13.358 27.0524 12.1155 26.3989 11.189 25.6486C10.2625 24.8979 9.51846 23.9894 9.60266 22.8107L10.1137 15.6367L0.736444 12.0937C0.3194 11.9285 0.0239258 11.4937 0.0239258 11.0452C0.0239258 10.5963 0.319008 10.1619 0.736444 9.99631L26.1181 0.407799C26.4517 0.27088 26.7393 0.353505 26.9289 0.407799L26.9298 0.408302ZM26.5246 2.66424L4.31565 11.0544L26.5246 19.4268L48.7335 11.0544L26.5246 2.66424ZM40.7312 16.466L26.9305 21.6834C26.6724 21.7826 26.3777 21.7826 26.1196 21.6834L12.3188 16.466L11.8605 22.9699C11.8605 22.9699 11.949 23.3587 12.6009 23.8867C13.2525 24.4147 14.325 25.0154 15.6855 25.5434C18.4073 26.5994 22.2922 27.4119 26.5251 27.4119C30.758 27.4119 34.6437 26.5994 37.3646 25.5434C38.7252 25.0154 39.7976 24.4142 40.4492 23.8867C41.1007 23.3587 41.1893 22.9692 41.1897 22.9699L40.7312 16.466Z" fill="#195EFB"/>
</svg>
