<svg width="20" height="14" viewBox="0 0 20 14" fill="none" xmlns="http://www.w3.org/2000/svg">
<path d="M12.8549 0.198604C12.5978 0.455658 12.5978 0.841232 12.8549 1.09861L17.7398 6.02621H0.642629C0.29979 6.02621 0 6.32631 0 6.66884C0 7.01168 0.300096 7.31147 0.642629 7.31147H17.7398L12.8549 12.1964C12.5978 12.4534 12.5978 12.839 12.8549 13.0964C13.1119 13.3534 13.4975 13.3534 13.7549 13.0964L19.7965 7.05475C19.7965 7.05475 19.8393 7.05475 19.8393 7.01201C20.0536 6.7977 20.0536 6.45486 19.8393 6.24086C19.8393 6.24086 19.7965 6.24086 19.7965 6.19812L13.7549 0.15649C13.4975 -0.058717 13.0689 -0.0587169 12.8549 0.198634V0.198604Z" fill="white"/>
</svg>
