<svg width="92" height="52" viewBox="0 0 92 52" fill="none" xmlns="http://www.w3.org/2000/svg">
<path d="M46.7019 0.9735L90.6051 17.559C91.3264 17.8448 91.8375 18.5968 91.8375 19.3733C91.8375 20.1498 91.3271 20.9011 90.6051 21.1869L85.0261 23.2904V33.8089C85.6202 34.3445 86.002 35.1108 86.002 35.9738C86.002 37.59 84.6912 38.9008 83.0749 38.9008C81.4586 38.9008 80.1478 37.5908 80.1478 35.9738C80.1478 35.1108 80.5296 34.3445 81.1238 33.8089V24.7535L74.3857 27.3144L75.2697 39.7235C75.4153 41.7624 74.1284 43.3338 72.5257 44.6323C70.923 45.9307 68.7739 47.0611 66.1538 48.0771C60.9137 50.1106 53.8122 51.5833 46.0002 51.5833C38.1882 51.5833 31.0874 50.1106 25.8465 48.0771C23.2264 47.0604 21.0773 45.93 19.4746 44.6323C17.872 43.3338 16.585 41.7624 16.7307 39.7235L17.6147 27.3144L1.39457 21.186C0.673199 20.9002 0.162109 20.1482 0.162109 19.3724C0.162109 18.5959 0.67252 17.8446 1.39457 17.5581L45.2978 0.972631C45.8749 0.735797 46.3724 0.878716 46.7004 0.972631L46.7019 0.9735ZM46.0009 4.87566L7.58562 19.3883L46.0009 33.8702L84.4162 19.3883L46.0009 4.87566ZM70.5745 28.7489L46.703 37.7736C46.2566 37.9451 45.7469 37.9451 45.3004 37.7736L21.4289 28.7489L20.6361 39.9989C20.6361 39.9989 20.7892 40.6713 21.9169 41.5846C23.0439 42.4979 24.899 43.5371 27.2523 44.4503C31.9603 46.2768 38.6801 47.6823 46.0018 47.6823C53.3235 47.6823 60.0447 46.2769 64.7512 44.4503C67.1046 43.537 68.9597 42.4972 70.0867 41.5846C71.2137 40.6713 71.3668 39.9976 71.3675 39.9989L70.5745 28.7489Z" fill="white"/>
</svg>
