<svg width="69" height="63" viewBox="0 0 69 63" fill="none" xmlns="http://www.w3.org/2000/svg">
<path fill-rule="evenodd" clip-rule="evenodd" d="M19.7144 8.21453C19.7144 3.67764 23.392 0 27.9283 0H41.0713C45.6076 0 49.2853 3.67764 49.2853 8.21453V11.5C49.2853 12.407 48.5499 13.143 47.6423 13.143H21.3579C20.4503 13.143 19.7149 12.407 19.7149 11.5L19.7144 8.21453ZM27.9283 3.28604C25.2067 3.28604 22.9998 5.49231 22.9998 8.21453V9.85698H46.0004V8.21453C46.0004 5.49231 43.7935 3.28604 41.0719 3.28604H27.9283Z" fill="white"/>
<path fill-rule="evenodd" clip-rule="evenodd" d="M0.000488281 18.0715C0.000488281 13.5346 3.67813 9.85699 8.21445 9.85699H60.7859C65.3223 9.85699 68.9999 13.5346 68.9999 18.0715V54.2128C68.9999 58.7497 65.3223 62.4273 60.7859 62.4273H8.21445C3.67813 62.4273 0.000488281 58.7497 0.000488281 54.2128V18.0715ZM8.21445 13.143C5.4928 13.143 3.28596 15.3493 3.28596 18.0715V54.2128C3.28596 56.935 5.4928 59.1413 8.21445 59.1413H60.7859C63.5076 59.1413 65.7144 56.935 65.7144 54.2128V18.0715C65.7144 15.3493 63.5076 13.143 60.7859 13.143H8.21445Z" fill="white"/>
<path fill-rule="evenodd" clip-rule="evenodd" d="M0.000576913 18.0715C0.000576913 13.5346 3.67822 9.85699 8.21454 9.85699H60.786C65.3224 9.85699 69 13.5346 69 18.0715V27.9285C69 28.654 68.5242 29.2937 67.8295 29.5017L34.9719 39.3587C34.6645 39.4511 34.3355 39.4511 34.0281 39.3587L1.17052 29.5017C0.475796 29.2937 0 28.654 0 27.9285L0.000576913 18.0715ZM8.21454 13.143C5.49289 13.143 3.28605 15.3493 3.28605 18.0715V26.7062L34.5003 36.0704L65.7145 26.7062V18.0715C65.7145 15.3493 63.5077 13.143 60.786 13.143H8.21454Z" fill="white"/>
<path fill-rule="evenodd" clip-rule="evenodd" d="M32.8569 44.3559V31.2135H36.143V44.3559H32.8569Z" fill="white"/>
</svg>
