<svg width="61" height="61" viewBox="0 0 61 61" fill="none" xmlns="http://www.w3.org/2000/svg">
<path d="M30.0571 24.1474C26.8549 24.1474 23.7839 22.8754 21.5197 20.611C19.2555 18.3467 17.9834 15.2759 17.9834 12.0737C17.9834 8.87152 19.2554 5.80054 21.5197 3.53633C23.7841 1.27211 26.8549 0 30.0571 0C33.2593 0 36.3302 1.27199 38.5944 3.53633C40.8587 5.80066 42.1308 8.87152 42.1308 12.0737C42.1308 15.2759 40.8588 18.3468 38.5944 20.611C36.3301 22.8753 33.2593 24.1474 30.0571 24.1474ZM30.0571 4.02456C27.9222 4.02456 25.8749 4.8726 24.3657 6.38227C22.856 7.89148 22.008 9.93883 22.008 12.0737C22.008 14.2085 22.856 16.2559 24.3657 17.7651C25.8749 19.2748 27.9222 20.1228 30.0571 20.1228C32.1919 20.1228 34.2393 19.2748 35.7485 17.7651C37.2582 16.2559 38.1062 14.2085 38.1062 12.0737C38.1062 9.93883 37.2582 7.89148 35.7485 6.38227C34.2393 4.8726 32.1919 4.02456 30.0571 4.02456Z" fill="white"/>
<path d="M53.0375 60.5294H7.07704C4.92505 60.5308 2.8885 59.5534 1.54327 57.8734C0.224934 56.2524 -0.285726 54.1201 0.154906 52.0778C1.40723 46.3756 4.27916 41.1563 8.4255 37.0467C14.1812 31.348 21.9584 28.1576 30.0569 28.1724C36.6772 28.1154 43.1322 30.2363 48.4285 34.2092C49.6 35.0389 50.6972 35.9678 51.7087 36.986C55.8551 41.0963 58.7265 46.3157 59.9793 52.0183C60.42 54.0607 59.9093 56.1929 58.5905 57.8134C57.2533 59.522 55.2064 60.5232 53.037 60.53L53.0375 60.5294ZM30.0573 32.1965C23.0138 32.1794 16.2496 34.9503 11.243 39.9033C7.64968 43.4702 5.16261 47.9979 4.0792 52.9429C3.89235 53.7945 4.1075 54.6852 4.66267 55.3576C5.25108 56.0875 6.14003 56.5098 7.07741 56.5044H53.0379C53.9753 56.5098 54.8643 56.0875 55.4526 55.3576C56.0078 54.6852 56.223 53.7945 56.0361 52.9429C54.9473 47.9953 52.4526 43.4672 48.852 39.9033C48.022 39.0369 47.1201 38.2428 46.1557 37.529C41.5248 34.0242 35.8648 32.1494 30.0575 32.1965H30.0573Z" fill="white"/>
</svg>
