<svg width="40" height="44" viewBox="0 0 40 44" fill="none" xmlns="http://www.w3.org/2000/svg">
<path d="M37.9573 0.95752H2.04213C0.914117 0.95752 0 1.87199 0 2.99965V25.4676C0 26.596 0.914468 27.5098 2.04213 27.5098H37.9582C39.0862 27.5098 40 26.596 40 25.4676V3.00053C40.0003 1.87251 39.0859 0.957695 37.9579 0.957695L37.9573 0.95752ZM37.8887 25.3632H2.11057V3.26346H37.8878V25.3632H37.8887Z" fill="#024EFB"/>
<path d="M26.2396 28.3533H24.3824L26.0806 34.4128H13.9182L15.6164 28.3533H13.7585L9.76995 42.5835C9.6371 43.0593 9.91412 43.5536 10.3899 43.6858C10.8664 43.8193 11.36 43.5416 11.4922 43.0658L13.4527 36.0729H26.5457L28.5059 43.0658C28.6394 43.5416 29.1324 43.8193 29.6078 43.6858C30.0843 43.5529 30.3613 43.0593 30.2277 42.5835L26.2396 28.3533Z" fill="#024EFB"/>
<path d="M29.6739 22.0042H34.9353V23.8723H29.6739V22.0042Z" fill="#024EFB"/>
</svg>
