<svg width="61" height="61" viewBox="0 0 61 61" fill="none" xmlns="http://www.w3.org/2000/svg">
<path d="M44.8776 7.26376H16.6346C14.2892 7.26376 12.3835 9.16943 12.3835 11.5148V49.4327C12.3835 51.7781 14.2892 53.6838 16.6346 53.6838H44.9265C47.2718 53.6838 49.1775 51.7781 49.1775 49.4327L49.1778 11.5148C49.1287 9.16943 47.2231 7.26376 44.8778 7.26376H44.8776ZM47.4673 49.4328C47.4673 50.8497 46.2945 51.9738 44.8776 51.9738L16.6346 51.9735C15.2177 51.9735 14.0448 50.8007 14.0448 49.4325V11.5145C14.0448 10.0977 15.2176 8.92478 16.6346 8.92478H44.9265C46.3433 8.92478 47.5162 10.0976 47.5162 11.5145V49.4325L47.4673 49.4328Z" fill="#3472FF" stroke="#3472FF" stroke-width="0.5"/>
<path d="M25.8208 27.1023L30.1697 22.7534L32.3684 24.9522C32.7106 25.2944 33.1991 25.2944 33.5412 24.9522L38.1345 20.359L38.9651 21.1896C39.2095 21.434 39.6004 21.2874 39.6492 20.9452L40.0889 17.7201C40.1376 17.4758 39.8936 17.2314 39.6492 17.2804L36.4241 17.7201C36.0819 17.7689 35.9354 18.1598 36.1797 18.4042L37.0104 19.2348L33.0034 23.2418L30.7559 20.9943C30.4137 20.6521 29.9252 20.6521 29.5831 20.9943L24.6967 25.9296C24.3545 26.2719 24.3545 26.7603 24.6967 27.1025C24.9902 27.3952 25.5274 27.3952 25.8208 27.1021V27.1023Z" fill="#3472FF" stroke="#3472FF" stroke-width="0.5"/>
<path d="M40.138 36.8749H21.3745C20.9348 36.8749 20.5438 37.2659 20.5438 37.7056C20.5438 38.1452 20.9348 38.5362 21.3745 38.5362H40.0891C40.5288 38.5362 40.9198 38.1452 40.9198 37.7056C40.9685 37.2171 40.5775 36.8749 40.1379 36.8749H40.138Z" fill="#3472FF" stroke="#3472FF" stroke-width="0.5"/>
<path d="M40.138 44.4488H21.3745C20.9348 44.4488 20.5438 44.8397 20.5438 45.2794C20.5438 45.7191 20.9348 46.11 21.3745 46.11H40.0891C40.5288 46.11 40.9198 45.7191 40.9198 45.2794C40.9685 44.7906 40.5775 44.4488 40.1379 44.4488H40.138Z" fill="#3472FF" stroke="#3472FF" stroke-width="0.5"/>
<path d="M40.1379 29.3011H22.2051V16.2057C22.2051 15.766 21.8141 15.3751 21.3745 15.3751C20.9348 15.3751 20.5438 15.7661 20.5438 16.2057V30.1318C20.5438 30.5715 20.9348 30.9624 21.3745 30.9624H40.0891C40.5288 30.9624 40.9198 30.5715 40.9198 30.1318C40.9685 29.643 40.5775 29.3008 40.1379 29.3008L40.1379 29.3011Z" fill="#3472FF" stroke="#3472FF" stroke-width="0.5"/>
</svg>
