<svg width="60" height="60" viewBox="0 0 60 60" fill="none" xmlns="http://www.w3.org/2000/svg">
<path d="M39.9518 43.5344C40.2565 43.661 40.5617 43.8605 40.8199 44.1565C41.4078 44.8225 41.6742 45.8172 41.4961 46.6888C41.3231 47.5569 40.7816 48.1275 40.1034 48.3096L31.5808 50.6051C30.951 50.7368 30.2646 50.524 29.7389 49.9483C29.1796 49.3395 28.9642 48.4494 29.1423 47.6411C29.3153 46.8455 29.8619 46.2233 30.5187 46.0488L39.9518 43.5344ZM40.7061 37.0398C41.4002 37.8022 41.7003 38.9413 41.4839 39.9493C41.2675 40.9608 40.6076 41.6718 39.7814 41.8962L30.3181 44.4285C29.4888 44.649 28.5656 44.3658 27.8762 43.5992C27.1729 42.8235 26.8932 41.7732 27.1137 40.7499C27.3122 39.8012 27.9348 38.9755 28.7141 38.7683L38.256 36.2099C39.169 35.9685 40.1851 36.4682 40.7061 37.0398L40.7061 37.0398ZM38.7627 29.7904C39.4522 30.5569 39.7569 31.6869 39.5405 32.6999C39.3241 33.7119 38.6642 34.4182 37.8349 34.6387L28.3716 37.17C27.5458 37.3946 26.6221 37.1108 25.9326 36.3402C25.2294 35.5665 24.9497 34.5208 25.1702 33.4992C25.3815 32.4887 26.0368 31.7854 26.8727 31.5512L36.3181 28.9561C37.1913 28.7158 38.191 29.2016 38.7626 29.7906L38.7627 29.7904ZM13.3923 10.8648C14.6671 10.8005 16.6442 11.6941 17.4398 12.8505C19.6372 16.0468 19.9006 19.6748 20.3916 25.4034C20.438 25.9035 20.9249 26.2455 21.4128 26.1148L47.8715 18.9589C48.7611 18.7185 49.404 18.8542 49.8909 19.1492C50.3773 19.4452 50.7243 19.9377 50.8723 20.5042C51.1739 21.6392 50.7876 22.939 49.0529 23.4601L26.4431 29.9884C24.9907 30.387 23.9026 31.6143 23.576 33.1555C23.2509 34.684 23.6745 36.2717 24.7192 37.4321C25.1892 37.9532 25.7654 38.3426 26.3798 38.584C25.9685 39.104 25.6638 39.7261 25.5189 40.4131C25.1938 41.9375 25.6174 43.5293 26.6667 44.6897C27.1163 45.1878 27.6577 45.5613 28.2421 45.8027C27.9171 46.2335 27.6757 46.7382 27.5511 47.2929C27.2633 48.6106 27.6241 50.0502 28.5341 51.0495C28.631 51.1541 28.7372 51.248 28.8438 51.3414L26.7733 51.8957C22.9586 52.9291 20.9681 53.3614 19.6557 53.3736C18.3425 53.3863 17.6031 53.0311 15.9592 52.2768C12.6313 50.7428 10.5404 47.2295 9.61618 43.0804C8.68888 38.9354 8.96498 34.2178 10.2056 30.5955L12.8809 22.7751C13.872 19.8748 13.5887 16.949 12.3527 13.6297C11.9031 12.4233 12.0046 11.7496 12.2001 11.4195C12.3894 11.0893 12.7528 10.8948 13.3928 10.8647L13.3923 10.8648ZM13.3117 9.23525C12.3206 9.28578 11.3142 9.68895 10.7844 10.5979C10.2562 11.5135 10.2863 12.7286 10.8273 14.1933C11.9832 17.3095 12.1945 19.7479 11.3402 22.2541L8.65982 30.0654C7.30383 34.0252 7.02934 38.9781 8.02495 43.4411C9.02419 47.9081 11.3278 51.9383 15.2729 53.7505C16.9116 54.5043 18.0293 55.0121 19.6675 54.9998C21.3062 54.9876 23.3556 54.5048 27.192 53.4714L40.5324 49.8816C43.7807 49.0084 44.0042 44.0555 41.6633 42.7051C44.6483 40.0289 42.7478 35.4904 40.2838 34.8346C42.1975 32.8397 41.2111 29.3378 39.2473 28.094L49.5235 25.0203C51.9905 24.2828 52.9402 21.9725 52.4452 20.0913C52.1987 19.1559 51.6194 18.2965 50.7427 17.7581C49.8665 17.2207 48.7054 17.0467 47.453 17.3855L21.8997 24.2997C21.4649 19.1554 21.1117 15.315 18.7845 11.9326C17.5673 10.1617 15.2902 9.14261 13.3121 9.23537L13.3117 9.23525Z" fill="#3472FF" stroke="#3472FF" stroke-width="0.5"/>
<path d="M33.0356 6.05516C32.7054 6.06435 32.4176 6.26644 32.2956 6.57213L29.6867 12.9055C29.5137 13.321 29.7117 13.7956 30.1266 13.9696C30.5431 14.1426 31.0207 13.9425 31.1937 13.5292L33.8026 7.19067C34.0364 6.64767 33.6296 6.0424 33.0356 6.05516Z" fill="#3472FF" stroke="#3472FF" stroke-width="0.5"/>
<path d="M25.1767 5.00014C24.7286 5.00524 24.3688 5.3732 24.3734 5.82179L24.3683 12.4822C24.3382 12.9466 24.7113 13.3416 25.1762 13.3462C25.6427 13.3462 26.0142 12.9558 25.9938 12.4909L25.9989 5.82576C26.0065 5.36901 25.6335 4.99594 25.1767 5.00003V5.00014Z" fill="#3472FF" stroke="#3472FF" stroke-width="0.5"/>
<path d="M39.343 10.9104C39.1317 10.9196 38.9316 11.0033 38.7836 11.1569L34.1012 15.8694C33.7833 16.1873 33.7833 16.7028 34.1043 17.0207C34.4222 17.3387 34.9392 17.3335 35.2572 17.0115L39.9396 12.3047C40.4611 11.7836 40.0794 10.8951 39.343 10.9104L39.343 10.9104Z" fill="#3472FF" stroke="#3472FF" stroke-width="0.5"/>
</svg>
