<svg width="40" height="38" viewBox="0 0 40 38" fill="none" xmlns="http://www.w3.org/2000/svg">
<path d="M0.849915 19.3342C0.713702 19.3342 0.577489 19.3003 0.451539 19.2322C0.0363488 19.0108 -0.120378 18.4953 0.0993269 18.0798L9.36769 0.703717C9.66377 0.148891 10.5745 0.148891 10.8706 0.703717L15.4375 9.26373C15.6606 9.67892 15.5004 10.1947 15.0853 10.4161C14.6732 10.6324 14.1543 10.4808 13.9363 10.0653L10.1183 2.91108L1.60064 18.8829C1.44904 19.1704 1.15639 19.334 0.850054 19.334L0.849915 19.3342Z" fill="#024EFB"/>
<path d="M11.063 14.2976H5.95647C5.48828 14.2976 5.10529 13.9146 5.10529 13.4464C5.10529 12.9765 5.48828 12.5952 5.95647 12.5952H11.063C11.5312 12.5952 11.9142 12.9765 11.9142 13.4464C11.9142 13.9146 11.5312 14.2976 11.063 14.2976Z" fill="#024EFB"/>
<path d="M7.65839 12.595H12.7649V14.2971H7.65839V12.595Z" fill="#024EFB"/>
<path d="M34.9105 19.4043H28.0849C27.6167 19.4043 27.2337 19.0213 27.2337 18.5531C27.2337 18.0832 27.6167 17.7019 28.0849 17.7019H34.9105C36.7796 17.7019 38.2979 16.1802 38.2979 14.3145C38.2979 12.4317 36.766 10.8933 34.8767 10.8933H31.0485C30.5786 10.8933 30.1973 10.5103 30.1973 10.0421C30.1973 9.57221 30.5786 9.19092 31.0485 9.19092H31.5064C33.3755 9.19092 34.8938 7.66925 34.8938 5.80354C34.8938 3.9023 33.3738 2.3823 31.5064 2.3823H26.3828V9.19092C26.3828 9.65912 25.9998 10.0421 25.5316 10.0421C25.0634 10.0421 24.6804 9.65912 24.6804 9.19092V1.53112C24.6804 1.06122 25.0634 0.679932 25.5316 0.679932H31.5061C34.3113 0.679932 36.5956 2.96248 36.5956 5.7694C36.5956 7.09192 36.0986 8.29699 35.2833 9.20602C37.9201 9.41376 40 11.6248 40 14.3126C40 17.1212 37.7158 19.4037 34.9106 19.4037L34.9105 19.4043Z" fill="#024EFB"/>
<path d="M28.2735 37.2378C27.9347 37.2378 27.6113 37.0317 27.4818 36.6997L22.4178 23.7496C22.2442 23.3122 22.4619 22.8186 22.9011 22.6482C23.3368 22.4746 23.8321 22.694 24.0007 23.1298L29.0648 36.0763C29.2366 36.5137 29.0206 37.0073 28.5815 37.1794C28.4829 37.2184 28.3789 37.2372 28.2735 37.2372L28.2735 37.2378Z" fill="#024EFB"/>
<path d="M20.2613 24.8478C16.5471 24.8478 13.272 22.6111 11.9172 19.147C11.0458 16.9172 11.0968 14.483 12.0551 12.2906C13.0135 10.098 14.7734 8.41136 17.0001 7.53967C18.0471 7.13103 19.1464 6.92358 20.2615 6.92358C23.9808 6.92358 27.2556 9.15857 28.6092 12.6226C30.405 17.2253 28.1242 22.4322 23.5232 24.2297C22.478 24.6401 21.3837 24.8475 20.2618 24.8475L20.2613 24.8478ZM20.2613 8.62576C19.3608 8.62576 18.4689 8.79417 17.6212 9.12616C15.8116 9.83087 14.3922 11.1978 13.6143 12.9749C12.8363 14.7502 12.799 16.723 13.5037 18.5274C14.6034 21.3325 17.2535 23.1455 20.2682 23.1455C21.1704 23.1455 22.0606 22.9771 22.9101 22.6451C26.6363 21.1915 28.4814 16.9701 27.0292 13.244C25.9262 10.4354 23.276 8.62583 20.2614 8.62583L20.2613 8.62576Z" fill="#024EFB"/>
</svg>
