<svg width="31" height="30" viewBox="0 0 31 30" fill="none" xmlns="http://www.w3.org/2000/svg">
<path fill-rule="evenodd" clip-rule="evenodd" d="M15.8984 0C24.1768 0 30.8984 6.61624 30.8984 14.7845C30.8984 22.944 24.1858 29.5691 15.8984 29.5691C7.62009 29.5691 0.898438 22.9529 0.898438 14.7845C0.898438 6.62511 7.6111 0 15.8984 0ZM12.3891 6.66945H19.4077C22.0442 6.66945 24.1948 8.7714 24.1948 11.3257V18.2257C24.1948 20.7888 22.0442 22.8819 19.4077 22.8819H12.3891C9.75267 22.8819 7.6021 20.7888 7.6021 18.2257V11.3257C7.6021 8.76253 9.76167 6.66945 12.3891 6.66945ZM15.8534 10.4033C18.4179 10.4033 20.4965 12.452 20.4965 14.9797C20.4965 17.5073 18.4179 19.556 15.8534 19.556C13.289 19.556 11.2104 17.5073 11.2104 14.9797C11.2104 12.452 13.289 10.4033 15.8534 10.4033ZM15.8534 11.9465C17.5451 11.9465 18.9218 13.3034 18.9218 14.9708C18.9218 16.6382 17.5451 17.9951 15.8534 17.9951C14.1528 17.9951 12.7851 16.6382 12.7851 14.9708C12.7851 13.3034 14.1618 11.9465 15.8534 11.9465ZM20.3435 9.76472C20.7575 9.76472 21.0994 10.0929 21.0994 10.5097C21.0994 10.9177 20.7665 11.2547 20.3435 11.2547C19.9296 11.2547 19.5877 10.9266 19.5877 10.5097C19.5877 10.1017 19.9206 9.76472 20.3435 9.76472ZM12.965 7.99093H18.8319C21.0364 7.99093 22.8361 9.75585 22.8361 11.9199V17.7379C22.8361 19.9019 21.0364 21.6669 18.8319 21.6669H12.965C10.7605 21.6669 8.96083 19.9019 8.96083 17.7379V11.9199C8.96083 9.75585 10.7605 7.99093 12.965 7.99093Z" fill="black"/>
</svg>
