<svg width="31" height="30" viewBox="0 0 31 30" fill="none" xmlns="http://www.w3.org/2000/svg">
<path fill-rule="evenodd" clip-rule="evenodd" d="M15.8984 0C24.1768 0 30.8984 6.61624 30.8984 14.7845C30.8984 22.944 24.1858 29.5691 15.8984 29.5691C7.62009 29.5691 0.898438 22.9529 0.898438 14.7845C0.898438 6.62511 7.6111 0 15.8984 0ZM23.9968 9.8268C23.4029 10.0929 22.7641 10.2614 22.0892 10.3412C22.7731 9.93323 23.304 9.29466 23.5469 8.53193C22.908 8.90443 22.1882 9.17937 21.4413 9.33014C20.8295 8.69158 19.9746 8.30134 19.0118 8.30134C17.1762 8.30134 15.6915 9.76472 15.6915 11.574C15.6915 11.8312 15.7185 12.0795 15.7725 12.319C13.01 12.1771 10.5625 10.8822 8.92483 8.89556C8.62789 9.39222 8.47492 9.95984 8.47492 10.5452C8.47492 11.6804 9.05981 12.6826 9.95063 13.268C9.40174 13.2502 8.89784 13.0994 8.44793 12.86V12.9043C8.44793 14.4919 9.5907 15.8133 11.1114 16.1149C10.8325 16.1858 10.5355 16.2302 10.2386 16.2302C10.0226 16.2302 9.81565 16.2124 9.6087 16.1681C10.0316 17.4718 11.2554 18.4119 12.7131 18.4474C11.5703 19.3255 10.1486 19.8487 8.5829 19.8487C8.31296 19.8487 8.05201 19.831 7.79106 19.8044C9.26676 20.7356 11.0124 21.2766 12.884 21.2766C18.9938 21.2766 22.3412 16.2834 22.3412 11.9553C22.3412 11.8134 22.3412 11.6715 22.3322 11.5296C22.98 11.0685 23.5469 10.492 23.9878 9.83567L23.9968 9.8268Z" fill="black"/>
</svg>
