<svg width="692" height="480" viewBox="0 0 692 480" fill="none" xmlns="http://www.w3.org/2000/svg">
<rect width="692" height="480" fill="#F8F8F8"/>
<path d="M426.934 298.274C373.439 298.277 326.895 258.284 320.019 203.737L321.333 203.571C328.124 257.444 374.101 296.943 426.935 296.947C431.424 296.946 435.908 296.663 440.361 296.098C498.633 288.72 540.051 235.21 532.689 176.813L534.004 176.646C541.457 235.769 499.523 289.946 440.528 297.415C436.019 297.986 431.479 298.273 426.934 298.274Z" fill="#3F3D56"/>
<path d="M469.592 124.52C466.106 115.286 466.424 105.043 470.474 96.0433C474.525 87.044 481.977 80.0258 491.192 76.5328C500.406 73.0398 510.627 73.358 519.607 77.4175C528.587 81.477 535.59 88.9452 539.076 98.1793L537.837 98.6492C534.475 89.7445 527.722 82.5427 519.062 78.6279C510.403 74.7132 500.546 74.4063 491.66 77.7746C482.775 81.143 475.589 87.9108 471.682 96.5892C467.776 105.268 467.47 115.146 470.831 124.05L469.592 124.52Z" fill="#3F3D56"/>
<path d="M577.194 189.492H509.863C508.059 189.49 506.329 188.77 505.053 187.492C503.777 186.213 503.059 184.479 503.057 182.671V93.3252C503.059 91.5168 503.777 89.7831 505.053 88.5044C506.329 87.2257 508.059 86.5064 509.863 86.5044H577.194C578.998 86.5064 580.728 87.2257 582.004 88.5044C583.28 89.7831 583.998 91.5168 584 93.3252V182.671C583.998 184.479 583.28 186.213 582.004 187.492C580.728 188.77 578.998 189.49 577.194 189.492V189.492Z" fill="#E6E6E6"/>
<path d="M550.442 184.138H514.596C512.906 184.137 511.286 183.463 510.091 182.265C508.896 181.068 508.224 179.444 508.222 177.751V98.2452C508.224 96.5515 508.896 94.9278 510.091 93.7303C511.286 92.5328 512.906 91.8592 514.596 91.8573H572.461C574.151 91.8592 575.771 92.5328 576.966 93.7303C578.161 94.9279 578.834 96.5516 578.835 98.2452V155.685C578.827 163.229 575.833 170.461 570.51 175.795C565.187 181.129 557.97 184.13 550.442 184.138V184.138Z" fill="white"/>
<path d="M566.689 131.728H520.369C519.968 131.728 519.584 131.569 519.3 131.285C519.017 131.001 518.858 130.616 518.858 130.214C518.858 129.813 519.017 129.428 519.3 129.144C519.584 128.86 519.968 128.7 520.369 128.7H566.689C567.089 128.7 567.474 128.86 567.757 129.144C568.04 129.428 568.199 129.813 568.199 130.214C568.199 130.616 568.04 131.001 567.757 131.285C567.474 131.569 567.089 131.728 566.689 131.728Z" fill="#E4E4E4"/>
<path d="M566.689 137.71H520.368C519.968 137.709 519.585 137.549 519.302 137.266C519.02 136.982 518.861 136.597 518.861 136.196C518.861 135.795 519.02 135.411 519.302 135.127C519.585 134.843 519.968 134.683 520.368 134.682H566.689C567.089 134.682 567.474 134.842 567.757 135.126C568.04 135.409 568.199 135.795 568.199 136.196C568.199 136.598 568.04 136.983 567.757 137.267C567.474 137.551 567.089 137.71 566.689 137.71V137.71Z" fill="#E4E4E4"/>
<path d="M540.447 143.692H520.368C519.967 143.692 519.583 143.533 519.3 143.249C519.017 142.965 518.857 142.58 518.857 142.178C518.857 141.777 519.017 141.392 519.3 141.108C519.583 140.824 519.967 140.664 520.368 140.664H540.447C540.848 140.664 541.232 140.824 541.515 141.108C541.798 141.392 541.958 141.777 541.958 142.178C541.958 142.58 541.798 142.965 541.515 143.249C541.232 143.533 540.848 143.692 540.447 143.692V143.692Z" fill="#E4E4E4"/>
<path d="M566.689 107.298H520.369C519.968 107.298 519.584 107.139 519.3 106.855C519.017 106.571 518.858 106.186 518.858 105.784C518.858 105.383 519.017 104.998 519.3 104.714C519.584 104.43 519.968 104.271 520.369 104.271H566.689C567.089 104.271 567.474 104.43 567.757 104.714C568.04 104.998 568.199 105.383 568.199 105.784C568.199 106.186 568.04 106.571 567.757 106.855C567.474 107.139 567.089 107.298 566.689 107.298Z" fill="#E4E4E4"/>
<path d="M566.688 113.281H520.368C519.967 113.281 519.583 113.121 519.3 112.837C519.017 112.553 518.857 112.168 518.857 111.767C518.857 111.365 519.017 110.98 519.3 110.696C519.583 110.412 519.967 110.253 520.368 110.253H566.688C567.089 110.253 567.473 110.412 567.757 110.696C568.04 110.98 568.199 111.365 568.199 111.767C568.199 112.168 568.04 112.553 567.757 112.837C567.473 113.121 567.089 113.281 566.688 113.281Z" fill="#E4E4E4"/>
<path d="M540.447 119.263H520.368C519.968 119.262 519.585 119.102 519.302 118.818C519.02 118.534 518.861 118.15 518.861 117.749C518.861 117.348 519.02 116.963 519.302 116.679C519.585 116.395 519.968 116.236 520.368 116.235H540.447C540.847 116.236 541.231 116.395 541.513 116.679C541.796 116.963 541.955 117.348 541.955 117.749C541.955 118.15 541.796 118.534 541.513 118.818C541.231 119.102 540.847 119.262 540.447 119.263V119.263Z" fill="#E4E4E4"/>
<path d="M566.689 157.013H520.369C519.968 157.013 519.584 156.853 519.3 156.569C519.017 156.285 518.858 155.9 518.858 155.499C518.858 155.097 519.017 154.712 519.3 154.428C519.584 154.144 519.968 153.985 520.369 153.985H566.689C567.089 153.985 567.474 154.144 567.757 154.428C568.04 154.712 568.199 155.097 568.199 155.499C568.199 155.9 568.04 156.285 567.757 156.569C567.474 156.853 567.089 157.013 566.689 157.013Z" fill="#024EFB"/>
<path d="M527.614 162.995H520.368C519.968 162.994 519.585 162.834 519.302 162.55C519.02 162.266 518.861 161.882 518.861 161.481C518.861 161.08 519.02 160.695 519.302 160.411C519.585 160.128 519.968 159.968 520.368 159.967H527.614C528.015 159.967 528.399 160.126 528.682 160.41C528.966 160.694 529.125 161.079 529.125 161.481C529.125 161.882 528.966 162.267 528.682 162.551C528.399 162.835 528.015 162.995 527.614 162.995Z" fill="#024EFB"/>
<path d="M540.447 168.977H520.368C519.967 168.977 519.583 168.817 519.3 168.534C519.017 168.25 518.857 167.864 518.857 167.463C518.857 167.061 519.017 166.676 519.3 166.392C519.583 166.108 519.967 165.949 520.368 165.949H540.447C540.848 165.949 541.232 166.108 541.515 166.392C541.798 166.676 541.958 167.061 541.958 167.463C541.958 167.864 541.798 168.25 541.515 168.534C541.232 168.817 540.848 168.977 540.447 168.977V168.977Z" fill="#024EFB"/>
<path d="M321.023 186.496C315.188 171.017 315.726 153.849 322.519 138.768C329.312 123.686 341.803 111.925 357.246 106.071C372.69 100.216 389.821 100.748 404.873 107.548C419.926 114.348 431.667 126.861 437.516 142.335L436.277 142.805C433.447 135.299 429.17 128.426 423.689 122.578C418.208 116.73 411.631 112.021 404.334 108.721C397.037 105.42 389.162 103.593 381.16 103.343C373.158 103.093 365.185 104.426 357.697 107.264C350.209 110.103 343.352 114.392 337.519 119.887C331.685 125.382 326.989 131.975 323.698 139.289C320.407 146.603 318.587 154.495 318.34 162.514C318.094 170.534 319.426 178.523 322.262 186.027L321.023 186.496Z" fill="#3F3D56"/>
<path d="M436.802 84.7301C440.294 84.7301 443.124 81.8935 443.124 78.3944C443.124 74.8952 440.294 72.0586 436.802 72.0586C433.311 72.0586 430.48 74.8952 430.48 78.3944C430.48 81.8935 433.311 84.7301 436.802 84.7301Z" fill="#E6E6E6"/>
<path d="M445.412 267.249C448.904 267.249 451.734 264.413 451.734 260.914C451.734 257.415 448.904 254.578 445.412 254.578C441.92 254.578 439.09 257.415 439.09 260.914C439.09 264.413 441.92 267.249 445.412 267.249Z" fill="#E6E6E6"/>
<path d="M283.153 116.588C286.645 116.588 289.475 113.751 289.475 110.252C289.475 106.753 286.645 103.917 283.153 103.917C279.662 103.917 276.831 106.753 276.831 110.252C276.831 113.751 279.662 116.588 283.153 116.588Z" fill="#E6E6E6"/>
<path d="M370.437 370.589H225.707C221.828 370.585 218.11 369.039 215.367 366.29C212.624 363.542 211.082 359.815 211.077 355.928V163.876C211.082 159.989 212.624 156.262 215.367 153.514C218.11 150.765 221.828 149.219 225.707 149.214H370.437C374.316 149.219 378.035 150.765 380.777 153.514C383.52 156.262 385.063 159.989 385.067 163.876V355.928C385.063 359.815 383.52 363.542 380.777 366.29C378.035 369.039 374.316 370.585 370.437 370.589V370.589Z" fill="#E6E6E6"/>
<path d="M315.198 358.702H235.881C232.349 358.698 228.963 357.29 226.466 354.787C223.968 352.285 222.564 348.891 222.56 345.352V174.452C222.564 170.913 223.968 167.519 226.466 165.017C228.963 162.514 232.349 161.106 235.881 161.102H360.264C363.795 161.106 367.181 162.514 369.679 165.017C372.176 167.519 373.581 170.913 373.585 174.452V300.189C373.567 315.702 367.41 330.575 356.464 341.545C345.518 352.514 330.678 358.684 315.198 358.702V358.702Z" fill="white"/>
<path d="M347.856 193.912H248.288C247.862 193.913 247.439 193.829 247.044 193.666C246.65 193.502 246.291 193.263 245.989 192.96C245.687 192.658 245.448 192.299 245.284 191.904C245.121 191.509 245.037 191.086 245.037 190.658C245.037 190.23 245.121 189.806 245.284 189.411C245.448 189.016 245.687 188.657 245.989 188.355C246.291 188.053 246.65 187.813 247.044 187.65C247.439 187.487 247.862 187.403 248.288 187.404H347.856C348.282 187.403 348.705 187.487 349.1 187.65C349.494 187.813 349.853 188.053 350.155 188.355C350.457 188.657 350.696 189.016 350.86 189.411C351.023 189.806 351.107 190.23 351.107 190.658C351.107 191.086 351.023 191.509 350.86 191.904C350.696 192.299 350.457 192.658 350.155 192.96C349.853 193.263 349.494 193.502 349.1 193.666C348.705 193.829 348.282 193.913 347.856 193.912V193.912Z" fill="#024EFB"/>
<path d="M347.855 206.771H248.288C247.427 206.771 246.601 206.428 245.992 205.818C245.383 205.207 245.041 204.38 245.041 203.517C245.041 202.653 245.383 201.826 245.992 201.215C246.601 200.605 247.427 200.262 248.288 200.262H347.855C348.717 200.262 349.543 200.605 350.152 201.215C350.761 201.826 351.103 202.653 351.103 203.517C351.103 204.38 350.761 205.207 350.152 205.818C349.543 206.428 348.717 206.771 347.855 206.771Z" fill="#024EFB"/>
<path d="M291.448 219.63H248.288C247.427 219.63 246.601 219.287 245.992 218.677C245.383 218.066 245.041 217.239 245.041 216.375C245.041 215.512 245.383 214.685 245.992 214.074C246.601 213.464 247.427 213.121 248.288 213.121H291.448C292.31 213.121 293.136 213.464 293.745 214.074C294.354 214.685 294.696 215.512 294.696 216.375C294.696 217.239 294.354 218.066 293.745 218.677C293.136 219.287 292.31 219.63 291.448 219.63Z" fill="#024EFB"/>
<path d="M347.856 246.561H248.288C247.862 246.562 247.439 246.478 247.044 246.315C246.65 246.152 246.291 245.912 245.989 245.61C245.687 245.308 245.448 244.949 245.284 244.554C245.121 244.158 245.037 243.735 245.037 243.307C245.037 242.879 245.121 242.456 245.284 242.061C245.448 241.666 245.687 241.307 245.989 241.004C246.291 240.702 246.65 240.463 247.044 240.299C247.439 240.136 247.862 240.052 248.288 240.053H347.856C348.282 240.052 348.705 240.136 349.1 240.299C349.494 240.463 349.853 240.702 350.155 241.004C350.457 241.307 350.696 241.666 350.86 242.061C351.023 242.456 351.107 242.879 351.107 243.307C351.107 243.735 351.023 244.158 350.86 244.554C350.696 244.949 350.457 245.308 350.155 245.61C349.853 245.912 349.494 246.152 349.1 246.315C348.705 246.478 348.282 246.562 347.856 246.561V246.561Z" fill="#E4E4E4"/>
<path d="M347.855 259.42H248.288C247.427 259.42 246.601 259.077 245.992 258.467C245.383 257.857 245.041 257.029 245.041 256.166C245.041 255.303 245.383 254.475 245.992 253.865C246.601 253.254 247.427 252.912 248.288 252.912H347.855C348.717 252.912 349.543 253.254 350.152 253.865C350.761 254.475 351.103 255.303 351.103 256.166C351.103 257.029 350.761 257.857 350.152 258.467C349.543 259.077 348.717 259.42 347.855 259.42Z" fill="#E4E4E4"/>
<path d="M291.448 272.279H248.288C247.427 272.279 246.601 271.937 245.992 271.326C245.383 270.716 245.041 269.888 245.041 269.025C245.041 268.162 245.383 267.334 245.992 266.724C246.601 266.114 247.427 265.771 248.288 265.771H291.448C292.31 265.771 293.136 266.114 293.745 266.724C294.354 267.334 294.696 268.162 294.696 269.025C294.696 269.888 294.354 270.716 293.745 271.326C293.136 271.937 292.31 272.279 291.448 272.279Z" fill="#E4E4E4"/>
<path d="M347.856 299.211H248.288C247.862 299.212 247.439 299.128 247.044 298.965C246.65 298.801 246.291 298.562 245.989 298.259C245.687 297.957 245.448 297.598 245.284 297.203C245.121 296.808 245.037 296.384 245.037 295.957C245.037 295.529 245.121 295.105 245.284 294.71C245.448 294.315 245.687 293.956 245.989 293.654C246.291 293.352 246.65 293.112 247.044 292.949C247.439 292.786 247.862 292.702 248.288 292.703H347.856C348.282 292.702 348.705 292.786 349.1 292.949C349.494 293.112 349.853 293.352 350.155 293.654C350.457 293.956 350.696 294.315 350.86 294.71C351.023 295.105 351.107 295.529 351.107 295.957C351.107 296.384 351.023 296.808 350.86 297.203C350.696 297.598 350.457 297.957 350.155 298.259C349.853 298.562 349.494 298.801 349.1 298.965C348.705 299.128 348.282 299.212 347.856 299.211V299.211Z" fill="#E4E4E4"/>
<path d="M347.855 312.07H248.288C247.427 312.07 246.601 311.727 245.992 311.117C245.383 310.506 245.041 309.679 245.041 308.816C245.041 307.952 245.383 307.125 245.992 306.514C246.601 305.904 247.427 305.561 248.288 305.561H347.855C348.717 305.561 349.543 305.904 350.152 306.514C350.761 307.125 351.103 307.952 351.103 308.816C351.103 309.679 350.761 310.506 350.152 311.117C349.543 311.727 348.717 312.07 347.855 312.07Z" fill="#E4E4E4"/>
<path d="M291.449 324.929H248.289C247.428 324.928 246.603 324.584 245.995 323.974C245.387 323.364 245.046 322.537 245.046 321.675C245.046 320.812 245.387 319.985 245.995 319.375C246.603 318.765 247.428 318.421 248.289 318.42H291.449C292.309 318.421 293.134 318.765 293.742 319.375C294.35 319.985 294.691 320.812 294.691 321.675C294.691 322.537 294.35 323.364 293.742 323.974C293.134 324.584 292.309 324.928 291.449 324.929V324.929Z" fill="#E4E4E4"/>
<path d="M481.949 227.987H408.655C406.69 227.984 404.807 227.201 403.418 225.809C402.029 224.417 401.248 222.53 401.246 220.562V123.302C401.248 121.334 402.029 119.447 403.418 118.055C404.807 116.663 406.69 115.88 408.655 115.878H481.949C483.913 115.88 485.796 116.663 487.185 118.055C488.574 119.447 489.356 121.334 489.358 123.302V220.562C489.356 222.53 488.574 224.417 487.185 225.809C485.796 227.201 483.913 227.984 481.949 227.987V227.987Z" fill="#E6E6E6"/>
<path d="M454.779 222.13H413.807C411.975 222.128 410.219 221.398 408.923 220.1C407.628 218.801 406.9 217.042 406.897 215.206V128.658C406.899 126.823 407.628 125.063 408.923 123.764C410.219 122.466 411.975 121.736 413.807 121.734H476.797C478.629 121.736 480.385 122.466 481.681 123.764C482.976 125.062 483.705 126.823 483.707 128.658V193.14C483.698 200.826 480.647 208.195 475.224 213.629C469.801 219.064 462.448 222.121 454.779 222.13V222.13Z" fill="white"/>
<path d="M470.513 138.513H420.09C419.654 138.513 419.236 138.34 418.927 138.031C418.619 137.722 418.446 137.302 418.446 136.865C418.446 136.428 418.619 136.009 418.927 135.7C419.236 135.391 419.654 135.217 420.09 135.217H470.513C470.949 135.217 471.368 135.391 471.676 135.7C471.984 136.009 472.158 136.428 472.158 136.865C472.158 137.302 471.984 137.722 471.676 138.031C471.368 138.34 470.949 138.513 470.513 138.513Z" fill="#E4E4E4"/>
<path d="M470.513 145.025H420.09C419.655 145.025 419.237 144.851 418.93 144.542C418.622 144.233 418.449 143.814 418.449 143.377C418.449 142.941 418.622 142.522 418.93 142.213C419.237 141.904 419.655 141.73 420.09 141.729H470.513C470.949 141.73 471.366 141.904 471.674 142.213C471.982 142.522 472.155 142.941 472.155 143.377C472.155 143.814 471.982 144.233 471.674 144.542C471.366 144.851 470.949 145.025 470.513 145.025V145.025Z" fill="#E4E4E4"/>
<path d="M441.948 151.537H420.09C419.655 151.537 419.237 151.362 418.93 151.053C418.622 150.745 418.449 150.326 418.449 149.889C418.449 149.453 418.622 149.034 418.93 148.725C419.237 148.416 419.655 148.242 420.09 148.241H441.948C442.383 148.242 442.801 148.416 443.108 148.725C443.416 149.034 443.589 149.453 443.589 149.889C443.589 150.326 443.416 150.745 443.108 151.053C442.801 151.362 442.383 151.537 441.948 151.537V151.537Z" fill="#E4E4E4"/>
<path d="M470.513 165.176H420.09C419.654 165.176 419.236 165.002 418.927 164.693C418.619 164.384 418.446 163.965 418.446 163.528C418.446 163.091 418.619 162.672 418.927 162.363C419.236 162.054 419.654 161.88 420.09 161.88H470.513C470.949 161.88 471.368 162.054 471.676 162.363C471.984 162.672 472.158 163.091 472.158 163.528C472.158 163.965 471.984 164.384 471.676 164.693C471.368 165.002 470.949 165.176 470.513 165.176Z" fill="#024EFB"/>
<path d="M457.268 171.688H420.09C419.654 171.688 419.236 171.515 418.927 171.206C418.619 170.896 418.446 170.477 418.446 170.04C418.446 169.603 418.619 169.184 418.927 168.875C419.236 168.566 419.654 168.392 420.09 168.392H457.268C457.704 168.392 458.122 168.566 458.43 168.875C458.739 169.184 458.912 169.603 458.912 170.04C458.912 170.477 458.739 170.896 458.43 171.206C458.122 171.515 457.704 171.688 457.268 171.688V171.688Z" fill="#024EFB"/>
<path d="M441.948 178.2H420.09C419.655 178.199 419.237 178.025 418.93 177.716C418.622 177.407 418.449 176.989 418.449 176.552C418.449 176.116 418.622 175.697 418.93 175.388C419.237 175.079 419.655 174.905 420.09 174.904H441.948C442.383 174.905 442.801 175.079 443.108 175.388C443.416 175.697 443.589 176.116 443.589 176.552C443.589 176.989 443.416 177.407 443.108 177.716C442.801 178.025 442.383 178.199 441.948 178.2V178.2Z" fill="#024EFB"/>
<path d="M470.513 191.839H420.09C419.654 191.839 419.236 191.665 418.927 191.356C418.619 191.047 418.446 190.628 418.446 190.191C418.446 189.754 418.619 189.335 418.927 189.026C419.236 188.717 419.654 188.543 420.09 188.543H470.513C470.949 188.543 471.368 188.717 471.676 189.026C471.984 189.335 472.158 189.754 472.158 190.191C472.158 190.628 471.984 191.047 471.676 191.356C471.368 191.665 470.949 191.839 470.513 191.839Z" fill="#E4E4E4"/>
<path d="M470.513 198.351H420.09C419.654 198.351 419.236 198.177 418.927 197.868C418.619 197.559 418.446 197.14 418.446 196.703C418.446 196.266 418.619 195.847 418.927 195.538C419.236 195.229 419.654 195.055 420.09 195.055H470.513C470.949 195.055 471.368 195.229 471.676 195.538C471.985 195.847 472.158 196.266 472.158 196.703C472.158 197.14 471.985 197.559 471.676 197.868C471.368 198.177 470.949 198.351 470.513 198.351V198.351Z" fill="#E4E4E4"/>
<path d="M441.948 204.863H420.09C419.655 204.862 419.237 204.688 418.93 204.379C418.622 204.07 418.449 203.651 418.449 203.215C418.449 202.778 418.622 202.36 418.93 202.051C419.237 201.742 419.655 201.568 420.09 201.567H441.948C442.383 201.568 442.801 201.742 443.108 202.051C443.416 202.36 443.589 202.778 443.589 203.215C443.589 203.651 443.416 204.07 443.108 204.379C442.801 204.688 442.383 204.862 441.948 204.863V204.863Z" fill="#E4E4E4"/>
<path d="M149.696 261.401C150.257 260.789 150.678 260.061 150.928 259.269C151.178 258.476 151.252 257.639 151.144 256.815C151.036 255.99 150.749 255.2 150.304 254.499C149.858 253.798 149.265 253.204 148.565 252.757L153.214 233.098L143.374 236.701L140.467 254.817C139.797 256.045 139.6 257.476 139.912 258.84C140.225 260.204 141.026 261.406 142.164 262.217C143.301 263.029 144.696 263.394 146.085 263.244C147.473 263.093 148.758 262.438 149.696 261.401L149.696 261.401Z" fill="#FFB8B8"/>
<path d="M173.36 179.017L169.411 189.194C169.411 189.194 171.104 199.371 168.283 201.633C165.462 203.894 166.59 203.894 166.59 205.591C166.493 206.807 166.141 207.99 165.558 209.061C164.975 210.133 164.173 211.069 163.205 211.81C160.948 213.506 150.793 247.995 150.793 247.995H140.638C140.966 245.367 140.966 242.708 140.638 240.08C140.074 236.122 142.33 225.945 143.459 224.249C144.587 222.552 143.459 220.291 143.459 216.898C143.459 213.506 145.716 211.81 145.716 206.156C145.716 200.502 152.486 156.401 151.921 151.313C151.357 146.224 157.563 141.701 157.563 141.701H163.205L173.36 179.017Z" fill="#024EFB"/>
<path d="M197.255 200.603L206.642 242.582L146.491 238.832L162.848 197.605L197.255 200.603Z" fill="#FFB8B8"/>
<path d="M66.1423 358.381C67.9329 364.869 70.7286 371.035 74.4274 376.653C82.6927 389.177 94.521 398.755 107.522 406.42C108.422 406.958 109.336 407.482 110.25 408H119.37L119.688 407.27V407.263L120.058 406.42L120.105 406.321L120.125 406.42L120.489 408H124.966C125.337 407.476 125.701 406.951 126.059 406.42C126.582 405.644 127.085 404.861 127.562 404.064C128.404 402.671 129.156 401.226 129.814 399.737C129.893 399.571 129.96 399.405 130.026 399.239L129.728 398.914L130.966 393.485L128.476 393.073L131.205 384.638C131.105 384.326 130.993 384.014 130.873 383.702C129.344 379.819 126.469 376.919 123.059 374.483C119.548 371.967 115.462 369.95 111.707 367.852C109.945 366.864 108.21 365.821 106.521 364.72V364.713C104.362 363.313 102.267 361.815 100.236 360.22C100.202 360.198 100.169 360.173 100.137 360.147C100.109 360.127 100.082 360.104 100.058 360.08C90.9524 352.952 83.2475 344.191 77.3347 334.242C77.3338 334.242 77.333 334.242 77.3321 334.242C77.3313 334.242 77.3306 334.241 77.33 334.24C77.3294 334.24 77.3289 334.239 77.3286 334.238C77.3282 334.237 77.3281 334.237 77.3281 334.236C77.1294 333.917 76.9441 333.599 76.7586 333.273V333.267C74.3372 329.093 72.2532 324.732 70.5265 320.225V320.218C70.394 319.886 70.2749 319.555 70.1491 319.223C69.9769 319.515 69.8113 319.807 69.6523 320.099C69.6515 320.099 69.6506 320.099 69.6498 320.099C69.649 320.1 69.6482 320.1 69.6476 320.101C69.647 320.101 69.6465 320.102 69.6462 320.103C69.6459 320.104 69.6457 320.105 69.6457 320.105C63.2216 331.621 62.6123 345.492 66.1423 358.381Z" fill="#F0F0F0"/>
<path d="M69.646 320.105C69.5817 326.251 70.2194 332.384 71.5467 338.384C72.1432 341.13 72.886 343.841 73.772 346.508C75.492 351.724 77.7399 356.75 80.4808 361.507C80.6332 361.766 80.7789 362.018 80.9379 362.271V362.277C82.1093 364.257 83.3803 366.175 84.746 368.025C86.8127 370.972 89.366 373.544 92.296 375.631C94.6891 377.216 97.3955 378.264 100.23 378.704C100.76 378.804 101.303 378.877 101.853 378.943C104.045 379.202 106.31 379.301 108.482 379.766C109.582 379.984 110.654 380.329 111.674 380.795C115.171 382.421 117.138 385.826 117.999 389.463C118.151 390.1 118.271 390.744 118.363 391.387C119.085 396.332 118.29 401.469 118.701 406.42C118.747 406.945 118.807 407.476 118.88 408H119.37L119.688 407.27V407.263C119.655 406.984 119.628 406.706 119.602 406.42C119.443 403.988 119.423 401.548 119.542 399.113C119.569 398.018 119.589 396.916 119.575 395.814C119.562 394.932 119.529 394.049 119.463 393.173V393.166C119.416 392.622 119.363 392.084 119.291 391.547C119.08 389.901 118.676 388.285 118.085 386.735C117.509 385.137 116.602 383.68 115.424 382.458C114.246 381.236 112.824 380.278 111.25 379.646C110.289 379.285 109.299 379.008 108.29 378.817C106.071 378.392 103.78 378.286 101.548 378.007C101.31 377.98 101.071 377.947 100.839 377.907C100.541 377.861 100.25 377.808 99.9586 377.755C97.0384 377.235 94.2802 376.037 91.9052 374.257C89.0828 372.018 86.629 369.348 84.6333 366.346C83.5473 364.786 82.514 363.193 81.5538 361.554C81.5538 361.553 81.5536 361.552 81.5533 361.551C81.553 361.55 81.5525 361.55 81.5519 361.549C81.5513 361.548 81.5505 361.548 81.5497 361.548C81.5489 361.547 81.548 361.547 81.5472 361.547C81.5008 361.467 81.4544 361.394 81.4081 361.315L81.4015 361.301C77.2824 354.247 74.2755 346.597 72.4871 338.623C72.4275 338.331 72.3612 338.039 72.2951 337.747C71.0659 331.989 70.4729 326.113 70.5268 320.225V320.218C70.5268 319.939 70.5334 319.667 70.54 319.388C70.5532 318.818 69.6725 318.692 69.6593 319.262C69.6526 319.541 69.646 319.82 69.6527 320.099C69.6518 320.099 69.6509 320.099 69.6501 320.099C69.6493 320.099 69.6485 320.1 69.6479 320.1C69.6473 320.101 69.6468 320.102 69.6465 320.103C69.6462 320.103 69.646 320.104 69.646 320.105V320.105Z" fill="white"/>
<path d="M81.3163 362.091C78.7926 363.375 75.8955 363.719 73.1423 363.061C70.3891 362.402 67.9591 360.784 66.2863 358.496C65.9494 358.032 66.6533 357.486 66.9906 357.95C68.5445 360.084 70.8082 361.591 73.3732 362.199C75.9382 362.806 78.6356 362.475 80.9785 361.265C81.4879 361.003 81.8228 361.83 81.3163 362.091V362.091Z" fill="white"/>
<path d="M99.8736 378.019C101.718 372.523 101.427 366.532 99.0593 361.241C98.8243 360.717 99.6481 360.379 99.8829 360.903C102.336 366.413 102.626 372.648 100.695 378.364C100.51 378.908 99.6901 378.561 99.8736 378.019H99.8736Z" fill="white"/>
<path d="M72.0392 337.828C73.119 337.535 74.1092 336.978 74.921 336.206C75.7327 335.435 76.3406 334.473 76.6899 333.408C76.8674 332.862 77.6875 333.209 77.5112 333.753C77.1197 334.928 76.4471 335.988 75.5521 336.843C74.6571 337.697 73.567 338.319 72.377 338.654C72.2674 338.694 72.1464 338.692 72.0386 338.647C71.9307 338.602 71.8441 338.517 71.7963 338.41C71.7521 338.301 71.7528 338.178 71.7983 338.069C71.8438 337.96 71.9304 337.874 72.0392 337.828H72.0392Z" fill="white"/>
<path d="M106.521 364.713V364.72C106.727 369.459 107.318 374.174 108.29 378.817V378.823C108.343 379.142 108.416 379.454 108.482 379.766C110.08 386.947 112.321 393.968 115.177 400.746C115.966 402.657 116.791 404.549 117.654 406.42C117.893 406.951 118.138 407.476 118.389 408H119.37L119.688 407.27V407.263L120.058 406.42L120.105 406.321L120.125 406.42L120.489 408H129.96L131.801 406.42L134.483 404.117L130.734 400.016L130.118 399.339L130.026 399.239L129.728 398.914L130.966 393.485L128.476 393.073L131.205 384.638L132.496 380.649L132.821 379.646L134.708 373.812L140.404 374.881L141.331 371.629C139.624 367.663 138.203 363.58 137.079 359.41C137.072 359.377 137.059 359.35 137.053 359.317C134.043 348.086 133.141 336.392 134.39 324.831V324.824C134.43 324.453 134.476 324.074 134.529 323.709V323.696C135.097 318.905 136.054 314.168 137.39 309.533C137.483 309.181 137.589 308.836 137.689 308.49C137.384 308.623 137.086 308.749 136.781 308.882L136.774 308.889H136.761C136.278 309.101 135.794 309.327 135.324 309.566C124.026 315.068 115.714 325.395 110.992 337.302C110.979 337.335 110.965 337.362 110.952 337.395C108.488 343.637 107.02 350.228 106.601 356.928C106.442 359.52 106.416 362.118 106.521 364.713V364.713Z" fill="#F0F0F0"/>
<path d="M123.707 408H124.753C125.085 407.462 125.442 406.938 125.8 406.42C126.369 405.617 126.957 404.832 127.562 404.064C128.085 403.401 128.608 402.743 129.131 402.086C129.674 401.403 130.211 400.719 130.734 400.016L130.118 399.339C130.019 399.471 129.919 399.604 129.813 399.737C128.118 401.974 126.283 404.124 124.714 406.42C124.363 406.938 124.025 407.462 123.707 408Z" fill="white"/>
<path d="M137.908 308.861C137.736 309.08 137.557 309.306 137.392 309.532C136.1 311.211 134.879 312.943 133.729 314.729C131.681 317.879 129.862 321.173 128.285 324.585C128.16 324.85 128.034 325.122 127.915 325.394C124.542 332.85 122.343 340.785 121.398 348.916C121.384 348.996 121.378 349.069 121.371 349.148C121.153 351.047 121.011 352.952 120.947 354.863C120.736 358.463 121.091 362.073 122 365.562C122.133 366.02 122.279 366.471 122.437 366.909C122.836 367.983 123.335 369.016 123.928 369.995C124.354 370.71 124.827 371.395 125.345 372.046C125.656 372.445 125.981 372.836 126.325 373.214C126.524 373.433 126.729 373.653 126.934 373.872C127.107 374.037 127.272 374.21 127.444 374.376C129.232 376.115 131.206 377.728 132.822 379.646L132.497 380.648C130.941 378.67 128.934 377.031 127.126 375.305C125.991 374.236 124.958 373.062 124.04 371.801C123.921 371.628 123.795 371.456 123.683 371.276C123.069 370.378 122.539 369.425 122.1 368.429C121.875 367.931 121.669 367.42 121.484 366.889C120.402 363.458 119.909 359.867 120.027 356.27C120.048 353.966 120.185 351.664 120.437 349.374C120.464 349.075 120.497 348.783 120.537 348.485C121.208 343.033 122.433 337.665 124.193 332.463C126.419 325.863 129.482 319.578 133.306 313.76C134.398 312.094 135.557 310.468 136.782 308.881C136.941 308.662 137.107 308.45 137.279 308.231C137.63 307.78 138.259 308.41 137.908 308.861Z" fill="white"/>
<path d="M120.852 349.458C118.065 348.961 115.546 347.487 113.743 345.3C111.94 343.113 110.972 340.356 111.011 337.519C111.014 337.404 111.061 337.293 111.143 337.212C111.225 337.131 111.335 337.084 111.451 337.083C111.566 337.082 111.678 337.125 111.762 337.205C111.846 337.284 111.896 337.393 111.901 337.508C111.86 340.149 112.762 342.718 114.445 344.751C116.128 346.784 118.48 348.148 121.078 348.595C121.643 348.693 121.413 349.555 120.852 349.458L120.852 349.458Z" fill="white"/>
<path d="M126.099 373.373C130.874 370.097 134.241 365.139 135.529 359.485C135.656 358.925 136.517 359.153 136.39 359.712C135.038 365.592 131.524 370.746 126.548 374.143C126.074 374.467 125.627 373.695 126.099 373.373H126.099Z" fill="white"/>
<path d="M128.022 324.488C129.06 324.906 130.186 325.058 131.297 324.932C132.409 324.806 133.472 324.405 134.391 323.765C134.861 323.436 135.307 324.208 134.839 324.536C133.821 325.238 132.647 325.679 131.419 325.821C130.191 325.963 128.947 325.802 127.796 325.351C127.684 325.318 127.589 325.243 127.53 325.142C127.471 325.04 127.452 324.921 127.478 324.806C127.509 324.692 127.583 324.595 127.685 324.535C127.787 324.476 127.908 324.459 128.022 324.488V324.488Z" fill="white"/>
<path d="M187.239 394.354L193.995 394.353L197.21 368.235H187.237L187.239 394.354Z" fill="#FFB8B8"/>
<path d="M184.95 391.013L195.631 390.374V394.96L205.786 401.988C206.288 402.335 206.665 402.834 206.864 403.412C207.063 403.989 207.072 404.615 206.891 405.198C206.709 405.781 206.347 406.291 205.856 406.653C205.365 407.015 204.771 407.21 204.162 407.21H191.446L189.254 402.674L188.398 407.21H183.604L184.95 391.013Z" fill="#2F2E41"/>
<path d="M123.378 390.984L129.982 392.419L138.647 367.578L128.902 365.46L123.378 390.984Z" fill="#FFB8B8"/>
<path d="M121.848 387.234L132.421 388.879L131.451 393.361L139.888 402.387C140.305 402.832 140.569 403.4 140.641 404.007C140.713 404.613 140.59 405.227 140.289 405.758C139.988 406.29 139.526 406.711 138.97 406.96C138.413 407.21 137.792 407.274 137.196 407.145L124.769 404.443L123.587 399.544L121.791 403.796L117.105 402.777L121.848 387.234Z" fill="#2F2E41"/>
<path d="M75.792 407.21C75.7917 407.314 75.8119 407.417 75.8514 407.513C75.8909 407.609 75.9489 407.696 76.0222 407.769C76.0954 407.843 76.1824 407.901 76.2782 407.941C76.3739 407.98 76.4766 408 76.5802 408H262.211C262.42 408 262.62 407.917 262.768 407.769C262.916 407.621 262.999 407.42 262.999 407.21C262.999 407.001 262.916 406.8 262.768 406.652C262.62 406.504 262.42 406.42 262.211 406.42H76.5802C76.4766 406.42 76.3739 406.44 76.2782 406.48C76.1824 406.52 76.0954 406.578 76.0222 406.651C75.9489 406.724 75.8909 406.812 75.8514 406.908C75.8119 407.004 75.7917 407.106 75.792 407.21V407.21Z" fill="#CCCCCC"/>
<path d="M208.177 277.686C203.436 303.803 202.25 315.079 202.25 315.079C202.25 315.079 205.807 319.234 203.436 321.61C201.065 323.986 203.436 328.731 203.436 328.731L197.229 378.402L195.904 385.703L183.474 383.945L185.308 377.075L182.117 329.329C182.117 329.329 179.746 324.577 180.931 323.389C182.117 322.201 179.746 315.079 179.746 315.079L176.785 258.69L158.42 320.422C158.42 320.422 160.202 322.798 158.42 324.577C156.645 326.355 153.096 335.262 153.096 335.262L139.61 371.102L136.961 376.411L135.552 375.742L129.353 374.574L128.214 374.361L126.187 373.976L124.883 373.731L124.439 373.651L122.293 373.246L122.942 370.359L127.689 363.137L132.519 327.716L132.73 326.767L132.956 325.765C132.956 325.765 131.77 322.798 133.545 321.013C134.064 320.468 134.444 319.806 134.65 319.082C134.857 318.358 134.884 317.595 134.731 316.858C134.672 316.796 134.619 316.729 134.572 316.659C134.362 316.37 134.217 316.04 134.148 315.69C133.989 314.946 134.128 313.904 135.327 312.703C135.664 312.344 135.948 311.937 136.168 311.495C137.969 308.077 138.876 300.836 138.876 300.836C138.876 300.836 140.479 243.485 145.724 234.724C146.003 234.266 151.571 225.474 151.862 225.295C157.783 221.738 203.993 225.988 203.993 225.988C203.993 225.988 206.787 233.509 206.912 234.293C207.595 238.693 212.198 255.531 208.177 277.686Z" fill="#2F2E41"/>
<path d="M256.129 150.18C256.025 151.004 255.742 151.796 255.299 152.499C254.857 153.202 254.266 153.8 253.569 154.249C252.871 154.699 252.083 154.989 251.262 155.101C250.44 155.212 249.603 155.142 248.812 154.895L236.832 171.146L233.225 161.289L245.153 147.368C245.656 146.062 246.62 144.987 247.861 144.346C249.102 143.704 250.535 143.541 251.887 143.888C253.24 144.235 254.419 145.067 255.201 146.226C255.983 147.386 256.313 148.792 256.129 150.18H256.129Z" fill="#FFB8B8"/>
<path d="M146.825 219.016C145.726 219.016 145.103 218.8 144.861 218.338C144.507 217.658 145.122 216.771 145.834 215.743C146.362 215.072 146.779 214.32 147.068 213.515C147.494 211.808 150.368 168.684 148.649 160.067C148.251 158.074 148.594 155.518 149.666 152.472C152.596 144.152 156.596 141.595 164.564 136.502C165.21 136.088 165.884 135.657 166.584 135.206C167.49 134.623 167.439 132.689 167.386 130.641C167.327 128.364 167.265 126.01 168.378 124.539L168.451 124.443L168.567 124.416C171.259 123.792 180.311 122.635 185.672 124.424L185.746 124.45L185.802 124.505C187.075 125.781 187.191 128.253 187.303 130.643C187.395 132.606 187.482 134.459 188.203 135.264C193.711 141.417 199.958 141.297 200.021 141.296L200.331 141.287L200.361 141.595C202.757 166.018 206.62 202.88 207.44 204.331C207.483 204.397 207.507 204.474 207.51 204.553C207.512 204.632 207.493 204.711 207.454 204.78C206.249 207.036 150.964 219.016 146.825 219.016Z" fill="#024EFB"/>
<path d="M182.803 117.503C191.825 117.503 199.139 110.173 199.139 101.131C199.139 92.0887 191.825 84.7588 182.803 84.7588C173.78 84.7588 166.466 92.0887 166.466 101.131C166.466 110.173 173.78 117.503 182.803 117.503Z" fill="#FFB8B8"/>
<path d="M193.717 131.058C192.942 129.949 189.014 116.411 187.293 112.256C187.117 113.149 185.144 116.611 185.098 117.533L185.08 117.874L184.742 117.918C184.234 117.983 172.218 119.445 165.965 112.339C162.26 108.13 161.42 101.817 163.465 93.5708C163.093 93.4976 162.736 93.3601 162.412 93.1644C161.871 92.7893 161.418 92.3006 161.085 91.7322C160.753 91.1639 160.547 90.5296 160.484 89.8736L160.138 89.9666C158.375 90.4433 156.386 91.074 155.102 92.53C153.672 94.1492 153.417 96.3494 153.147 98.6784C153.042 99.7903 152.867 100.895 152.623 101.984C151.752 105.507 149.299 108.806 145.333 111.79C141.34 114.795 137.269 116.514 133.233 116.899C128.466 117.355 123.868 115.785 120.939 112.703C117.672 109.268 116.817 103.982 118.906 100.135L119.243 99.5152L119.612 100.116C121.471 103.14 125.535 104.774 129.494 104.087C132.889 103.499 136.254 101.338 138.97 98.0045C141.45 94.9612 143.16 91.367 144.814 87.891C146.496 84.3567 148.235 80.7019 150.741 77.6007C153.567 74.1027 157.094 71.8184 160.672 71.1676C163.277 70.6957 165.603 71.2307 167.052 72.6384C168.076 73.6961 168.682 75.0902 168.759 76.5619C169.65 76.3623 170.579 76.4159 171.442 76.7164C172.274 77.0556 172.999 77.6141 173.539 78.3326C174.08 79.0511 174.417 79.9029 174.514 80.7977C179.764 78.0303 186.713 78.4806 190.306 80.5569C191.811 81.4264 192.675 82.5215 192.828 83.7431C197.073 83.9807 201.638 88.1242 201.638 93.9947V94.4035H201.23C197.871 94.4035 194.804 96.3398 193.026 99.5826C191.982 101.473 191.465 103.609 191.53 105.768C191.595 107.927 192.239 110.029 193.395 111.853C194.652 113.787 195.511 115.954 195.92 118.225C196.329 120.497 196.281 122.828 195.777 125.081L194.244 131.812L193.717 131.058Z" fill="#2F2E41"/>
<path d="M212.471 192.287L201.702 186.216C182.923 173.172 178.298 162.814 177.719 156.418C177.102 149.593 180.73 145.861 180.885 145.706L180.969 145.644L190.677 140.673C191.91 140.042 193.263 139.681 194.646 139.613C196.029 139.545 197.41 139.773 198.699 140.281C199.987 140.789 201.153 141.566 202.12 142.56C203.086 143.554 203.83 144.742 204.304 146.047L213.283 170.795L223.238 163.437L227.484 161.76L230.91 157.169L240.319 151.669L247.308 157.974L238.518 175.592L233.634 176.838L232.598 179.512L232.506 179.571L212.471 192.287Z" fill="#024EFB"/>
</svg>
